%TF.GenerationSoftware,KiCad,Pcbnew,(5.1.10)-1*%
%TF.CreationDate,2021-07-28T22:43:10+09:30*%
%TF.ProjectId,System4cpu,53797374-656d-4346-9370-752e6b696361,rev?*%
%TF.SameCoordinates,Original*%
%TF.FileFunction,Legend,Top*%
%TF.FilePolarity,Positive*%
%FSLAX46Y46*%
G04 Gerber Fmt 4.6, Leading zero omitted, Abs format (unit mm)*
G04 Created by KiCad (PCBNEW (5.1.10)-1) date 2021-07-28 22:43:10*
%MOMM*%
%LPD*%
G01*
G04 APERTURE LIST*
%ADD10C,0.150000*%
%ADD11C,0.120000*%
%ADD12C,2.800000*%
%ADD13O,1.700000X1.700000*%
%ADD14C,1.700000*%
%ADD15C,1.800000*%
%ADD16O,1.800000X1.800000*%
%ADD17C,1.650000*%
%ADD18C,2.950000*%
G04 APERTURE END LIST*
D10*
X78598809Y-134406666D02*
X79075000Y-134406666D01*
X78503571Y-134692380D02*
X78836904Y-133692380D01*
X79170238Y-134692380D01*
X79932142Y-134644761D02*
X79836904Y-134692380D01*
X79646428Y-134692380D01*
X79551190Y-134644761D01*
X79503571Y-134597142D01*
X79455952Y-134501904D01*
X79455952Y-134216190D01*
X79503571Y-134120952D01*
X79551190Y-134073333D01*
X79646428Y-134025714D01*
X79836904Y-134025714D01*
X79932142Y-134073333D01*
X80503571Y-134692380D02*
X80408333Y-134644761D01*
X80360714Y-134597142D01*
X80313095Y-134501904D01*
X80313095Y-134216190D01*
X80360714Y-134120952D01*
X80408333Y-134073333D01*
X80503571Y-134025714D01*
X80646428Y-134025714D01*
X80741666Y-134073333D01*
X80789285Y-134120952D01*
X80836904Y-134216190D01*
X80836904Y-134501904D01*
X80789285Y-134597142D01*
X80741666Y-134644761D01*
X80646428Y-134692380D01*
X80503571Y-134692380D01*
X81265476Y-134692380D02*
X81265476Y-134025714D01*
X81265476Y-134216190D02*
X81313095Y-134120952D01*
X81360714Y-134073333D01*
X81455952Y-134025714D01*
X81551190Y-134025714D01*
X81884523Y-134025714D02*
X81884523Y-134692380D01*
X81884523Y-134120952D02*
X81932142Y-134073333D01*
X82027380Y-134025714D01*
X82170238Y-134025714D01*
X82265476Y-134073333D01*
X82313095Y-134168571D01*
X82313095Y-134692380D01*
X83503571Y-134644761D02*
X83646428Y-134692380D01*
X83884523Y-134692380D01*
X83979761Y-134644761D01*
X84027380Y-134597142D01*
X84075000Y-134501904D01*
X84075000Y-134406666D01*
X84027380Y-134311428D01*
X83979761Y-134263809D01*
X83884523Y-134216190D01*
X83694047Y-134168571D01*
X83598809Y-134120952D01*
X83551190Y-134073333D01*
X83503571Y-133978095D01*
X83503571Y-133882857D01*
X83551190Y-133787619D01*
X83598809Y-133740000D01*
X83694047Y-133692380D01*
X83932142Y-133692380D01*
X84075000Y-133740000D01*
X84408333Y-134025714D02*
X84646428Y-134692380D01*
X84884523Y-134025714D02*
X84646428Y-134692380D01*
X84551190Y-134930476D01*
X84503571Y-134978095D01*
X84408333Y-135025714D01*
X85217857Y-134644761D02*
X85313095Y-134692380D01*
X85503571Y-134692380D01*
X85598809Y-134644761D01*
X85646428Y-134549523D01*
X85646428Y-134501904D01*
X85598809Y-134406666D01*
X85503571Y-134359047D01*
X85360714Y-134359047D01*
X85265476Y-134311428D01*
X85217857Y-134216190D01*
X85217857Y-134168571D01*
X85265476Y-134073333D01*
X85360714Y-134025714D01*
X85503571Y-134025714D01*
X85598809Y-134073333D01*
X85932142Y-134025714D02*
X86313095Y-134025714D01*
X86075000Y-133692380D02*
X86075000Y-134549523D01*
X86122619Y-134644761D01*
X86217857Y-134692380D01*
X86313095Y-134692380D01*
X87027380Y-134644761D02*
X86932142Y-134692380D01*
X86741666Y-134692380D01*
X86646428Y-134644761D01*
X86598809Y-134549523D01*
X86598809Y-134168571D01*
X86646428Y-134073333D01*
X86741666Y-134025714D01*
X86932142Y-134025714D01*
X87027380Y-134073333D01*
X87075000Y-134168571D01*
X87075000Y-134263809D01*
X86598809Y-134359047D01*
X87503571Y-134692380D02*
X87503571Y-134025714D01*
X87503571Y-134120952D02*
X87551190Y-134073333D01*
X87646428Y-134025714D01*
X87789285Y-134025714D01*
X87884523Y-134073333D01*
X87932142Y-134168571D01*
X87932142Y-134692380D01*
X87932142Y-134168571D02*
X87979761Y-134073333D01*
X88075000Y-134025714D01*
X88217857Y-134025714D01*
X88313095Y-134073333D01*
X88360714Y-134168571D01*
X88360714Y-134692380D01*
X90027380Y-134025714D02*
X90027380Y-134692380D01*
X89789285Y-133644761D02*
X89551190Y-134359047D01*
X90170238Y-134359047D01*
X91741666Y-133692380D02*
X91551190Y-133692380D01*
X91455952Y-133740000D01*
X91408333Y-133787619D01*
X91313095Y-133930476D01*
X91265476Y-134120952D01*
X91265476Y-134501904D01*
X91313095Y-134597142D01*
X91360714Y-134644761D01*
X91455952Y-134692380D01*
X91646428Y-134692380D01*
X91741666Y-134644761D01*
X91789285Y-134597142D01*
X91836904Y-134501904D01*
X91836904Y-134263809D01*
X91789285Y-134168571D01*
X91741666Y-134120952D01*
X91646428Y-134073333D01*
X91455952Y-134073333D01*
X91360714Y-134120952D01*
X91313095Y-134168571D01*
X91265476Y-134263809D01*
X92741666Y-133692380D02*
X92265476Y-133692380D01*
X92217857Y-134168571D01*
X92265476Y-134120952D01*
X92360714Y-134073333D01*
X92598809Y-134073333D01*
X92694047Y-134120952D01*
X92741666Y-134168571D01*
X92789285Y-134263809D01*
X92789285Y-134501904D01*
X92741666Y-134597142D01*
X92694047Y-134644761D01*
X92598809Y-134692380D01*
X92360714Y-134692380D01*
X92265476Y-134644761D01*
X92217857Y-134597142D01*
X93789285Y-134597142D02*
X93741666Y-134644761D01*
X93598809Y-134692380D01*
X93503571Y-134692380D01*
X93360714Y-134644761D01*
X93265476Y-134549523D01*
X93217857Y-134454285D01*
X93170238Y-134263809D01*
X93170238Y-134120952D01*
X93217857Y-133930476D01*
X93265476Y-133835238D01*
X93360714Y-133740000D01*
X93503571Y-133692380D01*
X93598809Y-133692380D01*
X93741666Y-133740000D01*
X93789285Y-133787619D01*
X94741666Y-134692380D02*
X94170238Y-134692380D01*
X94455952Y-134692380D02*
X94455952Y-133692380D01*
X94360714Y-133835238D01*
X94265476Y-133930476D01*
X94170238Y-133978095D01*
X95360714Y-133692380D02*
X95455952Y-133692380D01*
X95551190Y-133740000D01*
X95598809Y-133787619D01*
X95646428Y-133882857D01*
X95694047Y-134073333D01*
X95694047Y-134311428D01*
X95646428Y-134501904D01*
X95598809Y-134597142D01*
X95551190Y-134644761D01*
X95455952Y-134692380D01*
X95360714Y-134692380D01*
X95265476Y-134644761D01*
X95217857Y-134597142D01*
X95170238Y-134501904D01*
X95122619Y-134311428D01*
X95122619Y-134073333D01*
X95170238Y-133882857D01*
X95217857Y-133787619D01*
X95265476Y-133740000D01*
X95360714Y-133692380D01*
X96074999Y-133787619D02*
X96122619Y-133740000D01*
X96217857Y-133692380D01*
X96455952Y-133692380D01*
X96551190Y-133740000D01*
X96598809Y-133787619D01*
X96646428Y-133882857D01*
X96646428Y-133978095D01*
X96598809Y-134120952D01*
X96027380Y-134692380D01*
X96646428Y-134692380D01*
X98408333Y-134597142D02*
X98360714Y-134644761D01*
X98217857Y-134692380D01*
X98122619Y-134692380D01*
X97979761Y-134644761D01*
X97884523Y-134549523D01*
X97836904Y-134454285D01*
X97789285Y-134263809D01*
X97789285Y-134120952D01*
X97836904Y-133930476D01*
X97884523Y-133835238D01*
X97979761Y-133740000D01*
X98122619Y-133692380D01*
X98217857Y-133692380D01*
X98360714Y-133740000D01*
X98408333Y-133787619D01*
X98836904Y-134692380D02*
X98836904Y-133692380D01*
X99217857Y-133692380D01*
X99313095Y-133740000D01*
X99360714Y-133787619D01*
X99408333Y-133882857D01*
X99408333Y-134025714D01*
X99360714Y-134120952D01*
X99313095Y-134168571D01*
X99217857Y-134216190D01*
X98836904Y-134216190D01*
X99836904Y-133692380D02*
X99836904Y-134501904D01*
X99884523Y-134597142D01*
X99932142Y-134644761D01*
X100027380Y-134692380D01*
X100217857Y-134692380D01*
X100313095Y-134644761D01*
X100360714Y-134597142D01*
X100408333Y-134501904D01*
X100408333Y-133692380D01*
X101979761Y-134168571D02*
X102122619Y-134216190D01*
X102170238Y-134263809D01*
X102217857Y-134359047D01*
X102217857Y-134501904D01*
X102170238Y-134597142D01*
X102122619Y-134644761D01*
X102027380Y-134692380D01*
X101646428Y-134692380D01*
X101646428Y-133692380D01*
X101979761Y-133692380D01*
X102074999Y-133740000D01*
X102122619Y-133787619D01*
X102170238Y-133882857D01*
X102170238Y-133978095D01*
X102122619Y-134073333D01*
X102074999Y-134120952D01*
X101979761Y-134168571D01*
X101646428Y-134168571D01*
X102789285Y-134692380D02*
X102694047Y-134644761D01*
X102646428Y-134597142D01*
X102598809Y-134501904D01*
X102598809Y-134216190D01*
X102646428Y-134120952D01*
X102694047Y-134073333D01*
X102789285Y-134025714D01*
X102932142Y-134025714D01*
X103027380Y-134073333D01*
X103074999Y-134120952D01*
X103122619Y-134216190D01*
X103122619Y-134501904D01*
X103074999Y-134597142D01*
X103027380Y-134644761D01*
X102932142Y-134692380D01*
X102789285Y-134692380D01*
X103979761Y-134692380D02*
X103979761Y-134168571D01*
X103932142Y-134073333D01*
X103836904Y-134025714D01*
X103646428Y-134025714D01*
X103551190Y-134073333D01*
X103979761Y-134644761D02*
X103884523Y-134692380D01*
X103646428Y-134692380D01*
X103551190Y-134644761D01*
X103503571Y-134549523D01*
X103503571Y-134454285D01*
X103551190Y-134359047D01*
X103646428Y-134311428D01*
X103884523Y-134311428D01*
X103979761Y-134263809D01*
X104455952Y-134692380D02*
X104455952Y-134025714D01*
X104455952Y-134216190D02*
X104503571Y-134120952D01*
X104551190Y-134073333D01*
X104646428Y-134025714D01*
X104741666Y-134025714D01*
X105503571Y-134692380D02*
X105503571Y-133692380D01*
X105503571Y-134644761D02*
X105408333Y-134692380D01*
X105217857Y-134692380D01*
X105122619Y-134644761D01*
X105074999Y-134597142D01*
X105027380Y-134501904D01*
X105027380Y-134216190D01*
X105074999Y-134120952D01*
X105122619Y-134073333D01*
X105217857Y-134025714D01*
X105408333Y-134025714D01*
X105503571Y-134073333D01*
X83122619Y-136056666D02*
X83598809Y-136056666D01*
X83027380Y-136342380D02*
X83360714Y-135342380D01*
X83694047Y-136342380D01*
X84170238Y-136342380D02*
X84075000Y-136294761D01*
X84027380Y-136199523D01*
X84027380Y-135342380D01*
X84979761Y-136342380D02*
X84979761Y-135818571D01*
X84932142Y-135723333D01*
X84836904Y-135675714D01*
X84646428Y-135675714D01*
X84551190Y-135723333D01*
X84979761Y-136294761D02*
X84884523Y-136342380D01*
X84646428Y-136342380D01*
X84551190Y-136294761D01*
X84503571Y-136199523D01*
X84503571Y-136104285D01*
X84551190Y-136009047D01*
X84646428Y-135961428D01*
X84884523Y-135961428D01*
X84979761Y-135913809D01*
X85455952Y-135675714D02*
X85455952Y-136342380D01*
X85455952Y-135770952D02*
X85503571Y-135723333D01*
X85598809Y-135675714D01*
X85741666Y-135675714D01*
X85836904Y-135723333D01*
X85884523Y-135818571D01*
X85884523Y-136342380D01*
X87027380Y-135342380D02*
X87265476Y-136342380D01*
X87455952Y-135628095D01*
X87646428Y-136342380D01*
X87884523Y-135342380D01*
X88265476Y-136342380D02*
X88265476Y-135675714D01*
X88265476Y-135342380D02*
X88217857Y-135390000D01*
X88265476Y-135437619D01*
X88313095Y-135390000D01*
X88265476Y-135342380D01*
X88265476Y-135437619D01*
X88884523Y-136342380D02*
X88789285Y-136294761D01*
X88741666Y-136199523D01*
X88741666Y-135342380D01*
X89408333Y-136342380D02*
X89313095Y-136294761D01*
X89265476Y-136199523D01*
X89265476Y-135342380D01*
X89789285Y-136342380D02*
X89789285Y-135675714D01*
X89789285Y-135342380D02*
X89741666Y-135390000D01*
X89789285Y-135437619D01*
X89836904Y-135390000D01*
X89789285Y-135342380D01*
X89789285Y-135437619D01*
X90694047Y-136342380D02*
X90694047Y-135818571D01*
X90646428Y-135723333D01*
X90551190Y-135675714D01*
X90360714Y-135675714D01*
X90265476Y-135723333D01*
X90694047Y-136294761D02*
X90598809Y-136342380D01*
X90360714Y-136342380D01*
X90265476Y-136294761D01*
X90217857Y-136199523D01*
X90217857Y-136104285D01*
X90265476Y-136009047D01*
X90360714Y-135961428D01*
X90598809Y-135961428D01*
X90694047Y-135913809D01*
X91170238Y-136342380D02*
X91170238Y-135675714D01*
X91170238Y-135770952D02*
X91217857Y-135723333D01*
X91313095Y-135675714D01*
X91455952Y-135675714D01*
X91551190Y-135723333D01*
X91598809Y-135818571D01*
X91598809Y-136342380D01*
X91598809Y-135818571D02*
X91646428Y-135723333D01*
X91741666Y-135675714D01*
X91884523Y-135675714D01*
X91979761Y-135723333D01*
X92027380Y-135818571D01*
X92027380Y-136342380D01*
X92455952Y-136294761D02*
X92551190Y-136342380D01*
X92741666Y-136342380D01*
X92836904Y-136294761D01*
X92884523Y-136199523D01*
X92884523Y-136151904D01*
X92836904Y-136056666D01*
X92741666Y-136009047D01*
X92598809Y-136009047D01*
X92503571Y-135961428D01*
X92455952Y-135866190D01*
X92455952Y-135818571D01*
X92503571Y-135723333D01*
X92598809Y-135675714D01*
X92741666Y-135675714D01*
X92836904Y-135723333D01*
X94075000Y-136342380D02*
X94075000Y-135342380D01*
X94408333Y-136056666D01*
X94741666Y-135342380D01*
X94741666Y-136342380D01*
X95646428Y-136342380D02*
X95646428Y-135818571D01*
X95598809Y-135723333D01*
X95503571Y-135675714D01*
X95313095Y-135675714D01*
X95217857Y-135723333D01*
X95646428Y-136294761D02*
X95551190Y-136342380D01*
X95313095Y-136342380D01*
X95217857Y-136294761D01*
X95170238Y-136199523D01*
X95170238Y-136104285D01*
X95217857Y-136009047D01*
X95313095Y-135961428D01*
X95551190Y-135961428D01*
X95646428Y-135913809D01*
X96027380Y-135675714D02*
X96265476Y-136342380D01*
X96503571Y-135675714D02*
X96265476Y-136342380D01*
X96170238Y-136580476D01*
X96122619Y-136628095D01*
X96027380Y-136675714D01*
X97598809Y-135437619D02*
X97646428Y-135390000D01*
X97741666Y-135342380D01*
X97979761Y-135342380D01*
X98074999Y-135390000D01*
X98122619Y-135437619D01*
X98170238Y-135532857D01*
X98170238Y-135628095D01*
X98122619Y-135770952D01*
X97551190Y-136342380D01*
X98170238Y-136342380D01*
X98789285Y-135342380D02*
X98884523Y-135342380D01*
X98979761Y-135390000D01*
X99027380Y-135437619D01*
X99074999Y-135532857D01*
X99122619Y-135723333D01*
X99122619Y-135961428D01*
X99074999Y-136151904D01*
X99027380Y-136247142D01*
X98979761Y-136294761D01*
X98884523Y-136342380D01*
X98789285Y-136342380D01*
X98694047Y-136294761D01*
X98646428Y-136247142D01*
X98598809Y-136151904D01*
X98551190Y-135961428D01*
X98551190Y-135723333D01*
X98598809Y-135532857D01*
X98646428Y-135437619D01*
X98694047Y-135390000D01*
X98789285Y-135342380D01*
X99503571Y-135437619D02*
X99551190Y-135390000D01*
X99646428Y-135342380D01*
X99884523Y-135342380D01*
X99979761Y-135390000D01*
X100027380Y-135437619D01*
X100074999Y-135532857D01*
X100074999Y-135628095D01*
X100027380Y-135770952D01*
X99455952Y-136342380D01*
X100074999Y-136342380D01*
X101027380Y-136342380D02*
X100455952Y-136342380D01*
X100741666Y-136342380D02*
X100741666Y-135342380D01*
X100646428Y-135485238D01*
X100551190Y-135580476D01*
X100455952Y-135628095D01*
X85170238Y-136992380D02*
X84979761Y-136992380D01*
X84884523Y-137040000D01*
X84836904Y-137087619D01*
X84741666Y-137230476D01*
X84694047Y-137420952D01*
X84694047Y-137801904D01*
X84741666Y-137897142D01*
X84789285Y-137944761D01*
X84884523Y-137992380D01*
X85075000Y-137992380D01*
X85170238Y-137944761D01*
X85217857Y-137897142D01*
X85265476Y-137801904D01*
X85265476Y-137563809D01*
X85217857Y-137468571D01*
X85170238Y-137420952D01*
X85075000Y-137373333D01*
X84884523Y-137373333D01*
X84789285Y-137420952D01*
X84741666Y-137468571D01*
X84694047Y-137563809D01*
X86122619Y-137325714D02*
X86122619Y-137992380D01*
X85884523Y-136944761D02*
X85646428Y-137659047D01*
X86265476Y-137659047D01*
X86646428Y-137992380D02*
X86646428Y-136992380D01*
X87217857Y-137992380D02*
X86789285Y-137420952D01*
X87217857Y-136992380D02*
X86646428Y-137563809D01*
X88979761Y-137992380D02*
X88646428Y-137516190D01*
X88408333Y-137992380D02*
X88408333Y-136992380D01*
X88789285Y-136992380D01*
X88884523Y-137040000D01*
X88932142Y-137087619D01*
X88979761Y-137182857D01*
X88979761Y-137325714D01*
X88932142Y-137420952D01*
X88884523Y-137468571D01*
X88789285Y-137516190D01*
X88408333Y-137516190D01*
X89360714Y-137706666D02*
X89836904Y-137706666D01*
X89265476Y-137992380D02*
X89598809Y-136992380D01*
X89932142Y-137992380D01*
X90265476Y-137992380D02*
X90265476Y-136992380D01*
X90598809Y-137706666D01*
X90932142Y-136992380D01*
X90932142Y-137992380D01*
X92884523Y-136944761D02*
X92027380Y-138230476D01*
X94122619Y-137420952D02*
X94027380Y-137373333D01*
X93979761Y-137325714D01*
X93932142Y-137230476D01*
X93932142Y-137182857D01*
X93979761Y-137087619D01*
X94027380Y-137040000D01*
X94122619Y-136992380D01*
X94313095Y-136992380D01*
X94408333Y-137040000D01*
X94455952Y-137087619D01*
X94503571Y-137182857D01*
X94503571Y-137230476D01*
X94455952Y-137325714D01*
X94408333Y-137373333D01*
X94313095Y-137420952D01*
X94122619Y-137420952D01*
X94027380Y-137468571D01*
X93979761Y-137516190D01*
X93932142Y-137611428D01*
X93932142Y-137801904D01*
X93979761Y-137897142D01*
X94027380Y-137944761D01*
X94122619Y-137992380D01*
X94313095Y-137992380D01*
X94408333Y-137944761D01*
X94455952Y-137897142D01*
X94503571Y-137801904D01*
X94503571Y-137611428D01*
X94455952Y-137516190D01*
X94408333Y-137468571D01*
X94313095Y-137420952D01*
X94932142Y-137992380D02*
X94932142Y-136992380D01*
X95503571Y-137992380D02*
X95075000Y-137420952D01*
X95503571Y-136992380D02*
X94932142Y-137563809D01*
X97265476Y-137992380D02*
X96932142Y-137516190D01*
X96694047Y-137992380D02*
X96694047Y-136992380D01*
X97075000Y-136992380D01*
X97170238Y-137040000D01*
X97217857Y-137087619D01*
X97265476Y-137182857D01*
X97265476Y-137325714D01*
X97217857Y-137420952D01*
X97170238Y-137468571D01*
X97075000Y-137516190D01*
X96694047Y-137516190D01*
X97884523Y-136992380D02*
X98075000Y-136992380D01*
X98170238Y-137040000D01*
X98265476Y-137135238D01*
X98313095Y-137325714D01*
X98313095Y-137659047D01*
X98265476Y-137849523D01*
X98170238Y-137944761D01*
X98075000Y-137992380D01*
X97884523Y-137992380D01*
X97789285Y-137944761D01*
X97694047Y-137849523D01*
X97646428Y-137659047D01*
X97646428Y-137325714D01*
X97694047Y-137135238D01*
X97789285Y-137040000D01*
X97884523Y-136992380D01*
X98741666Y-137992380D02*
X98741666Y-136992380D01*
X99075000Y-137706666D01*
X99408333Y-136992380D01*
X99408333Y-137992380D01*
D11*
%TO.C,R8*%
X135155000Y-55340000D02*
X137895000Y-55340000D01*
X137895000Y-55340000D02*
X137895000Y-48800000D01*
X137895000Y-48800000D02*
X135155000Y-48800000D01*
X135155000Y-48800000D02*
X135155000Y-55340000D01*
X136525000Y-56110000D02*
X136525000Y-55340000D01*
X136525000Y-48030000D02*
X136525000Y-48800000D01*
%TO.C,U5*%
X87900000Y-47565000D02*
X82440000Y-47565000D01*
X82440000Y-47565000D02*
X82440000Y-98485000D01*
X82440000Y-98485000D02*
X95360000Y-98485000D01*
X95360000Y-98485000D02*
X95360000Y-47565000D01*
X95360000Y-47565000D02*
X89900000Y-47565000D01*
X79950000Y-47505000D02*
X79950000Y-98545000D01*
X79950000Y-98545000D02*
X97850000Y-98545000D01*
X97850000Y-98545000D02*
X97850000Y-47505000D01*
X97850000Y-47505000D02*
X79950000Y-47505000D01*
X89900000Y-47565000D02*
G75*
G02*
X87900000Y-47565000I-1000000J0D01*
G01*
%TO.C,J3*%
X72470000Y-139350000D02*
X65140000Y-139350000D01*
X65140000Y-139350000D02*
X55480000Y-135880000D01*
X55480000Y-135880000D02*
X55480000Y-131690000D01*
X55480000Y-131690000D02*
X59040000Y-131060000D01*
X59040000Y-131060000D02*
X59040000Y-102620000D01*
X59040000Y-102620000D02*
X55480000Y-101990000D01*
X55480000Y-101990000D02*
X55480000Y-97800000D01*
X55480000Y-97800000D02*
X65140000Y-94330000D01*
X65140000Y-94330000D02*
X72470000Y-94330000D01*
X72470000Y-94330000D02*
X72470000Y-139350000D01*
X72860000Y-128270000D02*
X73860000Y-128770000D01*
X73860000Y-128770000D02*
X73860000Y-127770000D01*
X73860000Y-127770000D02*
X72860000Y-128270000D01*
%TO.C,J2*%
X72470000Y-94265000D02*
X65140000Y-94265000D01*
X65140000Y-94265000D02*
X55480000Y-90795000D01*
X55480000Y-90795000D02*
X55480000Y-86605000D01*
X55480000Y-86605000D02*
X59040000Y-85975000D01*
X59040000Y-85975000D02*
X59040000Y-57535000D01*
X59040000Y-57535000D02*
X55480000Y-56905000D01*
X55480000Y-56905000D02*
X55480000Y-52715000D01*
X55480000Y-52715000D02*
X65140000Y-49245000D01*
X65140000Y-49245000D02*
X72470000Y-49245000D01*
X72470000Y-49245000D02*
X72470000Y-94265000D01*
X72860000Y-83185000D02*
X73860000Y-83685000D01*
X73860000Y-83685000D02*
X73860000Y-82685000D01*
X73860000Y-82685000D02*
X72860000Y-83185000D01*
%TO.C,U13*%
X113935000Y-47565000D02*
X108475000Y-47565000D01*
X108475000Y-47565000D02*
X108475000Y-98485000D01*
X108475000Y-98485000D02*
X121395000Y-98485000D01*
X121395000Y-98485000D02*
X121395000Y-47565000D01*
X121395000Y-47565000D02*
X115935000Y-47565000D01*
X105985000Y-47505000D02*
X105985000Y-98545000D01*
X105985000Y-98545000D02*
X123885000Y-98545000D01*
X123885000Y-98545000D02*
X123885000Y-47505000D01*
X123885000Y-47505000D02*
X105985000Y-47505000D01*
X115935000Y-47565000D02*
G75*
G02*
X113935000Y-47565000I-1000000J0D01*
G01*
%TO.C,U12*%
X85995000Y-112335000D02*
X84345000Y-112335000D01*
X84345000Y-112335000D02*
X84345000Y-130235000D01*
X84345000Y-130235000D02*
X89645000Y-130235000D01*
X89645000Y-130235000D02*
X89645000Y-112335000D01*
X89645000Y-112335000D02*
X87995000Y-112335000D01*
X81855000Y-112275000D02*
X81855000Y-130295000D01*
X81855000Y-130295000D02*
X92135000Y-130295000D01*
X92135000Y-130295000D02*
X92135000Y-112275000D01*
X92135000Y-112275000D02*
X81855000Y-112275000D01*
X87995000Y-112335000D02*
G75*
G02*
X85995000Y-112335000I-1000000J0D01*
G01*
%TO.C,U11*%
X137430000Y-112335000D02*
X135780000Y-112335000D01*
X135780000Y-112335000D02*
X135780000Y-130235000D01*
X135780000Y-130235000D02*
X141080000Y-130235000D01*
X141080000Y-130235000D02*
X141080000Y-112335000D01*
X141080000Y-112335000D02*
X139430000Y-112335000D01*
X133290000Y-112275000D02*
X133290000Y-130295000D01*
X133290000Y-130295000D02*
X143570000Y-130295000D01*
X143570000Y-130295000D02*
X143570000Y-112275000D01*
X143570000Y-112275000D02*
X133290000Y-112275000D01*
X139430000Y-112335000D02*
G75*
G02*
X137430000Y-112335000I-1000000J0D01*
G01*
%TO.C,U10*%
X120285000Y-109795000D02*
X118635000Y-109795000D01*
X118635000Y-109795000D02*
X118635000Y-130235000D01*
X118635000Y-130235000D02*
X123935000Y-130235000D01*
X123935000Y-130235000D02*
X123935000Y-109795000D01*
X123935000Y-109795000D02*
X122285000Y-109795000D01*
X116145000Y-109735000D02*
X116145000Y-130295000D01*
X116145000Y-130295000D02*
X126425000Y-130295000D01*
X126425000Y-130295000D02*
X126425000Y-109735000D01*
X126425000Y-109735000D02*
X116145000Y-109735000D01*
X122285000Y-109795000D02*
G75*
G02*
X120285000Y-109795000I-1000000J0D01*
G01*
%TO.C,U9*%
X102505000Y-109795000D02*
X100855000Y-109795000D01*
X100855000Y-109795000D02*
X100855000Y-130235000D01*
X100855000Y-130235000D02*
X106155000Y-130235000D01*
X106155000Y-130235000D02*
X106155000Y-109795000D01*
X106155000Y-109795000D02*
X104505000Y-109795000D01*
X98365000Y-109735000D02*
X98365000Y-130295000D01*
X98365000Y-130295000D02*
X108645000Y-130295000D01*
X108645000Y-130295000D02*
X108645000Y-109735000D01*
X108645000Y-109735000D02*
X98365000Y-109735000D01*
X104505000Y-109795000D02*
G75*
G02*
X102505000Y-109795000I-1000000J0D01*
G01*
%TO.C,U8*%
X156480000Y-112335000D02*
X154830000Y-112335000D01*
X154830000Y-112335000D02*
X154830000Y-130235000D01*
X154830000Y-130235000D02*
X160130000Y-130235000D01*
X160130000Y-130235000D02*
X160130000Y-112335000D01*
X160130000Y-112335000D02*
X158480000Y-112335000D01*
X152340000Y-112275000D02*
X152340000Y-130295000D01*
X152340000Y-130295000D02*
X162620000Y-130295000D01*
X162620000Y-130295000D02*
X162620000Y-112275000D01*
X162620000Y-112275000D02*
X152340000Y-112275000D01*
X158480000Y-112335000D02*
G75*
G02*
X156480000Y-112335000I-1000000J0D01*
G01*
%TO.C,U7*%
X143145000Y-47505000D02*
X141375000Y-47505000D01*
X141375000Y-47505000D02*
X141375000Y-88385000D01*
X141375000Y-88385000D02*
X146915000Y-88385000D01*
X146915000Y-88385000D02*
X146915000Y-47505000D01*
X146915000Y-47505000D02*
X145145000Y-47505000D01*
X145145000Y-47505000D02*
G75*
G02*
X143145000Y-47505000I-1000000J0D01*
G01*
%TO.C,U4*%
X196485000Y-111065000D02*
X194835000Y-111065000D01*
X194835000Y-111065000D02*
X194835000Y-136585000D01*
X194835000Y-136585000D02*
X200135000Y-136585000D01*
X200135000Y-136585000D02*
X200135000Y-111065000D01*
X200135000Y-111065000D02*
X198485000Y-111065000D01*
X192345000Y-111005000D02*
X192345000Y-136645000D01*
X192345000Y-136645000D02*
X202625000Y-136645000D01*
X202625000Y-136645000D02*
X202625000Y-111005000D01*
X202625000Y-111005000D02*
X192345000Y-111005000D01*
X198485000Y-111065000D02*
G75*
G02*
X196485000Y-111065000I-1000000J0D01*
G01*
%TO.C,U3*%
X196485000Y-81855000D02*
X194835000Y-81855000D01*
X194835000Y-81855000D02*
X194835000Y-107375000D01*
X194835000Y-107375000D02*
X200135000Y-107375000D01*
X200135000Y-107375000D02*
X200135000Y-81855000D01*
X200135000Y-81855000D02*
X198485000Y-81855000D01*
X192345000Y-81795000D02*
X192345000Y-107435000D01*
X192345000Y-107435000D02*
X202625000Y-107435000D01*
X202625000Y-107435000D02*
X202625000Y-81795000D01*
X202625000Y-81795000D02*
X192345000Y-81795000D01*
X198485000Y-81855000D02*
G75*
G02*
X196485000Y-81855000I-1000000J0D01*
G01*
%TO.C,U2*%
X196485000Y-52645000D02*
X194835000Y-52645000D01*
X194835000Y-52645000D02*
X194835000Y-78165000D01*
X194835000Y-78165000D02*
X200135000Y-78165000D01*
X200135000Y-78165000D02*
X200135000Y-52645000D01*
X200135000Y-52645000D02*
X198485000Y-52645000D01*
X192345000Y-52585000D02*
X192345000Y-78225000D01*
X192345000Y-78225000D02*
X202625000Y-78225000D01*
X202625000Y-78225000D02*
X202625000Y-52585000D01*
X202625000Y-52585000D02*
X192345000Y-52585000D01*
X198485000Y-52645000D02*
G75*
G02*
X196485000Y-52645000I-1000000J0D01*
G01*
%TO.C,U1*%
X176165000Y-112335000D02*
X174515000Y-112335000D01*
X174515000Y-112335000D02*
X174515000Y-130235000D01*
X174515000Y-130235000D02*
X179815000Y-130235000D01*
X179815000Y-130235000D02*
X179815000Y-112335000D01*
X179815000Y-112335000D02*
X178165000Y-112335000D01*
X172025000Y-112275000D02*
X172025000Y-130295000D01*
X172025000Y-130295000D02*
X182305000Y-130295000D01*
X182305000Y-130295000D02*
X182305000Y-112275000D01*
X182305000Y-112275000D02*
X172025000Y-112275000D01*
X178165000Y-112335000D02*
G75*
G02*
X176165000Y-112335000I-1000000J0D01*
G01*
%TO.C,RN1*%
X207515000Y-110025000D02*
X210315000Y-110025000D01*
X210315000Y-110025000D02*
X210315000Y-86825000D01*
X210315000Y-86825000D02*
X207515000Y-86825000D01*
X207515000Y-86825000D02*
X207515000Y-110025000D01*
X207515000Y-107315000D02*
X210315000Y-107315000D01*
%TO.C,R7*%
X209650000Y-114205000D02*
X206910000Y-114205000D01*
X206910000Y-114205000D02*
X206910000Y-120745000D01*
X206910000Y-120745000D02*
X209650000Y-120745000D01*
X209650000Y-120745000D02*
X209650000Y-114205000D01*
X208280000Y-113435000D02*
X208280000Y-114205000D01*
X208280000Y-121515000D02*
X208280000Y-120745000D01*
%TO.C,R6*%
X212825000Y-114205000D02*
X210085000Y-114205000D01*
X210085000Y-114205000D02*
X210085000Y-120745000D01*
X210085000Y-120745000D02*
X212825000Y-120745000D01*
X212825000Y-120745000D02*
X212825000Y-114205000D01*
X211455000Y-113435000D02*
X211455000Y-114205000D01*
X211455000Y-121515000D02*
X211455000Y-120745000D01*
%TO.C,R5*%
X103097000Y-44355000D02*
X100357000Y-44355000D01*
X100357000Y-44355000D02*
X100357000Y-50895000D01*
X100357000Y-50895000D02*
X103097000Y-50895000D01*
X103097000Y-50895000D02*
X103097000Y-44355000D01*
X101727000Y-43585000D02*
X101727000Y-44355000D01*
X101727000Y-51665000D02*
X101727000Y-50895000D01*
%TO.C,R4*%
X74957000Y-95345000D02*
X77697000Y-95345000D01*
X77697000Y-95345000D02*
X77697000Y-88805000D01*
X77697000Y-88805000D02*
X74957000Y-88805000D01*
X74957000Y-88805000D02*
X74957000Y-95345000D01*
X76327000Y-96115000D02*
X76327000Y-95345000D01*
X76327000Y-88035000D02*
X76327000Y-88805000D01*
%TO.C,R3*%
X77697000Y-74708000D02*
X74957000Y-74708000D01*
X74957000Y-74708000D02*
X74957000Y-81248000D01*
X74957000Y-81248000D02*
X77697000Y-81248000D01*
X77697000Y-81248000D02*
X77697000Y-74708000D01*
X76327000Y-73938000D02*
X76327000Y-74708000D01*
X76327000Y-82018000D02*
X76327000Y-81248000D01*
%TO.C,R2*%
X74703000Y-63595000D02*
X77443000Y-63595000D01*
X77443000Y-63595000D02*
X77443000Y-57055000D01*
X77443000Y-57055000D02*
X74703000Y-57055000D01*
X74703000Y-57055000D02*
X74703000Y-63595000D01*
X76073000Y-64365000D02*
X76073000Y-63595000D01*
X76073000Y-56285000D02*
X76073000Y-57055000D01*
%TO.C,R1*%
X183615000Y-99600000D02*
X180875000Y-99600000D01*
X180875000Y-99600000D02*
X180875000Y-106140000D01*
X180875000Y-106140000D02*
X183615000Y-106140000D01*
X183615000Y-106140000D02*
X183615000Y-99600000D01*
X182245000Y-98830000D02*
X182245000Y-99600000D01*
X182245000Y-106910000D02*
X182245000Y-106140000D01*
%TO.C,J4*%
X74990000Y-41850000D02*
X72330000Y-41850000D01*
X74990000Y-44450000D02*
X74990000Y-41850000D01*
X72330000Y-44450000D02*
X72330000Y-41850000D01*
X74990000Y-44450000D02*
X72330000Y-44450000D01*
X74990000Y-45720000D02*
X74990000Y-47050000D01*
X74990000Y-47050000D02*
X73660000Y-47050000D01*
%TO.C,J1*%
X223740000Y-42275000D02*
X218180000Y-42275000D01*
X218180000Y-42275000D02*
X218180000Y-47795000D01*
X218180000Y-47795000D02*
X219180000Y-47795000D01*
X223740000Y-136795000D02*
X218180000Y-136795000D01*
X218180000Y-136795000D02*
X218180000Y-131275000D01*
X218180000Y-131275000D02*
X219180000Y-131275000D01*
X219180000Y-47794000D02*
X219180000Y-49070000D01*
X219180000Y-51260000D02*
X219180000Y-51836000D01*
X219180000Y-53575000D02*
X219180000Y-54376000D01*
X219180000Y-56115000D02*
X219180000Y-56916000D01*
X219180000Y-58655000D02*
X219180000Y-59456000D01*
X219180000Y-61195000D02*
X219180000Y-61996000D01*
X219180000Y-63735000D02*
X219180000Y-64536000D01*
X219180000Y-66275000D02*
X219180000Y-67076000D01*
X219180000Y-68815000D02*
X219180000Y-69616000D01*
X219180000Y-71355000D02*
X219180000Y-72156000D01*
X219180000Y-73895000D02*
X219180000Y-74696000D01*
X219180000Y-76435000D02*
X219180000Y-77236000D01*
X219180000Y-78975000D02*
X219180000Y-79776000D01*
X219180000Y-81515000D02*
X219180000Y-82316000D01*
X219180000Y-84055000D02*
X219180000Y-84856000D01*
X219180000Y-86595000D02*
X219180000Y-87396000D01*
X219180000Y-89135000D02*
X219180000Y-89936000D01*
X219180000Y-91675000D02*
X219180000Y-92476000D01*
X219180000Y-94215000D02*
X219180000Y-95016000D01*
X219180000Y-96755000D02*
X219180000Y-97556000D01*
X219180000Y-99295000D02*
X219180000Y-100096000D01*
X219180000Y-101835000D02*
X219180000Y-102636000D01*
X219180000Y-104375000D02*
X219180000Y-105176000D01*
X219180000Y-106915000D02*
X219180000Y-107716000D01*
X219180000Y-109455000D02*
X219180000Y-110256000D01*
X219180000Y-111995000D02*
X219180000Y-112796000D01*
X219180000Y-114535000D02*
X219180000Y-115336000D01*
X219180000Y-117075000D02*
X219180000Y-117876000D01*
X219180000Y-119615000D02*
X219180000Y-120416000D01*
X219180000Y-122155000D02*
X219180000Y-122956000D01*
X219180000Y-124695000D02*
X219180000Y-125496000D01*
X219180000Y-127235000D02*
X219180000Y-128036000D01*
X219180000Y-129775000D02*
X219180000Y-131275000D01*
X218440000Y-49070000D02*
X218740000Y-48470000D01*
X218740000Y-48470000D02*
X218140000Y-48470000D01*
X218140000Y-48470000D02*
X218440000Y-49070000D01*
%TO.C,C14*%
X151665000Y-51285000D02*
X151665000Y-44045000D01*
X154405000Y-51285000D02*
X154405000Y-44045000D01*
X151665000Y-51285000D02*
X154405000Y-51285000D01*
X151665000Y-44045000D02*
X154405000Y-44045000D01*
%TO.C,C13*%
X169010000Y-124690000D02*
X169010000Y-131930000D01*
X166270000Y-124690000D02*
X166270000Y-131930000D01*
X169010000Y-124690000D02*
X166270000Y-124690000D01*
X169010000Y-131930000D02*
X166270000Y-131930000D01*
%TO.C,C12*%
X149325000Y-124690000D02*
X149325000Y-131930000D01*
X146585000Y-124690000D02*
X146585000Y-131930000D01*
X149325000Y-124690000D02*
X146585000Y-124690000D01*
X149325000Y-131930000D02*
X146585000Y-131930000D01*
%TO.C,C11*%
X130910000Y-124610000D02*
X130910000Y-131850000D01*
X128170000Y-124610000D02*
X128170000Y-131850000D01*
X130910000Y-124610000D02*
X128170000Y-124610000D01*
X130910000Y-131850000D02*
X128170000Y-131850000D01*
%TO.C,C10*%
X114400000Y-124690000D02*
X114400000Y-131930000D01*
X111660000Y-124690000D02*
X111660000Y-131930000D01*
X114400000Y-124690000D02*
X111660000Y-124690000D01*
X114400000Y-131930000D02*
X111660000Y-131930000D01*
%TO.C,C9*%
X96620000Y-124610000D02*
X96620000Y-131850000D01*
X93880000Y-124610000D02*
X93880000Y-131850000D01*
X96620000Y-124610000D02*
X93880000Y-124610000D01*
X96620000Y-131850000D02*
X93880000Y-131850000D01*
%TO.C,C8*%
X187425000Y-124690000D02*
X187425000Y-131930000D01*
X184685000Y-124690000D02*
X184685000Y-131930000D01*
X187425000Y-124690000D02*
X184685000Y-124690000D01*
X187425000Y-131930000D02*
X184685000Y-131930000D01*
%TO.C,C7*%
X181510000Y-51285000D02*
X181510000Y-44045000D01*
X184250000Y-51285000D02*
X184250000Y-44045000D01*
X181510000Y-51285000D02*
X184250000Y-51285000D01*
X181510000Y-44045000D02*
X184250000Y-44045000D01*
%TO.C,C6*%
X188495000Y-51285000D02*
X188495000Y-44045000D01*
X191235000Y-51285000D02*
X191235000Y-44045000D01*
X188495000Y-51285000D02*
X191235000Y-51285000D01*
X188495000Y-44045000D02*
X191235000Y-44045000D01*
%TO.C,C5*%
X188495000Y-83035000D02*
X188495000Y-75795000D01*
X191235000Y-83035000D02*
X191235000Y-75795000D01*
X188495000Y-83035000D02*
X191235000Y-83035000D01*
X188495000Y-75795000D02*
X191235000Y-75795000D01*
%TO.C,C4*%
X213420000Y-46990000D02*
G75*
G03*
X213420000Y-46990000I-5120000J0D01*
G01*
X208300000Y-52070000D02*
X208300000Y-41910000D01*
X208260000Y-52070000D02*
X208260000Y-41910000D01*
X208220000Y-52070000D02*
X208220000Y-41910000D01*
X208180000Y-52069000D02*
X208180000Y-41911000D01*
X208140000Y-52068000D02*
X208140000Y-41912000D01*
X208100000Y-52067000D02*
X208100000Y-41913000D01*
X208060000Y-52065000D02*
X208060000Y-48030000D01*
X208060000Y-45950000D02*
X208060000Y-41915000D01*
X208020000Y-52063000D02*
X208020000Y-48030000D01*
X208020000Y-45950000D02*
X208020000Y-41917000D01*
X207980000Y-52060000D02*
X207980000Y-48030000D01*
X207980000Y-45950000D02*
X207980000Y-41920000D01*
X207940000Y-52058000D02*
X207940000Y-48030000D01*
X207940000Y-45950000D02*
X207940000Y-41922000D01*
X207900000Y-52055000D02*
X207900000Y-48030000D01*
X207900000Y-45950000D02*
X207900000Y-41925000D01*
X207860000Y-52052000D02*
X207860000Y-48030000D01*
X207860000Y-45950000D02*
X207860000Y-41928000D01*
X207820000Y-52048000D02*
X207820000Y-48030000D01*
X207820000Y-45950000D02*
X207820000Y-41932000D01*
X207780000Y-52044000D02*
X207780000Y-48030000D01*
X207780000Y-45950000D02*
X207780000Y-41936000D01*
X207740000Y-52040000D02*
X207740000Y-48030000D01*
X207740000Y-45950000D02*
X207740000Y-41940000D01*
X207700000Y-52035000D02*
X207700000Y-48030000D01*
X207700000Y-45950000D02*
X207700000Y-41945000D01*
X207660000Y-52030000D02*
X207660000Y-48030000D01*
X207660000Y-45950000D02*
X207660000Y-41950000D01*
X207620000Y-52025000D02*
X207620000Y-48030000D01*
X207620000Y-45950000D02*
X207620000Y-41955000D01*
X207579000Y-52020000D02*
X207579000Y-48030000D01*
X207579000Y-45950000D02*
X207579000Y-41960000D01*
X207539000Y-52014000D02*
X207539000Y-48030000D01*
X207539000Y-45950000D02*
X207539000Y-41966000D01*
X207499000Y-52008000D02*
X207499000Y-48030000D01*
X207499000Y-45950000D02*
X207499000Y-41972000D01*
X207459000Y-52001000D02*
X207459000Y-48030000D01*
X207459000Y-45950000D02*
X207459000Y-41979000D01*
X207419000Y-51994000D02*
X207419000Y-48030000D01*
X207419000Y-45950000D02*
X207419000Y-41986000D01*
X207379000Y-51987000D02*
X207379000Y-48030000D01*
X207379000Y-45950000D02*
X207379000Y-41993000D01*
X207339000Y-51980000D02*
X207339000Y-48030000D01*
X207339000Y-45950000D02*
X207339000Y-42000000D01*
X207299000Y-51972000D02*
X207299000Y-48030000D01*
X207299000Y-45950000D02*
X207299000Y-42008000D01*
X207259000Y-51964000D02*
X207259000Y-48030000D01*
X207259000Y-45950000D02*
X207259000Y-42016000D01*
X207219000Y-51955000D02*
X207219000Y-48030000D01*
X207219000Y-45950000D02*
X207219000Y-42025000D01*
X207179000Y-51946000D02*
X207179000Y-48030000D01*
X207179000Y-45950000D02*
X207179000Y-42034000D01*
X207139000Y-51937000D02*
X207139000Y-48030000D01*
X207139000Y-45950000D02*
X207139000Y-42043000D01*
X207099000Y-51928000D02*
X207099000Y-48030000D01*
X207099000Y-45950000D02*
X207099000Y-42052000D01*
X207059000Y-51918000D02*
X207059000Y-48030000D01*
X207059000Y-45950000D02*
X207059000Y-42062000D01*
X207019000Y-51908000D02*
X207019000Y-48030000D01*
X207019000Y-45950000D02*
X207019000Y-42072000D01*
X206979000Y-51897000D02*
X206979000Y-48030000D01*
X206979000Y-45950000D02*
X206979000Y-42083000D01*
X206939000Y-51887000D02*
X206939000Y-48030000D01*
X206939000Y-45950000D02*
X206939000Y-42093000D01*
X206899000Y-51875000D02*
X206899000Y-48030000D01*
X206899000Y-45950000D02*
X206899000Y-42105000D01*
X206859000Y-51864000D02*
X206859000Y-48030000D01*
X206859000Y-45950000D02*
X206859000Y-42116000D01*
X206819000Y-51852000D02*
X206819000Y-48030000D01*
X206819000Y-45950000D02*
X206819000Y-42128000D01*
X206779000Y-51840000D02*
X206779000Y-48030000D01*
X206779000Y-45950000D02*
X206779000Y-42140000D01*
X206739000Y-51827000D02*
X206739000Y-48030000D01*
X206739000Y-45950000D02*
X206739000Y-42153000D01*
X206699000Y-51814000D02*
X206699000Y-48030000D01*
X206699000Y-45950000D02*
X206699000Y-42166000D01*
X206659000Y-51801000D02*
X206659000Y-48030000D01*
X206659000Y-45950000D02*
X206659000Y-42179000D01*
X206619000Y-51787000D02*
X206619000Y-48030000D01*
X206619000Y-45950000D02*
X206619000Y-42193000D01*
X206579000Y-51773000D02*
X206579000Y-48030000D01*
X206579000Y-45950000D02*
X206579000Y-42207000D01*
X206539000Y-51758000D02*
X206539000Y-48030000D01*
X206539000Y-45950000D02*
X206539000Y-42222000D01*
X206499000Y-51744000D02*
X206499000Y-48030000D01*
X206499000Y-45950000D02*
X206499000Y-42236000D01*
X206459000Y-51728000D02*
X206459000Y-48030000D01*
X206459000Y-45950000D02*
X206459000Y-42252000D01*
X206419000Y-51713000D02*
X206419000Y-48030000D01*
X206419000Y-45950000D02*
X206419000Y-42267000D01*
X206379000Y-51697000D02*
X206379000Y-48030000D01*
X206379000Y-45950000D02*
X206379000Y-42283000D01*
X206339000Y-51680000D02*
X206339000Y-48030000D01*
X206339000Y-45950000D02*
X206339000Y-42300000D01*
X206299000Y-51664000D02*
X206299000Y-48030000D01*
X206299000Y-45950000D02*
X206299000Y-42316000D01*
X206259000Y-51647000D02*
X206259000Y-48030000D01*
X206259000Y-45950000D02*
X206259000Y-42333000D01*
X206219000Y-51629000D02*
X206219000Y-48030000D01*
X206219000Y-45950000D02*
X206219000Y-42351000D01*
X206179000Y-51611000D02*
X206179000Y-48030000D01*
X206179000Y-45950000D02*
X206179000Y-42369000D01*
X206139000Y-51593000D02*
X206139000Y-48030000D01*
X206139000Y-45950000D02*
X206139000Y-42387000D01*
X206099000Y-51574000D02*
X206099000Y-48030000D01*
X206099000Y-45950000D02*
X206099000Y-42406000D01*
X206059000Y-51554000D02*
X206059000Y-48030000D01*
X206059000Y-45950000D02*
X206059000Y-42426000D01*
X206019000Y-51535000D02*
X206019000Y-48030000D01*
X206019000Y-45950000D02*
X206019000Y-42445000D01*
X205979000Y-51515000D02*
X205979000Y-42465000D01*
X205939000Y-51494000D02*
X205939000Y-42486000D01*
X205899000Y-51473000D02*
X205899000Y-42507000D01*
X205859000Y-51452000D02*
X205859000Y-42528000D01*
X205819000Y-51430000D02*
X205819000Y-42550000D01*
X205779000Y-51407000D02*
X205779000Y-42573000D01*
X205739000Y-51385000D02*
X205739000Y-42595000D01*
X205699000Y-51361000D02*
X205699000Y-42619000D01*
X205659000Y-51337000D02*
X205659000Y-42643000D01*
X205619000Y-51313000D02*
X205619000Y-42667000D01*
X205579000Y-51288000D02*
X205579000Y-42692000D01*
X205539000Y-51263000D02*
X205539000Y-42717000D01*
X205499000Y-51237000D02*
X205499000Y-42743000D01*
X205459000Y-51211000D02*
X205459000Y-42769000D01*
X205419000Y-51184000D02*
X205419000Y-42796000D01*
X205379000Y-51156000D02*
X205379000Y-42824000D01*
X205339000Y-51128000D02*
X205339000Y-42852000D01*
X205299000Y-51100000D02*
X205299000Y-42880000D01*
X205259000Y-51070000D02*
X205259000Y-42910000D01*
X205219000Y-51040000D02*
X205219000Y-42940000D01*
X205179000Y-51010000D02*
X205179000Y-42970000D01*
X205139000Y-50979000D02*
X205139000Y-43001000D01*
X205099000Y-50947000D02*
X205099000Y-43033000D01*
X205059000Y-50915000D02*
X205059000Y-43065000D01*
X205019000Y-50882000D02*
X205019000Y-43098000D01*
X204979000Y-50848000D02*
X204979000Y-43132000D01*
X204939000Y-50814000D02*
X204939000Y-43166000D01*
X204899000Y-50779000D02*
X204899000Y-43201000D01*
X204859000Y-50743000D02*
X204859000Y-43237000D01*
X204819000Y-50706000D02*
X204819000Y-43274000D01*
X204779000Y-50669000D02*
X204779000Y-43311000D01*
X204739000Y-50630000D02*
X204739000Y-43350000D01*
X204699000Y-50591000D02*
X204699000Y-43389000D01*
X204659000Y-50551000D02*
X204659000Y-43429000D01*
X204619000Y-50510000D02*
X204619000Y-43470000D01*
X204579000Y-50468000D02*
X204579000Y-43512000D01*
X204539000Y-50426000D02*
X204539000Y-43554000D01*
X204499000Y-50382000D02*
X204499000Y-43598000D01*
X204459000Y-50337000D02*
X204459000Y-43643000D01*
X204419000Y-50291000D02*
X204419000Y-43689000D01*
X204379000Y-50244000D02*
X204379000Y-43736000D01*
X204339000Y-50196000D02*
X204339000Y-43784000D01*
X204299000Y-50146000D02*
X204299000Y-43834000D01*
X204259000Y-50096000D02*
X204259000Y-43884000D01*
X204219000Y-50044000D02*
X204219000Y-43936000D01*
X204179000Y-49990000D02*
X204179000Y-43990000D01*
X204139000Y-49935000D02*
X204139000Y-44045000D01*
X204099000Y-49879000D02*
X204099000Y-44101000D01*
X204059000Y-49820000D02*
X204059000Y-44160000D01*
X204019000Y-49760000D02*
X204019000Y-44220000D01*
X203979000Y-49699000D02*
X203979000Y-44281000D01*
X203939000Y-49635000D02*
X203939000Y-44345000D01*
X203899000Y-49569000D02*
X203899000Y-44411000D01*
X203859000Y-49500000D02*
X203859000Y-44480000D01*
X203819000Y-49429000D02*
X203819000Y-44551000D01*
X203779000Y-49355000D02*
X203779000Y-44625000D01*
X203739000Y-49279000D02*
X203739000Y-44701000D01*
X203699000Y-49199000D02*
X203699000Y-44781000D01*
X203659000Y-49115000D02*
X203659000Y-44865000D01*
X203619000Y-49027000D02*
X203619000Y-44953000D01*
X203579000Y-48934000D02*
X203579000Y-45046000D01*
X203539000Y-48836000D02*
X203539000Y-45144000D01*
X203499000Y-48732000D02*
X203499000Y-45248000D01*
X203459000Y-48620000D02*
X203459000Y-45360000D01*
X203419000Y-48500000D02*
X203419000Y-45480000D01*
X203379000Y-48368000D02*
X203379000Y-45612000D01*
X203339000Y-48220000D02*
X203339000Y-45760000D01*
X203299000Y-48052000D02*
X203299000Y-45928000D01*
X203259000Y-47852000D02*
X203259000Y-46128000D01*
X203219000Y-47589000D02*
X203219000Y-46391000D01*
X213779646Y-49865000D02*
X212779646Y-49865000D01*
X213279646Y-50365000D02*
X213279646Y-49365000D01*
%TO.C,C3*%
X131345000Y-62715000D02*
X131345000Y-55475000D01*
X134085000Y-62715000D02*
X134085000Y-55475000D01*
X131345000Y-62715000D02*
X134085000Y-62715000D01*
X131345000Y-55475000D02*
X134085000Y-55475000D01*
%TO.C,C2*%
X126515000Y-50065000D02*
X133755000Y-50065000D01*
X126515000Y-52805000D02*
X133755000Y-52805000D01*
X126515000Y-50065000D02*
X126515000Y-52805000D01*
X133755000Y-50065000D02*
X133755000Y-52805000D01*
%TO.C,U6*%
X179765000Y-52585000D02*
X161865000Y-52585000D01*
X179765000Y-88385000D02*
X179765000Y-52585000D01*
X161865000Y-88385000D02*
X179765000Y-88385000D01*
X161865000Y-52585000D02*
X161865000Y-88385000D01*
X177275000Y-52645000D02*
X171815000Y-52645000D01*
X177275000Y-88325000D02*
X177275000Y-52645000D01*
X164355000Y-88325000D02*
X177275000Y-88325000D01*
X164355000Y-52645000D02*
X164355000Y-88325000D01*
X169815000Y-52645000D02*
X164355000Y-52645000D01*
X171815000Y-52645000D02*
G75*
G02*
X169815000Y-52645000I-1000000J0D01*
G01*
%TO.C,Y1*%
X125685000Y-56765000D02*
X125685000Y-61265000D01*
X129585000Y-56765000D02*
X129585000Y-61265000D01*
X125685000Y-56765000D02*
G75*
G02*
X129585000Y-56765000I1950000J0D01*
G01*
X125685000Y-61265000D02*
G75*
G03*
X129585000Y-61265000I1950000J0D01*
G01*
%TO.C,C1*%
X129005000Y-48665000D02*
X126265000Y-48665000D01*
X129005000Y-41425000D02*
X126265000Y-41425000D01*
X126265000Y-41425000D02*
X126265000Y-48665000D01*
X129005000Y-41425000D02*
X129005000Y-48665000D01*
%TO.C,C15*%
X80160000Y-42445000D02*
X87400000Y-42445000D01*
X80160000Y-45185000D02*
X87400000Y-45185000D01*
X80160000Y-42445000D02*
X80160000Y-45185000D01*
X87400000Y-42445000D02*
X87400000Y-45185000D01*
%TO.C,C16*%
X188495000Y-112245000D02*
X188495000Y-105005000D01*
X191235000Y-112245000D02*
X191235000Y-105005000D01*
X188495000Y-112245000D02*
X191235000Y-112245000D01*
X188495000Y-105005000D02*
X191235000Y-105005000D01*
%TO.C,REF\u002A\u002A*%
D10*
X65519466Y-41447980D02*
X65186133Y-40971790D01*
X64948038Y-41447980D02*
X64948038Y-40447980D01*
X65328990Y-40447980D01*
X65424228Y-40495600D01*
X65471847Y-40543219D01*
X65519466Y-40638457D01*
X65519466Y-40781314D01*
X65471847Y-40876552D01*
X65424228Y-40924171D01*
X65328990Y-40971790D01*
X64948038Y-40971790D01*
X65948038Y-40924171D02*
X66281371Y-40924171D01*
X66424228Y-41447980D02*
X65948038Y-41447980D01*
X65948038Y-40447980D01*
X66424228Y-40447980D01*
X67186133Y-40924171D02*
X66852800Y-40924171D01*
X66852800Y-41447980D02*
X66852800Y-40447980D01*
X67328990Y-40447980D01*
X67852800Y-40447980D02*
X67852800Y-40686076D01*
X67614704Y-40590838D02*
X67852800Y-40686076D01*
X68090895Y-40590838D01*
X67709942Y-40876552D02*
X67852800Y-40686076D01*
X67995657Y-40876552D01*
X68614704Y-40447980D02*
X68614704Y-40686076D01*
X68376609Y-40590838D02*
X68614704Y-40686076D01*
X68852800Y-40590838D01*
X68471847Y-40876552D02*
X68614704Y-40686076D01*
X68757561Y-40876552D01*
%TO.C,R8*%
X134607380Y-52236666D02*
X134131190Y-52570000D01*
X134607380Y-52808095D02*
X133607380Y-52808095D01*
X133607380Y-52427142D01*
X133655000Y-52331904D01*
X133702619Y-52284285D01*
X133797857Y-52236666D01*
X133940714Y-52236666D01*
X134035952Y-52284285D01*
X134083571Y-52331904D01*
X134131190Y-52427142D01*
X134131190Y-52808095D01*
X134035952Y-51665238D02*
X133988333Y-51760476D01*
X133940714Y-51808095D01*
X133845476Y-51855714D01*
X133797857Y-51855714D01*
X133702619Y-51808095D01*
X133655000Y-51760476D01*
X133607380Y-51665238D01*
X133607380Y-51474761D01*
X133655000Y-51379523D01*
X133702619Y-51331904D01*
X133797857Y-51284285D01*
X133845476Y-51284285D01*
X133940714Y-51331904D01*
X133988333Y-51379523D01*
X134035952Y-51474761D01*
X134035952Y-51665238D01*
X134083571Y-51760476D01*
X134131190Y-51808095D01*
X134226428Y-51855714D01*
X134416904Y-51855714D01*
X134512142Y-51808095D01*
X134559761Y-51760476D01*
X134607380Y-51665238D01*
X134607380Y-51474761D01*
X134559761Y-51379523D01*
X134512142Y-51331904D01*
X134416904Y-51284285D01*
X134226428Y-51284285D01*
X134131190Y-51331904D01*
X134083571Y-51379523D01*
X134035952Y-51474761D01*
%TO.C,U5*%
X88138095Y-46017380D02*
X88138095Y-46826904D01*
X88185714Y-46922142D01*
X88233333Y-46969761D01*
X88328571Y-47017380D01*
X88519047Y-47017380D01*
X88614285Y-46969761D01*
X88661904Y-46922142D01*
X88709523Y-46826904D01*
X88709523Y-46017380D01*
X89661904Y-46017380D02*
X89185714Y-46017380D01*
X89138095Y-46493571D01*
X89185714Y-46445952D01*
X89280952Y-46398333D01*
X89519047Y-46398333D01*
X89614285Y-46445952D01*
X89661904Y-46493571D01*
X89709523Y-46588809D01*
X89709523Y-46826904D01*
X89661904Y-46922142D01*
X89614285Y-46969761D01*
X89519047Y-47017380D01*
X89280952Y-47017380D01*
X89185714Y-46969761D01*
X89138095Y-46922142D01*
%TO.C,J3*%
X63641666Y-139692380D02*
X63641666Y-140406666D01*
X63594047Y-140549523D01*
X63498809Y-140644761D01*
X63355952Y-140692380D01*
X63260714Y-140692380D01*
X64022619Y-139692380D02*
X64641666Y-139692380D01*
X64308333Y-140073333D01*
X64451190Y-140073333D01*
X64546428Y-140120952D01*
X64594047Y-140168571D01*
X64641666Y-140263809D01*
X64641666Y-140501904D01*
X64594047Y-140597142D01*
X64546428Y-140644761D01*
X64451190Y-140692380D01*
X64165476Y-140692380D01*
X64070238Y-140644761D01*
X64022619Y-140597142D01*
%TO.C,J2*%
X75231666Y-122007380D02*
X75231666Y-122721666D01*
X75184047Y-122864523D01*
X75088809Y-122959761D01*
X74945952Y-123007380D01*
X74850714Y-123007380D01*
X75660238Y-122102619D02*
X75707857Y-122055000D01*
X75803095Y-122007380D01*
X76041190Y-122007380D01*
X76136428Y-122055000D01*
X76184047Y-122102619D01*
X76231666Y-122197857D01*
X76231666Y-122293095D01*
X76184047Y-122435952D01*
X75612619Y-123007380D01*
X76231666Y-123007380D01*
%TO.C,U13*%
X113696904Y-46017380D02*
X113696904Y-46826904D01*
X113744523Y-46922142D01*
X113792142Y-46969761D01*
X113887380Y-47017380D01*
X114077857Y-47017380D01*
X114173095Y-46969761D01*
X114220714Y-46922142D01*
X114268333Y-46826904D01*
X114268333Y-46017380D01*
X115268333Y-47017380D02*
X114696904Y-47017380D01*
X114982619Y-47017380D02*
X114982619Y-46017380D01*
X114887380Y-46160238D01*
X114792142Y-46255476D01*
X114696904Y-46303095D01*
X115601666Y-46017380D02*
X116220714Y-46017380D01*
X115887380Y-46398333D01*
X116030238Y-46398333D01*
X116125476Y-46445952D01*
X116173095Y-46493571D01*
X116220714Y-46588809D01*
X116220714Y-46826904D01*
X116173095Y-46922142D01*
X116125476Y-46969761D01*
X116030238Y-47017380D01*
X115744523Y-47017380D01*
X115649285Y-46969761D01*
X115601666Y-46922142D01*
%TO.C,U12*%
X85756904Y-110787380D02*
X85756904Y-111596904D01*
X85804523Y-111692142D01*
X85852142Y-111739761D01*
X85947380Y-111787380D01*
X86137857Y-111787380D01*
X86233095Y-111739761D01*
X86280714Y-111692142D01*
X86328333Y-111596904D01*
X86328333Y-110787380D01*
X87328333Y-111787380D02*
X86756904Y-111787380D01*
X87042619Y-111787380D02*
X87042619Y-110787380D01*
X86947380Y-110930238D01*
X86852142Y-111025476D01*
X86756904Y-111073095D01*
X87709285Y-110882619D02*
X87756904Y-110835000D01*
X87852142Y-110787380D01*
X88090238Y-110787380D01*
X88185476Y-110835000D01*
X88233095Y-110882619D01*
X88280714Y-110977857D01*
X88280714Y-111073095D01*
X88233095Y-111215952D01*
X87661666Y-111787380D01*
X88280714Y-111787380D01*
%TO.C,U11*%
X137191904Y-110787380D02*
X137191904Y-111596904D01*
X137239523Y-111692142D01*
X137287142Y-111739761D01*
X137382380Y-111787380D01*
X137572857Y-111787380D01*
X137668095Y-111739761D01*
X137715714Y-111692142D01*
X137763333Y-111596904D01*
X137763333Y-110787380D01*
X138763333Y-111787380D02*
X138191904Y-111787380D01*
X138477619Y-111787380D02*
X138477619Y-110787380D01*
X138382380Y-110930238D01*
X138287142Y-111025476D01*
X138191904Y-111073095D01*
X139715714Y-111787380D02*
X139144285Y-111787380D01*
X139430000Y-111787380D02*
X139430000Y-110787380D01*
X139334761Y-110930238D01*
X139239523Y-111025476D01*
X139144285Y-111073095D01*
%TO.C,U10*%
X120046904Y-108247380D02*
X120046904Y-109056904D01*
X120094523Y-109152142D01*
X120142142Y-109199761D01*
X120237380Y-109247380D01*
X120427857Y-109247380D01*
X120523095Y-109199761D01*
X120570714Y-109152142D01*
X120618333Y-109056904D01*
X120618333Y-108247380D01*
X121618333Y-109247380D02*
X121046904Y-109247380D01*
X121332619Y-109247380D02*
X121332619Y-108247380D01*
X121237380Y-108390238D01*
X121142142Y-108485476D01*
X121046904Y-108533095D01*
X122237380Y-108247380D02*
X122332619Y-108247380D01*
X122427857Y-108295000D01*
X122475476Y-108342619D01*
X122523095Y-108437857D01*
X122570714Y-108628333D01*
X122570714Y-108866428D01*
X122523095Y-109056904D01*
X122475476Y-109152142D01*
X122427857Y-109199761D01*
X122332619Y-109247380D01*
X122237380Y-109247380D01*
X122142142Y-109199761D01*
X122094523Y-109152142D01*
X122046904Y-109056904D01*
X121999285Y-108866428D01*
X121999285Y-108628333D01*
X122046904Y-108437857D01*
X122094523Y-108342619D01*
X122142142Y-108295000D01*
X122237380Y-108247380D01*
%TO.C,U9*%
X102743095Y-108247380D02*
X102743095Y-109056904D01*
X102790714Y-109152142D01*
X102838333Y-109199761D01*
X102933571Y-109247380D01*
X103124047Y-109247380D01*
X103219285Y-109199761D01*
X103266904Y-109152142D01*
X103314523Y-109056904D01*
X103314523Y-108247380D01*
X103838333Y-109247380D02*
X104028809Y-109247380D01*
X104124047Y-109199761D01*
X104171666Y-109152142D01*
X104266904Y-109009285D01*
X104314523Y-108818809D01*
X104314523Y-108437857D01*
X104266904Y-108342619D01*
X104219285Y-108295000D01*
X104124047Y-108247380D01*
X103933571Y-108247380D01*
X103838333Y-108295000D01*
X103790714Y-108342619D01*
X103743095Y-108437857D01*
X103743095Y-108675952D01*
X103790714Y-108771190D01*
X103838333Y-108818809D01*
X103933571Y-108866428D01*
X104124047Y-108866428D01*
X104219285Y-108818809D01*
X104266904Y-108771190D01*
X104314523Y-108675952D01*
%TO.C,U8*%
X156718095Y-110787380D02*
X156718095Y-111596904D01*
X156765714Y-111692142D01*
X156813333Y-111739761D01*
X156908571Y-111787380D01*
X157099047Y-111787380D01*
X157194285Y-111739761D01*
X157241904Y-111692142D01*
X157289523Y-111596904D01*
X157289523Y-110787380D01*
X157908571Y-111215952D02*
X157813333Y-111168333D01*
X157765714Y-111120714D01*
X157718095Y-111025476D01*
X157718095Y-110977857D01*
X157765714Y-110882619D01*
X157813333Y-110835000D01*
X157908571Y-110787380D01*
X158099047Y-110787380D01*
X158194285Y-110835000D01*
X158241904Y-110882619D01*
X158289523Y-110977857D01*
X158289523Y-111025476D01*
X158241904Y-111120714D01*
X158194285Y-111168333D01*
X158099047Y-111215952D01*
X157908571Y-111215952D01*
X157813333Y-111263571D01*
X157765714Y-111311190D01*
X157718095Y-111406428D01*
X157718095Y-111596904D01*
X157765714Y-111692142D01*
X157813333Y-111739761D01*
X157908571Y-111787380D01*
X158099047Y-111787380D01*
X158194285Y-111739761D01*
X158241904Y-111692142D01*
X158289523Y-111596904D01*
X158289523Y-111406428D01*
X158241904Y-111311190D01*
X158194285Y-111263571D01*
X158099047Y-111215952D01*
%TO.C,U7*%
X143383095Y-45957380D02*
X143383095Y-46766904D01*
X143430714Y-46862142D01*
X143478333Y-46909761D01*
X143573571Y-46957380D01*
X143764047Y-46957380D01*
X143859285Y-46909761D01*
X143906904Y-46862142D01*
X143954523Y-46766904D01*
X143954523Y-45957380D01*
X144335476Y-45957380D02*
X145002142Y-45957380D01*
X144573571Y-46957380D01*
%TO.C,U4*%
X196723095Y-109517380D02*
X196723095Y-110326904D01*
X196770714Y-110422142D01*
X196818333Y-110469761D01*
X196913571Y-110517380D01*
X197104047Y-110517380D01*
X197199285Y-110469761D01*
X197246904Y-110422142D01*
X197294523Y-110326904D01*
X197294523Y-109517380D01*
X198199285Y-109850714D02*
X198199285Y-110517380D01*
X197961190Y-109469761D02*
X197723095Y-110184047D01*
X198342142Y-110184047D01*
%TO.C,U3*%
X196723095Y-80307380D02*
X196723095Y-81116904D01*
X196770714Y-81212142D01*
X196818333Y-81259761D01*
X196913571Y-81307380D01*
X197104047Y-81307380D01*
X197199285Y-81259761D01*
X197246904Y-81212142D01*
X197294523Y-81116904D01*
X197294523Y-80307380D01*
X197675476Y-80307380D02*
X198294523Y-80307380D01*
X197961190Y-80688333D01*
X198104047Y-80688333D01*
X198199285Y-80735952D01*
X198246904Y-80783571D01*
X198294523Y-80878809D01*
X198294523Y-81116904D01*
X198246904Y-81212142D01*
X198199285Y-81259761D01*
X198104047Y-81307380D01*
X197818333Y-81307380D01*
X197723095Y-81259761D01*
X197675476Y-81212142D01*
%TO.C,U2*%
X196723095Y-51097380D02*
X196723095Y-51906904D01*
X196770714Y-52002142D01*
X196818333Y-52049761D01*
X196913571Y-52097380D01*
X197104047Y-52097380D01*
X197199285Y-52049761D01*
X197246904Y-52002142D01*
X197294523Y-51906904D01*
X197294523Y-51097380D01*
X197723095Y-51192619D02*
X197770714Y-51145000D01*
X197865952Y-51097380D01*
X198104047Y-51097380D01*
X198199285Y-51145000D01*
X198246904Y-51192619D01*
X198294523Y-51287857D01*
X198294523Y-51383095D01*
X198246904Y-51525952D01*
X197675476Y-52097380D01*
X198294523Y-52097380D01*
%TO.C,U1*%
X176403095Y-110787380D02*
X176403095Y-111596904D01*
X176450714Y-111692142D01*
X176498333Y-111739761D01*
X176593571Y-111787380D01*
X176784047Y-111787380D01*
X176879285Y-111739761D01*
X176926904Y-111692142D01*
X176974523Y-111596904D01*
X176974523Y-110787380D01*
X177974523Y-111787380D02*
X177403095Y-111787380D01*
X177688809Y-111787380D02*
X177688809Y-110787380D01*
X177593571Y-110930238D01*
X177498333Y-111025476D01*
X177403095Y-111073095D01*
%TO.C,RN1*%
X206967380Y-97845476D02*
X206491190Y-98178809D01*
X206967380Y-98416904D02*
X205967380Y-98416904D01*
X205967380Y-98035952D01*
X206015000Y-97940714D01*
X206062619Y-97893095D01*
X206157857Y-97845476D01*
X206300714Y-97845476D01*
X206395952Y-97893095D01*
X206443571Y-97940714D01*
X206491190Y-98035952D01*
X206491190Y-98416904D01*
X206967380Y-97416904D02*
X205967380Y-97416904D01*
X206967380Y-96845476D01*
X205967380Y-96845476D01*
X206967380Y-95845476D02*
X206967380Y-96416904D01*
X206967380Y-96131190D02*
X205967380Y-96131190D01*
X206110238Y-96226428D01*
X206205476Y-96321666D01*
X206253095Y-96416904D01*
%TO.C,R7*%
X211102380Y-117641666D02*
X210626190Y-117975000D01*
X211102380Y-118213095D02*
X210102380Y-118213095D01*
X210102380Y-117832142D01*
X210150000Y-117736904D01*
X210197619Y-117689285D01*
X210292857Y-117641666D01*
X210435714Y-117641666D01*
X210530952Y-117689285D01*
X210578571Y-117736904D01*
X210626190Y-117832142D01*
X210626190Y-118213095D01*
X210102380Y-117308333D02*
X210102380Y-116641666D01*
X211102380Y-117070238D01*
%TO.C,R6*%
X214277380Y-117641666D02*
X213801190Y-117975000D01*
X214277380Y-118213095D02*
X213277380Y-118213095D01*
X213277380Y-117832142D01*
X213325000Y-117736904D01*
X213372619Y-117689285D01*
X213467857Y-117641666D01*
X213610714Y-117641666D01*
X213705952Y-117689285D01*
X213753571Y-117736904D01*
X213801190Y-117832142D01*
X213801190Y-118213095D01*
X213277380Y-116784523D02*
X213277380Y-116975000D01*
X213325000Y-117070238D01*
X213372619Y-117117857D01*
X213515476Y-117213095D01*
X213705952Y-117260714D01*
X214086904Y-117260714D01*
X214182142Y-117213095D01*
X214229761Y-117165476D01*
X214277380Y-117070238D01*
X214277380Y-116879761D01*
X214229761Y-116784523D01*
X214182142Y-116736904D01*
X214086904Y-116689285D01*
X213848809Y-116689285D01*
X213753571Y-116736904D01*
X213705952Y-116784523D01*
X213658333Y-116879761D01*
X213658333Y-117070238D01*
X213705952Y-117165476D01*
X213753571Y-117213095D01*
X213848809Y-117260714D01*
%TO.C,R5*%
X104549380Y-47791666D02*
X104073190Y-48125000D01*
X104549380Y-48363095D02*
X103549380Y-48363095D01*
X103549380Y-47982142D01*
X103597000Y-47886904D01*
X103644619Y-47839285D01*
X103739857Y-47791666D01*
X103882714Y-47791666D01*
X103977952Y-47839285D01*
X104025571Y-47886904D01*
X104073190Y-47982142D01*
X104073190Y-48363095D01*
X103549380Y-46886904D02*
X103549380Y-47363095D01*
X104025571Y-47410714D01*
X103977952Y-47363095D01*
X103930333Y-47267857D01*
X103930333Y-47029761D01*
X103977952Y-46934523D01*
X104025571Y-46886904D01*
X104120809Y-46839285D01*
X104358904Y-46839285D01*
X104454142Y-46886904D01*
X104501761Y-46934523D01*
X104549380Y-47029761D01*
X104549380Y-47267857D01*
X104501761Y-47363095D01*
X104454142Y-47410714D01*
%TO.C,R4*%
X74409380Y-92241666D02*
X73933190Y-92575000D01*
X74409380Y-92813095D02*
X73409380Y-92813095D01*
X73409380Y-92432142D01*
X73457000Y-92336904D01*
X73504619Y-92289285D01*
X73599857Y-92241666D01*
X73742714Y-92241666D01*
X73837952Y-92289285D01*
X73885571Y-92336904D01*
X73933190Y-92432142D01*
X73933190Y-92813095D01*
X73742714Y-91384523D02*
X74409380Y-91384523D01*
X73361761Y-91622619D02*
X74076047Y-91860714D01*
X74076047Y-91241666D01*
%TO.C,R3*%
X79149380Y-78144666D02*
X78673190Y-78478000D01*
X79149380Y-78716095D02*
X78149380Y-78716095D01*
X78149380Y-78335142D01*
X78197000Y-78239904D01*
X78244619Y-78192285D01*
X78339857Y-78144666D01*
X78482714Y-78144666D01*
X78577952Y-78192285D01*
X78625571Y-78239904D01*
X78673190Y-78335142D01*
X78673190Y-78716095D01*
X78149380Y-77811333D02*
X78149380Y-77192285D01*
X78530333Y-77525619D01*
X78530333Y-77382761D01*
X78577952Y-77287523D01*
X78625571Y-77239904D01*
X78720809Y-77192285D01*
X78958904Y-77192285D01*
X79054142Y-77239904D01*
X79101761Y-77287523D01*
X79149380Y-77382761D01*
X79149380Y-77668476D01*
X79101761Y-77763714D01*
X79054142Y-77811333D01*
%TO.C,R2*%
X74155380Y-60491666D02*
X73679190Y-60825000D01*
X74155380Y-61063095D02*
X73155380Y-61063095D01*
X73155380Y-60682142D01*
X73203000Y-60586904D01*
X73250619Y-60539285D01*
X73345857Y-60491666D01*
X73488714Y-60491666D01*
X73583952Y-60539285D01*
X73631571Y-60586904D01*
X73679190Y-60682142D01*
X73679190Y-61063095D01*
X73250619Y-60110714D02*
X73203000Y-60063095D01*
X73155380Y-59967857D01*
X73155380Y-59729761D01*
X73203000Y-59634523D01*
X73250619Y-59586904D01*
X73345857Y-59539285D01*
X73441095Y-59539285D01*
X73583952Y-59586904D01*
X74155380Y-60158333D01*
X74155380Y-59539285D01*
%TO.C,R1*%
X185067380Y-103036666D02*
X184591190Y-103370000D01*
X185067380Y-103608095D02*
X184067380Y-103608095D01*
X184067380Y-103227142D01*
X184115000Y-103131904D01*
X184162619Y-103084285D01*
X184257857Y-103036666D01*
X184400714Y-103036666D01*
X184495952Y-103084285D01*
X184543571Y-103131904D01*
X184591190Y-103227142D01*
X184591190Y-103608095D01*
X185067380Y-102084285D02*
X185067380Y-102655714D01*
X185067380Y-102370000D02*
X184067380Y-102370000D01*
X184210238Y-102465238D01*
X184305476Y-102560476D01*
X184353095Y-102655714D01*
%TO.C,J4*%
X73326666Y-47502380D02*
X73326666Y-48216666D01*
X73279047Y-48359523D01*
X73183809Y-48454761D01*
X73040952Y-48502380D01*
X72945714Y-48502380D01*
X74231428Y-47835714D02*
X74231428Y-48502380D01*
X73993333Y-47454761D02*
X73755238Y-48169047D01*
X74374285Y-48169047D01*
%TO.C,J1*%
X216892380Y-45418333D02*
X217606666Y-45418333D01*
X217749523Y-45465952D01*
X217844761Y-45561190D01*
X217892380Y-45704047D01*
X217892380Y-45799285D01*
X217892380Y-44418333D02*
X217892380Y-44989761D01*
X217892380Y-44704047D02*
X216892380Y-44704047D01*
X217035238Y-44799285D01*
X217130476Y-44894523D01*
X217178095Y-44989761D01*
%TO.C,C14*%
X150892142Y-48307857D02*
X150939761Y-48355476D01*
X150987380Y-48498333D01*
X150987380Y-48593571D01*
X150939761Y-48736428D01*
X150844523Y-48831666D01*
X150749285Y-48879285D01*
X150558809Y-48926904D01*
X150415952Y-48926904D01*
X150225476Y-48879285D01*
X150130238Y-48831666D01*
X150035000Y-48736428D01*
X149987380Y-48593571D01*
X149987380Y-48498333D01*
X150035000Y-48355476D01*
X150082619Y-48307857D01*
X150987380Y-47355476D02*
X150987380Y-47926904D01*
X150987380Y-47641190D02*
X149987380Y-47641190D01*
X150130238Y-47736428D01*
X150225476Y-47831666D01*
X150273095Y-47926904D01*
X150320714Y-46498333D02*
X150987380Y-46498333D01*
X149939761Y-46736428D02*
X150654047Y-46974523D01*
X150654047Y-46355476D01*
%TO.C,C13*%
X170497142Y-128952857D02*
X170544761Y-129000476D01*
X170592380Y-129143333D01*
X170592380Y-129238571D01*
X170544761Y-129381428D01*
X170449523Y-129476666D01*
X170354285Y-129524285D01*
X170163809Y-129571904D01*
X170020952Y-129571904D01*
X169830476Y-129524285D01*
X169735238Y-129476666D01*
X169640000Y-129381428D01*
X169592380Y-129238571D01*
X169592380Y-129143333D01*
X169640000Y-129000476D01*
X169687619Y-128952857D01*
X170592380Y-128000476D02*
X170592380Y-128571904D01*
X170592380Y-128286190D02*
X169592380Y-128286190D01*
X169735238Y-128381428D01*
X169830476Y-128476666D01*
X169878095Y-128571904D01*
X169592380Y-127667142D02*
X169592380Y-127048095D01*
X169973333Y-127381428D01*
X169973333Y-127238571D01*
X170020952Y-127143333D01*
X170068571Y-127095714D01*
X170163809Y-127048095D01*
X170401904Y-127048095D01*
X170497142Y-127095714D01*
X170544761Y-127143333D01*
X170592380Y-127238571D01*
X170592380Y-127524285D01*
X170544761Y-127619523D01*
X170497142Y-127667142D01*
%TO.C,C12*%
X150812142Y-128952857D02*
X150859761Y-129000476D01*
X150907380Y-129143333D01*
X150907380Y-129238571D01*
X150859761Y-129381428D01*
X150764523Y-129476666D01*
X150669285Y-129524285D01*
X150478809Y-129571904D01*
X150335952Y-129571904D01*
X150145476Y-129524285D01*
X150050238Y-129476666D01*
X149955000Y-129381428D01*
X149907380Y-129238571D01*
X149907380Y-129143333D01*
X149955000Y-129000476D01*
X150002619Y-128952857D01*
X150907380Y-128000476D02*
X150907380Y-128571904D01*
X150907380Y-128286190D02*
X149907380Y-128286190D01*
X150050238Y-128381428D01*
X150145476Y-128476666D01*
X150193095Y-128571904D01*
X150002619Y-127619523D02*
X149955000Y-127571904D01*
X149907380Y-127476666D01*
X149907380Y-127238571D01*
X149955000Y-127143333D01*
X150002619Y-127095714D01*
X150097857Y-127048095D01*
X150193095Y-127048095D01*
X150335952Y-127095714D01*
X150907380Y-127667142D01*
X150907380Y-127048095D01*
%TO.C,C11*%
X132397142Y-128872857D02*
X132444761Y-128920476D01*
X132492380Y-129063333D01*
X132492380Y-129158571D01*
X132444761Y-129301428D01*
X132349523Y-129396666D01*
X132254285Y-129444285D01*
X132063809Y-129491904D01*
X131920952Y-129491904D01*
X131730476Y-129444285D01*
X131635238Y-129396666D01*
X131540000Y-129301428D01*
X131492380Y-129158571D01*
X131492380Y-129063333D01*
X131540000Y-128920476D01*
X131587619Y-128872857D01*
X132492380Y-127920476D02*
X132492380Y-128491904D01*
X132492380Y-128206190D02*
X131492380Y-128206190D01*
X131635238Y-128301428D01*
X131730476Y-128396666D01*
X131778095Y-128491904D01*
X132492380Y-126968095D02*
X132492380Y-127539523D01*
X132492380Y-127253809D02*
X131492380Y-127253809D01*
X131635238Y-127349047D01*
X131730476Y-127444285D01*
X131778095Y-127539523D01*
%TO.C,C10*%
X115887142Y-128952857D02*
X115934761Y-129000476D01*
X115982380Y-129143333D01*
X115982380Y-129238571D01*
X115934761Y-129381428D01*
X115839523Y-129476666D01*
X115744285Y-129524285D01*
X115553809Y-129571904D01*
X115410952Y-129571904D01*
X115220476Y-129524285D01*
X115125238Y-129476666D01*
X115030000Y-129381428D01*
X114982380Y-129238571D01*
X114982380Y-129143333D01*
X115030000Y-129000476D01*
X115077619Y-128952857D01*
X115982380Y-128000476D02*
X115982380Y-128571904D01*
X115982380Y-128286190D02*
X114982380Y-128286190D01*
X115125238Y-128381428D01*
X115220476Y-128476666D01*
X115268095Y-128571904D01*
X114982380Y-127381428D02*
X114982380Y-127286190D01*
X115030000Y-127190952D01*
X115077619Y-127143333D01*
X115172857Y-127095714D01*
X115363333Y-127048095D01*
X115601428Y-127048095D01*
X115791904Y-127095714D01*
X115887142Y-127143333D01*
X115934761Y-127190952D01*
X115982380Y-127286190D01*
X115982380Y-127381428D01*
X115934761Y-127476666D01*
X115887142Y-127524285D01*
X115791904Y-127571904D01*
X115601428Y-127619523D01*
X115363333Y-127619523D01*
X115172857Y-127571904D01*
X115077619Y-127524285D01*
X115030000Y-127476666D01*
X114982380Y-127381428D01*
%TO.C,C9*%
X98107142Y-128396666D02*
X98154761Y-128444285D01*
X98202380Y-128587142D01*
X98202380Y-128682380D01*
X98154761Y-128825238D01*
X98059523Y-128920476D01*
X97964285Y-128968095D01*
X97773809Y-129015714D01*
X97630952Y-129015714D01*
X97440476Y-128968095D01*
X97345238Y-128920476D01*
X97250000Y-128825238D01*
X97202380Y-128682380D01*
X97202380Y-128587142D01*
X97250000Y-128444285D01*
X97297619Y-128396666D01*
X98202380Y-127920476D02*
X98202380Y-127730000D01*
X98154761Y-127634761D01*
X98107142Y-127587142D01*
X97964285Y-127491904D01*
X97773809Y-127444285D01*
X97392857Y-127444285D01*
X97297619Y-127491904D01*
X97250000Y-127539523D01*
X97202380Y-127634761D01*
X97202380Y-127825238D01*
X97250000Y-127920476D01*
X97297619Y-127968095D01*
X97392857Y-128015714D01*
X97630952Y-128015714D01*
X97726190Y-127968095D01*
X97773809Y-127920476D01*
X97821428Y-127825238D01*
X97821428Y-127634761D01*
X97773809Y-127539523D01*
X97726190Y-127491904D01*
X97630952Y-127444285D01*
%TO.C,C8*%
X188912142Y-128476666D02*
X188959761Y-128524285D01*
X189007380Y-128667142D01*
X189007380Y-128762380D01*
X188959761Y-128905238D01*
X188864523Y-129000476D01*
X188769285Y-129048095D01*
X188578809Y-129095714D01*
X188435952Y-129095714D01*
X188245476Y-129048095D01*
X188150238Y-129000476D01*
X188055000Y-128905238D01*
X188007380Y-128762380D01*
X188007380Y-128667142D01*
X188055000Y-128524285D01*
X188102619Y-128476666D01*
X188435952Y-127905238D02*
X188388333Y-128000476D01*
X188340714Y-128048095D01*
X188245476Y-128095714D01*
X188197857Y-128095714D01*
X188102619Y-128048095D01*
X188055000Y-128000476D01*
X188007380Y-127905238D01*
X188007380Y-127714761D01*
X188055000Y-127619523D01*
X188102619Y-127571904D01*
X188197857Y-127524285D01*
X188245476Y-127524285D01*
X188340714Y-127571904D01*
X188388333Y-127619523D01*
X188435952Y-127714761D01*
X188435952Y-127905238D01*
X188483571Y-128000476D01*
X188531190Y-128048095D01*
X188626428Y-128095714D01*
X188816904Y-128095714D01*
X188912142Y-128048095D01*
X188959761Y-128000476D01*
X189007380Y-127905238D01*
X189007380Y-127714761D01*
X188959761Y-127619523D01*
X188912142Y-127571904D01*
X188816904Y-127524285D01*
X188626428Y-127524285D01*
X188531190Y-127571904D01*
X188483571Y-127619523D01*
X188435952Y-127714761D01*
%TO.C,C7*%
X180737142Y-47831666D02*
X180784761Y-47879285D01*
X180832380Y-48022142D01*
X180832380Y-48117380D01*
X180784761Y-48260238D01*
X180689523Y-48355476D01*
X180594285Y-48403095D01*
X180403809Y-48450714D01*
X180260952Y-48450714D01*
X180070476Y-48403095D01*
X179975238Y-48355476D01*
X179880000Y-48260238D01*
X179832380Y-48117380D01*
X179832380Y-48022142D01*
X179880000Y-47879285D01*
X179927619Y-47831666D01*
X179832380Y-47498333D02*
X179832380Y-46831666D01*
X180832380Y-47260238D01*
%TO.C,C6*%
X187722142Y-47831666D02*
X187769761Y-47879285D01*
X187817380Y-48022142D01*
X187817380Y-48117380D01*
X187769761Y-48260238D01*
X187674523Y-48355476D01*
X187579285Y-48403095D01*
X187388809Y-48450714D01*
X187245952Y-48450714D01*
X187055476Y-48403095D01*
X186960238Y-48355476D01*
X186865000Y-48260238D01*
X186817380Y-48117380D01*
X186817380Y-48022142D01*
X186865000Y-47879285D01*
X186912619Y-47831666D01*
X186817380Y-46974523D02*
X186817380Y-47165000D01*
X186865000Y-47260238D01*
X186912619Y-47307857D01*
X187055476Y-47403095D01*
X187245952Y-47450714D01*
X187626904Y-47450714D01*
X187722142Y-47403095D01*
X187769761Y-47355476D01*
X187817380Y-47260238D01*
X187817380Y-47069761D01*
X187769761Y-46974523D01*
X187722142Y-46926904D01*
X187626904Y-46879285D01*
X187388809Y-46879285D01*
X187293571Y-46926904D01*
X187245952Y-46974523D01*
X187198333Y-47069761D01*
X187198333Y-47260238D01*
X187245952Y-47355476D01*
X187293571Y-47403095D01*
X187388809Y-47450714D01*
%TO.C,C5*%
X187722142Y-79581666D02*
X187769761Y-79629285D01*
X187817380Y-79772142D01*
X187817380Y-79867380D01*
X187769761Y-80010238D01*
X187674523Y-80105476D01*
X187579285Y-80153095D01*
X187388809Y-80200714D01*
X187245952Y-80200714D01*
X187055476Y-80153095D01*
X186960238Y-80105476D01*
X186865000Y-80010238D01*
X186817380Y-79867380D01*
X186817380Y-79772142D01*
X186865000Y-79629285D01*
X186912619Y-79581666D01*
X186817380Y-78676904D02*
X186817380Y-79153095D01*
X187293571Y-79200714D01*
X187245952Y-79153095D01*
X187198333Y-79057857D01*
X187198333Y-78819761D01*
X187245952Y-78724523D01*
X187293571Y-78676904D01*
X187388809Y-78629285D01*
X187626904Y-78629285D01*
X187722142Y-78676904D01*
X187769761Y-78724523D01*
X187817380Y-78819761D01*
X187817380Y-79057857D01*
X187769761Y-79153095D01*
X187722142Y-79200714D01*
%TO.C,C4*%
X208133333Y-53597142D02*
X208085714Y-53644761D01*
X207942857Y-53692380D01*
X207847619Y-53692380D01*
X207704761Y-53644761D01*
X207609523Y-53549523D01*
X207561904Y-53454285D01*
X207514285Y-53263809D01*
X207514285Y-53120952D01*
X207561904Y-52930476D01*
X207609523Y-52835238D01*
X207704761Y-52740000D01*
X207847619Y-52692380D01*
X207942857Y-52692380D01*
X208085714Y-52740000D01*
X208133333Y-52787619D01*
X208990476Y-53025714D02*
X208990476Y-53692380D01*
X208752380Y-52644761D02*
X208514285Y-53359047D01*
X209133333Y-53359047D01*
%TO.C,C3*%
X130572142Y-59261666D02*
X130619761Y-59309285D01*
X130667380Y-59452142D01*
X130667380Y-59547380D01*
X130619761Y-59690238D01*
X130524523Y-59785476D01*
X130429285Y-59833095D01*
X130238809Y-59880714D01*
X130095952Y-59880714D01*
X129905476Y-59833095D01*
X129810238Y-59785476D01*
X129715000Y-59690238D01*
X129667380Y-59547380D01*
X129667380Y-59452142D01*
X129715000Y-59309285D01*
X129762619Y-59261666D01*
X129667380Y-58928333D02*
X129667380Y-58309285D01*
X130048333Y-58642619D01*
X130048333Y-58499761D01*
X130095952Y-58404523D01*
X130143571Y-58356904D01*
X130238809Y-58309285D01*
X130476904Y-58309285D01*
X130572142Y-58356904D01*
X130619761Y-58404523D01*
X130667380Y-58499761D01*
X130667380Y-58785476D01*
X130619761Y-58880714D01*
X130572142Y-58928333D01*
%TO.C,C2*%
X129968333Y-49292142D02*
X129920714Y-49339761D01*
X129777857Y-49387380D01*
X129682619Y-49387380D01*
X129539761Y-49339761D01*
X129444523Y-49244523D01*
X129396904Y-49149285D01*
X129349285Y-48958809D01*
X129349285Y-48815952D01*
X129396904Y-48625476D01*
X129444523Y-48530238D01*
X129539761Y-48435000D01*
X129682619Y-48387380D01*
X129777857Y-48387380D01*
X129920714Y-48435000D01*
X129968333Y-48482619D01*
X130349285Y-48482619D02*
X130396904Y-48435000D01*
X130492142Y-48387380D01*
X130730238Y-48387380D01*
X130825476Y-48435000D01*
X130873095Y-48482619D01*
X130920714Y-48577857D01*
X130920714Y-48673095D01*
X130873095Y-48815952D01*
X130301666Y-49387380D01*
X130920714Y-49387380D01*
%TO.C,U6*%
X170053095Y-51097380D02*
X170053095Y-51906904D01*
X170100714Y-52002142D01*
X170148333Y-52049761D01*
X170243571Y-52097380D01*
X170434047Y-52097380D01*
X170529285Y-52049761D01*
X170576904Y-52002142D01*
X170624523Y-51906904D01*
X170624523Y-51097380D01*
X171529285Y-51097380D02*
X171338809Y-51097380D01*
X171243571Y-51145000D01*
X171195952Y-51192619D01*
X171100714Y-51335476D01*
X171053095Y-51525952D01*
X171053095Y-51906904D01*
X171100714Y-52002142D01*
X171148333Y-52049761D01*
X171243571Y-52097380D01*
X171434047Y-52097380D01*
X171529285Y-52049761D01*
X171576904Y-52002142D01*
X171624523Y-51906904D01*
X171624523Y-51668809D01*
X171576904Y-51573571D01*
X171529285Y-51525952D01*
X171434047Y-51478333D01*
X171243571Y-51478333D01*
X171148333Y-51525952D01*
X171100714Y-51573571D01*
X171053095Y-51668809D01*
%TO.C,Y1*%
X130561190Y-59491190D02*
X131037380Y-59491190D01*
X130037380Y-59824523D02*
X130561190Y-59491190D01*
X130037380Y-59157857D01*
X131037380Y-58300714D02*
X131037380Y-58872142D01*
X131037380Y-58586428D02*
X130037380Y-58586428D01*
X130180238Y-58681666D01*
X130275476Y-58776904D01*
X130323095Y-58872142D01*
%TO.C,C1*%
X130492142Y-45211666D02*
X130539761Y-45259285D01*
X130587380Y-45402142D01*
X130587380Y-45497380D01*
X130539761Y-45640238D01*
X130444523Y-45735476D01*
X130349285Y-45783095D01*
X130158809Y-45830714D01*
X130015952Y-45830714D01*
X129825476Y-45783095D01*
X129730238Y-45735476D01*
X129635000Y-45640238D01*
X129587380Y-45497380D01*
X129587380Y-45402142D01*
X129635000Y-45259285D01*
X129682619Y-45211666D01*
X130587380Y-44259285D02*
X130587380Y-44830714D01*
X130587380Y-44545000D02*
X129587380Y-44545000D01*
X129730238Y-44640238D01*
X129825476Y-44735476D01*
X129873095Y-44830714D01*
%TO.C,C15*%
X83137142Y-41672142D02*
X83089523Y-41719761D01*
X82946666Y-41767380D01*
X82851428Y-41767380D01*
X82708571Y-41719761D01*
X82613333Y-41624523D01*
X82565714Y-41529285D01*
X82518095Y-41338809D01*
X82518095Y-41195952D01*
X82565714Y-41005476D01*
X82613333Y-40910238D01*
X82708571Y-40815000D01*
X82851428Y-40767380D01*
X82946666Y-40767380D01*
X83089523Y-40815000D01*
X83137142Y-40862619D01*
X84089523Y-41767380D02*
X83518095Y-41767380D01*
X83803809Y-41767380D02*
X83803809Y-40767380D01*
X83708571Y-40910238D01*
X83613333Y-41005476D01*
X83518095Y-41053095D01*
X84994285Y-40767380D02*
X84518095Y-40767380D01*
X84470476Y-41243571D01*
X84518095Y-41195952D01*
X84613333Y-41148333D01*
X84851428Y-41148333D01*
X84946666Y-41195952D01*
X84994285Y-41243571D01*
X85041904Y-41338809D01*
X85041904Y-41576904D01*
X84994285Y-41672142D01*
X84946666Y-41719761D01*
X84851428Y-41767380D01*
X84613333Y-41767380D01*
X84518095Y-41719761D01*
X84470476Y-41672142D01*
%TO.C,C16*%
X187722142Y-109267857D02*
X187769761Y-109315476D01*
X187817380Y-109458333D01*
X187817380Y-109553571D01*
X187769761Y-109696428D01*
X187674523Y-109791666D01*
X187579285Y-109839285D01*
X187388809Y-109886904D01*
X187245952Y-109886904D01*
X187055476Y-109839285D01*
X186960238Y-109791666D01*
X186865000Y-109696428D01*
X186817380Y-109553571D01*
X186817380Y-109458333D01*
X186865000Y-109315476D01*
X186912619Y-109267857D01*
X187817380Y-108315476D02*
X187817380Y-108886904D01*
X187817380Y-108601190D02*
X186817380Y-108601190D01*
X186960238Y-108696428D01*
X187055476Y-108791666D01*
X187103095Y-108886904D01*
X186817380Y-107458333D02*
X186817380Y-107648809D01*
X186865000Y-107744047D01*
X186912619Y-107791666D01*
X187055476Y-107886904D01*
X187245952Y-107934523D01*
X187626904Y-107934523D01*
X187722142Y-107886904D01*
X187769761Y-107839285D01*
X187817380Y-107744047D01*
X187817380Y-107553571D01*
X187769761Y-107458333D01*
X187722142Y-107410714D01*
X187626904Y-107363095D01*
X187388809Y-107363095D01*
X187293571Y-107410714D01*
X187245952Y-107458333D01*
X187198333Y-107553571D01*
X187198333Y-107744047D01*
X187245952Y-107839285D01*
X187293571Y-107886904D01*
X187388809Y-107934523D01*
%TD*%
%LPC*%
D12*
%TO.C,REF\u002A\u002A*%
X66975000Y-45340000D03*
X66975000Y-134060000D03*
%TD*%
D13*
%TO.C,R8*%
X136525000Y-46990000D03*
D14*
X136525000Y-57150000D03*
%TD*%
D13*
%TO.C,U5*%
X96520000Y-48895000D03*
X81280000Y-97155000D03*
X96520000Y-51435000D03*
X81280000Y-94615000D03*
X96520000Y-53975000D03*
X81280000Y-92075000D03*
X96520000Y-56515000D03*
X81280000Y-89535000D03*
X96520000Y-59055000D03*
X81280000Y-86995000D03*
X96520000Y-61595000D03*
X81280000Y-84455000D03*
X96520000Y-64135000D03*
X81280000Y-81915000D03*
X96520000Y-66675000D03*
X81280000Y-79375000D03*
X96520000Y-69215000D03*
X81280000Y-76835000D03*
X96520000Y-71755000D03*
X81280000Y-74295000D03*
X96520000Y-74295000D03*
X81280000Y-71755000D03*
X96520000Y-76835000D03*
X81280000Y-69215000D03*
X96520000Y-79375000D03*
X81280000Y-66675000D03*
X96520000Y-81915000D03*
X81280000Y-64135000D03*
X96520000Y-84455000D03*
X81280000Y-61595000D03*
X96520000Y-86995000D03*
X81280000Y-59055000D03*
X96520000Y-89535000D03*
X81280000Y-56515000D03*
X96520000Y-92075000D03*
X81280000Y-53975000D03*
X96520000Y-94615000D03*
X81280000Y-51435000D03*
X96520000Y-97155000D03*
G36*
G01*
X80430000Y-49695000D02*
X80430000Y-48095000D01*
G75*
G02*
X80480000Y-48045000I50000J0D01*
G01*
X82080000Y-48045000D01*
G75*
G02*
X82130000Y-48095000I0J-50000D01*
G01*
X82130000Y-49695000D01*
G75*
G02*
X82080000Y-49745000I-50000J0D01*
G01*
X80480000Y-49745000D01*
G75*
G02*
X80430000Y-49695000I0J50000D01*
G01*
G37*
%TD*%
D15*
%TO.C,J3*%
X68580000Y-105410000D03*
X68580000Y-107950000D03*
X68580000Y-110490000D03*
X68580000Y-113030000D03*
X68580000Y-115570000D03*
X68580000Y-118110000D03*
X68580000Y-120650000D03*
X68580000Y-123190000D03*
X68580000Y-125730000D03*
X68580000Y-128270000D03*
X71120000Y-105410000D03*
X71120000Y-107950000D03*
X71120000Y-110490000D03*
X71120000Y-113030000D03*
X71120000Y-115570000D03*
X71120000Y-118110000D03*
X71120000Y-120650000D03*
X71120000Y-123190000D03*
X71120000Y-125730000D03*
G36*
G01*
X72020000Y-127634705D02*
X72020000Y-128905295D01*
G75*
G02*
X71755295Y-129170000I-264705J0D01*
G01*
X70484705Y-129170000D01*
G75*
G02*
X70220000Y-128905295I0J264705D01*
G01*
X70220000Y-127634705D01*
G75*
G02*
X70484705Y-127370000I264705J0D01*
G01*
X71755295Y-127370000D01*
G75*
G02*
X72020000Y-127634705I0J-264705D01*
G01*
G37*
%TD*%
%TO.C,J2*%
X68580000Y-60325000D03*
X68580000Y-62865000D03*
X68580000Y-65405000D03*
X68580000Y-67945000D03*
X68580000Y-70485000D03*
X68580000Y-73025000D03*
X68580000Y-75565000D03*
X68580000Y-78105000D03*
X68580000Y-80645000D03*
X68580000Y-83185000D03*
X71120000Y-60325000D03*
X71120000Y-62865000D03*
X71120000Y-65405000D03*
X71120000Y-67945000D03*
X71120000Y-70485000D03*
X71120000Y-73025000D03*
X71120000Y-75565000D03*
X71120000Y-78105000D03*
X71120000Y-80645000D03*
G36*
G01*
X72020000Y-82549705D02*
X72020000Y-83820295D01*
G75*
G02*
X71755295Y-84085000I-264705J0D01*
G01*
X70484705Y-84085000D01*
G75*
G02*
X70220000Y-83820295I0J264705D01*
G01*
X70220000Y-82549705D01*
G75*
G02*
X70484705Y-82285000I264705J0D01*
G01*
X71755295Y-82285000D01*
G75*
G02*
X72020000Y-82549705I0J-264705D01*
G01*
G37*
%TD*%
D13*
%TO.C,U13*%
X122555000Y-48895000D03*
X107315000Y-97155000D03*
X122555000Y-51435000D03*
X107315000Y-94615000D03*
X122555000Y-53975000D03*
X107315000Y-92075000D03*
X122555000Y-56515000D03*
X107315000Y-89535000D03*
X122555000Y-59055000D03*
X107315000Y-86995000D03*
X122555000Y-61595000D03*
X107315000Y-84455000D03*
X122555000Y-64135000D03*
X107315000Y-81915000D03*
X122555000Y-66675000D03*
X107315000Y-79375000D03*
X122555000Y-69215000D03*
X107315000Y-76835000D03*
X122555000Y-71755000D03*
X107315000Y-74295000D03*
X122555000Y-74295000D03*
X107315000Y-71755000D03*
X122555000Y-76835000D03*
X107315000Y-69215000D03*
X122555000Y-79375000D03*
X107315000Y-66675000D03*
X122555000Y-81915000D03*
X107315000Y-64135000D03*
X122555000Y-84455000D03*
X107315000Y-61595000D03*
X122555000Y-86995000D03*
X107315000Y-59055000D03*
X122555000Y-89535000D03*
X107315000Y-56515000D03*
X122555000Y-92075000D03*
X107315000Y-53975000D03*
X122555000Y-94615000D03*
X107315000Y-51435000D03*
X122555000Y-97155000D03*
G36*
G01*
X106465000Y-49695000D02*
X106465000Y-48095000D01*
G75*
G02*
X106515000Y-48045000I50000J0D01*
G01*
X108115000Y-48045000D01*
G75*
G02*
X108165000Y-48095000I0J-50000D01*
G01*
X108165000Y-49695000D01*
G75*
G02*
X108115000Y-49745000I-50000J0D01*
G01*
X106515000Y-49745000D01*
G75*
G02*
X106465000Y-49695000I0J50000D01*
G01*
G37*
%TD*%
%TO.C,U12*%
X90805000Y-113665000D03*
X83185000Y-128905000D03*
X90805000Y-116205000D03*
X83185000Y-126365000D03*
X90805000Y-118745000D03*
X83185000Y-123825000D03*
X90805000Y-121285000D03*
X83185000Y-121285000D03*
X90805000Y-123825000D03*
X83185000Y-118745000D03*
X90805000Y-126365000D03*
X83185000Y-116205000D03*
X90805000Y-128905000D03*
G36*
G01*
X82335000Y-114465000D02*
X82335000Y-112865000D01*
G75*
G02*
X82385000Y-112815000I50000J0D01*
G01*
X83985000Y-112815000D01*
G75*
G02*
X84035000Y-112865000I0J-50000D01*
G01*
X84035000Y-114465000D01*
G75*
G02*
X83985000Y-114515000I-50000J0D01*
G01*
X82385000Y-114515000D01*
G75*
G02*
X82335000Y-114465000I0J50000D01*
G01*
G37*
%TD*%
%TO.C,U11*%
X142240000Y-113665000D03*
X134620000Y-128905000D03*
X142240000Y-116205000D03*
X134620000Y-126365000D03*
X142240000Y-118745000D03*
X134620000Y-123825000D03*
X142240000Y-121285000D03*
X134620000Y-121285000D03*
X142240000Y-123825000D03*
X134620000Y-118745000D03*
X142240000Y-126365000D03*
X134620000Y-116205000D03*
X142240000Y-128905000D03*
G36*
G01*
X133770000Y-114465000D02*
X133770000Y-112865000D01*
G75*
G02*
X133820000Y-112815000I50000J0D01*
G01*
X135420000Y-112815000D01*
G75*
G02*
X135470000Y-112865000I0J-50000D01*
G01*
X135470000Y-114465000D01*
G75*
G02*
X135420000Y-114515000I-50000J0D01*
G01*
X133820000Y-114515000D01*
G75*
G02*
X133770000Y-114465000I0J50000D01*
G01*
G37*
%TD*%
%TO.C,U10*%
X125095000Y-111125000D03*
X117475000Y-128905000D03*
X125095000Y-113665000D03*
X117475000Y-126365000D03*
X125095000Y-116205000D03*
X117475000Y-123825000D03*
X125095000Y-118745000D03*
X117475000Y-121285000D03*
X125095000Y-121285000D03*
X117475000Y-118745000D03*
X125095000Y-123825000D03*
X117475000Y-116205000D03*
X125095000Y-126365000D03*
X117475000Y-113665000D03*
X125095000Y-128905000D03*
G36*
G01*
X116625000Y-111925000D02*
X116625000Y-110325000D01*
G75*
G02*
X116675000Y-110275000I50000J0D01*
G01*
X118275000Y-110275000D01*
G75*
G02*
X118325000Y-110325000I0J-50000D01*
G01*
X118325000Y-111925000D01*
G75*
G02*
X118275000Y-111975000I-50000J0D01*
G01*
X116675000Y-111975000D01*
G75*
G02*
X116625000Y-111925000I0J50000D01*
G01*
G37*
%TD*%
%TO.C,U9*%
X107315000Y-111125000D03*
X99695000Y-128905000D03*
X107315000Y-113665000D03*
X99695000Y-126365000D03*
X107315000Y-116205000D03*
X99695000Y-123825000D03*
X107315000Y-118745000D03*
X99695000Y-121285000D03*
X107315000Y-121285000D03*
X99695000Y-118745000D03*
X107315000Y-123825000D03*
X99695000Y-116205000D03*
X107315000Y-126365000D03*
X99695000Y-113665000D03*
X107315000Y-128905000D03*
G36*
G01*
X98845000Y-111925000D02*
X98845000Y-110325000D01*
G75*
G02*
X98895000Y-110275000I50000J0D01*
G01*
X100495000Y-110275000D01*
G75*
G02*
X100545000Y-110325000I0J-50000D01*
G01*
X100545000Y-111925000D01*
G75*
G02*
X100495000Y-111975000I-50000J0D01*
G01*
X98895000Y-111975000D01*
G75*
G02*
X98845000Y-111925000I0J50000D01*
G01*
G37*
%TD*%
%TO.C,U8*%
X161290000Y-113665000D03*
X153670000Y-128905000D03*
X161290000Y-116205000D03*
X153670000Y-126365000D03*
X161290000Y-118745000D03*
X153670000Y-123825000D03*
X161290000Y-121285000D03*
X153670000Y-121285000D03*
X161290000Y-123825000D03*
X153670000Y-118745000D03*
X161290000Y-126365000D03*
X153670000Y-116205000D03*
X161290000Y-128905000D03*
G36*
G01*
X152820000Y-114465000D02*
X152820000Y-112865000D01*
G75*
G02*
X152870000Y-112815000I50000J0D01*
G01*
X154470000Y-112815000D01*
G75*
G02*
X154520000Y-112865000I0J-50000D01*
G01*
X154520000Y-114465000D01*
G75*
G02*
X154470000Y-114515000I-50000J0D01*
G01*
X152870000Y-114515000D01*
G75*
G02*
X152820000Y-114465000I0J50000D01*
G01*
G37*
%TD*%
%TO.C,U7*%
X147955000Y-48895000D03*
X140335000Y-86995000D03*
X147955000Y-51435000D03*
X140335000Y-84455000D03*
X147955000Y-53975000D03*
X140335000Y-81915000D03*
X147955000Y-56515000D03*
X140335000Y-79375000D03*
X147955000Y-59055000D03*
X140335000Y-76835000D03*
X147955000Y-61595000D03*
X140335000Y-74295000D03*
X147955000Y-64135000D03*
X140335000Y-71755000D03*
X147955000Y-66675000D03*
X140335000Y-69215000D03*
X147955000Y-69215000D03*
X140335000Y-66675000D03*
X147955000Y-71755000D03*
X140335000Y-64135000D03*
X147955000Y-74295000D03*
X140335000Y-61595000D03*
X147955000Y-76835000D03*
X140335000Y-59055000D03*
X147955000Y-79375000D03*
X140335000Y-56515000D03*
X147955000Y-81915000D03*
X140335000Y-53975000D03*
X147955000Y-84455000D03*
X140335000Y-51435000D03*
X147955000Y-86995000D03*
G36*
G01*
X139485000Y-49695000D02*
X139485000Y-48095000D01*
G75*
G02*
X139535000Y-48045000I50000J0D01*
G01*
X141135000Y-48045000D01*
G75*
G02*
X141185000Y-48095000I0J-50000D01*
G01*
X141185000Y-49695000D01*
G75*
G02*
X141135000Y-49745000I-50000J0D01*
G01*
X139535000Y-49745000D01*
G75*
G02*
X139485000Y-49695000I0J50000D01*
G01*
G37*
%TD*%
%TO.C,U4*%
X201295000Y-112395000D03*
X193675000Y-135255000D03*
X201295000Y-114935000D03*
X193675000Y-132715000D03*
X201295000Y-117475000D03*
X193675000Y-130175000D03*
X201295000Y-120015000D03*
X193675000Y-127635000D03*
X201295000Y-122555000D03*
X193675000Y-125095000D03*
X201295000Y-125095000D03*
X193675000Y-122555000D03*
X201295000Y-127635000D03*
X193675000Y-120015000D03*
X201295000Y-130175000D03*
X193675000Y-117475000D03*
X201295000Y-132715000D03*
X193675000Y-114935000D03*
X201295000Y-135255000D03*
G36*
G01*
X192825000Y-113195000D02*
X192825000Y-111595000D01*
G75*
G02*
X192875000Y-111545000I50000J0D01*
G01*
X194475000Y-111545000D01*
G75*
G02*
X194525000Y-111595000I0J-50000D01*
G01*
X194525000Y-113195000D01*
G75*
G02*
X194475000Y-113245000I-50000J0D01*
G01*
X192875000Y-113245000D01*
G75*
G02*
X192825000Y-113195000I0J50000D01*
G01*
G37*
%TD*%
%TO.C,U3*%
X201295000Y-83185000D03*
X193675000Y-106045000D03*
X201295000Y-85725000D03*
X193675000Y-103505000D03*
X201295000Y-88265000D03*
X193675000Y-100965000D03*
X201295000Y-90805000D03*
X193675000Y-98425000D03*
X201295000Y-93345000D03*
X193675000Y-95885000D03*
X201295000Y-95885000D03*
X193675000Y-93345000D03*
X201295000Y-98425000D03*
X193675000Y-90805000D03*
X201295000Y-100965000D03*
X193675000Y-88265000D03*
X201295000Y-103505000D03*
X193675000Y-85725000D03*
X201295000Y-106045000D03*
G36*
G01*
X192825000Y-83985000D02*
X192825000Y-82385000D01*
G75*
G02*
X192875000Y-82335000I50000J0D01*
G01*
X194475000Y-82335000D01*
G75*
G02*
X194525000Y-82385000I0J-50000D01*
G01*
X194525000Y-83985000D01*
G75*
G02*
X194475000Y-84035000I-50000J0D01*
G01*
X192875000Y-84035000D01*
G75*
G02*
X192825000Y-83985000I0J50000D01*
G01*
G37*
%TD*%
%TO.C,U2*%
X201295000Y-53975000D03*
X193675000Y-76835000D03*
X201295000Y-56515000D03*
X193675000Y-74295000D03*
X201295000Y-59055000D03*
X193675000Y-71755000D03*
X201295000Y-61595000D03*
X193675000Y-69215000D03*
X201295000Y-64135000D03*
X193675000Y-66675000D03*
X201295000Y-66675000D03*
X193675000Y-64135000D03*
X201295000Y-69215000D03*
X193675000Y-61595000D03*
X201295000Y-71755000D03*
X193675000Y-59055000D03*
X201295000Y-74295000D03*
X193675000Y-56515000D03*
X201295000Y-76835000D03*
G36*
G01*
X192825000Y-54775000D02*
X192825000Y-53175000D01*
G75*
G02*
X192875000Y-53125000I50000J0D01*
G01*
X194475000Y-53125000D01*
G75*
G02*
X194525000Y-53175000I0J-50000D01*
G01*
X194525000Y-54775000D01*
G75*
G02*
X194475000Y-54825000I-50000J0D01*
G01*
X192875000Y-54825000D01*
G75*
G02*
X192825000Y-54775000I0J50000D01*
G01*
G37*
%TD*%
%TO.C,U1*%
X180975000Y-113665000D03*
X173355000Y-128905000D03*
X180975000Y-116205000D03*
X173355000Y-126365000D03*
X180975000Y-118745000D03*
X173355000Y-123825000D03*
X180975000Y-121285000D03*
X173355000Y-121285000D03*
X180975000Y-123825000D03*
X173355000Y-118745000D03*
X180975000Y-126365000D03*
X173355000Y-116205000D03*
X180975000Y-128905000D03*
G36*
G01*
X172505000Y-114465000D02*
X172505000Y-112865000D01*
G75*
G02*
X172555000Y-112815000I50000J0D01*
G01*
X174155000Y-112815000D01*
G75*
G02*
X174205000Y-112865000I0J-50000D01*
G01*
X174205000Y-114465000D01*
G75*
G02*
X174155000Y-114515000I-50000J0D01*
G01*
X172555000Y-114515000D01*
G75*
G02*
X172505000Y-114465000I0J50000D01*
G01*
G37*
%TD*%
%TO.C,RN1*%
X208915000Y-88265000D03*
X208915000Y-90805000D03*
X208915000Y-93345000D03*
X208915000Y-95885000D03*
X208915000Y-98425000D03*
X208915000Y-100965000D03*
X208915000Y-103505000D03*
X208915000Y-106045000D03*
G36*
G01*
X209715000Y-109435000D02*
X208115000Y-109435000D01*
G75*
G02*
X208065000Y-109385000I0J50000D01*
G01*
X208065000Y-107785000D01*
G75*
G02*
X208115000Y-107735000I50000J0D01*
G01*
X209715000Y-107735000D01*
G75*
G02*
X209765000Y-107785000I0J-50000D01*
G01*
X209765000Y-109385000D01*
G75*
G02*
X209715000Y-109435000I-50000J0D01*
G01*
G37*
%TD*%
%TO.C,R7*%
X208280000Y-122555000D03*
D14*
X208280000Y-112395000D03*
%TD*%
D13*
%TO.C,R6*%
X211455000Y-122555000D03*
D14*
X211455000Y-112395000D03*
%TD*%
D13*
%TO.C,R5*%
X101727000Y-52705000D03*
D14*
X101727000Y-42545000D03*
%TD*%
D13*
%TO.C,R4*%
X76327000Y-86995000D03*
D14*
X76327000Y-97155000D03*
%TD*%
D13*
%TO.C,R3*%
X76327000Y-83058000D03*
D14*
X76327000Y-72898000D03*
%TD*%
D13*
%TO.C,R2*%
X76073000Y-55245000D03*
D14*
X76073000Y-65405000D03*
%TD*%
D13*
%TO.C,R1*%
X182245000Y-107950000D03*
D14*
X182245000Y-97790000D03*
%TD*%
D16*
%TO.C,J4*%
X73660000Y-43180000D03*
G36*
G01*
X74560000Y-44870000D02*
X74560000Y-46570000D01*
G75*
G02*
X74510000Y-46620000I-50000J0D01*
G01*
X72810000Y-46620000D01*
G75*
G02*
X72760000Y-46570000I0J50000D01*
G01*
X72760000Y-44870000D01*
G75*
G02*
X72810000Y-44820000I50000J0D01*
G01*
X74510000Y-44820000D01*
G75*
G02*
X74560000Y-44870000I0J-50000D01*
G01*
G37*
%TD*%
D17*
%TO.C,J1*%
X215900000Y-128905000D03*
X215900000Y-126365000D03*
X215900000Y-123825000D03*
X215900000Y-121285000D03*
X215900000Y-118745000D03*
X215900000Y-116205000D03*
X215900000Y-113665000D03*
X215900000Y-111125000D03*
X215900000Y-108585000D03*
X215900000Y-106045000D03*
X215900000Y-103505000D03*
X215900000Y-100965000D03*
X215900000Y-98425000D03*
X215900000Y-95885000D03*
X215900000Y-93345000D03*
X215900000Y-90805000D03*
X215900000Y-88265000D03*
X215900000Y-85725000D03*
X215900000Y-83185000D03*
X215900000Y-80645000D03*
X215900000Y-78105000D03*
X215900000Y-75565000D03*
X215900000Y-73025000D03*
X215900000Y-70485000D03*
X215900000Y-67945000D03*
X215900000Y-65405000D03*
X215900000Y-62865000D03*
X215900000Y-60325000D03*
X215900000Y-57785000D03*
X215900000Y-55245000D03*
X215900000Y-52705000D03*
X215900000Y-50165000D03*
X218440000Y-128905000D03*
X218440000Y-126365000D03*
X218440000Y-123825000D03*
X218440000Y-121285000D03*
X218440000Y-118745000D03*
X218440000Y-116205000D03*
X218440000Y-113665000D03*
X218440000Y-111125000D03*
X218440000Y-108585000D03*
X218440000Y-106045000D03*
X218440000Y-103505000D03*
X218440000Y-100965000D03*
X218440000Y-98425000D03*
X218440000Y-95885000D03*
X218440000Y-93345000D03*
X218440000Y-90805000D03*
X218440000Y-88265000D03*
X218440000Y-85725000D03*
X218440000Y-83185000D03*
X218440000Y-80645000D03*
X218440000Y-78105000D03*
X218440000Y-75565000D03*
X218440000Y-73025000D03*
X218440000Y-70485000D03*
X218440000Y-67945000D03*
X218440000Y-65405000D03*
X218440000Y-62865000D03*
X218440000Y-60325000D03*
X218440000Y-57785000D03*
X218440000Y-55245000D03*
X218440000Y-52705000D03*
G36*
G01*
X217881127Y-49340000D02*
X218998873Y-49340000D01*
G75*
G02*
X219265000Y-49606127I0J-266127D01*
G01*
X219265000Y-50723873D01*
G75*
G02*
X218998873Y-50990000I-266127J0D01*
G01*
X217881127Y-50990000D01*
G75*
G02*
X217615000Y-50723873I0J266127D01*
G01*
X217615000Y-49606127D01*
G75*
G02*
X217881127Y-49340000I266127J0D01*
G01*
G37*
D18*
X220980000Y-133985000D03*
X220980000Y-45085000D03*
%TD*%
D14*
%TO.C,C14*%
X153035000Y-45165000D03*
X153035000Y-50165000D03*
%TD*%
%TO.C,C13*%
X167640000Y-130810000D03*
X167640000Y-125810000D03*
%TD*%
%TO.C,C12*%
X147955000Y-130810000D03*
X147955000Y-125810000D03*
%TD*%
%TO.C,C11*%
X129540000Y-130730000D03*
X129540000Y-125730000D03*
%TD*%
%TO.C,C10*%
X113030000Y-130810000D03*
X113030000Y-125810000D03*
%TD*%
%TO.C,C9*%
X95250000Y-130730000D03*
X95250000Y-125730000D03*
%TD*%
%TO.C,C8*%
X186055000Y-130810000D03*
X186055000Y-125810000D03*
%TD*%
%TO.C,C7*%
X182880000Y-45165000D03*
X182880000Y-50165000D03*
%TD*%
%TO.C,C6*%
X189865000Y-45165000D03*
X189865000Y-50165000D03*
%TD*%
%TO.C,C5*%
X189865000Y-76915000D03*
X189865000Y-81915000D03*
%TD*%
%TO.C,C4*%
X207050000Y-46990000D03*
G36*
G01*
X210400000Y-46190000D02*
X210400000Y-47790000D01*
G75*
G02*
X210350000Y-47840000I-50000J0D01*
G01*
X208750000Y-47840000D01*
G75*
G02*
X208700000Y-47790000I0J50000D01*
G01*
X208700000Y-46190000D01*
G75*
G02*
X208750000Y-46140000I50000J0D01*
G01*
X210350000Y-46140000D01*
G75*
G02*
X210400000Y-46190000I0J-50000D01*
G01*
G37*
%TD*%
%TO.C,C3*%
X132715000Y-56595000D03*
X132715000Y-61595000D03*
%TD*%
%TO.C,C2*%
X132635000Y-51435000D03*
X127635000Y-51435000D03*
%TD*%
%TO.C,U6*%
G36*
G01*
X162345000Y-54775000D02*
X162345000Y-53175000D01*
G75*
G02*
X162395000Y-53125000I50000J0D01*
G01*
X163995000Y-53125000D01*
G75*
G02*
X164045000Y-53175000I0J-50000D01*
G01*
X164045000Y-54775000D01*
G75*
G02*
X163995000Y-54825000I-50000J0D01*
G01*
X162395000Y-54825000D01*
G75*
G02*
X162345000Y-54775000I0J50000D01*
G01*
G37*
D13*
X178435000Y-86995000D03*
X163195000Y-56515000D03*
X178435000Y-84455000D03*
X163195000Y-59055000D03*
X178435000Y-81915000D03*
X163195000Y-61595000D03*
X178435000Y-79375000D03*
X163195000Y-64135000D03*
X178435000Y-76835000D03*
X163195000Y-66675000D03*
X178435000Y-74295000D03*
X163195000Y-69215000D03*
X178435000Y-71755000D03*
X163195000Y-71755000D03*
X178435000Y-69215000D03*
X163195000Y-74295000D03*
X178435000Y-66675000D03*
X163195000Y-76835000D03*
X178435000Y-64135000D03*
X163195000Y-79375000D03*
X178435000Y-61595000D03*
X163195000Y-81915000D03*
X178435000Y-59055000D03*
X163195000Y-84455000D03*
X178435000Y-56515000D03*
X163195000Y-86995000D03*
X178435000Y-53975000D03*
%TD*%
D15*
%TO.C,Y1*%
X127635000Y-56515000D03*
X127635000Y-61515000D03*
%TD*%
D14*
%TO.C,C1*%
X127635000Y-42545000D03*
X127635000Y-47545000D03*
%TD*%
%TO.C,C15*%
X86280000Y-43815000D03*
X81280000Y-43815000D03*
%TD*%
%TO.C,C16*%
X189865000Y-111125000D03*
X189865000Y-106125000D03*
%TD*%
M02*
