%TF.GenerationSoftware,KiCad,Pcbnew,(5.1.10)-1*%
%TF.CreationDate,2021-07-28T22:43:10+09:30*%
%TF.ProjectId,System4cpu,53797374-656d-4346-9370-752e6b696361,rev?*%
%TF.SameCoordinates,Original*%
%TF.FileFunction,Copper,L1,Top*%
%TF.FilePolarity,Positive*%
%FSLAX46Y46*%
G04 Gerber Fmt 4.6, Leading zero omitted, Abs format (unit mm)*
G04 Created by KiCad (PCBNEW (5.1.10)-1) date 2021-07-28 22:43:10*
%MOMM*%
%LPD*%
G01*
G04 APERTURE LIST*
%TA.AperFunction,ComponentPad*%
%ADD10O,1.600000X1.600000*%
%TD*%
%TA.AperFunction,ComponentPad*%
%ADD11C,1.600000*%
%TD*%
%TA.AperFunction,ComponentPad*%
%ADD12R,1.600000X1.600000*%
%TD*%
%TA.AperFunction,ComponentPad*%
%ADD13C,1.700000*%
%TD*%
%TA.AperFunction,ComponentPad*%
%ADD14O,1.700000X1.700000*%
%TD*%
%TA.AperFunction,ComponentPad*%
%ADD15R,1.700000X1.700000*%
%TD*%
%TA.AperFunction,ComponentPad*%
%ADD16C,1.550000*%
%TD*%
%TA.AperFunction,ViaPad*%
%ADD17C,0.800000*%
%TD*%
%TA.AperFunction,Conductor*%
%ADD18C,1.270000*%
%TD*%
%TA.AperFunction,Conductor*%
%ADD19C,0.381000*%
%TD*%
%TA.AperFunction,Conductor*%
%ADD20C,0.508000*%
%TD*%
G04 APERTURE END LIST*
D10*
%TO.P,R8,2*%
%TO.N,Net-(C2-Pad1)*%
X136525000Y-46990000D03*
D11*
%TO.P,R8,1*%
%TO.N,Net-(C3-Pad1)*%
X136525000Y-57150000D03*
%TD*%
D10*
%TO.P,U5,40*%
%TO.N,CA1*%
X96520000Y-48895000D03*
%TO.P,U5,20*%
%TO.N,VCC*%
X81280000Y-97155000D03*
%TO.P,U5,39*%
%TO.N,CA2*%
X96520000Y-51435000D03*
%TO.P,U5,19*%
%TO.N,CB2*%
X81280000Y-94615000D03*
%TO.P,U5,38*%
%TO.N,A0*%
X96520000Y-53975000D03*
%TO.P,U5,18*%
%TO.N,CB1*%
X81280000Y-92075000D03*
%TO.P,U5,37*%
%TO.N,A1*%
X96520000Y-56515000D03*
%TO.P,U5,17*%
%TO.N,PB7*%
X81280000Y-89535000D03*
%TO.P,U5,36*%
%TO.N,A2*%
X96520000Y-59055000D03*
%TO.P,U5,16*%
%TO.N,PB6*%
X81280000Y-86995000D03*
%TO.P,U5,35*%
%TO.N,A3*%
X96520000Y-61595000D03*
%TO.P,U5,15*%
%TO.N,PB5*%
X81280000Y-84455000D03*
%TO.P,U5,34*%
%TO.N,NRST*%
X96520000Y-64135000D03*
%TO.P,U5,14*%
%TO.N,PB4*%
X81280000Y-81915000D03*
%TO.P,U5,33*%
%TO.N,D0*%
X96520000Y-66675000D03*
%TO.P,U5,13*%
%TO.N,PB3*%
X81280000Y-79375000D03*
%TO.P,U5,32*%
%TO.N,D1*%
X96520000Y-69215000D03*
%TO.P,U5,12*%
%TO.N,PB2*%
X81280000Y-76835000D03*
%TO.P,U5,31*%
%TO.N,D2*%
X96520000Y-71755000D03*
%TO.P,U5,11*%
%TO.N,PB1*%
X81280000Y-74295000D03*
%TO.P,U5,30*%
%TO.N,D3*%
X96520000Y-74295000D03*
%TO.P,U5,10*%
%TO.N,PB0*%
X81280000Y-71755000D03*
%TO.P,U5,29*%
%TO.N,D4*%
X96520000Y-76835000D03*
%TO.P,U5,9*%
%TO.N,PA7*%
X81280000Y-69215000D03*
%TO.P,U5,28*%
%TO.N,D5*%
X96520000Y-79375000D03*
%TO.P,U5,8*%
%TO.N,PA6*%
X81280000Y-66675000D03*
%TO.P,U5,27*%
%TO.N,D6*%
X96520000Y-81915000D03*
%TO.P,U5,7*%
%TO.N,PA5*%
X81280000Y-64135000D03*
%TO.P,U5,26*%
%TO.N,D7*%
X96520000Y-84455000D03*
%TO.P,U5,6*%
%TO.N,PA4*%
X81280000Y-61595000D03*
%TO.P,U5,25*%
%TO.N,PHI2*%
X96520000Y-86995000D03*
%TO.P,U5,5*%
%TO.N,PA3*%
X81280000Y-59055000D03*
%TO.P,U5,24*%
%TO.N,A7*%
X96520000Y-89535000D03*
%TO.P,U5,4*%
%TO.N,PA2*%
X81280000Y-56515000D03*
%TO.P,U5,23*%
%TO.N,NVIA*%
X96520000Y-92075000D03*
%TO.P,U5,3*%
%TO.N,PA1*%
X81280000Y-53975000D03*
%TO.P,U5,22*%
%TO.N,RNW*%
X96520000Y-94615000D03*
%TO.P,U5,2*%
%TO.N,PA0*%
X81280000Y-51435000D03*
%TO.P,U5,21*%
%TO.N,NIRQ*%
X96520000Y-97155000D03*
D12*
%TO.P,U5,1*%
%TO.N,GND*%
X81280000Y-48895000D03*
%TD*%
D13*
%TO.P,J3,20*%
%TO.N,PB7*%
X68580000Y-105410000D03*
%TO.P,J3,18*%
%TO.N,PB6*%
X68580000Y-107950000D03*
%TO.P,J3,16*%
%TO.N,PB5*%
X68580000Y-110490000D03*
%TO.P,J3,14*%
%TO.N,PB4*%
X68580000Y-113030000D03*
%TO.P,J3,12*%
%TO.N,PB3*%
X68580000Y-115570000D03*
%TO.P,J3,10*%
%TO.N,PB2*%
X68580000Y-118110000D03*
%TO.P,J3,8*%
%TO.N,PB1*%
X68580000Y-120650000D03*
%TO.P,J3,6*%
%TO.N,PB0*%
X68580000Y-123190000D03*
%TO.P,J3,4*%
%TO.N,CB2*%
X68580000Y-125730000D03*
%TO.P,J3,2*%
%TO.N,CB1*%
X68580000Y-128270000D03*
%TO.P,J3,19*%
%TO.N,GND*%
X71120000Y-105410000D03*
%TO.P,J3,17*%
X71120000Y-107950000D03*
%TO.P,J3,15*%
X71120000Y-110490000D03*
%TO.P,J3,13*%
X71120000Y-113030000D03*
%TO.P,J3,11*%
X71120000Y-115570000D03*
%TO.P,J3,9*%
X71120000Y-118110000D03*
%TO.P,J3,7*%
X71120000Y-120650000D03*
%TO.P,J3,5*%
X71120000Y-123190000D03*
%TO.P,J3,3*%
%TO.N,VCC*%
X71120000Y-125730000D03*
%TO.P,J3,1*%
%TA.AperFunction,ComponentPad*%
G36*
G01*
X71970000Y-127670000D02*
X71970000Y-128870000D01*
G75*
G02*
X71720000Y-129120000I-250000J0D01*
G01*
X70520000Y-129120000D01*
G75*
G02*
X70270000Y-128870000I0J250000D01*
G01*
X70270000Y-127670000D01*
G75*
G02*
X70520000Y-127420000I250000J0D01*
G01*
X71720000Y-127420000D01*
G75*
G02*
X71970000Y-127670000I0J-250000D01*
G01*
G37*
%TD.AperFunction*%
%TD*%
%TO.P,J2,20*%
%TO.N,PA5*%
X68580000Y-60325000D03*
%TO.P,J2,18*%
%TO.N,PA4*%
X68580000Y-62865000D03*
%TO.P,J2,16*%
%TO.N,PA3*%
X68580000Y-65405000D03*
%TO.P,J2,14*%
%TO.N,PA2*%
X68580000Y-67945000D03*
%TO.P,J2,12*%
%TO.N,PA1*%
X68580000Y-70485000D03*
%TO.P,J2,10*%
%TO.N,PA0*%
X68580000Y-73025000D03*
%TO.P,J2,8*%
%TO.N,Net-(J2-Pad8)*%
X68580000Y-75565000D03*
%TO.P,J2,6*%
%TO.N,Net-(J2-Pad6)*%
X68580000Y-78105000D03*
%TO.P,J2,4*%
%TO.N,Net-(J2-Pad4)*%
X68580000Y-80645000D03*
%TO.P,J2,2*%
%TO.N,CA2*%
X68580000Y-83185000D03*
%TO.P,J2,19*%
%TO.N,PA6*%
X71120000Y-60325000D03*
%TO.P,J2,17*%
%TO.N,PA7*%
X71120000Y-62865000D03*
%TO.P,J2,15*%
%TO.N,Net-(J2-Pad15)*%
X71120000Y-65405000D03*
%TO.P,J2,13*%
%TO.N,VCC*%
X71120000Y-67945000D03*
%TO.P,J2,11*%
%TO.N,GND*%
X71120000Y-70485000D03*
%TO.P,J2,9*%
%TO.N,Net-(J2-Pad9)*%
X71120000Y-73025000D03*
%TO.P,J2,7*%
%TO.N,Net-(J2-Pad7)*%
X71120000Y-75565000D03*
%TO.P,J2,5*%
%TO.N,Net-(J2-Pad5)*%
X71120000Y-78105000D03*
%TO.P,J2,3*%
%TO.N,Net-(J2-Pad3)*%
X71120000Y-80645000D03*
%TO.P,J2,1*%
%TO.N,CA1*%
%TA.AperFunction,ComponentPad*%
G36*
G01*
X71970000Y-82585000D02*
X71970000Y-83785000D01*
G75*
G02*
X71720000Y-84035000I-250000J0D01*
G01*
X70520000Y-84035000D01*
G75*
G02*
X70270000Y-83785000I0J250000D01*
G01*
X70270000Y-82585000D01*
G75*
G02*
X70520000Y-82335000I250000J0D01*
G01*
X71720000Y-82335000D01*
G75*
G02*
X71970000Y-82585000I0J-250000D01*
G01*
G37*
%TD.AperFunction*%
%TD*%
D10*
%TO.P,U13,40*%
%TO.N,NRST*%
X122555000Y-48895000D03*
%TO.P,U13,20*%
%TO.N,A11*%
X107315000Y-97155000D03*
%TO.P,U13,39*%
%TO.N,PHI2*%
X122555000Y-51435000D03*
%TO.P,U13,19*%
%TO.N,A10*%
X107315000Y-94615000D03*
%TO.P,U13,38*%
%TO.N,Net-(R5-Pad2)*%
X122555000Y-53975000D03*
%TO.P,U13,18*%
%TO.N,A9*%
X107315000Y-92075000D03*
%TO.P,U13,37*%
%TO.N,Net-(C2-Pad1)*%
X122555000Y-56515000D03*
%TO.P,U13,17*%
%TO.N,A8*%
X107315000Y-89535000D03*
%TO.P,U13,36*%
%TO.N,Net-(R5-Pad2)*%
X122555000Y-59055000D03*
%TO.P,U13,16*%
%TO.N,A7*%
X107315000Y-86995000D03*
%TO.P,U13,35*%
%TO.N,Net-(C3-Pad1)*%
X122555000Y-61595000D03*
%TO.P,U13,15*%
%TO.N,A6*%
X107315000Y-84455000D03*
%TO.P,U13,34*%
%TO.N,RNW*%
X122555000Y-64135000D03*
%TO.P,U13,14*%
%TO.N,A5*%
X107315000Y-81915000D03*
%TO.P,U13,33*%
%TO.N,D0*%
X122555000Y-66675000D03*
%TO.P,U13,13*%
%TO.N,A4*%
X107315000Y-79375000D03*
%TO.P,U13,32*%
%TO.N,D1*%
X122555000Y-69215000D03*
%TO.P,U13,12*%
%TO.N,A3*%
X107315000Y-76835000D03*
%TO.P,U13,31*%
%TO.N,D2*%
X122555000Y-71755000D03*
%TO.P,U13,11*%
%TO.N,A2*%
X107315000Y-74295000D03*
%TO.P,U13,30*%
%TO.N,D3*%
X122555000Y-74295000D03*
%TO.P,U13,10*%
%TO.N,A1*%
X107315000Y-71755000D03*
%TO.P,U13,29*%
%TO.N,D4*%
X122555000Y-76835000D03*
%TO.P,U13,9*%
%TO.N,A0*%
X107315000Y-69215000D03*
%TO.P,U13,28*%
%TO.N,D5*%
X122555000Y-79375000D03*
%TO.P,U13,8*%
%TO.N,VCC*%
X107315000Y-66675000D03*
%TO.P,U13,27*%
%TO.N,D6*%
X122555000Y-81915000D03*
%TO.P,U13,7*%
%TO.N,SYNC*%
X107315000Y-64135000D03*
%TO.P,U13,26*%
%TO.N,D7*%
X122555000Y-84455000D03*
%TO.P,U13,6*%
%TO.N,NMI*%
X107315000Y-61595000D03*
%TO.P,U13,25*%
%TO.N,A15*%
X122555000Y-86995000D03*
%TO.P,U13,5*%
%TO.N,Net-(U13-Pad5)*%
X107315000Y-59055000D03*
%TO.P,U13,24*%
%TO.N,A14*%
X122555000Y-89535000D03*
%TO.P,U13,4*%
%TO.N,NIRQ*%
X107315000Y-56515000D03*
%TO.P,U13,23*%
%TO.N,A13*%
X122555000Y-92075000D03*
%TO.P,U13,3*%
%TO.N,Net-(U13-Pad3)*%
X107315000Y-53975000D03*
%TO.P,U13,22*%
%TO.N,A12*%
X122555000Y-94615000D03*
%TO.P,U13,2*%
%TO.N,Net-(R5-Pad2)*%
X107315000Y-51435000D03*
%TO.P,U13,21*%
%TO.N,GND*%
X122555000Y-97155000D03*
D12*
%TO.P,U13,1*%
X107315000Y-48895000D03*
%TD*%
D10*
%TO.P,U12,14*%
%TO.N,VCC*%
X90805000Y-113665000D03*
%TO.P,U12,7*%
%TO.N,GND*%
X83185000Y-128905000D03*
%TO.P,U12,13*%
%TO.N,NVIA*%
X90805000Y-116205000D03*
%TO.P,U12,6*%
%TO.N,NBLKEF*%
X83185000Y-126365000D03*
%TO.P,U12,12*%
%TO.N,NRAMCS*%
X90805000Y-118745000D03*
%TO.P,U12,5*%
%TO.N,A13*%
X83185000Y-123825000D03*
%TO.P,U12,11*%
%TO.N,N/C*%
X90805000Y-121285000D03*
%TO.P,U12,4*%
%TO.N,A14*%
X83185000Y-121285000D03*
%TO.P,U12,10*%
%TO.N,N/C*%
X90805000Y-123825000D03*
%TO.P,U12,3*%
%TO.N,A15*%
X83185000Y-118745000D03*
%TO.P,U12,9*%
%TO.N,N/C*%
X90805000Y-126365000D03*
%TO.P,U12,2*%
%TO.N,NOB*%
X83185000Y-116205000D03*
%TO.P,U12,8*%
%TO.N,N/C*%
X90805000Y-128905000D03*
D12*
%TO.P,U12,1*%
%TO.N,NBLKEF*%
X83185000Y-113665000D03*
%TD*%
D10*
%TO.P,U11,14*%
%TO.N,VCC*%
X142240000Y-113665000D03*
%TO.P,U11,7*%
%TO.N,GND*%
X134620000Y-128905000D03*
%TO.P,U11,13*%
%TO.N,N/C*%
X142240000Y-116205000D03*
%TO.P,U11,6*%
%TO.N,Net-(U10-Pad12)*%
X134620000Y-126365000D03*
%TO.P,U11,12*%
%TO.N,Net-(U10-Pad9)*%
X142240000Y-118745000D03*
%TO.P,U11,5*%
%TO.N,Net-(U10-Pad6)*%
X134620000Y-123825000D03*
%TO.P,U11,11*%
%TO.N,Net-(U10-Pad11)*%
X142240000Y-121285000D03*
%TO.P,U11,4*%
%TO.N,Net-(U10-Pad5)*%
X134620000Y-121285000D03*
%TO.P,U11,10*%
%TO.N,N/C*%
X142240000Y-123825000D03*
%TO.P,U11,3*%
%TO.N,NBLK1*%
X134620000Y-118745000D03*
%TO.P,U11,9*%
%TO.N,N/C*%
X142240000Y-126365000D03*
%TO.P,U11,2*%
%TO.N,VCC*%
X134620000Y-116205000D03*
%TO.P,U11,8*%
%TO.N,Net-(U11-Pad8)*%
X142240000Y-128905000D03*
D12*
%TO.P,U11,1*%
%TO.N,VCC*%
X134620000Y-113665000D03*
%TD*%
D10*
%TO.P,U10,16*%
%TO.N,VCC*%
X125095000Y-111125000D03*
%TO.P,U10,8*%
%TO.N,GND*%
X117475000Y-128905000D03*
%TO.P,U10,15*%
%TO.N,Net-(U10-Pad15)*%
X125095000Y-113665000D03*
%TO.P,U10,7*%
X117475000Y-126365000D03*
%TO.P,U10,14*%
%TO.N,A8*%
X125095000Y-116205000D03*
%TO.P,U10,6*%
%TO.N,Net-(U10-Pad6)*%
X117475000Y-123825000D03*
%TO.P,U10,13*%
%TO.N,A9*%
X125095000Y-118745000D03*
%TO.P,U10,5*%
%TO.N,Net-(U10-Pad5)*%
X117475000Y-121285000D03*
%TO.P,U10,12*%
%TO.N,Net-(U10-Pad12)*%
X125095000Y-121285000D03*
%TO.P,U10,4*%
%TO.N,Net-(U10-Pad4)*%
X117475000Y-118745000D03*
%TO.P,U10,11*%
%TO.N,Net-(U10-Pad11)*%
X125095000Y-123825000D03*
%TO.P,U10,3*%
%TO.N,A11*%
X117475000Y-116205000D03*
%TO.P,U10,10*%
%TO.N,NVIA*%
X125095000Y-126365000D03*
%TO.P,U10,2*%
%TO.N,A10*%
X117475000Y-113665000D03*
%TO.P,U10,9*%
%TO.N,Net-(U10-Pad9)*%
X125095000Y-128905000D03*
D12*
%TO.P,U10,1*%
%TO.N,NBLK0*%
X117475000Y-111125000D03*
%TD*%
D10*
%TO.P,U9,16*%
%TO.N,VCC*%
X107315000Y-111125000D03*
%TO.P,U9,8*%
%TO.N,GND*%
X99695000Y-128905000D03*
%TO.P,U9,15*%
%TO.N,Net-(U9-Pad15)*%
X107315000Y-113665000D03*
%TO.P,U9,7*%
%TO.N,Net-(U9-Pad7)*%
X99695000Y-126365000D03*
%TO.P,U9,14*%
%TO.N,A12*%
X107315000Y-116205000D03*
%TO.P,U9,6*%
%TO.N,Net-(U9-Pad6)*%
X99695000Y-123825000D03*
%TO.P,U9,13*%
%TO.N,A13*%
X107315000Y-118745000D03*
%TO.P,U9,5*%
%TO.N,Net-(U9-Pad5)*%
X99695000Y-121285000D03*
%TO.P,U9,12*%
%TO.N,NBLK0*%
X107315000Y-121285000D03*
%TO.P,U9,4*%
%TO.N,Net-(U9-Pad15)*%
X99695000Y-118745000D03*
%TO.P,U9,11*%
%TO.N,NBLK1*%
X107315000Y-123825000D03*
%TO.P,U9,3*%
%TO.N,A15*%
X99695000Y-116205000D03*
%TO.P,U9,10*%
%TO.N,Net-(U9-Pad10)*%
X107315000Y-126365000D03*
%TO.P,U9,2*%
%TO.N,A14*%
X99695000Y-113665000D03*
%TO.P,U9,9*%
%TO.N,Net-(U9-Pad9)*%
X107315000Y-128905000D03*
D12*
%TO.P,U9,1*%
%TO.N,GND*%
X99695000Y-111125000D03*
%TD*%
D10*
%TO.P,U8,14*%
%TO.N,VCC*%
X161290000Y-113665000D03*
%TO.P,U8,7*%
%TO.N,GND*%
X153670000Y-128905000D03*
%TO.P,U8,13*%
%TO.N,PHI2*%
X161290000Y-116205000D03*
%TO.P,U8,6*%
%TO.N,NOB*%
X153670000Y-126365000D03*
%TO.P,U8,12*%
%TO.N,WNR*%
X161290000Y-118745000D03*
%TO.P,U8,5*%
%TO.N,Net-(U11-Pad8)*%
X153670000Y-123825000D03*
%TO.P,U8,11*%
%TO.N,NWDS*%
X161290000Y-121285000D03*
%TO.P,U8,4*%
%TO.N,Net-(U11-Pad8)*%
X153670000Y-121285000D03*
%TO.P,U8,10*%
%TO.N,RNW*%
X161290000Y-123825000D03*
%TO.P,U8,3*%
%TO.N,WNR*%
X153670000Y-118745000D03*
%TO.P,U8,9*%
%TO.N,PHI2*%
X161290000Y-126365000D03*
%TO.P,U8,2*%
%TO.N,RNW*%
X153670000Y-116205000D03*
%TO.P,U8,8*%
%TO.N,NRDS*%
X161290000Y-128905000D03*
D12*
%TO.P,U8,1*%
%TO.N,VCC*%
X153670000Y-113665000D03*
%TD*%
D10*
%TO.P,U7,32*%
%TO.N,VCC*%
X147955000Y-48895000D03*
%TO.P,U7,16*%
%TO.N,GND*%
X140335000Y-86995000D03*
%TO.P,U7,31*%
%TO.N,A15*%
X147955000Y-51435000D03*
%TO.P,U7,15*%
%TO.N,D2*%
X140335000Y-84455000D03*
%TO.P,U7,30*%
%TO.N,VCC*%
X147955000Y-53975000D03*
%TO.P,U7,14*%
%TO.N,D1*%
X140335000Y-81915000D03*
%TO.P,U7,29*%
%TO.N,NWDS*%
X147955000Y-56515000D03*
%TO.P,U7,13*%
%TO.N,D0*%
X140335000Y-79375000D03*
%TO.P,U7,28*%
%TO.N,A13*%
X147955000Y-59055000D03*
%TO.P,U7,12*%
%TO.N,A0*%
X140335000Y-76835000D03*
%TO.P,U7,27*%
%TO.N,A8*%
X147955000Y-61595000D03*
%TO.P,U7,11*%
%TO.N,A1*%
X140335000Y-74295000D03*
%TO.P,U7,26*%
%TO.N,A9*%
X147955000Y-64135000D03*
%TO.P,U7,10*%
%TO.N,A2*%
X140335000Y-71755000D03*
%TO.P,U7,25*%
%TO.N,A11*%
X147955000Y-66675000D03*
%TO.P,U7,9*%
%TO.N,A3*%
X140335000Y-69215000D03*
%TO.P,U7,24*%
%TO.N,NRDS*%
X147955000Y-69215000D03*
%TO.P,U7,8*%
%TO.N,A4*%
X140335000Y-66675000D03*
%TO.P,U7,23*%
%TO.N,A10*%
X147955000Y-71755000D03*
%TO.P,U7,7*%
%TO.N,A5*%
X140335000Y-64135000D03*
%TO.P,U7,22*%
%TO.N,NRAMCS*%
X147955000Y-74295000D03*
%TO.P,U7,6*%
%TO.N,A6*%
X140335000Y-61595000D03*
%TO.P,U7,21*%
%TO.N,D7*%
X147955000Y-76835000D03*
%TO.P,U7,5*%
%TO.N,A7*%
X140335000Y-59055000D03*
%TO.P,U7,20*%
%TO.N,D6*%
X147955000Y-79375000D03*
%TO.P,U7,4*%
%TO.N,A12*%
X140335000Y-56515000D03*
%TO.P,U7,19*%
%TO.N,D5*%
X147955000Y-81915000D03*
%TO.P,U7,3*%
%TO.N,A14*%
X140335000Y-53975000D03*
%TO.P,U7,18*%
%TO.N,D4*%
X147955000Y-84455000D03*
%TO.P,U7,2*%
%TO.N,Net-(U7-Pad2)*%
X140335000Y-51435000D03*
%TO.P,U7,17*%
%TO.N,D3*%
X147955000Y-86995000D03*
D12*
%TO.P,U7,1*%
%TO.N,Net-(U7-Pad1)*%
X140335000Y-48895000D03*
%TD*%
D10*
%TO.P,U4,20*%
%TO.N,VCC*%
X201295000Y-112395000D03*
%TO.P,U4,10*%
%TO.N,GND*%
X193675000Y-135255000D03*
%TO.P,U4,19*%
%TO.N,NOB*%
X201295000Y-114935000D03*
%TO.P,U4,9*%
%TO.N,/eurocard/BA11*%
X193675000Y-132715000D03*
%TO.P,U4,18*%
%TO.N,/eurocard/BA15*%
X201295000Y-117475000D03*
%TO.P,U4,8*%
%TO.N,A12*%
X193675000Y-130175000D03*
%TO.P,U4,17*%
%TO.N,A8*%
X201295000Y-120015000D03*
%TO.P,U4,7*%
%TO.N,/eurocard/BA10*%
X193675000Y-127635000D03*
%TO.P,U4,16*%
%TO.N,/eurocard/BA14*%
X201295000Y-122555000D03*
%TO.P,U4,6*%
%TO.N,A13*%
X193675000Y-125095000D03*
%TO.P,U4,15*%
%TO.N,A9*%
X201295000Y-125095000D03*
%TO.P,U4,5*%
%TO.N,/eurocard/BA9*%
X193675000Y-122555000D03*
%TO.P,U4,14*%
%TO.N,/eurocard/BA13*%
X201295000Y-127635000D03*
%TO.P,U4,4*%
%TO.N,A14*%
X193675000Y-120015000D03*
%TO.P,U4,13*%
%TO.N,A10*%
X201295000Y-130175000D03*
%TO.P,U4,3*%
%TO.N,/eurocard/BA8*%
X193675000Y-117475000D03*
%TO.P,U4,12*%
%TO.N,/eurocard/BA12*%
X201295000Y-132715000D03*
%TO.P,U4,2*%
%TO.N,A15*%
X193675000Y-114935000D03*
%TO.P,U4,11*%
%TO.N,A11*%
X201295000Y-135255000D03*
D12*
%TO.P,U4,1*%
%TO.N,NOB*%
X193675000Y-112395000D03*
%TD*%
D10*
%TO.P,U3,20*%
%TO.N,VCC*%
X201295000Y-83185000D03*
%TO.P,U3,10*%
%TO.N,GND*%
X193675000Y-106045000D03*
%TO.P,U3,19*%
%TO.N,NOB*%
X201295000Y-85725000D03*
%TO.P,U3,9*%
%TO.N,D0*%
X193675000Y-103505000D03*
%TO.P,U3,18*%
%TO.N,/eurocard/BD7*%
X201295000Y-88265000D03*
%TO.P,U3,8*%
%TO.N,D1*%
X193675000Y-100965000D03*
%TO.P,U3,17*%
%TO.N,/eurocard/BD6*%
X201295000Y-90805000D03*
%TO.P,U3,7*%
%TO.N,D2*%
X193675000Y-98425000D03*
%TO.P,U3,16*%
%TO.N,/eurocard/BD5*%
X201295000Y-93345000D03*
%TO.P,U3,6*%
%TO.N,D3*%
X193675000Y-95885000D03*
%TO.P,U3,15*%
%TO.N,/eurocard/BD4*%
X201295000Y-95885000D03*
%TO.P,U3,5*%
%TO.N,D4*%
X193675000Y-93345000D03*
%TO.P,U3,14*%
%TO.N,/eurocard/BD3*%
X201295000Y-98425000D03*
%TO.P,U3,4*%
%TO.N,D5*%
X193675000Y-90805000D03*
%TO.P,U3,13*%
%TO.N,/eurocard/BD2*%
X201295000Y-100965000D03*
%TO.P,U3,3*%
%TO.N,D6*%
X193675000Y-88265000D03*
%TO.P,U3,12*%
%TO.N,/eurocard/BD1*%
X201295000Y-103505000D03*
%TO.P,U3,2*%
%TO.N,D7*%
X193675000Y-85725000D03*
%TO.P,U3,11*%
%TO.N,/eurocard/BD0*%
X201295000Y-106045000D03*
D12*
%TO.P,U3,1*%
%TO.N,WNR*%
X193675000Y-83185000D03*
%TD*%
D10*
%TO.P,U2,20*%
%TO.N,VCC*%
X201295000Y-53975000D03*
%TO.P,U2,10*%
%TO.N,GND*%
X193675000Y-76835000D03*
%TO.P,U2,19*%
%TO.N,NOB*%
X201295000Y-56515000D03*
%TO.P,U2,9*%
%TO.N,/eurocard/BA0*%
X193675000Y-74295000D03*
%TO.P,U2,18*%
%TO.N,/eurocard/BA7*%
X201295000Y-59055000D03*
%TO.P,U2,8*%
%TO.N,A4*%
X193675000Y-71755000D03*
%TO.P,U2,17*%
%TO.N,A3*%
X201295000Y-61595000D03*
%TO.P,U2,7*%
%TO.N,/eurocard/BA1*%
X193675000Y-69215000D03*
%TO.P,U2,16*%
%TO.N,/eurocard/BA6*%
X201295000Y-64135000D03*
%TO.P,U2,6*%
%TO.N,A5*%
X193675000Y-66675000D03*
%TO.P,U2,15*%
%TO.N,A2*%
X201295000Y-66675000D03*
%TO.P,U2,5*%
%TO.N,/eurocard/BA2*%
X193675000Y-64135000D03*
%TO.P,U2,14*%
%TO.N,/eurocard/BA5*%
X201295000Y-69215000D03*
%TO.P,U2,4*%
%TO.N,A6*%
X193675000Y-61595000D03*
%TO.P,U2,13*%
%TO.N,A1*%
X201295000Y-71755000D03*
%TO.P,U2,3*%
%TO.N,/eurocard/BA3*%
X193675000Y-59055000D03*
%TO.P,U2,12*%
%TO.N,/eurocard/BA4*%
X201295000Y-74295000D03*
%TO.P,U2,2*%
%TO.N,A7*%
X193675000Y-56515000D03*
%TO.P,U2,11*%
%TO.N,A0*%
X201295000Y-76835000D03*
D12*
%TO.P,U2,1*%
%TO.N,NOB*%
X193675000Y-53975000D03*
%TD*%
D10*
%TO.P,U1,14*%
%TO.N,VCC*%
X180975000Y-113665000D03*
%TO.P,U1,7*%
%TO.N,GND*%
X173355000Y-128905000D03*
%TO.P,U1,13*%
X180975000Y-116205000D03*
%TO.P,U1,6*%
%TO.N,/eurocard/BRNW*%
X173355000Y-126365000D03*
%TO.P,U1,12*%
%TO.N,Net-(U1-Pad12)*%
X180975000Y-118745000D03*
%TO.P,U1,5*%
%TO.N,RNW*%
X173355000Y-123825000D03*
%TO.P,U1,11*%
%TO.N,Net-(R1-Pad2)*%
X180975000Y-121285000D03*
%TO.P,U1,4*%
%TO.N,GND*%
X173355000Y-121285000D03*
%TO.P,U1,10*%
X180975000Y-123825000D03*
%TO.P,U1,3*%
%TO.N,/eurocard/BPHI2*%
X173355000Y-118745000D03*
%TO.P,U1,9*%
%TO.N,SYNC*%
X180975000Y-126365000D03*
%TO.P,U1,2*%
%TO.N,PHI2*%
X173355000Y-116205000D03*
%TO.P,U1,8*%
%TO.N,/eurocard/BSYNC*%
X180975000Y-128905000D03*
D12*
%TO.P,U1,1*%
%TO.N,GND*%
X173355000Y-113665000D03*
%TD*%
D10*
%TO.P,RN1,9*%
%TO.N,/eurocard/BD7*%
X208915000Y-88265000D03*
%TO.P,RN1,8*%
%TO.N,/eurocard/BD6*%
X208915000Y-90805000D03*
%TO.P,RN1,7*%
%TO.N,/eurocard/BD5*%
X208915000Y-93345000D03*
%TO.P,RN1,6*%
%TO.N,/eurocard/BD4*%
X208915000Y-95885000D03*
%TO.P,RN1,5*%
%TO.N,/eurocard/BD3*%
X208915000Y-98425000D03*
%TO.P,RN1,4*%
%TO.N,/eurocard/BD2*%
X208915000Y-100965000D03*
%TO.P,RN1,3*%
%TO.N,/eurocard/BD1*%
X208915000Y-103505000D03*
%TO.P,RN1,2*%
%TO.N,/eurocard/BD0*%
X208915000Y-106045000D03*
D12*
%TO.P,RN1,1*%
%TO.N,GND*%
X208915000Y-108585000D03*
%TD*%
D10*
%TO.P,R7,2*%
%TO.N,NIRQ*%
X208280000Y-122555000D03*
D11*
%TO.P,R7,1*%
%TO.N,VCC*%
X208280000Y-112395000D03*
%TD*%
D10*
%TO.P,R6,2*%
%TO.N,NMI*%
X211455000Y-122555000D03*
D11*
%TO.P,R6,1*%
%TO.N,VCC*%
X211455000Y-112395000D03*
%TD*%
D10*
%TO.P,R5,2*%
%TO.N,Net-(R5-Pad2)*%
X101727000Y-52705000D03*
D11*
%TO.P,R5,1*%
%TO.N,VCC*%
X101727000Y-42545000D03*
%TD*%
D10*
%TO.P,R4,2*%
%TO.N,CA2*%
X76327000Y-86995000D03*
D11*
%TO.P,R4,1*%
%TO.N,VCC*%
X76327000Y-97155000D03*
%TD*%
D10*
%TO.P,R3,2*%
%TO.N,CA1*%
X76327000Y-83058000D03*
D11*
%TO.P,R3,1*%
%TO.N,VCC*%
X76327000Y-72898000D03*
%TD*%
D10*
%TO.P,R2,2*%
%TO.N,NRST*%
X76073000Y-55245000D03*
D11*
%TO.P,R2,1*%
%TO.N,Net-(J2-Pad15)*%
X76073000Y-65405000D03*
%TD*%
D10*
%TO.P,R1,2*%
%TO.N,Net-(R1-Pad2)*%
X182245000Y-107950000D03*
D11*
%TO.P,R1,1*%
%TO.N,/eurocard/B4MHZ*%
X182245000Y-97790000D03*
%TD*%
D14*
%TO.P,J4,2*%
%TO.N,CA1*%
X73660000Y-43180000D03*
D15*
%TO.P,J4,1*%
%TO.N,PA7*%
X73660000Y-45720000D03*
%TD*%
D16*
%TO.P,J1,b32*%
%TO.N,GND*%
X215900000Y-128905000D03*
%TO.P,J1,b31*%
%TO.N,Net-(J1-Padb31)*%
X215900000Y-126365000D03*
%TO.P,J1,b30*%
%TO.N,/eurocard/BSYNC*%
X215900000Y-123825000D03*
%TO.P,J1,b29*%
%TO.N,NMI*%
X215900000Y-121285000D03*
%TO.P,J1,b28*%
%TO.N,NIRQ*%
X215900000Y-118745000D03*
%TO.P,J1,b27*%
%TO.N,Net-(J1-Padb27)*%
X215900000Y-116205000D03*
%TO.P,J1,b26*%
%TO.N,Net-(J1-Padb26)*%
X215900000Y-113665000D03*
%TO.P,J1,b25*%
%TO.N,Net-(J1-Padb25)*%
X215900000Y-111125000D03*
%TO.P,J1,b24*%
%TO.N,Net-(J1-Padb24)*%
X215900000Y-108585000D03*
%TO.P,J1,b23*%
%TO.N,Net-(J1-Padb23)*%
X215900000Y-106045000D03*
%TO.P,J1,b22*%
%TO.N,Net-(J1-Padb22)*%
X215900000Y-103505000D03*
%TO.P,J1,b21*%
%TO.N,Net-(J1-Padb21)*%
X215900000Y-100965000D03*
%TO.P,J1,b20*%
%TO.N,Net-(J1-Padb20)*%
X215900000Y-98425000D03*
%TO.P,J1,b19*%
%TO.N,Net-(J1-Padb19)*%
X215900000Y-95885000D03*
%TO.P,J1,b18*%
%TO.N,Net-(J1-Padb18)*%
X215900000Y-93345000D03*
%TO.P,J1,b17*%
%TO.N,Net-(J1-Padb17)*%
X215900000Y-90805000D03*
%TO.P,J1,b16*%
%TO.N,/eurocard/B4MHZ*%
X215900000Y-88265000D03*
%TO.P,J1,b15*%
%TO.N,Net-(J1-Padb15)*%
X215900000Y-85725000D03*
%TO.P,J1,b14*%
%TO.N,Net-(J1-Padb14)*%
X215900000Y-83185000D03*
%TO.P,J1,b13*%
%TO.N,Net-(J1-Padb13)*%
X215900000Y-80645000D03*
%TO.P,J1,b12*%
%TO.N,Net-(J1-Padb12)*%
X215900000Y-78105000D03*
%TO.P,J1,b11*%
%TO.N,Net-(J1-Padb11)*%
X215900000Y-75565000D03*
%TO.P,J1,b10*%
%TO.N,Net-(J1-Padb10)*%
X215900000Y-73025000D03*
%TO.P,J1,b9*%
%TO.N,Net-(J1-Padb9)*%
X215900000Y-70485000D03*
%TO.P,J1,b8*%
%TO.N,Net-(J1-Padb8)*%
X215900000Y-67945000D03*
%TO.P,J1,b7*%
%TO.N,Net-(J1-Padb7)*%
X215900000Y-65405000D03*
%TO.P,J1,b6*%
%TO.N,Net-(J1-Padb6)*%
X215900000Y-62865000D03*
%TO.P,J1,b5*%
%TO.N,Net-(J1-Padb5)*%
X215900000Y-60325000D03*
%TO.P,J1,b4*%
%TO.N,Net-(J1-Padb4)*%
X215900000Y-57785000D03*
%TO.P,J1,b3*%
%TO.N,Net-(J1-Padb3)*%
X215900000Y-55245000D03*
%TO.P,J1,b2*%
%TO.N,Net-(J1-Padb2)*%
X215900000Y-52705000D03*
%TO.P,J1,b1*%
%TO.N,Net-(J1-Padb1)*%
X215900000Y-50165000D03*
%TO.P,J1,a32*%
%TO.N,GND*%
X218440000Y-128905000D03*
%TO.P,J1,a31*%
%TO.N,NBLK0*%
X218440000Y-126365000D03*
%TO.P,J1,a30*%
%TO.N,/eurocard/BRNW*%
X218440000Y-123825000D03*
%TO.P,J1,a29*%
%TO.N,/eurocard/BPHI2*%
X218440000Y-121285000D03*
%TO.P,J1,a28*%
%TO.N,/eurocard/BA9*%
X218440000Y-118745000D03*
%TO.P,J1,a27*%
%TO.N,/eurocard/BA10*%
X218440000Y-116205000D03*
%TO.P,J1,a26*%
%TO.N,/eurocard/BA11*%
X218440000Y-113665000D03*
%TO.P,J1,a25*%
%TO.N,/eurocard/BA12*%
X218440000Y-111125000D03*
%TO.P,J1,a24*%
%TO.N,/eurocard/BA13*%
X218440000Y-108585000D03*
%TO.P,J1,a23*%
%TO.N,/eurocard/BD0*%
X218440000Y-106045000D03*
%TO.P,J1,a22*%
%TO.N,/eurocard/BD1*%
X218440000Y-103505000D03*
%TO.P,J1,a21*%
%TO.N,/eurocard/BD2*%
X218440000Y-100965000D03*
%TO.P,J1,a20*%
%TO.N,/eurocard/BD3*%
X218440000Y-98425000D03*
%TO.P,J1,a19*%
%TO.N,/eurocard/BD4*%
X218440000Y-95885000D03*
%TO.P,J1,a18*%
%TO.N,/eurocard/BD5*%
X218440000Y-93345000D03*
%TO.P,J1,a17*%
%TO.N,/eurocard/BD6*%
X218440000Y-90805000D03*
%TO.P,J1,a16*%
%TO.N,/eurocard/BD7*%
X218440000Y-88265000D03*
%TO.P,J1,a15*%
%TO.N,/eurocard/BA0*%
X218440000Y-85725000D03*
%TO.P,J1,a14*%
%TO.N,/eurocard/BA1*%
X218440000Y-83185000D03*
%TO.P,J1,a13*%
%TO.N,/eurocard/BA2*%
X218440000Y-80645000D03*
%TO.P,J1,a12*%
%TO.N,/eurocard/BA3*%
X218440000Y-78105000D03*
%TO.P,J1,a11*%
%TO.N,/eurocard/BA4*%
X218440000Y-75565000D03*
%TO.P,J1,a10*%
%TO.N,/eurocard/BA5*%
X218440000Y-73025000D03*
%TO.P,J1,a9*%
%TO.N,/eurocard/BA6*%
X218440000Y-70485000D03*
%TO.P,J1,a8*%
%TO.N,/eurocard/BA7*%
X218440000Y-67945000D03*
%TO.P,J1,a7*%
%TO.N,/eurocard/BA8*%
X218440000Y-65405000D03*
%TO.P,J1,a6*%
%TO.N,NRST*%
X218440000Y-62865000D03*
%TO.P,J1,a5*%
%TO.N,NRDS*%
X218440000Y-60325000D03*
%TO.P,J1,a4*%
%TO.N,NWDS*%
X218440000Y-57785000D03*
%TO.P,J1,a3*%
%TO.N,/eurocard/BA14*%
X218440000Y-55245000D03*
%TO.P,J1,a2*%
%TO.N,/eurocard/BA15*%
X218440000Y-52705000D03*
%TO.P,J1,a1*%
%TO.N,VCC*%
%TA.AperFunction,ComponentPad*%
G36*
G01*
X217914999Y-49390000D02*
X218965001Y-49390000D01*
G75*
G02*
X219215000Y-49639999I0J-249999D01*
G01*
X219215000Y-50690001D01*
G75*
G02*
X218965001Y-50940000I-249999J0D01*
G01*
X217914999Y-50940000D01*
G75*
G02*
X217665000Y-50690001I0J249999D01*
G01*
X217665000Y-49639999D01*
G75*
G02*
X217914999Y-49390000I249999J0D01*
G01*
G37*
%TD.AperFunction*%
%TD*%
D11*
%TO.P,C14,2*%
%TO.N,GND*%
X153035000Y-45165000D03*
%TO.P,C14,1*%
%TO.N,VCC*%
X153035000Y-50165000D03*
%TD*%
%TO.P,C13,2*%
%TO.N,GND*%
X167640000Y-130810000D03*
%TO.P,C13,1*%
%TO.N,VCC*%
X167640000Y-125810000D03*
%TD*%
%TO.P,C12,2*%
%TO.N,GND*%
X147955000Y-130810000D03*
%TO.P,C12,1*%
%TO.N,VCC*%
X147955000Y-125810000D03*
%TD*%
%TO.P,C11,2*%
%TO.N,GND*%
X129540000Y-130730000D03*
%TO.P,C11,1*%
%TO.N,VCC*%
X129540000Y-125730000D03*
%TD*%
%TO.P,C10,2*%
%TO.N,GND*%
X113030000Y-130810000D03*
%TO.P,C10,1*%
%TO.N,VCC*%
X113030000Y-125810000D03*
%TD*%
%TO.P,C9,2*%
%TO.N,GND*%
X95250000Y-130730000D03*
%TO.P,C9,1*%
%TO.N,VCC*%
X95250000Y-125730000D03*
%TD*%
%TO.P,C8,2*%
%TO.N,GND*%
X186055000Y-130810000D03*
%TO.P,C8,1*%
%TO.N,VCC*%
X186055000Y-125810000D03*
%TD*%
%TO.P,C7,2*%
%TO.N,GND*%
X182880000Y-45165000D03*
%TO.P,C7,1*%
%TO.N,VCC*%
X182880000Y-50165000D03*
%TD*%
%TO.P,C6,2*%
%TO.N,GND*%
X189865000Y-45165000D03*
%TO.P,C6,1*%
%TO.N,VCC*%
X189865000Y-50165000D03*
%TD*%
%TO.P,C5,2*%
%TO.N,GND*%
X189865000Y-76915000D03*
%TO.P,C5,1*%
%TO.N,VCC*%
X189865000Y-81915000D03*
%TD*%
%TO.P,C4,2*%
%TO.N,GND*%
X207050000Y-46990000D03*
D12*
%TO.P,C4,1*%
%TO.N,VCC*%
X209550000Y-46990000D03*
%TD*%
D11*
%TO.P,C3,2*%
%TO.N,GND*%
X132715000Y-56595000D03*
%TO.P,C3,1*%
%TO.N,Net-(C3-Pad1)*%
X132715000Y-61595000D03*
%TD*%
%TO.P,C2,2*%
%TO.N,GND*%
X132635000Y-51435000D03*
%TO.P,C2,1*%
%TO.N,Net-(C2-Pad1)*%
X127635000Y-51435000D03*
%TD*%
D12*
%TO.P,U6,1*%
%TO.N,VCC*%
X163195000Y-53975000D03*
D10*
%TO.P,U6,15*%
%TO.N,D3*%
X178435000Y-86995000D03*
%TO.P,U6,2*%
%TO.N,A12*%
X163195000Y-56515000D03*
%TO.P,U6,16*%
%TO.N,D4*%
X178435000Y-84455000D03*
%TO.P,U6,3*%
%TO.N,A7*%
X163195000Y-59055000D03*
%TO.P,U6,17*%
%TO.N,D5*%
X178435000Y-81915000D03*
%TO.P,U6,4*%
%TO.N,A6*%
X163195000Y-61595000D03*
%TO.P,U6,18*%
%TO.N,D6*%
X178435000Y-79375000D03*
%TO.P,U6,5*%
%TO.N,A5*%
X163195000Y-64135000D03*
%TO.P,U6,19*%
%TO.N,D7*%
X178435000Y-76835000D03*
%TO.P,U6,6*%
%TO.N,A4*%
X163195000Y-66675000D03*
%TO.P,U6,20*%
%TO.N,NBLKEF*%
X178435000Y-74295000D03*
%TO.P,U6,7*%
%TO.N,A3*%
X163195000Y-69215000D03*
%TO.P,U6,21*%
%TO.N,A10*%
X178435000Y-71755000D03*
%TO.P,U6,8*%
%TO.N,A2*%
X163195000Y-71755000D03*
%TO.P,U6,22*%
%TO.N,NRDS*%
X178435000Y-69215000D03*
%TO.P,U6,9*%
%TO.N,A1*%
X163195000Y-74295000D03*
%TO.P,U6,23*%
%TO.N,A11*%
X178435000Y-66675000D03*
%TO.P,U6,10*%
%TO.N,A0*%
X163195000Y-76835000D03*
%TO.P,U6,24*%
%TO.N,A9*%
X178435000Y-64135000D03*
%TO.P,U6,11*%
%TO.N,D0*%
X163195000Y-79375000D03*
%TO.P,U6,25*%
%TO.N,A8*%
X178435000Y-61595000D03*
%TO.P,U6,12*%
%TO.N,D1*%
X163195000Y-81915000D03*
%TO.P,U6,26*%
%TO.N,GND*%
X178435000Y-59055000D03*
%TO.P,U6,13*%
%TO.N,D2*%
X163195000Y-84455000D03*
%TO.P,U6,27*%
%TO.N,NWDS*%
X178435000Y-56515000D03*
%TO.P,U6,14*%
%TO.N,GND*%
X163195000Y-86995000D03*
%TO.P,U6,28*%
%TO.N,VCC*%
X178435000Y-53975000D03*
%TD*%
D13*
%TO.P,Y1,1*%
%TO.N,Net-(C2-Pad1)*%
X127635000Y-56515000D03*
%TO.P,Y1,2*%
%TO.N,Net-(C3-Pad1)*%
X127635000Y-61515000D03*
%TD*%
D11*
%TO.P,C1,1*%
%TO.N,VCC*%
X127635000Y-42545000D03*
%TO.P,C1,2*%
%TO.N,GND*%
X127635000Y-47545000D03*
%TD*%
%TO.P,C15,2*%
%TO.N,GND*%
X86280000Y-43815000D03*
%TO.P,C15,1*%
%TO.N,VCC*%
X81280000Y-43815000D03*
%TD*%
%TO.P,C16,1*%
%TO.N,VCC*%
X189865000Y-111125000D03*
%TO.P,C16,2*%
%TO.N,GND*%
X189865000Y-106125000D03*
%TD*%
D17*
%TO.N,GND*%
X107315000Y-45720000D03*
X65405000Y-102870010D03*
X77470000Y-100965000D03*
X167005000Y-45085000D03*
X138430000Y-98425000D03*
X93345000Y-100965000D03*
X90169994Y-100965000D03*
%TO.N,VCC*%
X161290000Y-50165000D03*
X103251000Y-109474000D03*
%TO.N,NIRQ*%
X97923489Y-132213489D03*
X183134000Y-127635000D03*
X181864004Y-133477000D03*
%TO.N,/eurocard/B4MHZ*%
X211455000Y-109220000D03*
X211455000Y-88265000D03*
%TO.N,NBLK0*%
X110490000Y-132559490D03*
X115443000Y-115697002D03*
%TO.N,/eurocard/BA10*%
X208407008Y-118999000D03*
%TO.N,/eurocard/BA11*%
X213995000Y-116205000D03*
X211455000Y-124968002D03*
%TO.N,/eurocard/BA13*%
X208788000Y-114300000D03*
X205486000Y-125857000D03*
%TO.N,/eurocard/BA1*%
X208280000Y-70485000D03*
X208384499Y-82019499D03*
%TO.N,/eurocard/BA2*%
X209550000Y-67945000D03*
X209550000Y-79375000D03*
%TO.N,/eurocard/BA3*%
X211455000Y-66675000D03*
X211455000Y-76835000D03*
%TO.N,/eurocard/BA8*%
X213995000Y-114173000D03*
%TO.N,NRST*%
X93345000Y-64135000D03*
X93345000Y-46989990D03*
X93345000Y-52070000D03*
X208661000Y-59182000D03*
%TO.N,NRDS*%
X182880000Y-69215000D03*
X155575000Y-67945000D03*
X182880000Y-60325000D03*
%TO.N,NWDS*%
X156845000Y-55245000D03*
%TO.N,RNW*%
X116840000Y-64135000D03*
X116840000Y-92075000D03*
X116840000Y-106045000D03*
X151285510Y-106045000D03*
%TO.N,SYNC*%
X115570000Y-102235000D03*
X149859996Y-102235000D03*
X149987000Y-127634998D03*
%TO.N,PHI2*%
X94615000Y-50165000D03*
X158115000Y-104775000D03*
X99060000Y-104775000D03*
%TO.N,NOB*%
X191770000Y-84455000D03*
X191770000Y-84455000D03*
X191134994Y-126365000D03*
%TO.N,A4*%
X185975501Y-68024499D03*
X186055000Y-71755000D03*
X135890000Y-66675000D03*
X135509000Y-78994000D03*
%TO.N,A0*%
X138430000Y-76835000D03*
X138430000Y-67945000D03*
%TO.N,A5*%
X120729499Y-65484499D03*
X120650000Y-80645000D03*
%TO.N,A1*%
X137881616Y-74295000D03*
X137795000Y-70383479D03*
%TO.N,A6*%
X120015000Y-83185000D03*
X119634000Y-62865000D03*
%TO.N,A7*%
X118745000Y-85725000D03*
X118744996Y-60452000D03*
%TO.N,A3*%
X184150000Y-64135000D03*
X184070501Y-70405501D03*
X136525000Y-69215000D03*
X136525000Y-76835000D03*
%TO.N,D0*%
X128905000Y-79375000D03*
X128905000Y-66675000D03*
X102870000Y-66675000D03*
%TO.N,D1*%
X130175000Y-69215000D03*
X130175000Y-81915000D03*
%TO.N,D2*%
X131445000Y-84299490D03*
X131277954Y-71789321D03*
%TO.N,D3*%
X142160501Y-75485501D03*
X142240000Y-86360000D03*
%TO.N,D4*%
X143510000Y-78740000D03*
%TO.N,D5*%
X149860000Y-81915000D03*
X126365000Y-79375000D03*
X149860000Y-91440000D03*
X126365000Y-86204490D03*
%TO.N,D6*%
X146050000Y-79375000D03*
X146050000Y-81915000D03*
%TO.N,D7*%
X144780000Y-84455000D03*
X144780000Y-76835000D03*
X183515000Y-79375000D03*
%TO.N,A12*%
X153035010Y-57785000D03*
X153670000Y-99695000D03*
X113157000Y-95758000D03*
X113157000Y-114173000D03*
%TO.N,A8*%
X134620000Y-61595000D03*
X134620000Y-85725000D03*
X199390000Y-61595000D03*
X129667000Y-85090000D03*
X129666992Y-116205000D03*
%TO.N,A13*%
X113664998Y-115697000D03*
X151187012Y-98435371D03*
X114173000Y-93472000D03*
%TO.N,A9*%
X133350000Y-64135000D03*
X133350000Y-90805000D03*
X132080000Y-118745000D03*
X198120000Y-65405000D03*
%TO.N,A14*%
X97075501Y-119935501D03*
X97155000Y-113665000D03*
X158115000Y-53975000D03*
X158115000Y-53975000D03*
X158115000Y-97155000D03*
X101472998Y-90805000D03*
%TO.N,A10*%
X131924490Y-93345000D03*
X119380000Y-93345000D03*
X196850000Y-79375000D03*
X132461000Y-71119986D03*
X185039016Y-79374990D03*
%TO.N,A15*%
X114935000Y-88265000D03*
X152400000Y-95885000D03*
%TO.N,A11*%
X127635000Y-65405000D03*
X127635000Y-95885000D03*
X120650000Y-95885000D03*
X184785000Y-74294994D03*
X195707000Y-76835000D03*
%TO.N,NVIA*%
X94615000Y-105038509D03*
X89408000Y-108076992D03*
%TO.N,NBLKEF*%
X173990004Y-74295000D03*
X174117000Y-107442000D03*
%TO.N,NRAMCS*%
X125095000Y-73504490D03*
X125095000Y-103505000D03*
X111760000Y-103505006D03*
X111759998Y-115697000D03*
%TO.N,Net-(U10-Pad12)*%
X132080000Y-121285000D03*
X132080000Y-126365000D03*
%TO.N,WNR*%
X185721501Y-122634499D03*
X186182000Y-80518000D03*
%TD*%
D18*
%TO.N,GND*%
X71120000Y-105410000D02*
X71120000Y-123190000D01*
X79375000Y-48895000D02*
X81280000Y-48895000D01*
X78740000Y-49530000D02*
X79375000Y-48895000D01*
X78740000Y-67310000D02*
X78740000Y-49530000D01*
X71120000Y-70485000D02*
X75565000Y-70485000D01*
X75565000Y-70485000D02*
X78740000Y-67310000D01*
X107315000Y-48895000D02*
X107315000Y-45720000D01*
X65405000Y-102870010D02*
X70485010Y-102870010D01*
X71120000Y-103505000D02*
X71120000Y-105410000D01*
X70485010Y-102870010D02*
X71120000Y-103505000D01*
D19*
X98504499Y-127714499D02*
X98504499Y-112315501D01*
X98504499Y-112315501D02*
X99695000Y-111125000D01*
X99695000Y-128905000D02*
X98504499Y-127714499D01*
D18*
X188229999Y-46800001D02*
X188229999Y-75279999D01*
X188229999Y-75279999D02*
X189865000Y-76915000D01*
X189865000Y-45165000D02*
X188229999Y-46800001D01*
X135255000Y-128270000D02*
X134620000Y-128905000D01*
X136525000Y-128270000D02*
X135255000Y-128270000D01*
X138430000Y-126365000D02*
X136525000Y-128270000D01*
X140335000Y-86995000D02*
X138430000Y-88900000D01*
X138430000Y-88900000D02*
X138430000Y-126365000D01*
X189945000Y-106045000D02*
X189865000Y-106125000D01*
X193675000Y-106045000D02*
X189945000Y-106045000D01*
X188515000Y-106125000D02*
X187960000Y-106680000D01*
X189865000Y-106125000D02*
X188515000Y-106125000D01*
X186055000Y-130810000D02*
X186690000Y-130810000D01*
X187960000Y-129540000D02*
X187960000Y-106680000D01*
X186690000Y-130810000D02*
X187960000Y-129540000D01*
X167005000Y-86995000D02*
X163195000Y-86995000D01*
X167640000Y-130810000D02*
X169275001Y-129174999D01*
X169275001Y-89265001D02*
X167005000Y-86995000D01*
X169275001Y-129174999D02*
X169275001Y-89265001D01*
X167005000Y-86995000D02*
X167005000Y-45085000D01*
X207050000Y-46386998D02*
X207050000Y-46990000D01*
X208986998Y-44450000D02*
X207050000Y-46386998D01*
X220345000Y-128905000D02*
X221615000Y-127635000D01*
X218440000Y-128905000D02*
X220345000Y-128905000D01*
X221615000Y-127635000D02*
X221615000Y-50165000D01*
X221615000Y-50165000D02*
X215900000Y-44450000D01*
X215900000Y-44450000D02*
X208986998Y-44450000D01*
X65405000Y-56769000D02*
X65405000Y-102870010D01*
X70358000Y-51816000D02*
X65405000Y-56769000D01*
X70358000Y-43180000D02*
X70358000Y-51816000D01*
X72390000Y-41148000D02*
X70358000Y-43180000D01*
X83613000Y-41148000D02*
X72390000Y-41148000D01*
X86280000Y-43815000D02*
X83613000Y-41148000D01*
X85096802Y-128905000D02*
X83185000Y-128905000D01*
X86741000Y-127260802D02*
X85096802Y-128905000D01*
X86741000Y-100965000D02*
X86741000Y-127260802D01*
X77470000Y-100965000D02*
X86741000Y-100965000D01*
X152955000Y-45085000D02*
X153035000Y-45165000D01*
X131445000Y-45085000D02*
X152955000Y-45085000D01*
X128985000Y-47545000D02*
X131445000Y-45085000D01*
X127635000Y-47545000D02*
X128985000Y-47545000D01*
X86280000Y-48895000D02*
X86280000Y-43815000D01*
X81280000Y-48895000D02*
X86280000Y-48895000D01*
D19*
X180975000Y-116205000D02*
X179578000Y-116205000D01*
X179578000Y-116205000D02*
X178816000Y-116967000D01*
X178816000Y-116967000D02*
X178816000Y-122936000D01*
X179705000Y-123825000D02*
X180975000Y-123825000D01*
X178816000Y-122936000D02*
X179705000Y-123825000D01*
X186055000Y-128905000D02*
X186055000Y-130810000D01*
X180975000Y-123825000D02*
X186055000Y-128905000D01*
D18*
X93218000Y-77801196D02*
X93218000Y-100838000D01*
X86280000Y-70863196D02*
X93218000Y-77801196D01*
X86280000Y-43815000D02*
X86280000Y-70863196D01*
X86741000Y-100965000D02*
X90169994Y-100965000D01*
D19*
X179705000Y-59055000D02*
X178435000Y-59055000D01*
X180340000Y-58420000D02*
X179705000Y-59055000D01*
X180340000Y-46355000D02*
X180340000Y-58420000D01*
X181530000Y-45165000D02*
X180340000Y-46355000D01*
X182880000Y-45165000D02*
X181530000Y-45165000D01*
D18*
X187960000Y-103505000D02*
X187960000Y-106680000D01*
X189865000Y-78046370D02*
X187960000Y-79951370D01*
X187960000Y-79951370D02*
X187960000Y-103505000D01*
X189865000Y-76915000D02*
X189865000Y-78046370D01*
D19*
%TO.N,Net-(C3-Pad1)*%
X135382000Y-57150000D02*
X136525000Y-57150000D01*
X132715000Y-59817000D02*
X135382000Y-57150000D01*
X132715000Y-61595000D02*
X132715000Y-59817000D01*
D18*
%TO.N,VCC*%
X78740000Y-43815000D02*
X81280000Y-43815000D01*
X76634990Y-45920010D02*
X78740000Y-43815000D01*
X73294999Y-123555001D02*
X73294999Y-89169999D01*
X71120000Y-125730000D02*
X73294999Y-123555001D01*
X180975000Y-113665000D02*
X182880000Y-113665000D01*
X182880000Y-113665000D02*
X184150000Y-114935000D01*
X184150000Y-123905000D02*
X186055000Y-125810000D01*
X184150000Y-114935000D02*
X184150000Y-123905000D01*
X93345000Y-113665000D02*
X90805000Y-113665000D01*
X93980000Y-114300000D02*
X93345000Y-113665000D01*
X95250000Y-125730000D02*
X93980000Y-124460000D01*
X93980000Y-124460000D02*
X93980000Y-114300000D01*
X201930000Y-83185000D02*
X201295000Y-83185000D01*
X203835000Y-55245000D02*
X203835000Y-81280000D01*
X203835000Y-81280000D02*
X201930000Y-83185000D01*
X201295000Y-53975000D02*
X202565000Y-53975000D01*
X202565000Y-53975000D02*
X203835000Y-55245000D01*
X201295000Y-83185000D02*
X202565000Y-83185000D01*
X202565000Y-83185000D02*
X204470000Y-85090000D01*
X204470000Y-109220000D02*
X201295000Y-112395000D01*
X204470000Y-85090000D02*
X204470000Y-109220000D01*
X144145000Y-113665000D02*
X142240000Y-113665000D01*
X146050000Y-115570000D02*
X144145000Y-113665000D01*
X147955000Y-125810000D02*
X146050000Y-123905000D01*
X146050000Y-123905000D02*
X146050000Y-115570000D01*
X165735000Y-114935000D02*
X164465000Y-113665000D01*
X167640000Y-125810000D02*
X165735000Y-123905000D01*
X164465000Y-113665000D02*
X161290000Y-113665000D01*
X165735000Y-123905000D02*
X165735000Y-114935000D01*
X108585000Y-111125000D02*
X107315000Y-111125000D01*
X110099489Y-112639489D02*
X108585000Y-111125000D01*
X113030000Y-125810000D02*
X110099489Y-122879489D01*
X110099489Y-122879489D02*
X110099489Y-112639489D01*
X161290000Y-113665000D02*
X161290000Y-50165000D01*
D19*
X134620000Y-113665000D02*
X134620000Y-116205000D01*
D18*
X103251000Y-109474000D02*
X103251000Y-109474000D01*
X104521000Y-66675000D02*
X104505001Y-66690999D01*
X107315000Y-66675000D02*
X104521000Y-66675000D01*
X73294999Y-97155000D02*
X81280000Y-97155000D01*
X73294999Y-89169999D02*
X73294999Y-97155000D01*
X178308000Y-113665000D02*
X180975000Y-113665000D01*
X175768000Y-111125000D02*
X178308000Y-113665000D01*
X175768000Y-54991000D02*
X175768000Y-111125000D01*
X176784000Y-53975000D02*
X175768000Y-54991000D01*
X178435000Y-53975000D02*
X176784000Y-53975000D01*
X104505001Y-45323001D02*
X101727000Y-42545000D01*
X104505001Y-102504999D02*
X104505001Y-45323001D01*
X103251000Y-103759000D02*
X104505001Y-102504999D01*
X103251000Y-109474000D02*
X103251000Y-103759000D01*
X73294999Y-75930001D02*
X73294999Y-89169999D01*
X76327000Y-72898000D02*
X73294999Y-75930001D01*
X76634990Y-45920010D02*
X76634990Y-51635010D01*
X76634990Y-51635010D02*
X74041000Y-54229000D01*
X74041000Y-54229000D02*
X74041000Y-67183000D01*
X73279000Y-67945000D02*
X71120000Y-67945000D01*
X74041000Y-67183000D02*
X73279000Y-67945000D01*
D19*
X146050000Y-53213000D02*
X146812000Y-53975000D01*
X146812000Y-53975000D02*
X147955000Y-53975000D01*
X146050000Y-49530000D02*
X146050000Y-53213000D01*
X146685000Y-48895000D02*
X146050000Y-49530000D01*
X147955000Y-48895000D02*
X146685000Y-48895000D01*
D18*
X90805000Y-113665000D02*
X91659001Y-112810999D01*
X91659001Y-112810999D02*
X91659001Y-98771001D01*
X91659001Y-98771001D02*
X90043000Y-97155000D01*
X90043000Y-97155000D02*
X81280000Y-97155000D01*
X128177999Y-124367999D02*
X128177999Y-114207999D01*
X129540000Y-125730000D02*
X128177999Y-124367999D01*
X128177999Y-114207999D02*
X125095000Y-111125000D01*
D19*
%TO.N,NMI*%
X215900000Y-121285000D02*
X217170000Y-120015000D01*
X217170000Y-120015000D02*
X219329000Y-120015000D01*
X219329000Y-120015000D02*
X219964000Y-119380000D01*
X219964000Y-119380000D02*
X219964000Y-51816000D01*
X108585000Y-61595000D02*
X107315000Y-61595000D01*
X109220000Y-45212000D02*
X109220000Y-60960000D01*
X219478510Y-51330510D02*
X208683510Y-51330510D01*
X199263000Y-41910000D02*
X131182970Y-41910000D01*
X131182970Y-41910000D02*
X128642970Y-44450000D01*
X128642970Y-44450000D02*
X109982000Y-44450000D01*
X109982000Y-44450000D02*
X109220000Y-45212000D01*
X219964000Y-51816000D02*
X219478510Y-51330510D01*
X208683510Y-51330510D02*
X199263000Y-41910000D01*
X109220000Y-60960000D02*
X108585000Y-61595000D01*
%TO.N,NIRQ*%
X97282000Y-123952000D02*
X97282000Y-131572000D01*
X95720001Y-122390001D02*
X97282000Y-123952000D01*
X95720001Y-97954999D02*
X95720001Y-122390001D01*
X97282000Y-131572000D02*
X97923489Y-132213489D01*
X96520000Y-97155000D02*
X95720001Y-97954999D01*
X183134000Y-132207004D02*
X181864004Y-133477000D01*
X183134000Y-127635000D02*
X183134000Y-132207004D01*
%TO.N,/eurocard/B4MHZ*%
X211455000Y-109220000D02*
X211455000Y-88265000D01*
%TO.N,NBLK0*%
X108839000Y-130908490D02*
X110490000Y-132559490D01*
X108839000Y-122809000D02*
X108839000Y-130908490D01*
X107315000Y-121285000D02*
X108839000Y-122809000D01*
X115443000Y-111633000D02*
X115443000Y-115697002D01*
X115951000Y-111125000D02*
X115443000Y-111633000D01*
X117475000Y-111125000D02*
X115951000Y-111125000D01*
%TO.N,/eurocard/BRNW*%
X175260000Y-126365000D02*
X173355000Y-126365000D01*
X176022000Y-127127000D02*
X175260000Y-126365000D01*
X176022000Y-132334000D02*
X176022000Y-127127000D01*
X203814807Y-137795000D02*
X181483000Y-137795000D01*
X214249000Y-127360807D02*
X203814807Y-137795000D01*
X214249000Y-125793500D02*
X214249000Y-127360807D01*
X214947500Y-125095000D02*
X214249000Y-125793500D01*
X217170000Y-125095000D02*
X214947500Y-125095000D01*
X181483000Y-137795000D02*
X176022000Y-132334000D01*
X218440000Y-123825000D02*
X217170000Y-125095000D01*
%TO.N,/eurocard/BPHI2*%
X176911000Y-119507000D02*
X176149000Y-118745000D01*
X176911000Y-131318000D02*
X176911000Y-119507000D01*
X202819000Y-136906000D02*
X182499000Y-136906000D01*
X213233000Y-126492000D02*
X202819000Y-136906000D01*
X215011000Y-122555000D02*
X213233000Y-124333000D01*
X176149000Y-118745000D02*
X173355000Y-118745000D01*
X217170000Y-122555000D02*
X215011000Y-122555000D01*
X182499000Y-136906000D02*
X176911000Y-131318000D01*
X213233000Y-124333000D02*
X213233000Y-126492000D01*
X218440000Y-121285000D02*
X217170000Y-122555000D01*
%TO.N,/eurocard/BA10*%
X218440000Y-116205000D02*
X217274499Y-115039499D01*
X217274499Y-115039499D02*
X212366509Y-115039499D01*
X212366509Y-115039499D02*
X208407008Y-118999000D01*
%TO.N,/eurocard/BA11*%
X213995000Y-116205000D02*
X213995000Y-122428002D01*
X213995000Y-122428002D02*
X211455000Y-124968002D01*
%TO.N,/eurocard/BA13*%
X205486000Y-117602000D02*
X205486000Y-125857000D01*
X208788000Y-114300000D02*
X205486000Y-117602000D01*
%TO.N,/eurocard/BA1*%
X208280000Y-81915000D02*
X208384499Y-82019499D01*
X208280000Y-70485000D02*
X208280000Y-81915000D01*
%TO.N,/eurocard/BA2*%
X209550000Y-67945000D02*
X209550000Y-79375000D01*
%TO.N,/eurocard/BA3*%
X211455000Y-66675000D02*
X211455000Y-76835000D01*
%TO.N,/eurocard/BA8*%
X215549557Y-66570501D02*
X213995000Y-68125058D01*
X217274499Y-66570501D02*
X215549557Y-66570501D01*
X218440000Y-65405000D02*
X217274499Y-66570501D01*
X213995000Y-68125058D02*
X213995000Y-114173000D01*
%TO.N,NRST*%
X93345000Y-64135000D02*
X93345000Y-46989990D01*
X208661000Y-53086000D02*
X208661000Y-59182000D01*
X198755000Y-43180000D02*
X208661000Y-53086000D01*
X122555000Y-48895000D02*
X122555000Y-47512255D01*
X122555000Y-47512255D02*
X124347255Y-45720000D01*
X131089821Y-43180000D02*
X198755000Y-43180000D01*
X124347255Y-45720000D02*
X128549821Y-45720000D01*
X128549821Y-45720000D02*
X131089821Y-43180000D01*
%TO.N,NRDS*%
X161290000Y-128905000D02*
X158115000Y-128905000D01*
X158115000Y-128905000D02*
X155575000Y-126365000D01*
X155575000Y-126365000D02*
X155575000Y-67945000D01*
D20*
X182880000Y-69215000D02*
X182880000Y-60325000D01*
D19*
%TO.N,NWDS*%
X161290000Y-121285000D02*
X159385000Y-121285000D01*
X159385000Y-121285000D02*
X156845000Y-118745000D01*
X156845000Y-118745000D02*
X156845000Y-55245000D01*
%TO.N,/eurocard/BA14*%
X212645501Y-58499499D02*
X214525501Y-56619499D01*
X212645501Y-109775501D02*
X212645501Y-58499499D01*
X211296002Y-111125000D02*
X212645501Y-109775501D01*
X206956011Y-111125000D02*
X211296002Y-111125000D01*
X206956011Y-113905662D02*
X206956011Y-111125000D01*
X204470000Y-116391673D02*
X206956011Y-113905662D01*
X204470000Y-121412000D02*
X204470000Y-116391673D01*
X203327000Y-122555000D02*
X204470000Y-121412000D01*
X217065501Y-56619499D02*
X218440000Y-55245000D01*
X214525501Y-56619499D02*
X217065501Y-56619499D01*
X201295000Y-122555000D02*
X203327000Y-122555000D01*
%TO.N,/eurocard/BA15*%
X202311000Y-117475000D02*
X201295000Y-117475000D01*
X203327000Y-112649000D02*
X203327000Y-116459000D01*
X206375000Y-109601000D02*
X203327000Y-112649000D01*
X206375000Y-62865000D02*
X206375000Y-109601000D01*
X215160501Y-54079499D02*
X206375000Y-62865000D01*
X203327000Y-116459000D02*
X202311000Y-117475000D01*
X217065501Y-54079499D02*
X215160501Y-54079499D01*
X218440000Y-52705000D02*
X217065501Y-54079499D01*
%TO.N,PA7*%
X70739000Y-62865000D02*
X71120000Y-62865000D01*
X69850000Y-61976000D02*
X70739000Y-62865000D01*
X69850000Y-56515000D02*
X69850000Y-61976000D01*
X73660000Y-52705000D02*
X69850000Y-56515000D01*
X73660000Y-45720000D02*
X73660000Y-52705000D01*
%TO.N,CA1*%
X70485000Y-85725000D02*
X71120000Y-85090000D01*
X67310000Y-85725000D02*
X70485000Y-85725000D01*
X66675000Y-85090000D02*
X67310000Y-85725000D01*
X66675000Y-57785000D02*
X66675000Y-85090000D01*
X71755000Y-52705000D02*
X66675000Y-57785000D01*
X71755000Y-43815000D02*
X71755000Y-52705000D01*
X71120000Y-85090000D02*
X71120000Y-83185000D01*
X72390000Y-43180000D02*
X71755000Y-43815000D01*
X73660000Y-43180000D02*
X72390000Y-43180000D01*
%TO.N,RNW*%
X116840000Y-64135000D02*
X116840000Y-92075000D01*
X116840000Y-106045000D02*
X116840000Y-92075000D01*
X151285510Y-115471510D02*
X151285510Y-106045000D01*
X152019000Y-116205000D02*
X151285510Y-115471510D01*
X153670000Y-116205000D02*
X152019000Y-116205000D01*
%TO.N,SYNC*%
X115725501Y-102079499D02*
X115570000Y-102235000D01*
X115725501Y-65687501D02*
X115725501Y-102079499D01*
X114173000Y-64135000D02*
X115725501Y-65687501D01*
X107315000Y-64135000D02*
X114173000Y-64135000D01*
X149859996Y-127507994D02*
X149987000Y-127634998D01*
X149859996Y-102235000D02*
X149859996Y-127507994D01*
%TO.N,PHI2*%
X161290000Y-116205000D02*
X162560000Y-116205000D01*
X162560000Y-116205000D02*
X163195000Y-116840000D01*
X163195000Y-116840000D02*
X163195000Y-125730000D01*
X162560000Y-126365000D02*
X161290000Y-126365000D01*
X163195000Y-125730000D02*
X162560000Y-126365000D01*
X96520000Y-86995000D02*
X94615000Y-85090000D01*
X94615000Y-85090000D02*
X94615000Y-50165000D01*
X158115000Y-113030000D02*
X161290000Y-116205000D01*
X158115000Y-104775000D02*
X158115000Y-113030000D01*
X99060000Y-88265000D02*
X99060000Y-104775000D01*
X96520000Y-86995000D02*
X97790000Y-86995000D01*
X97790000Y-86995000D02*
X99060000Y-88265000D01*
%TO.N,NOB*%
X193675000Y-53975000D02*
X195580000Y-53975000D01*
X198120000Y-56515000D02*
X201295000Y-56515000D01*
X195580000Y-53975000D02*
X198120000Y-56515000D01*
X192494000Y-53975000D02*
X191770000Y-54699000D01*
X193675000Y-53975000D02*
X192494000Y-53975000D01*
X191770000Y-54699000D02*
X191770000Y-84455000D01*
X192405000Y-112395000D02*
X193675000Y-112395000D01*
X191134994Y-113665006D02*
X191134994Y-125799315D01*
X191134994Y-125799315D02*
X191134994Y-126365000D01*
X192405000Y-112395000D02*
X191134994Y-113665006D01*
X194865501Y-111204499D02*
X193675000Y-112395000D01*
X194865501Y-105473559D02*
X194865501Y-111204499D01*
X194246441Y-104854499D02*
X194865501Y-105473559D01*
X193119499Y-104854499D02*
X194246441Y-104854499D01*
X191770000Y-103505000D02*
X193119499Y-104854499D01*
X191770000Y-84455000D02*
X191770000Y-103505000D01*
%TO.N,A4*%
X185975501Y-71675501D02*
X186055000Y-71755000D01*
X185975501Y-68024499D02*
X185975501Y-71675501D01*
X135490001Y-67074999D02*
X135490001Y-78885999D01*
X135890000Y-66675000D02*
X135490001Y-67074999D01*
X135490001Y-78885999D02*
X135490001Y-78975001D01*
%TO.N,A0*%
X138829999Y-76435001D02*
X138430000Y-76835000D01*
X138430000Y-67945000D02*
X138829999Y-68344999D01*
X138829999Y-68344999D02*
X138829999Y-76435001D01*
%TO.N,A5*%
X120729499Y-80565501D02*
X120650000Y-80645000D01*
X120729499Y-65484499D02*
X120729499Y-80565501D01*
%TO.N,A1*%
X137881616Y-70470095D02*
X137795000Y-70383479D01*
X137881616Y-74295000D02*
X137881616Y-70470095D01*
%TO.N,A6*%
X119615001Y-62883999D02*
X119634000Y-62865000D01*
X119615001Y-82785001D02*
X119615001Y-62883999D01*
X120015000Y-83185000D02*
X119615001Y-82785001D01*
%TO.N,A7*%
X118745000Y-85725000D02*
X118745000Y-60452004D01*
X118745000Y-60452004D02*
X118744996Y-60452000D01*
%TO.N,A3*%
X184150000Y-70326002D02*
X184070501Y-70405501D01*
X184150000Y-64135000D02*
X184150000Y-70326002D01*
X136525000Y-69215000D02*
X136525000Y-76835000D01*
%TO.N,D0*%
X128905000Y-79375000D02*
X128905000Y-67945000D01*
X128905000Y-67945000D02*
X128905000Y-66675000D01*
X96520000Y-66675000D02*
X102870000Y-66675000D01*
%TO.N,D1*%
X130175000Y-69215000D02*
X130175000Y-81915000D01*
%TO.N,D2*%
X131445000Y-71956367D02*
X131277954Y-71789321D01*
X131445000Y-84299490D02*
X131445000Y-71956367D01*
%TO.N,D3*%
X142160501Y-86280501D02*
X142240000Y-86360000D01*
X142160501Y-75485501D02*
X142160501Y-86280501D01*
%TO.N,D4*%
X147164499Y-85245501D02*
X147955000Y-84455000D01*
X144400559Y-85245501D02*
X147164499Y-85245501D01*
X143510000Y-84354942D02*
X144400559Y-85245501D01*
X143510000Y-78740000D02*
X143510000Y-84354942D01*
%TO.N,D5*%
X149860000Y-81915000D02*
X149860000Y-91440000D01*
X126365000Y-79375000D02*
X126365000Y-86204490D01*
%TO.N,D6*%
X146050000Y-79375000D02*
X146050000Y-81915000D01*
%TO.N,D7*%
X144780000Y-76835000D02*
X144780000Y-84455000D01*
X180975000Y-76835000D02*
X183515000Y-79375000D01*
X178435000Y-76835000D02*
X180975000Y-76835000D01*
%TO.N,A12*%
X153035010Y-57785000D02*
X153670000Y-58419990D01*
X153670000Y-58419990D02*
X153670000Y-99695000D01*
X113157000Y-95758000D02*
X113157000Y-114173000D01*
%TO.N,A8*%
X134620000Y-61595000D02*
X134620000Y-85725000D01*
X199390000Y-61595000D02*
X199390000Y-119380000D01*
X200025000Y-120015000D02*
X201295000Y-120015000D01*
X199390000Y-119380000D02*
X200025000Y-120015000D01*
X129667000Y-116204992D02*
X129666992Y-116205000D01*
X129667000Y-85090000D02*
X129667000Y-116204992D01*
%TO.N,A13*%
X147955000Y-59055000D02*
X151187012Y-62287012D01*
X151187012Y-62287012D02*
X151187012Y-98435371D01*
X114173000Y-115188998D02*
X114173000Y-93472000D01*
X113664998Y-115697000D02*
X114173000Y-115188998D01*
%TO.N,A9*%
X133350000Y-64135000D02*
X133350000Y-90805000D01*
X199390000Y-125095000D02*
X201295000Y-125095000D01*
X198120000Y-65405000D02*
X198120000Y-123825000D01*
X198120000Y-123825000D02*
X199390000Y-125095000D01*
X132080000Y-111760000D02*
X132080000Y-118745000D01*
X133350000Y-110490000D02*
X132080000Y-111760000D01*
X133350000Y-90805000D02*
X133350000Y-110490000D01*
%TO.N,A14*%
X97155000Y-119856002D02*
X97075501Y-119935501D01*
X97155000Y-113665000D02*
X97155000Y-119856002D01*
X158115000Y-53975000D02*
X158115000Y-97155000D01*
X99695000Y-113665000D02*
X101472998Y-111887002D01*
X101472998Y-111887002D02*
X101472998Y-90805000D01*
%TO.N,A10*%
X117475000Y-113665000D02*
X118745000Y-113665000D01*
X118745000Y-113665000D02*
X119380000Y-113030000D01*
X119380000Y-113030000D02*
X119380000Y-93345000D01*
X201295000Y-130175000D02*
X198755000Y-130175000D01*
X198755000Y-130175000D02*
X196850000Y-128270000D01*
X196850000Y-128270000D02*
X196850000Y-79375000D01*
X132461000Y-88265000D02*
X132461000Y-71119986D01*
X131924490Y-88801510D02*
X132461000Y-88265000D01*
X131924490Y-93345000D02*
X131924490Y-88801510D01*
X185039016Y-78359016D02*
X185039016Y-79374990D01*
X178435000Y-71755000D02*
X185039016Y-78359016D01*
%TO.N,A15*%
X102489000Y-116205000D02*
X99695000Y-116205000D01*
X105410000Y-113284000D02*
X102489000Y-116205000D01*
X110236000Y-99822000D02*
X105410000Y-104648000D01*
X110236000Y-89281000D02*
X110236000Y-99822000D01*
X111252000Y-88265000D02*
X110236000Y-89281000D01*
X105410000Y-104648000D02*
X105410000Y-113284000D01*
X114935000Y-88265000D02*
X111252000Y-88265000D01*
X149860000Y-51435000D02*
X147955000Y-51435000D01*
X151130000Y-59309000D02*
X151130000Y-52705000D01*
X151130000Y-52705000D02*
X149860000Y-51435000D01*
X152400000Y-60579000D02*
X151130000Y-59309000D01*
X152400000Y-95885000D02*
X152400000Y-60579000D01*
%TO.N,A11*%
X127635000Y-65405000D02*
X127635000Y-95885000D01*
X120650000Y-114935000D02*
X120650000Y-95885000D01*
X117475000Y-116205000D02*
X119380000Y-116205000D01*
X119380000Y-116205000D02*
X120650000Y-114935000D01*
X184785000Y-73025000D02*
X184785000Y-74294994D01*
X178435000Y-66675000D02*
X184785000Y-73025000D01*
X195707000Y-133477000D02*
X195707000Y-76835000D01*
X197485000Y-135255000D02*
X195707000Y-133477000D01*
X201295000Y-135255000D02*
X197485000Y-135255000D01*
%TO.N,NVIA*%
X94243509Y-105038509D02*
X94243509Y-105038509D01*
X96520000Y-92075000D02*
X94615000Y-93980000D01*
X94615000Y-93980000D02*
X94615000Y-105038509D01*
X90805000Y-116205000D02*
X89408000Y-114808000D01*
X89408000Y-114808000D02*
X89408000Y-108076992D01*
%TO.N,NBLKEF*%
X83185000Y-126365000D02*
X81915000Y-126365000D01*
X81915000Y-126365000D02*
X80645000Y-125095000D01*
X80645000Y-125095000D02*
X80645000Y-114300000D01*
X81280000Y-113665000D02*
X83185000Y-113665000D01*
X80645000Y-114300000D02*
X81280000Y-113665000D01*
D20*
X173990004Y-107315004D02*
X174117000Y-107442000D01*
X173990004Y-74295000D02*
X173990004Y-107315004D01*
D19*
%TO.N,NRAMCS*%
X125095000Y-73504490D02*
X125095000Y-103505000D01*
X111760000Y-103505006D02*
X111760000Y-115696998D01*
X111760000Y-115696998D02*
X111759998Y-115697000D01*
%TO.N,Net-(U11-Pad8)*%
X153670000Y-123825000D02*
X153670000Y-121285000D01*
%TO.N,Net-(U10-Pad15)*%
X121920000Y-115443000D02*
X123698000Y-113665000D01*
X121920000Y-125095000D02*
X121920000Y-115443000D01*
X123698000Y-113665000D02*
X125095000Y-113665000D01*
X120650000Y-126365000D02*
X121920000Y-125095000D01*
X117475000Y-126365000D02*
X120650000Y-126365000D01*
%TO.N,Net-(U10-Pad12)*%
X132080000Y-121285000D02*
X132080000Y-126365000D01*
%TO.N,WNR*%
X185721501Y-99234501D02*
X185721501Y-99234501D01*
X185721501Y-80978499D02*
X186182000Y-80518000D01*
X185721501Y-122634499D02*
X185721501Y-80978499D01*
%TD*%
M02*
