%TF.GenerationSoftware,KiCad,Pcbnew,(5.1.10)-1*%
%TF.CreationDate,2021-07-28T22:43:10+09:30*%
%TF.ProjectId,System4cpu,53797374-656d-4346-9370-752e6b696361,rev?*%
%TF.SameCoordinates,Original*%
%TF.FileFunction,Copper,L2,Bot*%
%TF.FilePolarity,Positive*%
%FSLAX46Y46*%
G04 Gerber Fmt 4.6, Leading zero omitted, Abs format (unit mm)*
G04 Created by KiCad (PCBNEW (5.1.10)-1) date 2021-07-28 22:43:10*
%MOMM*%
%LPD*%
G01*
G04 APERTURE LIST*
%TA.AperFunction,ComponentPad*%
%ADD10O,1.600000X1.600000*%
%TD*%
%TA.AperFunction,ComponentPad*%
%ADD11C,1.600000*%
%TD*%
%TA.AperFunction,ComponentPad*%
%ADD12R,1.600000X1.600000*%
%TD*%
%TA.AperFunction,ComponentPad*%
%ADD13C,1.700000*%
%TD*%
%TA.AperFunction,ComponentPad*%
%ADD14O,1.700000X1.700000*%
%TD*%
%TA.AperFunction,ComponentPad*%
%ADD15R,1.700000X1.700000*%
%TD*%
%TA.AperFunction,ComponentPad*%
%ADD16C,1.550000*%
%TD*%
%TA.AperFunction,ViaPad*%
%ADD17C,0.800000*%
%TD*%
%TA.AperFunction,Conductor*%
%ADD18C,1.270000*%
%TD*%
%TA.AperFunction,Conductor*%
%ADD19C,0.381000*%
%TD*%
%TA.AperFunction,Conductor*%
%ADD20C,0.508000*%
%TD*%
G04 APERTURE END LIST*
D10*
%TO.P,R8,2*%
%TO.N,Net-(C2-Pad1)*%
X136525000Y-46990000D03*
D11*
%TO.P,R8,1*%
%TO.N,Net-(C3-Pad1)*%
X136525000Y-57150000D03*
%TD*%
D10*
%TO.P,U5,40*%
%TO.N,CA1*%
X96520000Y-48895000D03*
%TO.P,U5,20*%
%TO.N,VCC*%
X81280000Y-97155000D03*
%TO.P,U5,39*%
%TO.N,CA2*%
X96520000Y-51435000D03*
%TO.P,U5,19*%
%TO.N,CB2*%
X81280000Y-94615000D03*
%TO.P,U5,38*%
%TO.N,A0*%
X96520000Y-53975000D03*
%TO.P,U5,18*%
%TO.N,CB1*%
X81280000Y-92075000D03*
%TO.P,U5,37*%
%TO.N,A1*%
X96520000Y-56515000D03*
%TO.P,U5,17*%
%TO.N,PB7*%
X81280000Y-89535000D03*
%TO.P,U5,36*%
%TO.N,A2*%
X96520000Y-59055000D03*
%TO.P,U5,16*%
%TO.N,PB6*%
X81280000Y-86995000D03*
%TO.P,U5,35*%
%TO.N,A3*%
X96520000Y-61595000D03*
%TO.P,U5,15*%
%TO.N,PB5*%
X81280000Y-84455000D03*
%TO.P,U5,34*%
%TO.N,NRST*%
X96520000Y-64135000D03*
%TO.P,U5,14*%
%TO.N,PB4*%
X81280000Y-81915000D03*
%TO.P,U5,33*%
%TO.N,D0*%
X96520000Y-66675000D03*
%TO.P,U5,13*%
%TO.N,PB3*%
X81280000Y-79375000D03*
%TO.P,U5,32*%
%TO.N,D1*%
X96520000Y-69215000D03*
%TO.P,U5,12*%
%TO.N,PB2*%
X81280000Y-76835000D03*
%TO.P,U5,31*%
%TO.N,D2*%
X96520000Y-71755000D03*
%TO.P,U5,11*%
%TO.N,PB1*%
X81280000Y-74295000D03*
%TO.P,U5,30*%
%TO.N,D3*%
X96520000Y-74295000D03*
%TO.P,U5,10*%
%TO.N,PB0*%
X81280000Y-71755000D03*
%TO.P,U5,29*%
%TO.N,D4*%
X96520000Y-76835000D03*
%TO.P,U5,9*%
%TO.N,PA7*%
X81280000Y-69215000D03*
%TO.P,U5,28*%
%TO.N,D5*%
X96520000Y-79375000D03*
%TO.P,U5,8*%
%TO.N,PA6*%
X81280000Y-66675000D03*
%TO.P,U5,27*%
%TO.N,D6*%
X96520000Y-81915000D03*
%TO.P,U5,7*%
%TO.N,PA5*%
X81280000Y-64135000D03*
%TO.P,U5,26*%
%TO.N,D7*%
X96520000Y-84455000D03*
%TO.P,U5,6*%
%TO.N,PA4*%
X81280000Y-61595000D03*
%TO.P,U5,25*%
%TO.N,PHI2*%
X96520000Y-86995000D03*
%TO.P,U5,5*%
%TO.N,PA3*%
X81280000Y-59055000D03*
%TO.P,U5,24*%
%TO.N,A7*%
X96520000Y-89535000D03*
%TO.P,U5,4*%
%TO.N,PA2*%
X81280000Y-56515000D03*
%TO.P,U5,23*%
%TO.N,NVIA*%
X96520000Y-92075000D03*
%TO.P,U5,3*%
%TO.N,PA1*%
X81280000Y-53975000D03*
%TO.P,U5,22*%
%TO.N,RNW*%
X96520000Y-94615000D03*
%TO.P,U5,2*%
%TO.N,PA0*%
X81280000Y-51435000D03*
%TO.P,U5,21*%
%TO.N,NIRQ*%
X96520000Y-97155000D03*
D12*
%TO.P,U5,1*%
%TO.N,GND*%
X81280000Y-48895000D03*
%TD*%
D13*
%TO.P,J3,20*%
%TO.N,PB7*%
X68580000Y-105410000D03*
%TO.P,J3,18*%
%TO.N,PB6*%
X68580000Y-107950000D03*
%TO.P,J3,16*%
%TO.N,PB5*%
X68580000Y-110490000D03*
%TO.P,J3,14*%
%TO.N,PB4*%
X68580000Y-113030000D03*
%TO.P,J3,12*%
%TO.N,PB3*%
X68580000Y-115570000D03*
%TO.P,J3,10*%
%TO.N,PB2*%
X68580000Y-118110000D03*
%TO.P,J3,8*%
%TO.N,PB1*%
X68580000Y-120650000D03*
%TO.P,J3,6*%
%TO.N,PB0*%
X68580000Y-123190000D03*
%TO.P,J3,4*%
%TO.N,CB2*%
X68580000Y-125730000D03*
%TO.P,J3,2*%
%TO.N,CB1*%
X68580000Y-128270000D03*
%TO.P,J3,19*%
%TO.N,GND*%
X71120000Y-105410000D03*
%TO.P,J3,17*%
X71120000Y-107950000D03*
%TO.P,J3,15*%
X71120000Y-110490000D03*
%TO.P,J3,13*%
X71120000Y-113030000D03*
%TO.P,J3,11*%
X71120000Y-115570000D03*
%TO.P,J3,9*%
X71120000Y-118110000D03*
%TO.P,J3,7*%
X71120000Y-120650000D03*
%TO.P,J3,5*%
X71120000Y-123190000D03*
%TO.P,J3,3*%
%TO.N,VCC*%
X71120000Y-125730000D03*
%TO.P,J3,1*%
%TA.AperFunction,ComponentPad*%
G36*
G01*
X71970000Y-127670000D02*
X71970000Y-128870000D01*
G75*
G02*
X71720000Y-129120000I-250000J0D01*
G01*
X70520000Y-129120000D01*
G75*
G02*
X70270000Y-128870000I0J250000D01*
G01*
X70270000Y-127670000D01*
G75*
G02*
X70520000Y-127420000I250000J0D01*
G01*
X71720000Y-127420000D01*
G75*
G02*
X71970000Y-127670000I0J-250000D01*
G01*
G37*
%TD.AperFunction*%
%TD*%
%TO.P,J2,20*%
%TO.N,PA5*%
X68580000Y-60325000D03*
%TO.P,J2,18*%
%TO.N,PA4*%
X68580000Y-62865000D03*
%TO.P,J2,16*%
%TO.N,PA3*%
X68580000Y-65405000D03*
%TO.P,J2,14*%
%TO.N,PA2*%
X68580000Y-67945000D03*
%TO.P,J2,12*%
%TO.N,PA1*%
X68580000Y-70485000D03*
%TO.P,J2,10*%
%TO.N,PA0*%
X68580000Y-73025000D03*
%TO.P,J2,8*%
%TO.N,Net-(J2-Pad8)*%
X68580000Y-75565000D03*
%TO.P,J2,6*%
%TO.N,Net-(J2-Pad6)*%
X68580000Y-78105000D03*
%TO.P,J2,4*%
%TO.N,Net-(J2-Pad4)*%
X68580000Y-80645000D03*
%TO.P,J2,2*%
%TO.N,CA2*%
X68580000Y-83185000D03*
%TO.P,J2,19*%
%TO.N,PA6*%
X71120000Y-60325000D03*
%TO.P,J2,17*%
%TO.N,PA7*%
X71120000Y-62865000D03*
%TO.P,J2,15*%
%TO.N,Net-(J2-Pad15)*%
X71120000Y-65405000D03*
%TO.P,J2,13*%
%TO.N,VCC*%
X71120000Y-67945000D03*
%TO.P,J2,11*%
%TO.N,GND*%
X71120000Y-70485000D03*
%TO.P,J2,9*%
%TO.N,Net-(J2-Pad9)*%
X71120000Y-73025000D03*
%TO.P,J2,7*%
%TO.N,Net-(J2-Pad7)*%
X71120000Y-75565000D03*
%TO.P,J2,5*%
%TO.N,Net-(J2-Pad5)*%
X71120000Y-78105000D03*
%TO.P,J2,3*%
%TO.N,Net-(J2-Pad3)*%
X71120000Y-80645000D03*
%TO.P,J2,1*%
%TO.N,CA1*%
%TA.AperFunction,ComponentPad*%
G36*
G01*
X71970000Y-82585000D02*
X71970000Y-83785000D01*
G75*
G02*
X71720000Y-84035000I-250000J0D01*
G01*
X70520000Y-84035000D01*
G75*
G02*
X70270000Y-83785000I0J250000D01*
G01*
X70270000Y-82585000D01*
G75*
G02*
X70520000Y-82335000I250000J0D01*
G01*
X71720000Y-82335000D01*
G75*
G02*
X71970000Y-82585000I0J-250000D01*
G01*
G37*
%TD.AperFunction*%
%TD*%
D10*
%TO.P,U13,40*%
%TO.N,NRST*%
X122555000Y-48895000D03*
%TO.P,U13,20*%
%TO.N,A11*%
X107315000Y-97155000D03*
%TO.P,U13,39*%
%TO.N,PHI2*%
X122555000Y-51435000D03*
%TO.P,U13,19*%
%TO.N,A10*%
X107315000Y-94615000D03*
%TO.P,U13,38*%
%TO.N,Net-(R5-Pad2)*%
X122555000Y-53975000D03*
%TO.P,U13,18*%
%TO.N,A9*%
X107315000Y-92075000D03*
%TO.P,U13,37*%
%TO.N,Net-(C2-Pad1)*%
X122555000Y-56515000D03*
%TO.P,U13,17*%
%TO.N,A8*%
X107315000Y-89535000D03*
%TO.P,U13,36*%
%TO.N,Net-(R5-Pad2)*%
X122555000Y-59055000D03*
%TO.P,U13,16*%
%TO.N,A7*%
X107315000Y-86995000D03*
%TO.P,U13,35*%
%TO.N,Net-(C3-Pad1)*%
X122555000Y-61595000D03*
%TO.P,U13,15*%
%TO.N,A6*%
X107315000Y-84455000D03*
%TO.P,U13,34*%
%TO.N,RNW*%
X122555000Y-64135000D03*
%TO.P,U13,14*%
%TO.N,A5*%
X107315000Y-81915000D03*
%TO.P,U13,33*%
%TO.N,D0*%
X122555000Y-66675000D03*
%TO.P,U13,13*%
%TO.N,A4*%
X107315000Y-79375000D03*
%TO.P,U13,32*%
%TO.N,D1*%
X122555000Y-69215000D03*
%TO.P,U13,12*%
%TO.N,A3*%
X107315000Y-76835000D03*
%TO.P,U13,31*%
%TO.N,D2*%
X122555000Y-71755000D03*
%TO.P,U13,11*%
%TO.N,A2*%
X107315000Y-74295000D03*
%TO.P,U13,30*%
%TO.N,D3*%
X122555000Y-74295000D03*
%TO.P,U13,10*%
%TO.N,A1*%
X107315000Y-71755000D03*
%TO.P,U13,29*%
%TO.N,D4*%
X122555000Y-76835000D03*
%TO.P,U13,9*%
%TO.N,A0*%
X107315000Y-69215000D03*
%TO.P,U13,28*%
%TO.N,D5*%
X122555000Y-79375000D03*
%TO.P,U13,8*%
%TO.N,VCC*%
X107315000Y-66675000D03*
%TO.P,U13,27*%
%TO.N,D6*%
X122555000Y-81915000D03*
%TO.P,U13,7*%
%TO.N,SYNC*%
X107315000Y-64135000D03*
%TO.P,U13,26*%
%TO.N,D7*%
X122555000Y-84455000D03*
%TO.P,U13,6*%
%TO.N,NMI*%
X107315000Y-61595000D03*
%TO.P,U13,25*%
%TO.N,A15*%
X122555000Y-86995000D03*
%TO.P,U13,5*%
%TO.N,Net-(U13-Pad5)*%
X107315000Y-59055000D03*
%TO.P,U13,24*%
%TO.N,A14*%
X122555000Y-89535000D03*
%TO.P,U13,4*%
%TO.N,NIRQ*%
X107315000Y-56515000D03*
%TO.P,U13,23*%
%TO.N,A13*%
X122555000Y-92075000D03*
%TO.P,U13,3*%
%TO.N,Net-(U13-Pad3)*%
X107315000Y-53975000D03*
%TO.P,U13,22*%
%TO.N,A12*%
X122555000Y-94615000D03*
%TO.P,U13,2*%
%TO.N,Net-(R5-Pad2)*%
X107315000Y-51435000D03*
%TO.P,U13,21*%
%TO.N,GND*%
X122555000Y-97155000D03*
D12*
%TO.P,U13,1*%
X107315000Y-48895000D03*
%TD*%
D10*
%TO.P,U12,14*%
%TO.N,VCC*%
X90805000Y-113665000D03*
%TO.P,U12,7*%
%TO.N,GND*%
X83185000Y-128905000D03*
%TO.P,U12,13*%
%TO.N,NVIA*%
X90805000Y-116205000D03*
%TO.P,U12,6*%
%TO.N,NBLKEF*%
X83185000Y-126365000D03*
%TO.P,U12,12*%
%TO.N,NRAMCS*%
X90805000Y-118745000D03*
%TO.P,U12,5*%
%TO.N,A13*%
X83185000Y-123825000D03*
%TO.P,U12,11*%
%TO.N,N/C*%
X90805000Y-121285000D03*
%TO.P,U12,4*%
%TO.N,A14*%
X83185000Y-121285000D03*
%TO.P,U12,10*%
%TO.N,N/C*%
X90805000Y-123825000D03*
%TO.P,U12,3*%
%TO.N,A15*%
X83185000Y-118745000D03*
%TO.P,U12,9*%
%TO.N,N/C*%
X90805000Y-126365000D03*
%TO.P,U12,2*%
%TO.N,NOB*%
X83185000Y-116205000D03*
%TO.P,U12,8*%
%TO.N,N/C*%
X90805000Y-128905000D03*
D12*
%TO.P,U12,1*%
%TO.N,NBLKEF*%
X83185000Y-113665000D03*
%TD*%
D10*
%TO.P,U11,14*%
%TO.N,VCC*%
X142240000Y-113665000D03*
%TO.P,U11,7*%
%TO.N,GND*%
X134620000Y-128905000D03*
%TO.P,U11,13*%
%TO.N,N/C*%
X142240000Y-116205000D03*
%TO.P,U11,6*%
%TO.N,Net-(U10-Pad12)*%
X134620000Y-126365000D03*
%TO.P,U11,12*%
%TO.N,Net-(U10-Pad9)*%
X142240000Y-118745000D03*
%TO.P,U11,5*%
%TO.N,Net-(U10-Pad6)*%
X134620000Y-123825000D03*
%TO.P,U11,11*%
%TO.N,Net-(U10-Pad11)*%
X142240000Y-121285000D03*
%TO.P,U11,4*%
%TO.N,Net-(U10-Pad5)*%
X134620000Y-121285000D03*
%TO.P,U11,10*%
%TO.N,N/C*%
X142240000Y-123825000D03*
%TO.P,U11,3*%
%TO.N,NBLK1*%
X134620000Y-118745000D03*
%TO.P,U11,9*%
%TO.N,N/C*%
X142240000Y-126365000D03*
%TO.P,U11,2*%
%TO.N,VCC*%
X134620000Y-116205000D03*
%TO.P,U11,8*%
%TO.N,Net-(U11-Pad8)*%
X142240000Y-128905000D03*
D12*
%TO.P,U11,1*%
%TO.N,VCC*%
X134620000Y-113665000D03*
%TD*%
D10*
%TO.P,U10,16*%
%TO.N,VCC*%
X125095000Y-111125000D03*
%TO.P,U10,8*%
%TO.N,GND*%
X117475000Y-128905000D03*
%TO.P,U10,15*%
%TO.N,Net-(U10-Pad15)*%
X125095000Y-113665000D03*
%TO.P,U10,7*%
X117475000Y-126365000D03*
%TO.P,U10,14*%
%TO.N,A8*%
X125095000Y-116205000D03*
%TO.P,U10,6*%
%TO.N,Net-(U10-Pad6)*%
X117475000Y-123825000D03*
%TO.P,U10,13*%
%TO.N,A9*%
X125095000Y-118745000D03*
%TO.P,U10,5*%
%TO.N,Net-(U10-Pad5)*%
X117475000Y-121285000D03*
%TO.P,U10,12*%
%TO.N,Net-(U10-Pad12)*%
X125095000Y-121285000D03*
%TO.P,U10,4*%
%TO.N,Net-(U10-Pad4)*%
X117475000Y-118745000D03*
%TO.P,U10,11*%
%TO.N,Net-(U10-Pad11)*%
X125095000Y-123825000D03*
%TO.P,U10,3*%
%TO.N,A11*%
X117475000Y-116205000D03*
%TO.P,U10,10*%
%TO.N,NVIA*%
X125095000Y-126365000D03*
%TO.P,U10,2*%
%TO.N,A10*%
X117475000Y-113665000D03*
%TO.P,U10,9*%
%TO.N,Net-(U10-Pad9)*%
X125095000Y-128905000D03*
D12*
%TO.P,U10,1*%
%TO.N,NBLK0*%
X117475000Y-111125000D03*
%TD*%
D10*
%TO.P,U9,16*%
%TO.N,VCC*%
X107315000Y-111125000D03*
%TO.P,U9,8*%
%TO.N,GND*%
X99695000Y-128905000D03*
%TO.P,U9,15*%
%TO.N,Net-(U9-Pad15)*%
X107315000Y-113665000D03*
%TO.P,U9,7*%
%TO.N,Net-(U9-Pad7)*%
X99695000Y-126365000D03*
%TO.P,U9,14*%
%TO.N,A12*%
X107315000Y-116205000D03*
%TO.P,U9,6*%
%TO.N,Net-(U9-Pad6)*%
X99695000Y-123825000D03*
%TO.P,U9,13*%
%TO.N,A13*%
X107315000Y-118745000D03*
%TO.P,U9,5*%
%TO.N,Net-(U9-Pad5)*%
X99695000Y-121285000D03*
%TO.P,U9,12*%
%TO.N,NBLK0*%
X107315000Y-121285000D03*
%TO.P,U9,4*%
%TO.N,Net-(U9-Pad15)*%
X99695000Y-118745000D03*
%TO.P,U9,11*%
%TO.N,NBLK1*%
X107315000Y-123825000D03*
%TO.P,U9,3*%
%TO.N,A15*%
X99695000Y-116205000D03*
%TO.P,U9,10*%
%TO.N,Net-(U9-Pad10)*%
X107315000Y-126365000D03*
%TO.P,U9,2*%
%TO.N,A14*%
X99695000Y-113665000D03*
%TO.P,U9,9*%
%TO.N,Net-(U9-Pad9)*%
X107315000Y-128905000D03*
D12*
%TO.P,U9,1*%
%TO.N,GND*%
X99695000Y-111125000D03*
%TD*%
D10*
%TO.P,U8,14*%
%TO.N,VCC*%
X161290000Y-113665000D03*
%TO.P,U8,7*%
%TO.N,GND*%
X153670000Y-128905000D03*
%TO.P,U8,13*%
%TO.N,PHI2*%
X161290000Y-116205000D03*
%TO.P,U8,6*%
%TO.N,NOB*%
X153670000Y-126365000D03*
%TO.P,U8,12*%
%TO.N,WNR*%
X161290000Y-118745000D03*
%TO.P,U8,5*%
%TO.N,Net-(U11-Pad8)*%
X153670000Y-123825000D03*
%TO.P,U8,11*%
%TO.N,NWDS*%
X161290000Y-121285000D03*
%TO.P,U8,4*%
%TO.N,Net-(U11-Pad8)*%
X153670000Y-121285000D03*
%TO.P,U8,10*%
%TO.N,RNW*%
X161290000Y-123825000D03*
%TO.P,U8,3*%
%TO.N,WNR*%
X153670000Y-118745000D03*
%TO.P,U8,9*%
%TO.N,PHI2*%
X161290000Y-126365000D03*
%TO.P,U8,2*%
%TO.N,RNW*%
X153670000Y-116205000D03*
%TO.P,U8,8*%
%TO.N,NRDS*%
X161290000Y-128905000D03*
D12*
%TO.P,U8,1*%
%TO.N,VCC*%
X153670000Y-113665000D03*
%TD*%
D10*
%TO.P,U7,32*%
%TO.N,VCC*%
X147955000Y-48895000D03*
%TO.P,U7,16*%
%TO.N,GND*%
X140335000Y-86995000D03*
%TO.P,U7,31*%
%TO.N,A15*%
X147955000Y-51435000D03*
%TO.P,U7,15*%
%TO.N,D2*%
X140335000Y-84455000D03*
%TO.P,U7,30*%
%TO.N,VCC*%
X147955000Y-53975000D03*
%TO.P,U7,14*%
%TO.N,D1*%
X140335000Y-81915000D03*
%TO.P,U7,29*%
%TO.N,NWDS*%
X147955000Y-56515000D03*
%TO.P,U7,13*%
%TO.N,D0*%
X140335000Y-79375000D03*
%TO.P,U7,28*%
%TO.N,A13*%
X147955000Y-59055000D03*
%TO.P,U7,12*%
%TO.N,A0*%
X140335000Y-76835000D03*
%TO.P,U7,27*%
%TO.N,A8*%
X147955000Y-61595000D03*
%TO.P,U7,11*%
%TO.N,A1*%
X140335000Y-74295000D03*
%TO.P,U7,26*%
%TO.N,A9*%
X147955000Y-64135000D03*
%TO.P,U7,10*%
%TO.N,A2*%
X140335000Y-71755000D03*
%TO.P,U7,25*%
%TO.N,A11*%
X147955000Y-66675000D03*
%TO.P,U7,9*%
%TO.N,A3*%
X140335000Y-69215000D03*
%TO.P,U7,24*%
%TO.N,NRDS*%
X147955000Y-69215000D03*
%TO.P,U7,8*%
%TO.N,A4*%
X140335000Y-66675000D03*
%TO.P,U7,23*%
%TO.N,A10*%
X147955000Y-71755000D03*
%TO.P,U7,7*%
%TO.N,A5*%
X140335000Y-64135000D03*
%TO.P,U7,22*%
%TO.N,NRAMCS*%
X147955000Y-74295000D03*
%TO.P,U7,6*%
%TO.N,A6*%
X140335000Y-61595000D03*
%TO.P,U7,21*%
%TO.N,D7*%
X147955000Y-76835000D03*
%TO.P,U7,5*%
%TO.N,A7*%
X140335000Y-59055000D03*
%TO.P,U7,20*%
%TO.N,D6*%
X147955000Y-79375000D03*
%TO.P,U7,4*%
%TO.N,A12*%
X140335000Y-56515000D03*
%TO.P,U7,19*%
%TO.N,D5*%
X147955000Y-81915000D03*
%TO.P,U7,3*%
%TO.N,A14*%
X140335000Y-53975000D03*
%TO.P,U7,18*%
%TO.N,D4*%
X147955000Y-84455000D03*
%TO.P,U7,2*%
%TO.N,Net-(U7-Pad2)*%
X140335000Y-51435000D03*
%TO.P,U7,17*%
%TO.N,D3*%
X147955000Y-86995000D03*
D12*
%TO.P,U7,1*%
%TO.N,Net-(U7-Pad1)*%
X140335000Y-48895000D03*
%TD*%
D10*
%TO.P,U4,20*%
%TO.N,VCC*%
X201295000Y-112395000D03*
%TO.P,U4,10*%
%TO.N,GND*%
X193675000Y-135255000D03*
%TO.P,U4,19*%
%TO.N,NOB*%
X201295000Y-114935000D03*
%TO.P,U4,9*%
%TO.N,/eurocard/BA11*%
X193675000Y-132715000D03*
%TO.P,U4,18*%
%TO.N,/eurocard/BA15*%
X201295000Y-117475000D03*
%TO.P,U4,8*%
%TO.N,A12*%
X193675000Y-130175000D03*
%TO.P,U4,17*%
%TO.N,A8*%
X201295000Y-120015000D03*
%TO.P,U4,7*%
%TO.N,/eurocard/BA10*%
X193675000Y-127635000D03*
%TO.P,U4,16*%
%TO.N,/eurocard/BA14*%
X201295000Y-122555000D03*
%TO.P,U4,6*%
%TO.N,A13*%
X193675000Y-125095000D03*
%TO.P,U4,15*%
%TO.N,A9*%
X201295000Y-125095000D03*
%TO.P,U4,5*%
%TO.N,/eurocard/BA9*%
X193675000Y-122555000D03*
%TO.P,U4,14*%
%TO.N,/eurocard/BA13*%
X201295000Y-127635000D03*
%TO.P,U4,4*%
%TO.N,A14*%
X193675000Y-120015000D03*
%TO.P,U4,13*%
%TO.N,A10*%
X201295000Y-130175000D03*
%TO.P,U4,3*%
%TO.N,/eurocard/BA8*%
X193675000Y-117475000D03*
%TO.P,U4,12*%
%TO.N,/eurocard/BA12*%
X201295000Y-132715000D03*
%TO.P,U4,2*%
%TO.N,A15*%
X193675000Y-114935000D03*
%TO.P,U4,11*%
%TO.N,A11*%
X201295000Y-135255000D03*
D12*
%TO.P,U4,1*%
%TO.N,NOB*%
X193675000Y-112395000D03*
%TD*%
D10*
%TO.P,U3,20*%
%TO.N,VCC*%
X201295000Y-83185000D03*
%TO.P,U3,10*%
%TO.N,GND*%
X193675000Y-106045000D03*
%TO.P,U3,19*%
%TO.N,NOB*%
X201295000Y-85725000D03*
%TO.P,U3,9*%
%TO.N,D0*%
X193675000Y-103505000D03*
%TO.P,U3,18*%
%TO.N,/eurocard/BD7*%
X201295000Y-88265000D03*
%TO.P,U3,8*%
%TO.N,D1*%
X193675000Y-100965000D03*
%TO.P,U3,17*%
%TO.N,/eurocard/BD6*%
X201295000Y-90805000D03*
%TO.P,U3,7*%
%TO.N,D2*%
X193675000Y-98425000D03*
%TO.P,U3,16*%
%TO.N,/eurocard/BD5*%
X201295000Y-93345000D03*
%TO.P,U3,6*%
%TO.N,D3*%
X193675000Y-95885000D03*
%TO.P,U3,15*%
%TO.N,/eurocard/BD4*%
X201295000Y-95885000D03*
%TO.P,U3,5*%
%TO.N,D4*%
X193675000Y-93345000D03*
%TO.P,U3,14*%
%TO.N,/eurocard/BD3*%
X201295000Y-98425000D03*
%TO.P,U3,4*%
%TO.N,D5*%
X193675000Y-90805000D03*
%TO.P,U3,13*%
%TO.N,/eurocard/BD2*%
X201295000Y-100965000D03*
%TO.P,U3,3*%
%TO.N,D6*%
X193675000Y-88265000D03*
%TO.P,U3,12*%
%TO.N,/eurocard/BD1*%
X201295000Y-103505000D03*
%TO.P,U3,2*%
%TO.N,D7*%
X193675000Y-85725000D03*
%TO.P,U3,11*%
%TO.N,/eurocard/BD0*%
X201295000Y-106045000D03*
D12*
%TO.P,U3,1*%
%TO.N,WNR*%
X193675000Y-83185000D03*
%TD*%
D10*
%TO.P,U2,20*%
%TO.N,VCC*%
X201295000Y-53975000D03*
%TO.P,U2,10*%
%TO.N,GND*%
X193675000Y-76835000D03*
%TO.P,U2,19*%
%TO.N,NOB*%
X201295000Y-56515000D03*
%TO.P,U2,9*%
%TO.N,/eurocard/BA0*%
X193675000Y-74295000D03*
%TO.P,U2,18*%
%TO.N,/eurocard/BA7*%
X201295000Y-59055000D03*
%TO.P,U2,8*%
%TO.N,A4*%
X193675000Y-71755000D03*
%TO.P,U2,17*%
%TO.N,A3*%
X201295000Y-61595000D03*
%TO.P,U2,7*%
%TO.N,/eurocard/BA1*%
X193675000Y-69215000D03*
%TO.P,U2,16*%
%TO.N,/eurocard/BA6*%
X201295000Y-64135000D03*
%TO.P,U2,6*%
%TO.N,A5*%
X193675000Y-66675000D03*
%TO.P,U2,15*%
%TO.N,A2*%
X201295000Y-66675000D03*
%TO.P,U2,5*%
%TO.N,/eurocard/BA2*%
X193675000Y-64135000D03*
%TO.P,U2,14*%
%TO.N,/eurocard/BA5*%
X201295000Y-69215000D03*
%TO.P,U2,4*%
%TO.N,A6*%
X193675000Y-61595000D03*
%TO.P,U2,13*%
%TO.N,A1*%
X201295000Y-71755000D03*
%TO.P,U2,3*%
%TO.N,/eurocard/BA3*%
X193675000Y-59055000D03*
%TO.P,U2,12*%
%TO.N,/eurocard/BA4*%
X201295000Y-74295000D03*
%TO.P,U2,2*%
%TO.N,A7*%
X193675000Y-56515000D03*
%TO.P,U2,11*%
%TO.N,A0*%
X201295000Y-76835000D03*
D12*
%TO.P,U2,1*%
%TO.N,NOB*%
X193675000Y-53975000D03*
%TD*%
D10*
%TO.P,U1,14*%
%TO.N,VCC*%
X180975000Y-113665000D03*
%TO.P,U1,7*%
%TO.N,GND*%
X173355000Y-128905000D03*
%TO.P,U1,13*%
X180975000Y-116205000D03*
%TO.P,U1,6*%
%TO.N,/eurocard/BRNW*%
X173355000Y-126365000D03*
%TO.P,U1,12*%
%TO.N,Net-(U1-Pad12)*%
X180975000Y-118745000D03*
%TO.P,U1,5*%
%TO.N,RNW*%
X173355000Y-123825000D03*
%TO.P,U1,11*%
%TO.N,Net-(R1-Pad2)*%
X180975000Y-121285000D03*
%TO.P,U1,4*%
%TO.N,GND*%
X173355000Y-121285000D03*
%TO.P,U1,10*%
X180975000Y-123825000D03*
%TO.P,U1,3*%
%TO.N,/eurocard/BPHI2*%
X173355000Y-118745000D03*
%TO.P,U1,9*%
%TO.N,SYNC*%
X180975000Y-126365000D03*
%TO.P,U1,2*%
%TO.N,PHI2*%
X173355000Y-116205000D03*
%TO.P,U1,8*%
%TO.N,/eurocard/BSYNC*%
X180975000Y-128905000D03*
D12*
%TO.P,U1,1*%
%TO.N,GND*%
X173355000Y-113665000D03*
%TD*%
D10*
%TO.P,RN1,9*%
%TO.N,/eurocard/BD7*%
X208915000Y-88265000D03*
%TO.P,RN1,8*%
%TO.N,/eurocard/BD6*%
X208915000Y-90805000D03*
%TO.P,RN1,7*%
%TO.N,/eurocard/BD5*%
X208915000Y-93345000D03*
%TO.P,RN1,6*%
%TO.N,/eurocard/BD4*%
X208915000Y-95885000D03*
%TO.P,RN1,5*%
%TO.N,/eurocard/BD3*%
X208915000Y-98425000D03*
%TO.P,RN1,4*%
%TO.N,/eurocard/BD2*%
X208915000Y-100965000D03*
%TO.P,RN1,3*%
%TO.N,/eurocard/BD1*%
X208915000Y-103505000D03*
%TO.P,RN1,2*%
%TO.N,/eurocard/BD0*%
X208915000Y-106045000D03*
D12*
%TO.P,RN1,1*%
%TO.N,GND*%
X208915000Y-108585000D03*
%TD*%
D10*
%TO.P,R7,2*%
%TO.N,NIRQ*%
X208280000Y-122555000D03*
D11*
%TO.P,R7,1*%
%TO.N,VCC*%
X208280000Y-112395000D03*
%TD*%
D10*
%TO.P,R6,2*%
%TO.N,NMI*%
X211455000Y-122555000D03*
D11*
%TO.P,R6,1*%
%TO.N,VCC*%
X211455000Y-112395000D03*
%TD*%
D10*
%TO.P,R5,2*%
%TO.N,Net-(R5-Pad2)*%
X101727000Y-52705000D03*
D11*
%TO.P,R5,1*%
%TO.N,VCC*%
X101727000Y-42545000D03*
%TD*%
D10*
%TO.P,R4,2*%
%TO.N,CA2*%
X76327000Y-86995000D03*
D11*
%TO.P,R4,1*%
%TO.N,VCC*%
X76327000Y-97155000D03*
%TD*%
D10*
%TO.P,R3,2*%
%TO.N,CA1*%
X76327000Y-83058000D03*
D11*
%TO.P,R3,1*%
%TO.N,VCC*%
X76327000Y-72898000D03*
%TD*%
D10*
%TO.P,R2,2*%
%TO.N,NRST*%
X76073000Y-55245000D03*
D11*
%TO.P,R2,1*%
%TO.N,Net-(J2-Pad15)*%
X76073000Y-65405000D03*
%TD*%
D10*
%TO.P,R1,2*%
%TO.N,Net-(R1-Pad2)*%
X182245000Y-107950000D03*
D11*
%TO.P,R1,1*%
%TO.N,/eurocard/B4MHZ*%
X182245000Y-97790000D03*
%TD*%
D14*
%TO.P,J4,2*%
%TO.N,CA1*%
X73660000Y-43180000D03*
D15*
%TO.P,J4,1*%
%TO.N,PA7*%
X73660000Y-45720000D03*
%TD*%
D16*
%TO.P,J1,b32*%
%TO.N,GND*%
X215900000Y-128905000D03*
%TO.P,J1,b31*%
%TO.N,Net-(J1-Padb31)*%
X215900000Y-126365000D03*
%TO.P,J1,b30*%
%TO.N,/eurocard/BSYNC*%
X215900000Y-123825000D03*
%TO.P,J1,b29*%
%TO.N,NMI*%
X215900000Y-121285000D03*
%TO.P,J1,b28*%
%TO.N,NIRQ*%
X215900000Y-118745000D03*
%TO.P,J1,b27*%
%TO.N,Net-(J1-Padb27)*%
X215900000Y-116205000D03*
%TO.P,J1,b26*%
%TO.N,Net-(J1-Padb26)*%
X215900000Y-113665000D03*
%TO.P,J1,b25*%
%TO.N,Net-(J1-Padb25)*%
X215900000Y-111125000D03*
%TO.P,J1,b24*%
%TO.N,Net-(J1-Padb24)*%
X215900000Y-108585000D03*
%TO.P,J1,b23*%
%TO.N,Net-(J1-Padb23)*%
X215900000Y-106045000D03*
%TO.P,J1,b22*%
%TO.N,Net-(J1-Padb22)*%
X215900000Y-103505000D03*
%TO.P,J1,b21*%
%TO.N,Net-(J1-Padb21)*%
X215900000Y-100965000D03*
%TO.P,J1,b20*%
%TO.N,Net-(J1-Padb20)*%
X215900000Y-98425000D03*
%TO.P,J1,b19*%
%TO.N,Net-(J1-Padb19)*%
X215900000Y-95885000D03*
%TO.P,J1,b18*%
%TO.N,Net-(J1-Padb18)*%
X215900000Y-93345000D03*
%TO.P,J1,b17*%
%TO.N,Net-(J1-Padb17)*%
X215900000Y-90805000D03*
%TO.P,J1,b16*%
%TO.N,/eurocard/B4MHZ*%
X215900000Y-88265000D03*
%TO.P,J1,b15*%
%TO.N,Net-(J1-Padb15)*%
X215900000Y-85725000D03*
%TO.P,J1,b14*%
%TO.N,Net-(J1-Padb14)*%
X215900000Y-83185000D03*
%TO.P,J1,b13*%
%TO.N,Net-(J1-Padb13)*%
X215900000Y-80645000D03*
%TO.P,J1,b12*%
%TO.N,Net-(J1-Padb12)*%
X215900000Y-78105000D03*
%TO.P,J1,b11*%
%TO.N,Net-(J1-Padb11)*%
X215900000Y-75565000D03*
%TO.P,J1,b10*%
%TO.N,Net-(J1-Padb10)*%
X215900000Y-73025000D03*
%TO.P,J1,b9*%
%TO.N,Net-(J1-Padb9)*%
X215900000Y-70485000D03*
%TO.P,J1,b8*%
%TO.N,Net-(J1-Padb8)*%
X215900000Y-67945000D03*
%TO.P,J1,b7*%
%TO.N,Net-(J1-Padb7)*%
X215900000Y-65405000D03*
%TO.P,J1,b6*%
%TO.N,Net-(J1-Padb6)*%
X215900000Y-62865000D03*
%TO.P,J1,b5*%
%TO.N,Net-(J1-Padb5)*%
X215900000Y-60325000D03*
%TO.P,J1,b4*%
%TO.N,Net-(J1-Padb4)*%
X215900000Y-57785000D03*
%TO.P,J1,b3*%
%TO.N,Net-(J1-Padb3)*%
X215900000Y-55245000D03*
%TO.P,J1,b2*%
%TO.N,Net-(J1-Padb2)*%
X215900000Y-52705000D03*
%TO.P,J1,b1*%
%TO.N,Net-(J1-Padb1)*%
X215900000Y-50165000D03*
%TO.P,J1,a32*%
%TO.N,GND*%
X218440000Y-128905000D03*
%TO.P,J1,a31*%
%TO.N,NBLK0*%
X218440000Y-126365000D03*
%TO.P,J1,a30*%
%TO.N,/eurocard/BRNW*%
X218440000Y-123825000D03*
%TO.P,J1,a29*%
%TO.N,/eurocard/BPHI2*%
X218440000Y-121285000D03*
%TO.P,J1,a28*%
%TO.N,/eurocard/BA9*%
X218440000Y-118745000D03*
%TO.P,J1,a27*%
%TO.N,/eurocard/BA10*%
X218440000Y-116205000D03*
%TO.P,J1,a26*%
%TO.N,/eurocard/BA11*%
X218440000Y-113665000D03*
%TO.P,J1,a25*%
%TO.N,/eurocard/BA12*%
X218440000Y-111125000D03*
%TO.P,J1,a24*%
%TO.N,/eurocard/BA13*%
X218440000Y-108585000D03*
%TO.P,J1,a23*%
%TO.N,/eurocard/BD0*%
X218440000Y-106045000D03*
%TO.P,J1,a22*%
%TO.N,/eurocard/BD1*%
X218440000Y-103505000D03*
%TO.P,J1,a21*%
%TO.N,/eurocard/BD2*%
X218440000Y-100965000D03*
%TO.P,J1,a20*%
%TO.N,/eurocard/BD3*%
X218440000Y-98425000D03*
%TO.P,J1,a19*%
%TO.N,/eurocard/BD4*%
X218440000Y-95885000D03*
%TO.P,J1,a18*%
%TO.N,/eurocard/BD5*%
X218440000Y-93345000D03*
%TO.P,J1,a17*%
%TO.N,/eurocard/BD6*%
X218440000Y-90805000D03*
%TO.P,J1,a16*%
%TO.N,/eurocard/BD7*%
X218440000Y-88265000D03*
%TO.P,J1,a15*%
%TO.N,/eurocard/BA0*%
X218440000Y-85725000D03*
%TO.P,J1,a14*%
%TO.N,/eurocard/BA1*%
X218440000Y-83185000D03*
%TO.P,J1,a13*%
%TO.N,/eurocard/BA2*%
X218440000Y-80645000D03*
%TO.P,J1,a12*%
%TO.N,/eurocard/BA3*%
X218440000Y-78105000D03*
%TO.P,J1,a11*%
%TO.N,/eurocard/BA4*%
X218440000Y-75565000D03*
%TO.P,J1,a10*%
%TO.N,/eurocard/BA5*%
X218440000Y-73025000D03*
%TO.P,J1,a9*%
%TO.N,/eurocard/BA6*%
X218440000Y-70485000D03*
%TO.P,J1,a8*%
%TO.N,/eurocard/BA7*%
X218440000Y-67945000D03*
%TO.P,J1,a7*%
%TO.N,/eurocard/BA8*%
X218440000Y-65405000D03*
%TO.P,J1,a6*%
%TO.N,NRST*%
X218440000Y-62865000D03*
%TO.P,J1,a5*%
%TO.N,NRDS*%
X218440000Y-60325000D03*
%TO.P,J1,a4*%
%TO.N,NWDS*%
X218440000Y-57785000D03*
%TO.P,J1,a3*%
%TO.N,/eurocard/BA14*%
X218440000Y-55245000D03*
%TO.P,J1,a2*%
%TO.N,/eurocard/BA15*%
X218440000Y-52705000D03*
%TO.P,J1,a1*%
%TO.N,VCC*%
%TA.AperFunction,ComponentPad*%
G36*
G01*
X217914999Y-49390000D02*
X218965001Y-49390000D01*
G75*
G02*
X219215000Y-49639999I0J-249999D01*
G01*
X219215000Y-50690001D01*
G75*
G02*
X218965001Y-50940000I-249999J0D01*
G01*
X217914999Y-50940000D01*
G75*
G02*
X217665000Y-50690001I0J249999D01*
G01*
X217665000Y-49639999D01*
G75*
G02*
X217914999Y-49390000I249999J0D01*
G01*
G37*
%TD.AperFunction*%
%TD*%
D11*
%TO.P,C14,2*%
%TO.N,GND*%
X153035000Y-45165000D03*
%TO.P,C14,1*%
%TO.N,VCC*%
X153035000Y-50165000D03*
%TD*%
%TO.P,C13,2*%
%TO.N,GND*%
X167640000Y-130810000D03*
%TO.P,C13,1*%
%TO.N,VCC*%
X167640000Y-125810000D03*
%TD*%
%TO.P,C12,2*%
%TO.N,GND*%
X147955000Y-130810000D03*
%TO.P,C12,1*%
%TO.N,VCC*%
X147955000Y-125810000D03*
%TD*%
%TO.P,C11,2*%
%TO.N,GND*%
X129540000Y-130730000D03*
%TO.P,C11,1*%
%TO.N,VCC*%
X129540000Y-125730000D03*
%TD*%
%TO.P,C10,2*%
%TO.N,GND*%
X113030000Y-130810000D03*
%TO.P,C10,1*%
%TO.N,VCC*%
X113030000Y-125810000D03*
%TD*%
%TO.P,C9,2*%
%TO.N,GND*%
X95250000Y-130730000D03*
%TO.P,C9,1*%
%TO.N,VCC*%
X95250000Y-125730000D03*
%TD*%
%TO.P,C8,2*%
%TO.N,GND*%
X186055000Y-130810000D03*
%TO.P,C8,1*%
%TO.N,VCC*%
X186055000Y-125810000D03*
%TD*%
%TO.P,C7,2*%
%TO.N,GND*%
X182880000Y-45165000D03*
%TO.P,C7,1*%
%TO.N,VCC*%
X182880000Y-50165000D03*
%TD*%
%TO.P,C6,2*%
%TO.N,GND*%
X189865000Y-45165000D03*
%TO.P,C6,1*%
%TO.N,VCC*%
X189865000Y-50165000D03*
%TD*%
%TO.P,C5,2*%
%TO.N,GND*%
X189865000Y-76915000D03*
%TO.P,C5,1*%
%TO.N,VCC*%
X189865000Y-81915000D03*
%TD*%
%TO.P,C4,2*%
%TO.N,GND*%
X207050000Y-46990000D03*
D12*
%TO.P,C4,1*%
%TO.N,VCC*%
X209550000Y-46990000D03*
%TD*%
D11*
%TO.P,C3,2*%
%TO.N,GND*%
X132715000Y-56595000D03*
%TO.P,C3,1*%
%TO.N,Net-(C3-Pad1)*%
X132715000Y-61595000D03*
%TD*%
%TO.P,C2,2*%
%TO.N,GND*%
X132635000Y-51435000D03*
%TO.P,C2,1*%
%TO.N,Net-(C2-Pad1)*%
X127635000Y-51435000D03*
%TD*%
D12*
%TO.P,U6,1*%
%TO.N,VCC*%
X163195000Y-53975000D03*
D10*
%TO.P,U6,15*%
%TO.N,D3*%
X178435000Y-86995000D03*
%TO.P,U6,2*%
%TO.N,A12*%
X163195000Y-56515000D03*
%TO.P,U6,16*%
%TO.N,D4*%
X178435000Y-84455000D03*
%TO.P,U6,3*%
%TO.N,A7*%
X163195000Y-59055000D03*
%TO.P,U6,17*%
%TO.N,D5*%
X178435000Y-81915000D03*
%TO.P,U6,4*%
%TO.N,A6*%
X163195000Y-61595000D03*
%TO.P,U6,18*%
%TO.N,D6*%
X178435000Y-79375000D03*
%TO.P,U6,5*%
%TO.N,A5*%
X163195000Y-64135000D03*
%TO.P,U6,19*%
%TO.N,D7*%
X178435000Y-76835000D03*
%TO.P,U6,6*%
%TO.N,A4*%
X163195000Y-66675000D03*
%TO.P,U6,20*%
%TO.N,NBLKEF*%
X178435000Y-74295000D03*
%TO.P,U6,7*%
%TO.N,A3*%
X163195000Y-69215000D03*
%TO.P,U6,21*%
%TO.N,A10*%
X178435000Y-71755000D03*
%TO.P,U6,8*%
%TO.N,A2*%
X163195000Y-71755000D03*
%TO.P,U6,22*%
%TO.N,NRDS*%
X178435000Y-69215000D03*
%TO.P,U6,9*%
%TO.N,A1*%
X163195000Y-74295000D03*
%TO.P,U6,23*%
%TO.N,A11*%
X178435000Y-66675000D03*
%TO.P,U6,10*%
%TO.N,A0*%
X163195000Y-76835000D03*
%TO.P,U6,24*%
%TO.N,A9*%
X178435000Y-64135000D03*
%TO.P,U6,11*%
%TO.N,D0*%
X163195000Y-79375000D03*
%TO.P,U6,25*%
%TO.N,A8*%
X178435000Y-61595000D03*
%TO.P,U6,12*%
%TO.N,D1*%
X163195000Y-81915000D03*
%TO.P,U6,26*%
%TO.N,GND*%
X178435000Y-59055000D03*
%TO.P,U6,13*%
%TO.N,D2*%
X163195000Y-84455000D03*
%TO.P,U6,27*%
%TO.N,NWDS*%
X178435000Y-56515000D03*
%TO.P,U6,14*%
%TO.N,GND*%
X163195000Y-86995000D03*
%TO.P,U6,28*%
%TO.N,VCC*%
X178435000Y-53975000D03*
%TD*%
D13*
%TO.P,Y1,1*%
%TO.N,Net-(C2-Pad1)*%
X127635000Y-56515000D03*
%TO.P,Y1,2*%
%TO.N,Net-(C3-Pad1)*%
X127635000Y-61515000D03*
%TD*%
D11*
%TO.P,C1,1*%
%TO.N,VCC*%
X127635000Y-42545000D03*
%TO.P,C1,2*%
%TO.N,GND*%
X127635000Y-47545000D03*
%TD*%
%TO.P,C15,2*%
%TO.N,GND*%
X86280000Y-43815000D03*
%TO.P,C15,1*%
%TO.N,VCC*%
X81280000Y-43815000D03*
%TD*%
%TO.P,C16,1*%
%TO.N,VCC*%
X189865000Y-111125000D03*
%TO.P,C16,2*%
%TO.N,GND*%
X189865000Y-106125000D03*
%TD*%
D17*
%TO.N,GND*%
X107315000Y-45720000D03*
X65405000Y-102870010D03*
X77470000Y-100965000D03*
X167005000Y-45085000D03*
X138430000Y-98425000D03*
X93345000Y-100965000D03*
X90169994Y-100965000D03*
%TO.N,VCC*%
X161290000Y-50165000D03*
X103251000Y-109474000D03*
%TO.N,NIRQ*%
X97923489Y-132213489D03*
X183134000Y-127635000D03*
X181864004Y-133477000D03*
%TO.N,/eurocard/B4MHZ*%
X211455000Y-109220000D03*
X211455000Y-88265000D03*
%TO.N,NBLK0*%
X110490000Y-132559490D03*
X115443000Y-115697002D03*
%TO.N,/eurocard/BA10*%
X208407008Y-118999000D03*
%TO.N,/eurocard/BA11*%
X213995000Y-116205000D03*
X211455000Y-124968002D03*
%TO.N,/eurocard/BA13*%
X208788000Y-114300000D03*
X205486000Y-125857000D03*
%TO.N,/eurocard/BA1*%
X208280000Y-70485000D03*
X208384499Y-82019499D03*
%TO.N,/eurocard/BA2*%
X209550000Y-67945000D03*
X209550000Y-79375000D03*
%TO.N,/eurocard/BA3*%
X211455000Y-66675000D03*
X211455000Y-76835000D03*
%TO.N,/eurocard/BA8*%
X213995000Y-114173000D03*
%TO.N,NRST*%
X93345000Y-64135000D03*
X93345000Y-46989990D03*
X93345000Y-52070000D03*
X208661000Y-59182000D03*
%TO.N,NRDS*%
X182880000Y-69215000D03*
X155575000Y-67945000D03*
X182880000Y-60325000D03*
%TO.N,NWDS*%
X156845000Y-55245000D03*
%TO.N,RNW*%
X116840000Y-64135000D03*
X116840000Y-92075000D03*
X116840000Y-106045000D03*
X151285510Y-106045000D03*
%TO.N,SYNC*%
X115570000Y-102235000D03*
X149859996Y-102235000D03*
X149987000Y-127634998D03*
%TO.N,PHI2*%
X94615000Y-50165000D03*
X158115000Y-104775000D03*
X99060000Y-104775000D03*
%TO.N,NOB*%
X191770000Y-84455000D03*
X191770000Y-84455000D03*
X191134994Y-126365000D03*
%TO.N,A4*%
X185975501Y-68024499D03*
X186055000Y-71755000D03*
X135890000Y-66675000D03*
X135509000Y-78994000D03*
%TO.N,A0*%
X138430000Y-76835000D03*
X138430000Y-67945000D03*
%TO.N,A5*%
X120729499Y-65484499D03*
X120650000Y-80645000D03*
%TO.N,A1*%
X137881616Y-74295000D03*
X137795000Y-70383479D03*
%TO.N,A6*%
X120015000Y-83185000D03*
X119634000Y-62865000D03*
%TO.N,A7*%
X118745000Y-85725000D03*
X118744996Y-60452000D03*
%TO.N,A3*%
X184150000Y-64135000D03*
X184070501Y-70405501D03*
X136525000Y-69215000D03*
X136525000Y-76835000D03*
%TO.N,D0*%
X128905000Y-79375000D03*
X128905000Y-66675000D03*
X102870000Y-66675000D03*
%TO.N,D1*%
X130175000Y-69215000D03*
X130175000Y-81915000D03*
%TO.N,D2*%
X131445000Y-84299490D03*
X131277954Y-71789321D03*
%TO.N,D3*%
X142160501Y-75485501D03*
X142240000Y-86360000D03*
%TO.N,D4*%
X143510000Y-78740000D03*
%TO.N,D5*%
X149860000Y-81915000D03*
X126365000Y-79375000D03*
X149860000Y-91440000D03*
X126365000Y-86204490D03*
%TO.N,D6*%
X146050000Y-79375000D03*
X146050000Y-81915000D03*
%TO.N,D7*%
X144780000Y-84455000D03*
X144780000Y-76835000D03*
X183515000Y-79375000D03*
%TO.N,A12*%
X153035010Y-57785000D03*
X153670000Y-99695000D03*
X113157000Y-95758000D03*
X113157000Y-114173000D03*
%TO.N,A8*%
X134620000Y-61595000D03*
X134620000Y-85725000D03*
X199390000Y-61595000D03*
X129667000Y-85090000D03*
X129666992Y-116205000D03*
%TO.N,A13*%
X113664998Y-115697000D03*
X151187012Y-98435371D03*
X114173000Y-93472000D03*
%TO.N,A9*%
X133350000Y-64135000D03*
X133350000Y-90805000D03*
X132080000Y-118745000D03*
X198120000Y-65405000D03*
%TO.N,A14*%
X97075501Y-119935501D03*
X97155000Y-113665000D03*
X158115000Y-53975000D03*
X158115000Y-53975000D03*
X158115000Y-97155000D03*
X101472998Y-90805000D03*
%TO.N,A10*%
X131924490Y-93345000D03*
X119380000Y-93345000D03*
X196850000Y-79375000D03*
X132461000Y-71119986D03*
X185039016Y-79374990D03*
%TO.N,A15*%
X114935000Y-88265000D03*
X152400000Y-95885000D03*
%TO.N,A11*%
X127635000Y-65405000D03*
X127635000Y-95885000D03*
X120650000Y-95885000D03*
X184785000Y-74294994D03*
X195707000Y-76835000D03*
%TO.N,NVIA*%
X94615000Y-105038509D03*
X89408000Y-108076992D03*
%TO.N,NBLKEF*%
X173990004Y-74295000D03*
X174117000Y-107442000D03*
%TO.N,NRAMCS*%
X125095000Y-73504490D03*
X125095000Y-103505000D03*
X111760000Y-103505006D03*
X111759998Y-115697000D03*
%TO.N,Net-(U10-Pad12)*%
X132080000Y-121285000D03*
X132080000Y-126365000D03*
%TO.N,WNR*%
X185721501Y-122634499D03*
X186182000Y-80518000D03*
%TD*%
D18*
%TO.N,GND*%
X140335000Y-86995000D02*
X141970001Y-88630001D01*
X161559999Y-88630001D02*
X163195000Y-86995000D01*
X141970001Y-88630001D02*
X161559999Y-88630001D01*
X83185000Y-128905000D02*
X83185000Y-130175000D01*
X83740000Y-130730000D02*
X95250000Y-130730000D01*
X83185000Y-130175000D02*
X83740000Y-130730000D01*
X97870000Y-130730000D02*
X99695000Y-128905000D01*
X95250000Y-130730000D02*
X97870000Y-130730000D01*
X99695000Y-128905000D02*
X101600000Y-130810000D01*
X101600000Y-130810000D02*
X113030000Y-130810000D01*
D19*
X173355000Y-121285000D02*
X175260000Y-121285000D01*
X177800000Y-123825000D02*
X180975000Y-123825000D01*
X175260000Y-121285000D02*
X177800000Y-123825000D01*
D18*
X173355000Y-128905000D02*
X173355000Y-130175000D01*
X172720000Y-130810000D02*
X167640000Y-130810000D01*
X173355000Y-130175000D02*
X172720000Y-130810000D01*
X155575000Y-130810000D02*
X153670000Y-128905000D01*
X167640000Y-130810000D02*
X155575000Y-130810000D01*
X153670000Y-128905000D02*
X151765000Y-130810000D01*
X151765000Y-130810000D02*
X147955000Y-130810000D01*
X136525000Y-130810000D02*
X134620000Y-128905000D01*
X147955000Y-130810000D02*
X136525000Y-130810000D01*
X132795000Y-130730000D02*
X134620000Y-128905000D01*
X129540000Y-130730000D02*
X132795000Y-130730000D01*
X119300000Y-130730000D02*
X129540000Y-130730000D01*
X117475000Y-128905000D02*
X119300000Y-130730000D01*
X115570000Y-130810000D02*
X117475000Y-128905000D01*
X113030000Y-130810000D02*
X115570000Y-130810000D01*
D19*
X173355000Y-113665000D02*
X174625000Y-113665000D01*
X177165000Y-116205000D02*
X180975000Y-116205000D01*
X174625000Y-113665000D02*
X177165000Y-116205000D01*
D18*
X173355000Y-128905000D02*
X175260000Y-130810000D01*
X175260000Y-130810000D02*
X186055000Y-130810000D01*
X193675000Y-135255000D02*
X187325000Y-135255000D01*
X186055000Y-133985000D02*
X186055000Y-130810000D01*
X187325000Y-135255000D02*
X186055000Y-133985000D01*
X215900000Y-128905000D02*
X218440000Y-128905000D01*
X66040000Y-130810000D02*
X65405000Y-130175000D01*
X65405000Y-130175000D02*
X65405000Y-102870010D01*
X83185000Y-128905000D02*
X81280000Y-130810000D01*
X81280000Y-130810000D02*
X66040000Y-130810000D01*
X71120000Y-105410000D02*
X75565000Y-100965000D01*
X75565000Y-100965000D02*
X77470000Y-100965000D01*
X122555000Y-97155000D02*
X118745000Y-100965000D01*
X118745000Y-100965000D02*
X93345000Y-100965000D01*
X205225000Y-45165000D02*
X207050000Y-46990000D01*
X201295000Y-45165000D02*
X205225000Y-45165000D01*
X182880000Y-45165000D02*
X201295000Y-45165000D01*
X182800000Y-45085000D02*
X182880000Y-45165000D01*
X153035000Y-45165000D02*
X182880000Y-45165000D01*
D19*
X132635000Y-56515000D02*
X132715000Y-56595000D01*
X132635000Y-51435000D02*
X132635000Y-56515000D01*
X127635000Y-47545000D02*
X131365000Y-47545000D01*
X132635000Y-48815000D02*
X132635000Y-51435000D01*
X131365000Y-47545000D02*
X132635000Y-48815000D01*
D18*
X193675000Y-136525000D02*
X193675000Y-135255000D01*
X194945000Y-137795000D02*
X193675000Y-136525000D01*
X215900000Y-128905000D02*
X215900000Y-132080000D01*
X210185000Y-137795000D02*
X194945000Y-137795000D01*
X215900000Y-132080000D02*
X210185000Y-137795000D01*
X193595000Y-76915000D02*
X193675000Y-76835000D01*
X189865000Y-76915000D02*
X193595000Y-76915000D01*
X122555000Y-97155000D02*
X123825000Y-98425000D01*
X123825000Y-98425000D02*
X138430000Y-98425000D01*
X86280000Y-44116000D02*
X87884000Y-45720000D01*
X87884000Y-45720000D02*
X107315000Y-45720000D01*
X86280000Y-43815000D02*
X86280000Y-44116000D01*
X125810000Y-45720000D02*
X127635000Y-47545000D01*
X107315000Y-45720000D02*
X125810000Y-45720000D01*
X196215000Y-106045000D02*
X193675000Y-106045000D01*
X198755000Y-108585000D02*
X196215000Y-106045000D01*
X208915000Y-108585000D02*
X198755000Y-108585000D01*
X93345000Y-100965000D02*
X90169994Y-100965000D01*
D19*
%TO.N,Net-(C2-Pad1)*%
X122555000Y-56515000D02*
X127635000Y-56515000D01*
X127635000Y-51435000D02*
X127635000Y-56515000D01*
X136525000Y-54895971D02*
X136525000Y-46990000D01*
X133254971Y-58166000D02*
X136525000Y-54895971D01*
X128270000Y-58166000D02*
X133254971Y-58166000D01*
X127635000Y-57531000D02*
X128270000Y-58166000D01*
X127635000Y-56515000D02*
X127635000Y-57531000D01*
%TO.N,Net-(C3-Pad1)*%
X127555000Y-61595000D02*
X127635000Y-61515000D01*
X122555000Y-61595000D02*
X127555000Y-61595000D01*
X132635000Y-61515000D02*
X132715000Y-61595000D01*
X127635000Y-61515000D02*
X132635000Y-61515000D01*
D18*
%TO.N,VCC*%
X71120000Y-125730000D02*
X71120000Y-128270000D01*
X162925001Y-112029999D02*
X161290000Y-113665000D01*
X179339999Y-112029999D02*
X162925001Y-112029999D01*
X180975000Y-113665000D02*
X179339999Y-112029999D01*
X127635000Y-113665000D02*
X125095000Y-111125000D01*
X161290000Y-113665000D02*
X127635000Y-113665000D01*
X123459999Y-109489999D02*
X125095000Y-111125000D01*
X108950001Y-109489999D02*
X123459999Y-109489999D01*
X107315000Y-111125000D02*
X108950001Y-109489999D01*
X105679999Y-109489999D02*
X107315000Y-111125000D01*
X94980001Y-109489999D02*
X105679999Y-109489999D01*
X90805000Y-113665000D02*
X94980001Y-109489999D01*
X201295000Y-53975000D02*
X207010000Y-53975000D01*
X209550000Y-51435000D02*
X209550000Y-46990000D01*
X207010000Y-53975000D02*
X209550000Y-51435000D01*
X179705000Y-50165000D02*
X182880000Y-50165000D01*
X153035000Y-50165000D02*
X151765000Y-50165000D01*
X150495000Y-48895000D02*
X147955000Y-48895000D01*
X151765000Y-50165000D02*
X150495000Y-48895000D01*
D19*
X163195000Y-50800000D02*
X163830000Y-50165000D01*
D18*
X179705000Y-50165000D02*
X176530000Y-50165000D01*
D19*
X163195000Y-53975000D02*
X163195000Y-50800000D01*
D18*
X163830000Y-50165000D02*
X153035000Y-50165000D01*
D19*
X211455000Y-112395000D02*
X208280000Y-112395000D01*
X208280000Y-112395000D02*
X201295000Y-112395000D01*
D18*
X189865000Y-81915000D02*
X191135000Y-80645000D01*
X198755000Y-80645000D02*
X201295000Y-83185000D01*
X191135000Y-80645000D02*
X198755000Y-80645000D01*
X176530000Y-50165000D02*
X163830000Y-50165000D01*
X147955000Y-44450000D02*
X147955000Y-48895000D01*
X146050000Y-42545000D02*
X147955000Y-44450000D01*
X127635000Y-42545000D02*
X146050000Y-42545000D01*
X101600000Y-42545000D02*
X127635000Y-42545000D01*
X88900000Y-42545000D02*
X101600000Y-42545000D01*
X83947000Y-41148000D02*
X87503000Y-41148000D01*
X87503000Y-41148000D02*
X88900000Y-42545000D01*
X81280000Y-43815000D02*
X83947000Y-41148000D01*
X190500000Y-110490000D02*
X189865000Y-111125000D01*
X195707000Y-110490000D02*
X190500000Y-110490000D01*
X197612000Y-112395000D02*
X195707000Y-110490000D01*
X201295000Y-112395000D02*
X197612000Y-112395000D01*
X76327000Y-69342000D02*
X76327000Y-72898000D01*
X74930000Y-67945000D02*
X76327000Y-69342000D01*
X71120000Y-67945000D02*
X74930000Y-67945000D01*
X178435000Y-53975000D02*
X178435000Y-50165000D01*
X199517000Y-50165000D02*
X182880000Y-50165000D01*
X201295000Y-51943000D02*
X199517000Y-50165000D01*
X201295000Y-53975000D02*
X201295000Y-51943000D01*
X215265000Y-46990000D02*
X218440000Y-50165000D01*
X209550000Y-46990000D02*
X215265000Y-46990000D01*
D19*
%TO.N,/eurocard/BSYNC*%
X180975000Y-128905000D02*
X185911942Y-128905000D01*
X191071441Y-134064499D02*
X195024499Y-134064499D01*
X185911942Y-128905000D02*
X191071441Y-134064499D01*
X197405501Y-136445501D02*
X209629499Y-136445501D01*
X195024499Y-134064499D02*
X197405501Y-136445501D01*
X209629499Y-136445501D02*
X213995000Y-132080000D01*
X213995000Y-132080000D02*
X213995000Y-124460000D01*
X214630000Y-123825000D02*
X215900000Y-123825000D01*
X213995000Y-124460000D02*
X214630000Y-123825000D01*
%TO.N,NMI*%
X211455000Y-122555000D02*
X211455000Y-121920000D01*
X212090000Y-121285000D02*
X215900000Y-121285000D01*
X211455000Y-121920000D02*
X212090000Y-121285000D01*
%TO.N,NIRQ*%
X210185000Y-118745000D02*
X215900000Y-118745000D01*
X208280000Y-122555000D02*
X208280000Y-120650000D01*
X208280000Y-120650000D02*
X210185000Y-118745000D01*
X185463614Y-127635000D02*
X183134000Y-127635000D01*
X189194115Y-131365501D02*
X185463614Y-127635000D01*
X208280000Y-129540000D02*
X206454499Y-131365501D01*
X208280000Y-122555000D02*
X208280000Y-129540000D01*
X206454499Y-131365501D02*
X189194115Y-131365501D01*
X97923489Y-132213489D02*
X99187000Y-133477000D01*
X99187000Y-133477000D02*
X181864004Y-133477000D01*
X94615000Y-79756000D02*
X94615000Y-96520000D01*
X89662000Y-74803000D02*
X94615000Y-79756000D01*
X89662000Y-59071058D02*
X89662000Y-74803000D01*
X94615000Y-96520000D02*
X95250000Y-97155000D01*
X96028058Y-52705000D02*
X89662000Y-59071058D01*
X95250000Y-97155000D02*
X96520000Y-97155000D01*
X99060000Y-52705000D02*
X96028058Y-52705000D01*
X102870000Y-56515000D02*
X99060000Y-52705000D01*
X107315000Y-56515000D02*
X102870000Y-56515000D01*
%TO.N,/eurocard/B4MHZ*%
X214803985Y-88265000D02*
X211455000Y-88265000D01*
X215900000Y-88265000D02*
X214803985Y-88265000D01*
X210185000Y-110490000D02*
X211455000Y-109220000D01*
X192786000Y-108966000D02*
X196342000Y-108966000D01*
X196342000Y-108966000D02*
X197866000Y-110490000D01*
X191770000Y-107950000D02*
X192786000Y-108966000D01*
X191770000Y-105410000D02*
X191770000Y-107950000D01*
X197866000Y-110490000D02*
X210185000Y-110490000D01*
X190500000Y-104140000D02*
X191770000Y-105410000D01*
X188595000Y-104140000D02*
X190500000Y-104140000D01*
X182245000Y-97790000D02*
X188595000Y-104140000D01*
%TO.N,NBLK0*%
X218440000Y-126365000D02*
X219605501Y-127530501D01*
X219605501Y-127530501D02*
X219605501Y-130914499D01*
X188985509Y-138820509D02*
X182724490Y-132559490D01*
X182724490Y-132559490D02*
X110490000Y-132559490D01*
X211699491Y-138820509D02*
X188985509Y-138820509D01*
X219605501Y-130914499D02*
X211699491Y-138820509D01*
X107315000Y-121285000D02*
X109855002Y-121285000D01*
X109855002Y-121285000D02*
X115443000Y-115697002D01*
%TO.N,/eurocard/BA9*%
X217170000Y-117475000D02*
X218440000Y-118745000D01*
X207645000Y-117475000D02*
X217170000Y-117475000D01*
X203914499Y-121205501D02*
X207645000Y-117475000D01*
X196929499Y-121205501D02*
X203914499Y-121205501D01*
X195580000Y-122555000D02*
X196929499Y-121205501D01*
X193675000Y-122555000D02*
X195580000Y-122555000D01*
%TO.N,/eurocard/BA10*%
X206502000Y-126746000D02*
X206502000Y-120904008D01*
X204343000Y-128905000D02*
X206502000Y-126746000D01*
X194945000Y-128905000D02*
X204343000Y-128905000D01*
X206502000Y-120904008D02*
X208407008Y-118999000D01*
X193675000Y-127635000D02*
X194945000Y-128905000D01*
%TO.N,/eurocard/BA11*%
X217065501Y-115039499D02*
X215160501Y-115039499D01*
X215160501Y-115039499D02*
X213995000Y-116205000D01*
X218440000Y-113665000D02*
X217065501Y-115039499D01*
X193675000Y-132715000D02*
X196215000Y-132715000D01*
X196215000Y-132715000D02*
X197485000Y-133985000D01*
X197485000Y-133985000D02*
X208915000Y-133985000D01*
X208915000Y-133985000D02*
X211455000Y-131445000D01*
X211455000Y-131445000D02*
X211455000Y-124968002D01*
%TO.N,/eurocard/BA12*%
X219329000Y-120015000D02*
X219964000Y-119380000D01*
X210820000Y-120015000D02*
X219329000Y-120015000D01*
X219964000Y-111506000D02*
X219583000Y-111125000D01*
X210134491Y-120700509D02*
X210820000Y-120015000D01*
X219583000Y-111125000D02*
X218440000Y-111125000D01*
X210134491Y-130225509D02*
X210134491Y-120700509D01*
X207645000Y-132715000D02*
X210134491Y-130225509D01*
X219964000Y-119380000D02*
X219964000Y-111506000D01*
X201295000Y-132715000D02*
X207645000Y-132715000D01*
%TO.N,/eurocard/BA13*%
X211582000Y-114300000D02*
X208788000Y-114300000D01*
X213868000Y-112014000D02*
X211582000Y-114300000D01*
X213868000Y-110490000D02*
X213868000Y-112014000D01*
X214503000Y-109855000D02*
X213868000Y-110490000D01*
X217170000Y-109855000D02*
X214503000Y-109855000D01*
X218440000Y-108585000D02*
X217170000Y-109855000D01*
X203708000Y-127635000D02*
X205486000Y-125857000D01*
X201295000Y-127635000D02*
X203708000Y-127635000D01*
%TO.N,/eurocard/BD0*%
X217274499Y-107210501D02*
X218440000Y-106045000D01*
X210080501Y-107210501D02*
X217274499Y-107210501D01*
X208915000Y-106045000D02*
X210080501Y-107210501D01*
X201295000Y-106045000D02*
X208915000Y-106045000D01*
%TO.N,/eurocard/BD1*%
X217065501Y-104879499D02*
X218440000Y-103505000D01*
X210289499Y-104879499D02*
X217065501Y-104879499D01*
X208915000Y-103505000D02*
X210289499Y-104879499D01*
X201295000Y-103505000D02*
X208915000Y-103505000D01*
%TO.N,/eurocard/BD2*%
X217274499Y-102130501D02*
X218440000Y-100965000D01*
X210080501Y-102130501D02*
X217274499Y-102130501D01*
X208915000Y-100965000D02*
X210080501Y-102130501D01*
X201295000Y-100965000D02*
X208915000Y-100965000D01*
%TO.N,/eurocard/BD3*%
X217274499Y-99590501D02*
X218440000Y-98425000D01*
X210080501Y-99590501D02*
X217274499Y-99590501D01*
X208915000Y-98425000D02*
X210080501Y-99590501D01*
X201295000Y-98425000D02*
X208915000Y-98425000D01*
%TO.N,/eurocard/BD4*%
X210080501Y-97050501D02*
X217274499Y-97050501D01*
X217274499Y-97050501D02*
X218440000Y-95885000D01*
X208915000Y-95885000D02*
X210080501Y-97050501D01*
X201295000Y-95885000D02*
X208915000Y-95885000D01*
%TO.N,/eurocard/BD5*%
X217274499Y-94510501D02*
X218440000Y-93345000D01*
X210080501Y-94510501D02*
X217274499Y-94510501D01*
X208915000Y-93345000D02*
X210080501Y-94510501D01*
X201295000Y-93345000D02*
X208915000Y-93345000D01*
%TO.N,/eurocard/BD6*%
X217274499Y-91970501D02*
X218440000Y-90805000D01*
X210080501Y-91970501D02*
X217274499Y-91970501D01*
X208915000Y-90805000D02*
X210080501Y-91970501D01*
X201295000Y-90805000D02*
X208915000Y-90805000D01*
%TO.N,/eurocard/BD7*%
X217274499Y-89430501D02*
X218440000Y-88265000D01*
X210080501Y-89430501D02*
X217274499Y-89430501D01*
X208915000Y-88265000D02*
X210080501Y-89430501D01*
X201295000Y-88265000D02*
X208915000Y-88265000D01*
%TO.N,/eurocard/BA0*%
X218440000Y-85725000D02*
X217274499Y-84559499D01*
X217274499Y-84559499D02*
X210715501Y-84559499D01*
X210715501Y-84559499D02*
X210289499Y-84559499D01*
X209019499Y-84559499D02*
X210715501Y-84559499D01*
X206375000Y-81915000D02*
X209019499Y-84559499D01*
X206375000Y-77470000D02*
X206375000Y-81915000D01*
X204549499Y-75644499D02*
X206375000Y-77470000D01*
X197945499Y-75644499D02*
X204549499Y-75644499D01*
X196596000Y-74295000D02*
X197945499Y-75644499D01*
X193675000Y-74295000D02*
X196596000Y-74295000D01*
%TO.N,/eurocard/BA1*%
X218440000Y-83185000D02*
X217274499Y-82019499D01*
X217274499Y-82019499D02*
X208384499Y-82019499D01*
X197993000Y-70485000D02*
X208280000Y-70485000D01*
X196723000Y-69215000D02*
X197993000Y-70485000D01*
X193675000Y-69215000D02*
X196723000Y-69215000D01*
%TO.N,/eurocard/BA2*%
X218440000Y-80645000D02*
X217170000Y-79375000D01*
X217170000Y-79375000D02*
X209550000Y-79375000D01*
X199469499Y-65484499D02*
X207089499Y-65484499D01*
X207089499Y-65484499D02*
X209550000Y-67945000D01*
X193675000Y-64135000D02*
X198120000Y-64135000D01*
X198120000Y-64135000D02*
X199469499Y-65484499D01*
%TO.N,/eurocard/BA3*%
X218440000Y-78105000D02*
X217170000Y-76835000D01*
X217170000Y-76835000D02*
X211455000Y-76835000D01*
X199469499Y-60404499D02*
X205184499Y-60404499D01*
X193675000Y-59055000D02*
X198120000Y-59055000D01*
X205184499Y-60404499D02*
X211455000Y-66675000D01*
X198120000Y-59055000D02*
X199469499Y-60404499D01*
%TO.N,/eurocard/BA4*%
X217170000Y-74295000D02*
X218440000Y-75565000D01*
X201295000Y-74295000D02*
X217170000Y-74295000D01*
%TO.N,/eurocard/BA5*%
X201295000Y-69215000D02*
X209550000Y-69215000D01*
X217065501Y-71650501D02*
X218440000Y-73025000D01*
X211985501Y-71650501D02*
X217065501Y-71650501D01*
X209550000Y-69215000D02*
X211985501Y-71650501D01*
%TO.N,/eurocard/BA6*%
X201295000Y-64135000D02*
X207645000Y-64135000D01*
X217065501Y-69110501D02*
X218440000Y-70485000D01*
X212620501Y-69110501D02*
X217065501Y-69110501D01*
X207645000Y-64135000D02*
X212620501Y-69110501D01*
%TO.N,/eurocard/BA7*%
X217274499Y-66779499D02*
X218440000Y-67945000D01*
X214099499Y-66779499D02*
X217274499Y-66779499D01*
X201295000Y-59055000D02*
X206375000Y-59055000D01*
X206375000Y-59055000D02*
X214099499Y-66779499D01*
%TO.N,/eurocard/BA8*%
X211963000Y-116205000D02*
X213995000Y-114173000D01*
X207137000Y-116205000D02*
X211963000Y-116205000D01*
X204676499Y-118665501D02*
X207137000Y-116205000D01*
X194865501Y-118665501D02*
X204676499Y-118665501D01*
X193675000Y-117475000D02*
X194865501Y-118665501D01*
%TO.N,NRST*%
X96520000Y-64135000D02*
X93345000Y-64135000D01*
X122555000Y-48895000D02*
X120650000Y-46990000D01*
X120650000Y-46990000D02*
X104775000Y-46990000D01*
X104775000Y-46990000D02*
X93345000Y-46990000D01*
X217274499Y-61699499D02*
X211178499Y-61699499D01*
X218440000Y-62865000D02*
X217274499Y-61699499D01*
X211178499Y-61699499D02*
X208661000Y-59182000D01*
X91440000Y-52070000D02*
X93345000Y-52070000D01*
X88265000Y-55245000D02*
X91440000Y-52070000D01*
X76073000Y-55245000D02*
X88265000Y-55245000D01*
D20*
%TO.N,NRDS*%
X178435000Y-69215000D02*
X182880000Y-69215000D01*
X210835999Y-57800999D02*
X185404001Y-57800999D01*
X217210999Y-59095999D02*
X212130999Y-59095999D01*
X212130999Y-59095999D02*
X210835999Y-57800999D01*
X218440000Y-60325000D02*
X217210999Y-59095999D01*
X185404001Y-57800999D02*
X182880000Y-60325000D01*
X170688000Y-69215000D02*
X178435000Y-69215000D01*
X169418000Y-67945000D02*
X170688000Y-69215000D01*
X154940000Y-67945000D02*
X169418000Y-67945000D01*
X153670000Y-69215000D02*
X154940000Y-67945000D01*
X147955000Y-69215000D02*
X153670000Y-69215000D01*
%TO.N,NWDS*%
X217210999Y-56555999D02*
X218440000Y-57785000D01*
X147955000Y-56515000D02*
X153670000Y-56515000D01*
X153670000Y-56515000D02*
X154955999Y-55229001D01*
X212074001Y-55229001D02*
X213400999Y-56555999D01*
X213400999Y-56555999D02*
X217210999Y-56555999D01*
D19*
X178435000Y-56515000D02*
X178435000Y-55245000D01*
X178435000Y-55245000D02*
X178450999Y-55229001D01*
D20*
X154955999Y-55229001D02*
X178450999Y-55229001D01*
X178450999Y-55229001D02*
X212074001Y-55229001D01*
D19*
%TO.N,PA5*%
X76424501Y-61565501D02*
X78994000Y-64135000D01*
X69820501Y-61565501D02*
X76424501Y-61565501D01*
X78994000Y-64135000D02*
X81280000Y-64135000D01*
X68580000Y-60325000D02*
X69820501Y-61565501D01*
%TO.N,PA4*%
X76962000Y-58801000D02*
X79756000Y-61595000D01*
X67564000Y-58801000D02*
X76962000Y-58801000D01*
X67310000Y-59055000D02*
X67564000Y-58801000D01*
X79756000Y-61595000D02*
X81280000Y-61595000D01*
X67310000Y-62865000D02*
X67310000Y-59055000D01*
X68580000Y-62865000D02*
X67310000Y-62865000D01*
%TO.N,PA3*%
X79121000Y-59055000D02*
X81280000Y-59055000D01*
X77724000Y-57658000D02*
X79121000Y-59055000D01*
X66675000Y-58420000D02*
X67437000Y-57658000D01*
X66675000Y-64770000D02*
X66675000Y-58420000D01*
X67437000Y-57658000D02*
X77724000Y-57658000D01*
X67310000Y-65405000D02*
X66675000Y-64770000D01*
X68580000Y-65405000D02*
X67310000Y-65405000D01*
%TO.N,PA2*%
X80148630Y-56515000D02*
X81280000Y-56515000D01*
X68580000Y-67945000D02*
X67377919Y-67945000D01*
X67377919Y-67945000D02*
X66040000Y-66607081D01*
X66040000Y-66607081D02*
X66040000Y-57150000D01*
X66675000Y-56515000D02*
X80148630Y-56515000D01*
X66040000Y-57150000D02*
X66675000Y-56515000D01*
%TO.N,PA1*%
X65405000Y-55880000D02*
X67310000Y-53975000D01*
X67310000Y-53975000D02*
X81280000Y-53975000D01*
X68580000Y-70485000D02*
X65405000Y-67310000D01*
X65405000Y-67310000D02*
X65405000Y-55880000D01*
%TO.N,PA0*%
X68393328Y-51435000D02*
X81280000Y-51435000D01*
X68580000Y-73025000D02*
X64770000Y-69215000D01*
X64770000Y-55058328D02*
X68393328Y-51435000D01*
X64770000Y-69215000D02*
X64770000Y-55058328D01*
%TO.N,CA2*%
X69215000Y-86995000D02*
X76327000Y-86995000D01*
X68580000Y-86360000D02*
X69215000Y-86995000D01*
X68580000Y-83185000D02*
X68580000Y-86360000D01*
X84201000Y-62484000D02*
X84201000Y-69849999D01*
X95250000Y-51435000D02*
X84201000Y-62484000D01*
X96520000Y-51435000D02*
X95250000Y-51435000D01*
X80708559Y-70564499D02*
X78613000Y-72660058D01*
X81692443Y-70564499D02*
X80708559Y-70564499D01*
X82406943Y-69849999D02*
X81692443Y-70564499D01*
X84201000Y-69849999D02*
X82406943Y-69849999D01*
X78613000Y-72660058D02*
X78613000Y-85979000D01*
X77597000Y-86995000D02*
X76327000Y-86995000D01*
X78613000Y-85979000D02*
X77597000Y-86995000D01*
%TO.N,PA6*%
X82677000Y-66675000D02*
X81280000Y-66675000D01*
X83185000Y-66167000D02*
X82677000Y-66675000D01*
X83185000Y-63500000D02*
X83185000Y-66167000D01*
X82550000Y-62865000D02*
X83185000Y-63500000D01*
X79248000Y-62865000D02*
X82550000Y-62865000D01*
X76708000Y-60325000D02*
X79248000Y-62865000D01*
X71120000Y-60325000D02*
X76708000Y-60325000D01*
%TO.N,PA7*%
X80264000Y-69215000D02*
X81280000Y-69215000D01*
X78740000Y-67691000D02*
X80264000Y-69215000D01*
X78740000Y-65532000D02*
X78740000Y-67691000D01*
X76073000Y-62865000D02*
X78740000Y-65532000D01*
X71120000Y-62865000D02*
X76073000Y-62865000D01*
%TO.N,Net-(J2-Pad15)*%
X71120000Y-65405000D02*
X76073000Y-65405000D01*
%TO.N,CA1*%
X76327000Y-83058000D02*
X76200000Y-83185000D01*
X71247000Y-83058000D02*
X76327000Y-83058000D01*
X71120000Y-83185000D02*
X71247000Y-83058000D01*
X81407000Y-47117000D02*
X77470000Y-43180000D01*
X77470000Y-43180000D02*
X73660000Y-43180000D01*
X83947000Y-47117000D02*
X81407000Y-47117000D01*
X85725000Y-48895000D02*
X83947000Y-47117000D01*
X96520000Y-48895000D02*
X85725000Y-48895000D01*
%TO.N,PB7*%
X68580000Y-105410000D02*
X68580000Y-100965000D01*
X80010000Y-89535000D02*
X81280000Y-89535000D01*
X68580000Y-100965000D02*
X80010000Y-89535000D01*
%TO.N,PB6*%
X82550000Y-86995000D02*
X81280000Y-86995000D01*
X83820000Y-88265000D02*
X82550000Y-86995000D01*
X73914000Y-106680000D02*
X83820000Y-96774000D01*
X69967614Y-106680000D02*
X73914000Y-106680000D01*
X68697614Y-107950000D02*
X69967614Y-106680000D01*
X83820000Y-96774000D02*
X83820000Y-88265000D01*
X68580000Y-107950000D02*
X68697614Y-107950000D01*
%TO.N,PB5*%
X84582000Y-85852000D02*
X83185000Y-84455000D01*
X84582000Y-97917000D02*
X84582000Y-85852000D01*
X83185000Y-84455000D02*
X81280000Y-84455000D01*
X73279000Y-109220000D02*
X84582000Y-97917000D01*
X70231000Y-109220000D02*
X73279000Y-109220000D01*
X68961000Y-110490000D02*
X70231000Y-109220000D01*
X68580000Y-110490000D02*
X68961000Y-110490000D01*
%TO.N,PB4*%
X83185000Y-81915000D02*
X81280000Y-81915000D01*
X85471000Y-84201000D02*
X83185000Y-81915000D01*
X85471000Y-98933000D02*
X85471000Y-84201000D01*
X72644000Y-111760000D02*
X85471000Y-98933000D01*
X69850000Y-111760000D02*
X72644000Y-111760000D01*
X68580000Y-113030000D02*
X69850000Y-111760000D01*
%TO.N,PB3*%
X83185000Y-79375000D02*
X81280000Y-79375000D01*
X86233000Y-82423000D02*
X83185000Y-79375000D01*
X86233000Y-100330000D02*
X86233000Y-82423000D01*
X72263000Y-114300000D02*
X86233000Y-100330000D01*
X69850000Y-114300000D02*
X72263000Y-114300000D01*
X68580000Y-115570000D02*
X69850000Y-114300000D01*
%TO.N,PB2*%
X83185000Y-76835000D02*
X81280000Y-76835000D01*
X87122000Y-80772000D02*
X83185000Y-76835000D01*
X87122000Y-101600000D02*
X87122000Y-80772000D01*
X71882000Y-116840000D02*
X87122000Y-101600000D01*
X69850000Y-116840000D02*
X71882000Y-116840000D01*
X68580000Y-118110000D02*
X69850000Y-116840000D01*
%TO.N,PB1*%
X83185000Y-74295000D02*
X81280000Y-74295000D01*
X88011000Y-79121000D02*
X83185000Y-74295000D01*
X88011000Y-102997000D02*
X88011000Y-79121000D01*
X71628000Y-119380000D02*
X88011000Y-102997000D01*
X69850000Y-119380000D02*
X71628000Y-119380000D01*
X68580000Y-120650000D02*
X69850000Y-119380000D01*
%TO.N,CB2*%
X67339499Y-107354559D02*
X68043557Y-106650501D01*
X69175441Y-106650501D02*
X69879499Y-105946443D01*
X69879499Y-101570501D02*
X76835000Y-94615000D01*
X69879499Y-105946443D02*
X69879499Y-101570501D01*
X67339499Y-124489499D02*
X67339499Y-107354559D01*
X68580000Y-125730000D02*
X67339499Y-124489499D01*
X76835000Y-94615000D02*
X81280000Y-94615000D01*
X68043557Y-106650501D02*
X69175441Y-106650501D01*
%TO.N,CB1*%
X83185000Y-90170000D02*
X82079999Y-91275001D01*
X82550000Y-88265000D02*
X83185000Y-88900000D01*
X80010000Y-88265000D02*
X82550000Y-88265000D01*
X82079999Y-91275001D02*
X81280000Y-92075000D01*
X83185000Y-88900000D02*
X83185000Y-90170000D01*
X66758489Y-101516511D02*
X80010000Y-88265000D01*
X66758489Y-126448489D02*
X66758489Y-101516511D01*
X68580000Y-128270000D02*
X66758489Y-126448489D01*
%TO.N,Net-(R1-Pad2)*%
X180975000Y-121285000D02*
X182245000Y-121285000D01*
X182245000Y-121285000D02*
X182880000Y-120650000D01*
X182880000Y-120650000D02*
X182880000Y-110490000D01*
X182245000Y-109855000D02*
X182245000Y-107950000D01*
X182880000Y-110490000D02*
X182245000Y-109855000D01*
%TO.N,Net-(R5-Pad2)*%
X107315000Y-51435000D02*
X113030000Y-51435000D01*
X113030000Y-51435000D02*
X115570000Y-53975000D01*
X104394000Y-51435000D02*
X107315000Y-51435000D01*
X103124000Y-52705000D02*
X104394000Y-51435000D01*
X101727000Y-52705000D02*
X103124000Y-52705000D01*
X120650000Y-53975000D02*
X122555000Y-53975000D01*
X115570000Y-53975000D02*
X120650000Y-53975000D01*
X120650000Y-58293000D02*
X120650000Y-53975000D01*
X121412000Y-59055000D02*
X120650000Y-58293000D01*
X122555000Y-59055000D02*
X121412000Y-59055000D01*
%TO.N,RNW*%
X122555000Y-64135000D02*
X116840000Y-64135000D01*
X161290000Y-123825000D02*
X173355000Y-123825000D01*
X112395000Y-92075000D02*
X116840000Y-92075000D01*
X111125000Y-93345000D02*
X112395000Y-92075000D01*
X102235000Y-93345000D02*
X111125000Y-93345000D01*
X96520000Y-94615000D02*
X100965000Y-94615000D01*
X100965000Y-94615000D02*
X102235000Y-93345000D01*
X158750000Y-123825000D02*
X161290000Y-123825000D01*
X155019499Y-120094499D02*
X158750000Y-123825000D01*
X152479499Y-120094499D02*
X155019499Y-120094499D01*
X151765000Y-119380000D02*
X152479499Y-120094499D01*
X151765000Y-117094000D02*
X151765000Y-119380000D01*
X152654000Y-116205000D02*
X151765000Y-117094000D01*
X153670000Y-116205000D02*
X152654000Y-116205000D01*
X116840000Y-106045000D02*
X151285510Y-106045000D01*
%TO.N,SYNC*%
X115570000Y-102235000D02*
X149859996Y-102235000D01*
X150494992Y-127634998D02*
X149987000Y-127634998D01*
X179704994Y-127635006D02*
X150495000Y-127635006D01*
X180975000Y-126365000D02*
X179704994Y-127635006D01*
X150495000Y-127635006D02*
X150494992Y-127634998D01*
%TO.N,PHI2*%
X161290000Y-116205000D02*
X173355000Y-116205000D01*
X121364499Y-50244499D02*
X94694499Y-50244499D01*
X122555000Y-51435000D02*
X121364499Y-50244499D01*
X158115000Y-104775000D02*
X99060000Y-104775000D01*
%TO.N,NOB*%
X153670000Y-126365000D02*
X153199865Y-125894865D01*
X156210000Y-125730000D02*
X155575000Y-126365000D01*
X155575000Y-126365000D02*
X153670000Y-126365000D01*
X156210000Y-125095000D02*
X156210000Y-125730000D01*
X191770000Y-84455000D02*
X196850000Y-84455000D01*
X198120000Y-85725000D02*
X201295000Y-85725000D01*
X196850000Y-84455000D02*
X198120000Y-85725000D01*
X189176010Y-127053990D02*
X189865000Y-126365000D01*
X184838990Y-127053990D02*
X189176010Y-127053990D01*
X182880000Y-125095000D02*
X184838990Y-127053990D01*
X189865000Y-126365000D02*
X191134994Y-126365000D01*
X156210000Y-125095000D02*
X166593058Y-125095000D01*
X167068559Y-124619499D02*
X168211441Y-124619499D01*
X168686942Y-125095000D02*
X182880000Y-125095000D01*
X166593058Y-125095000D02*
X167068559Y-124619499D01*
X168211441Y-124619499D02*
X168686942Y-125095000D01*
X194945000Y-112395000D02*
X197485000Y-114935000D01*
X197485000Y-114935000D02*
X201295000Y-114935000D01*
X193675000Y-112395000D02*
X194945000Y-112395000D01*
X156210000Y-123190000D02*
X156210000Y-125095000D01*
X155654499Y-122634499D02*
X156210000Y-123190000D01*
X148796499Y-122634499D02*
X155654499Y-122634499D01*
X147828000Y-115316000D02*
X147828000Y-121666000D01*
X147526499Y-115014499D02*
X147828000Y-115316000D01*
X147828000Y-121666000D02*
X148796499Y-122634499D01*
X124682557Y-115014499D02*
X147526499Y-115014499D01*
X122063058Y-112395000D02*
X124682557Y-115014499D01*
X105568998Y-112395000D02*
X122063058Y-112395000D01*
X102949499Y-115014499D02*
X105568998Y-112395000D01*
X87169501Y-115014499D02*
X102949499Y-115014499D01*
X85979000Y-116205000D02*
X87169501Y-115014499D01*
X83185000Y-116205000D02*
X85979000Y-116205000D01*
%TO.N,A4*%
X154940000Y-66675000D02*
X163195000Y-66675000D01*
X153749499Y-67865501D02*
X154940000Y-66675000D01*
X144065501Y-67865501D02*
X153749499Y-67865501D01*
X140335000Y-66675000D02*
X142875000Y-66675000D01*
X142875000Y-66675000D02*
X144065501Y-67865501D01*
X193675000Y-71755000D02*
X186055000Y-71755000D01*
X140335000Y-66675000D02*
X135890000Y-66675000D01*
X107315000Y-79375000D02*
X113030000Y-79375000D01*
X135255000Y-78994000D02*
X135509000Y-78994000D01*
X114220501Y-78184499D02*
X130254499Y-78184499D01*
X113030000Y-79375000D02*
X114220501Y-78184499D01*
X130254499Y-78184499D02*
X131064000Y-78994000D01*
X131064000Y-78994000D02*
X135255000Y-78994000D01*
X170767499Y-68024499D02*
X185975501Y-68024499D01*
X169418000Y-66675000D02*
X170767499Y-68024499D01*
X163195000Y-66675000D02*
X169418000Y-66675000D01*
%TO.N,A0*%
X140335000Y-76835000D02*
X142875000Y-76835000D01*
X144224499Y-78184499D02*
X153590501Y-78184499D01*
X142875000Y-76835000D02*
X144224499Y-78184499D01*
X154940000Y-76835000D02*
X163195000Y-76835000D01*
X153590501Y-78184499D02*
X154940000Y-76835000D01*
X112208328Y-69215000D02*
X113478328Y-67945000D01*
X107315000Y-69215000D02*
X112208328Y-69215000D01*
X113478328Y-67945000D02*
X137160000Y-67945000D01*
X140335000Y-76835000D02*
X138430000Y-76835000D01*
X137160000Y-67945000D02*
X138430000Y-67945000D01*
X98298000Y-53975000D02*
X96520000Y-53975000D01*
X101346000Y-67056000D02*
X101346000Y-57023000D01*
X103505000Y-69215000D02*
X101346000Y-67056000D01*
X101346000Y-57023000D02*
X98298000Y-53975000D01*
X107315000Y-69215000D02*
X103505000Y-69215000D01*
X200533000Y-78359000D02*
X201295000Y-77597000D01*
X201295000Y-77597000D02*
X201295000Y-76835000D01*
X188976000Y-78359000D02*
X200533000Y-78359000D01*
X188722000Y-78105000D02*
X188976000Y-78359000D01*
X170942000Y-78105000D02*
X188722000Y-78105000D01*
X169672000Y-76835000D02*
X170942000Y-78105000D01*
X163195000Y-76835000D02*
X169672000Y-76835000D01*
%TO.N,A5*%
X107315000Y-81915000D02*
X113030000Y-81915000D01*
X113030000Y-81915000D02*
X114300000Y-80645000D01*
X114300000Y-80645000D02*
X120650000Y-80645000D01*
X154940000Y-64135000D02*
X163195000Y-64135000D01*
X144065501Y-65325501D02*
X153749499Y-65325501D01*
X153749499Y-65325501D02*
X154940000Y-64135000D01*
X140335000Y-64135000D02*
X142875000Y-64135000D01*
X142875000Y-64135000D02*
X144065501Y-65325501D01*
X120729499Y-65484499D02*
X120808998Y-65405000D01*
X134620000Y-65405000D02*
X135890000Y-64135000D01*
X124380501Y-65484499D02*
X125730000Y-64135000D01*
X135890000Y-64135000D02*
X140335000Y-64135000D01*
X120729499Y-65484499D02*
X124380501Y-65484499D01*
X125730000Y-64135000D02*
X131445000Y-64135000D01*
X131445000Y-64135000D02*
X132715000Y-65405000D01*
X132715000Y-65405000D02*
X134620000Y-65405000D01*
X181610000Y-65405000D02*
X182880000Y-66675000D01*
X170815000Y-65405000D02*
X181610000Y-65405000D01*
X163195000Y-64135000D02*
X169545000Y-64135000D01*
X182880000Y-66675000D02*
X193675000Y-66675000D01*
X169545000Y-64135000D02*
X170815000Y-65405000D01*
%TO.N,A1*%
X140335000Y-74295000D02*
X142875000Y-74295000D01*
X144065501Y-75485501D02*
X153749499Y-75485501D01*
X142875000Y-74295000D02*
X144065501Y-75485501D01*
X154940000Y-74295000D02*
X163195000Y-74295000D01*
X153749499Y-75485501D02*
X154940000Y-74295000D01*
X140335000Y-74295000D02*
X137881616Y-74295000D01*
X99060000Y-56515000D02*
X96520000Y-56515000D01*
X100330000Y-57785000D02*
X99060000Y-56515000D01*
X100330000Y-63627000D02*
X100330000Y-57785000D01*
X98552000Y-65405000D02*
X100330000Y-63627000D01*
X93345000Y-65405000D02*
X98552000Y-65405000D01*
X92710000Y-66040000D02*
X93345000Y-65405000D01*
X92710000Y-69850000D02*
X92710000Y-66040000D01*
X100330000Y-70485000D02*
X93345000Y-70485000D01*
X101600000Y-71755000D02*
X100330000Y-70485000D01*
X93345000Y-70485000D02*
X92710000Y-69850000D01*
X107315000Y-71755000D02*
X101600000Y-71755000D01*
X137229315Y-70383479D02*
X137795000Y-70383479D01*
X136921335Y-70075499D02*
X137229315Y-70383479D01*
X131219501Y-70075499D02*
X136921335Y-70075499D01*
X130810000Y-70485000D02*
X131219501Y-70075499D01*
X114300000Y-70485000D02*
X130810000Y-70485000D01*
X113030000Y-71755000D02*
X114300000Y-70485000D01*
X107315000Y-71755000D02*
X113030000Y-71755000D01*
X196596000Y-73025000D02*
X197866000Y-71755000D01*
X197866000Y-71755000D02*
X201295000Y-71755000D01*
X182980054Y-73025000D02*
X196596000Y-73025000D01*
X180360555Y-75644499D02*
X182980054Y-73025000D01*
X170894499Y-75644499D02*
X180360555Y-75644499D01*
X169545000Y-74295000D02*
X170894499Y-75644499D01*
X163195000Y-74295000D02*
X169545000Y-74295000D01*
%TO.N,A6*%
X140335000Y-61595000D02*
X142875000Y-61595000D01*
X144065501Y-62785501D02*
X153749499Y-62785501D01*
X142875000Y-61595000D02*
X144065501Y-62785501D01*
X154940000Y-61595000D02*
X163195000Y-61595000D01*
X153749499Y-62785501D02*
X154940000Y-61595000D01*
X163195000Y-61595000D02*
X169545000Y-61595000D01*
X169545000Y-61595000D02*
X170815000Y-62865000D01*
X170815000Y-62865000D02*
X186690000Y-62865000D01*
X187960000Y-61595000D02*
X193675000Y-61595000D01*
X186690000Y-62865000D02*
X187960000Y-61595000D01*
X107315000Y-84455000D02*
X113030000Y-84455000D01*
X113030000Y-84455000D02*
X114300000Y-83185000D01*
X114300000Y-83185000D02*
X120015000Y-83185000D01*
X120015000Y-62865000D02*
X119634000Y-62865000D01*
X140335000Y-61595000D02*
X136431664Y-61595000D01*
X136431664Y-61595000D02*
X135161664Y-62865000D01*
X135161664Y-62865000D02*
X120015000Y-62865000D01*
%TO.N,A2*%
X140335000Y-71755000D02*
X142875000Y-71755000D01*
X144065501Y-72945501D02*
X153749499Y-72945501D01*
X142875000Y-71755000D02*
X144065501Y-72945501D01*
X154940000Y-71755000D02*
X163195000Y-71755000D01*
X153749499Y-72945501D02*
X154940000Y-71755000D01*
X123745501Y-72945501D02*
X114379499Y-72945501D01*
X114379499Y-72945501D02*
X113030000Y-74295000D01*
X124111180Y-72579822D02*
X123745501Y-72945501D01*
X136716178Y-72579822D02*
X124111180Y-72579822D01*
X113030000Y-74295000D02*
X107315000Y-74295000D01*
X137541000Y-71755000D02*
X136716178Y-72579822D01*
X140335000Y-71755000D02*
X137541000Y-71755000D01*
X99060000Y-59690000D02*
X98425000Y-59055000D01*
X99060000Y-61976000D02*
X99060000Y-59690000D01*
X92710000Y-62865000D02*
X98171000Y-62865000D01*
X91567000Y-64008000D02*
X92710000Y-62865000D01*
X91567000Y-71882000D02*
X91567000Y-64008000D01*
X98171000Y-62865000D02*
X99060000Y-61976000D01*
X92710000Y-73025000D02*
X91567000Y-71882000D01*
X100330000Y-73025000D02*
X92710000Y-73025000D01*
X98425000Y-59055000D02*
X96520000Y-59055000D01*
X101600000Y-74295000D02*
X100330000Y-73025000D01*
X107315000Y-74295000D02*
X101600000Y-74295000D01*
X200495001Y-67474999D02*
X201295000Y-66675000D01*
X200025000Y-67945000D02*
X200495001Y-67474999D01*
X188595000Y-67945000D02*
X200025000Y-67945000D01*
X184251512Y-72288488D02*
X188595000Y-67945000D01*
X181711512Y-72288488D02*
X184251512Y-72288488D01*
X169672000Y-71755000D02*
X170862501Y-72945501D01*
X181054499Y-72945501D02*
X181711512Y-72288488D01*
X170862501Y-72945501D02*
X181054499Y-72945501D01*
X163195000Y-71755000D02*
X169672000Y-71755000D01*
%TO.N,A7*%
X140335000Y-59055000D02*
X142875000Y-59055000D01*
X144065501Y-60245501D02*
X153749499Y-60245501D01*
X142875000Y-59055000D02*
X144065501Y-60245501D01*
X154940000Y-59055000D02*
X163195000Y-59055000D01*
X153749499Y-60245501D02*
X154940000Y-59055000D01*
X96520000Y-89535000D02*
X100330000Y-89535000D01*
X102870000Y-86995000D02*
X107315000Y-86995000D01*
X100330000Y-89535000D02*
X102870000Y-86995000D01*
X107315000Y-86995000D02*
X113030000Y-86995000D01*
X113030000Y-86995000D02*
X114300000Y-85725000D01*
X114300000Y-85725000D02*
X118745000Y-85725000D01*
X184150000Y-56515000D02*
X193675000Y-56515000D01*
X180419499Y-60245501D02*
X184150000Y-56515000D01*
X171370501Y-60245501D02*
X180419499Y-60245501D01*
X163195000Y-59055000D02*
X170180000Y-59055000D01*
X170180000Y-59055000D02*
X171370501Y-60245501D01*
X118871997Y-60324999D02*
X118744996Y-60452000D01*
X125349000Y-59055000D02*
X124079001Y-60324999D01*
X140335000Y-59055000D02*
X125349000Y-59055000D01*
X124079001Y-60324999D02*
X118871997Y-60324999D01*
%TO.N,A3*%
X140335000Y-69215000D02*
X142875000Y-69215000D01*
X144224499Y-70564499D02*
X153590501Y-70564499D01*
X142875000Y-69215000D02*
X144224499Y-70564499D01*
X154940000Y-69215000D02*
X163195000Y-69215000D01*
X153590501Y-70564499D02*
X154940000Y-69215000D01*
X163195000Y-69215000D02*
X169545000Y-69215000D01*
X170735501Y-70405501D02*
X184070501Y-70405501D01*
X169545000Y-69215000D02*
X170735501Y-70405501D01*
X187880501Y-62944499D02*
X186690000Y-64135000D01*
X201295000Y-61595000D02*
X199945501Y-62944499D01*
X199945501Y-62944499D02*
X187880501Y-62944499D01*
X186690000Y-64135000D02*
X184150000Y-64135000D01*
X140335000Y-69215000D02*
X136525000Y-69215000D01*
X107315000Y-76835000D02*
X113030000Y-76835000D01*
X113030000Y-76835000D02*
X114300000Y-75565000D01*
X130361672Y-75565000D02*
X131631672Y-76835000D01*
X114300000Y-75565000D02*
X130361672Y-75565000D01*
X131631672Y-76835000D02*
X136525000Y-76835000D01*
X92075000Y-61595000D02*
X96520000Y-61595000D01*
X90551000Y-63119000D02*
X92075000Y-61595000D01*
X90551000Y-73406000D02*
X90551000Y-63119000D01*
X92710000Y-75565000D02*
X90551000Y-73406000D01*
X100330000Y-75565000D02*
X92710000Y-75565000D01*
X101600000Y-76835000D02*
X100330000Y-75565000D01*
X107315000Y-76835000D02*
X101600000Y-76835000D01*
%TO.N,D0*%
X140335000Y-79375000D02*
X142875000Y-79375000D01*
X144065501Y-80565501D02*
X153749499Y-80565501D01*
X142875000Y-79375000D02*
X144065501Y-80565501D01*
X154940000Y-79375000D02*
X163195000Y-79375000D01*
X153749499Y-80565501D02*
X154940000Y-79375000D01*
X128905000Y-66675000D02*
X125730000Y-66675000D01*
X122555000Y-66675000D02*
X125730000Y-66675000D01*
X107886441Y-67865501D02*
X104060501Y-67865501D01*
X122555000Y-66675000D02*
X109076942Y-66675000D01*
X109076942Y-66675000D02*
X107886441Y-67865501D01*
X104060501Y-67865501D02*
X102870000Y-66675000D01*
X196850000Y-103505000D02*
X193675000Y-103505000D01*
X198755000Y-101600000D02*
X196850000Y-103505000D01*
X198755000Y-92710000D02*
X198755000Y-101600000D01*
X195659499Y-89614499D02*
X198755000Y-92710000D01*
X190579499Y-89614499D02*
X195659499Y-89614499D01*
X182654234Y-81689234D02*
X190579499Y-89614499D01*
X181473356Y-80645000D02*
X182517590Y-81689234D01*
X170815000Y-80645000D02*
X181473356Y-80645000D01*
X169545000Y-79375000D02*
X170815000Y-80645000D01*
X182517590Y-81689234D02*
X182654234Y-81689234D01*
X163195000Y-79375000D02*
X169545000Y-79375000D01*
X129540000Y-80010000D02*
X128905000Y-79375000D01*
X136144000Y-80010000D02*
X129540000Y-80010000D01*
X136779000Y-79375000D02*
X136144000Y-80010000D01*
X140335000Y-79375000D02*
X136779000Y-79375000D01*
%TO.N,D1*%
X96520000Y-69215000D02*
X100330000Y-69215000D01*
X101520501Y-70405501D02*
X111839499Y-70405501D01*
X100330000Y-69215000D02*
X101520501Y-70405501D01*
X113030000Y-69215000D02*
X122555000Y-69215000D01*
X111839499Y-70405501D02*
X113030000Y-69215000D01*
X153749499Y-83105501D02*
X154940000Y-81915000D01*
X154940000Y-81915000D02*
X163195000Y-81915000D01*
X144172675Y-83105501D02*
X153749499Y-83105501D01*
X142982174Y-81915000D02*
X144172675Y-83105501D01*
X140335000Y-81915000D02*
X142982174Y-81915000D01*
X122555000Y-69215000D02*
X130175000Y-69215000D01*
X140335000Y-81915000D02*
X130175000Y-81915000D01*
X196215000Y-100965000D02*
X193675000Y-100965000D01*
X197485000Y-99695000D02*
X196215000Y-100965000D01*
X197485000Y-93345000D02*
X197485000Y-99695000D01*
X169545000Y-81915000D02*
X170815000Y-83185000D01*
X170815000Y-83185000D02*
X181610000Y-83185000D01*
X196215000Y-92075000D02*
X197485000Y-93345000D01*
X181610000Y-83185000D02*
X190500000Y-92075000D01*
X163195000Y-81915000D02*
X169545000Y-81915000D01*
X190500000Y-92075000D02*
X196215000Y-92075000D01*
%TO.N,D2*%
X140335000Y-84455000D02*
X142875000Y-84455000D01*
X144065501Y-85645501D02*
X153749499Y-85645501D01*
X142875000Y-84455000D02*
X144065501Y-85645501D01*
X154940000Y-84455000D02*
X163195000Y-84455000D01*
X153749499Y-85645501D02*
X154940000Y-84455000D01*
X96520000Y-71755000D02*
X100330000Y-71755000D01*
X101679499Y-73104499D02*
X112950501Y-73104499D01*
X100330000Y-71755000D02*
X101679499Y-73104499D01*
X114300000Y-71755000D02*
X122555000Y-71755000D01*
X112950501Y-73104499D02*
X114300000Y-71755000D01*
X140335000Y-84455000D02*
X131600510Y-84455000D01*
X131600510Y-84455000D02*
X131445000Y-84299490D01*
X196215000Y-95250000D02*
X196215000Y-97790000D01*
X169545000Y-84455000D02*
X170894499Y-85804499D01*
X163195000Y-84455000D02*
X169545000Y-84455000D01*
X170894499Y-85804499D02*
X181054499Y-85804499D01*
X195580000Y-94615000D02*
X196215000Y-95250000D01*
X181054499Y-85804499D02*
X189865000Y-94615000D01*
X195580000Y-98425000D02*
X193675000Y-98425000D01*
X196215000Y-97790000D02*
X195580000Y-98425000D01*
X189865000Y-94615000D02*
X195580000Y-94615000D01*
X122555000Y-71755000D02*
X131243633Y-71755000D01*
X131243633Y-71755000D02*
X131277954Y-71789321D01*
%TO.N,D3*%
X147955000Y-86995000D02*
X154305000Y-86995000D01*
X155495501Y-85804499D02*
X169624499Y-85804499D01*
X154305000Y-86995000D02*
X155495501Y-85804499D01*
X170815000Y-86995000D02*
X178435000Y-86995000D01*
X169624499Y-85804499D02*
X170815000Y-86995000D01*
X96520000Y-74295000D02*
X100330000Y-74295000D01*
X101520501Y-75485501D02*
X113109499Y-75485501D01*
X100330000Y-74295000D02*
X101520501Y-75485501D01*
X114300000Y-74295000D02*
X122555000Y-74295000D01*
X113109499Y-75485501D02*
X114300000Y-74295000D01*
X147955000Y-86995000D02*
X142875000Y-86995000D01*
X142875000Y-86995000D02*
X142240000Y-86360000D01*
X130810000Y-74295000D02*
X132000501Y-75485501D01*
X122555000Y-74295000D02*
X130810000Y-74295000D01*
X132000501Y-75485501D02*
X142160501Y-75485501D01*
X189230000Y-95885000D02*
X193675000Y-95885000D01*
X178435000Y-86995000D02*
X180340000Y-86995000D01*
X180340000Y-86995000D02*
X189230000Y-95885000D01*
%TO.N,D4*%
X170815000Y-84455000D02*
X178435000Y-84455000D01*
X169624499Y-83264499D02*
X170815000Y-84455000D01*
X154860501Y-83264499D02*
X169624499Y-83264499D01*
X147955000Y-84455000D02*
X153670000Y-84455000D01*
X153670000Y-84455000D02*
X154860501Y-83264499D01*
X96520000Y-76835000D02*
X100330000Y-76835000D01*
X101520501Y-78025501D02*
X113109499Y-78025501D01*
X100330000Y-76835000D02*
X101520501Y-78025501D01*
X114300000Y-76835000D02*
X122555000Y-76835000D01*
X113109499Y-78025501D02*
X114300000Y-76835000D01*
X131365501Y-78025501D02*
X142795501Y-78025501D01*
X122555000Y-76835000D02*
X130175000Y-76835000D01*
X142795501Y-78025501D02*
X143510000Y-78740000D01*
X130175000Y-76835000D02*
X131365501Y-78025501D01*
X190500000Y-93345000D02*
X193675000Y-93345000D01*
X178435000Y-84455000D02*
X181610000Y-84455000D01*
X181610000Y-84455000D02*
X190500000Y-93345000D01*
%TO.N,D5*%
X147955000Y-81915000D02*
X149860000Y-81915000D01*
X154860501Y-80724499D02*
X169624499Y-80724499D01*
X153670000Y-81915000D02*
X154860501Y-80724499D01*
X170815000Y-81915000D02*
X178435000Y-81915000D01*
X169624499Y-80724499D02*
X170815000Y-81915000D01*
X96520000Y-79375000D02*
X100330000Y-79375000D01*
X101520501Y-80565501D02*
X113109499Y-80565501D01*
X100330000Y-79375000D02*
X101520501Y-80565501D01*
X114300000Y-79375000D02*
X122555000Y-79375000D01*
X113109499Y-80565501D02*
X114300000Y-79375000D01*
X149860000Y-81915000D02*
X153670000Y-81915000D01*
X122555000Y-79375000D02*
X126365000Y-79375000D01*
X190500000Y-90805000D02*
X193675000Y-90805000D01*
X178435000Y-81915000D02*
X181610000Y-81915000D01*
X181610000Y-81915000D02*
X190500000Y-90805000D01*
X149860000Y-91440000D02*
X138430000Y-91440000D01*
X133194490Y-86204490D02*
X126365000Y-86204490D01*
X138430000Y-91440000D02*
X133194490Y-86204490D01*
%TO.N,D6*%
X170815000Y-79375000D02*
X178435000Y-79375000D01*
X169545000Y-78105000D02*
X170815000Y-79375000D01*
X154940000Y-78105000D02*
X169545000Y-78105000D01*
X147955000Y-79375000D02*
X153670000Y-79375000D01*
X153670000Y-79375000D02*
X154940000Y-78105000D01*
X96520000Y-81915000D02*
X100330000Y-81915000D01*
X101520501Y-83105501D02*
X113109499Y-83105501D01*
X100330000Y-81915000D02*
X101520501Y-83105501D01*
X114300000Y-81915000D02*
X122555000Y-81915000D01*
X113109499Y-83105501D02*
X114300000Y-81915000D01*
X143402827Y-80724499D02*
X144593328Y-81915000D01*
X122555000Y-81915000D02*
X123745501Y-80724499D01*
X123745501Y-80724499D02*
X143402827Y-80724499D01*
X144593328Y-81915000D02*
X145415000Y-81915000D01*
X147955000Y-79375000D02*
X146050000Y-79375000D01*
X145415000Y-81915000D02*
X146050000Y-81915000D01*
X181624896Y-79476512D02*
X190413383Y-88265000D01*
X178435000Y-79375000D02*
X178536512Y-79476512D01*
X190413383Y-88265000D02*
X193675000Y-88265000D01*
X178536512Y-79476512D02*
X181624896Y-79476512D01*
%TO.N,D7*%
X96520000Y-84455000D02*
X100330000Y-84455000D01*
X101520501Y-85645501D02*
X113109499Y-85645501D01*
X100330000Y-84455000D02*
X101520501Y-85645501D01*
X114300000Y-84455000D02*
X122555000Y-84455000D01*
X113109499Y-85645501D02*
X114300000Y-84455000D01*
X142954499Y-83264499D02*
X144145000Y-84455000D01*
X122555000Y-84455000D02*
X123745501Y-83264499D01*
X123745501Y-83264499D02*
X142954499Y-83264499D01*
X147955000Y-76835000D02*
X144780000Y-76835000D01*
X144145000Y-84455000D02*
X144780000Y-84455000D01*
X192543630Y-85725000D02*
X193675000Y-85725000D01*
X193675000Y-85725000D02*
X189865000Y-85725000D01*
X189865000Y-85725000D02*
X183515000Y-79375000D01*
X170815000Y-76835000D02*
X178435000Y-76835000D01*
X169624499Y-75644499D02*
X170815000Y-76835000D01*
X154860501Y-75644499D02*
X169624499Y-75644499D01*
X153670000Y-76835000D02*
X154860501Y-75644499D01*
X147955000Y-76835000D02*
X153670000Y-76835000D01*
%TO.N,A12*%
X176530000Y-99695000D02*
X153670000Y-99695000D01*
X191925506Y-128425506D02*
X191925506Y-125350562D01*
X193675000Y-130175000D02*
X191925506Y-128425506D01*
X184785000Y-118210056D02*
X184785000Y-107950000D01*
X191925506Y-125350562D02*
X184785000Y-118210056D01*
X184785000Y-107950000D02*
X176530000Y-99695000D01*
X122555000Y-94615000D02*
X118745000Y-94615000D01*
X118745000Y-94615000D02*
X117602000Y-95758000D01*
X117602000Y-95758000D02*
X113157000Y-95758000D01*
X110998000Y-114173000D02*
X113157000Y-114173000D01*
X108966000Y-116205000D02*
X110998000Y-114173000D01*
X107315000Y-116205000D02*
X108966000Y-116205000D01*
X141605000Y-99695000D02*
X149987000Y-99695000D01*
X136525000Y-94615000D02*
X141605000Y-99695000D01*
X149987000Y-99695000D02*
X153670000Y-99695000D01*
X122555000Y-94615000D02*
X136525000Y-94615000D01*
X155154250Y-56515000D02*
X163195000Y-56515000D01*
X153963749Y-57705501D02*
X155154250Y-56515000D01*
X144065501Y-57705501D02*
X153963749Y-57705501D01*
X142875000Y-56515000D02*
X144065501Y-57705501D01*
X140335000Y-56515000D02*
X142875000Y-56515000D01*
%TO.N,A8*%
X169624499Y-60404499D02*
X170815000Y-61595000D01*
X154860501Y-60404499D02*
X169624499Y-60404499D01*
X170815000Y-61595000D02*
X178435000Y-61595000D01*
X147955000Y-61595000D02*
X153670000Y-61595000D01*
X153670000Y-61595000D02*
X154860501Y-60404499D01*
X136445501Y-60404499D02*
X135255000Y-61595000D01*
X135255000Y-61595000D02*
X134620000Y-61595000D01*
X142954499Y-60404499D02*
X136445501Y-60404499D01*
X147955000Y-61595000D02*
X144145000Y-61595000D01*
X144145000Y-61595000D02*
X142954499Y-60404499D01*
X133985000Y-85090000D02*
X134620000Y-85725000D01*
X123681942Y-85090000D02*
X133985000Y-85090000D01*
X111760000Y-89535000D02*
X114300000Y-86995000D01*
X123126441Y-85645501D02*
X123681942Y-85090000D01*
X107315000Y-89535000D02*
X111760000Y-89535000D01*
X120729499Y-85645501D02*
X123126441Y-85645501D01*
X114300000Y-86995000D02*
X119380000Y-86995000D01*
X119380000Y-86995000D02*
X120729499Y-85645501D01*
X178435000Y-61595000D02*
X185420000Y-61595000D01*
X186690000Y-60325000D02*
X198120000Y-60325000D01*
X185420000Y-61595000D02*
X186690000Y-60325000D01*
X198120000Y-60325000D02*
X199390000Y-61595000D01*
X125095000Y-116205000D02*
X129666992Y-116205000D01*
%TO.N,A13*%
X110616998Y-118745000D02*
X113664998Y-115697000D01*
X107315000Y-118745000D02*
X110616998Y-118745000D01*
X186055000Y-107315000D02*
X177175371Y-98435371D01*
X193675000Y-125095000D02*
X186055000Y-117475000D01*
X186055000Y-117475000D02*
X186055000Y-107315000D01*
X177175371Y-98435371D02*
X151187012Y-98435371D01*
X151176641Y-98425000D02*
X151187012Y-98435371D01*
X141605000Y-98425000D02*
X151176641Y-98425000D01*
X135255000Y-92075000D02*
X141605000Y-98425000D01*
X122555000Y-92075000D02*
X135255000Y-92075000D01*
X116612942Y-93472000D02*
X114173000Y-93472000D01*
X118009942Y-92075000D02*
X116612942Y-93472000D01*
X122555000Y-92075000D02*
X118009942Y-92075000D01*
X105537000Y-118745000D02*
X107315000Y-118745000D01*
X101647501Y-122634499D02*
X105537000Y-118745000D01*
X87423501Y-122634499D02*
X101647501Y-122634499D01*
X86233000Y-123825000D02*
X87423501Y-122634499D01*
X83185000Y-123825000D02*
X86233000Y-123825000D01*
%TO.N,A9*%
X170815000Y-64135000D02*
X178435000Y-64135000D01*
X154940000Y-62865000D02*
X169545000Y-62865000D01*
X147955000Y-64135000D02*
X153670000Y-64135000D01*
X169545000Y-62865000D02*
X170815000Y-64135000D01*
X153670000Y-64135000D02*
X154940000Y-62865000D01*
X134713336Y-64135000D02*
X133350000Y-64135000D01*
X135903837Y-62944499D02*
X134713336Y-64135000D01*
X142759985Y-62944499D02*
X135903837Y-62944499D01*
X143950486Y-64135000D02*
X142759985Y-62944499D01*
X147955000Y-64135000D02*
X143950486Y-64135000D01*
X125095000Y-118745000D02*
X132080000Y-118745000D01*
X124460000Y-90805000D02*
X133350000Y-90805000D01*
X112395000Y-90805000D02*
X124460000Y-90805000D01*
X107315000Y-92075000D02*
X111125000Y-92075000D01*
X111125000Y-92075000D02*
X112395000Y-90805000D01*
X178435000Y-64135000D02*
X182245000Y-64135000D01*
X182245000Y-64135000D02*
X183515000Y-65405000D01*
X183515000Y-65405000D02*
X191135000Y-65405000D01*
X191135000Y-65405000D02*
X198120000Y-65405000D01*
%TO.N,A14*%
X99695000Y-113665000D02*
X97155000Y-113665000D01*
X192543630Y-120015000D02*
X193675000Y-120015000D01*
X191770000Y-120015000D02*
X192543630Y-120015000D01*
X187325000Y-115570000D02*
X191770000Y-120015000D01*
X187325000Y-106680000D02*
X187325000Y-115570000D01*
X177800000Y-97155000D02*
X187325000Y-106680000D01*
X141605000Y-97155000D02*
X177800000Y-97155000D01*
X133985000Y-89535000D02*
X141605000Y-97155000D01*
X122555000Y-89535000D02*
X133985000Y-89535000D01*
X87582499Y-119935501D02*
X97075501Y-119935501D01*
X86233000Y-121285000D02*
X87582499Y-119935501D01*
X83185000Y-121285000D02*
X86233000Y-121285000D01*
X122555000Y-89535000D02*
X112843328Y-89535000D01*
X112843328Y-89535000D02*
X111573328Y-90805000D01*
X111573328Y-90805000D02*
X101472998Y-90805000D01*
X153368499Y-55165501D02*
X154559000Y-53975000D01*
X144192501Y-55165501D02*
X153368499Y-55165501D01*
X154559000Y-53975000D02*
X158115000Y-53975000D01*
X143002000Y-53975000D02*
X144192501Y-55165501D01*
X140335000Y-53975000D02*
X143002000Y-53975000D01*
%TO.N,A10*%
X147955000Y-71755000D02*
X153670000Y-71755000D01*
X153670000Y-71755000D02*
X154940000Y-70485000D01*
X154940000Y-70485000D02*
X169545000Y-70485000D01*
X170815000Y-71755000D02*
X178435000Y-71755000D01*
X169545000Y-70485000D02*
X170815000Y-71755000D01*
X118110000Y-93345000D02*
X131924490Y-93345000D01*
X107315000Y-94615000D02*
X116840000Y-94615000D01*
X116840000Y-94615000D02*
X118110000Y-93345000D01*
X147955000Y-71755000D02*
X144145000Y-71755000D01*
X144145000Y-71755000D02*
X142875000Y-70485000D01*
X142875000Y-70485000D02*
X138964942Y-70485000D01*
X138964942Y-70485000D02*
X138275953Y-71173989D01*
X132515003Y-71173989D02*
X132461000Y-71119986D01*
X138275953Y-71173989D02*
X132515003Y-71173989D01*
X185039026Y-79375000D02*
X185039016Y-79374990D01*
X196850000Y-79375000D02*
X185039026Y-79375000D01*
%TO.N,A15*%
X122555000Y-86995000D02*
X121285000Y-88265000D01*
X121285000Y-88265000D02*
X114935000Y-88265000D01*
X189865000Y-114935000D02*
X193675000Y-114935000D01*
X188595000Y-113665000D02*
X189865000Y-114935000D01*
X152400000Y-95885000D02*
X178435000Y-95885000D01*
X188595000Y-106045000D02*
X188595000Y-113665000D01*
X178435000Y-95885000D02*
X188595000Y-106045000D01*
X147495038Y-95885000D02*
X152400000Y-95885000D01*
X141605000Y-95885000D02*
X147495038Y-95885000D01*
X132715000Y-86995000D02*
X141605000Y-95885000D01*
X122555000Y-86995000D02*
X132715000Y-86995000D01*
X98345501Y-117554499D02*
X99695000Y-116205000D01*
X87423501Y-117554499D02*
X98345501Y-117554499D01*
X86233000Y-118745000D02*
X87423501Y-117554499D01*
X83185000Y-118745000D02*
X86233000Y-118745000D01*
%TO.N,A11*%
X169545000Y-65405000D02*
X170815000Y-66675000D01*
X154940000Y-65405000D02*
X169545000Y-65405000D01*
X147955000Y-66675000D02*
X153670000Y-66675000D01*
X170815000Y-66675000D02*
X178435000Y-66675000D01*
X153670000Y-66675000D02*
X154940000Y-65405000D01*
X142954499Y-65484499D02*
X137239499Y-65484499D01*
X147955000Y-66675000D02*
X144145000Y-66675000D01*
X144145000Y-66675000D02*
X142954499Y-65484499D01*
X107315000Y-97155000D02*
X117475000Y-97155000D01*
X117475000Y-97155000D02*
X118110000Y-96520000D01*
X135362173Y-65484499D02*
X134171672Y-66675000D01*
X137239499Y-65484499D02*
X135362173Y-65484499D01*
X134171672Y-66675000D02*
X132080000Y-66675000D01*
X132080000Y-66675000D02*
X131445000Y-66040000D01*
X131445000Y-66040000D02*
X130810000Y-65405000D01*
X130810000Y-65405000D02*
X127635000Y-65405000D01*
X118665501Y-95964499D02*
X127555501Y-95964499D01*
X118110000Y-96520000D02*
X118665501Y-95964499D01*
X127555501Y-95964499D02*
X127635000Y-95885000D01*
X194437000Y-75565000D02*
X195707000Y-76835000D01*
X184785000Y-74294994D02*
X186055006Y-75565000D01*
X186055006Y-75565000D02*
X194437000Y-75565000D01*
%TO.N,PB0*%
X82079999Y-72554999D02*
X81280000Y-71755000D01*
X83069057Y-72554999D02*
X82079999Y-72554999D01*
X88900000Y-104140000D02*
X88900000Y-78385942D01*
X72360501Y-120679499D02*
X88900000Y-104140000D01*
X71715441Y-121890501D02*
X72360501Y-121245441D01*
X88900000Y-78385942D02*
X83069057Y-72554999D01*
X72360501Y-121245441D02*
X72360501Y-120679499D01*
X71149499Y-121890501D02*
X71715441Y-121890501D01*
X69850000Y-121920000D02*
X71120000Y-121920000D01*
X71120000Y-121920000D02*
X71149499Y-121890501D01*
X68580000Y-123190000D02*
X69850000Y-121920000D01*
%TO.N,NVIA*%
X90678008Y-108076992D02*
X89408000Y-108076992D01*
X93716491Y-105038509D02*
X90678008Y-108076992D01*
X94615000Y-105038509D02*
X93716491Y-105038509D01*
X85979000Y-117475000D02*
X87249000Y-116205000D01*
X81915000Y-117475000D02*
X85979000Y-117475000D01*
X80645000Y-118745000D02*
X81915000Y-117475000D01*
X87249000Y-116205000D02*
X90805000Y-116205000D01*
X80645000Y-126365000D02*
X80645000Y-118745000D01*
X81835501Y-127555501D02*
X80645000Y-126365000D01*
X123904499Y-127555501D02*
X81835501Y-127555501D01*
X125095000Y-126365000D02*
X123904499Y-127555501D01*
D20*
%TO.N,NBLKEF*%
X175260000Y-74295000D02*
X173990004Y-74295000D01*
X178435000Y-74295000D02*
X175260000Y-74295000D01*
D19*
X93599000Y-107442000D02*
X174117000Y-107442000D01*
X87376000Y-113665000D02*
X93599000Y-107442000D01*
X83185000Y-113665000D02*
X87376000Y-113665000D01*
%TO.N,NRAMCS*%
X125095000Y-103505000D02*
X111760006Y-103505000D01*
X111760006Y-103505000D02*
X111760000Y-103505006D01*
X109981998Y-117475000D02*
X111759998Y-115697000D01*
X104902000Y-117475000D02*
X109981998Y-117475000D01*
X102441499Y-119935501D02*
X104902000Y-117475000D01*
X99123559Y-119935501D02*
X102441499Y-119935501D01*
X97933058Y-118745000D02*
X99123559Y-119935501D01*
X90805000Y-118745000D02*
X97933058Y-118745000D01*
X136867182Y-73504490D02*
X125095000Y-73504490D01*
X142875000Y-73025000D02*
X137346672Y-73025000D01*
X137346672Y-73025000D02*
X136867182Y-73504490D01*
X144145000Y-74295000D02*
X142875000Y-73025000D01*
X147955000Y-74295000D02*
X144145000Y-74295000D01*
%TO.N,Net-(U11-Pad8)*%
X152538630Y-123825000D02*
X153670000Y-123825000D01*
X147458630Y-128905000D02*
X152538630Y-123825000D01*
X142240000Y-128905000D02*
X147458630Y-128905000D01*
%TO.N,Net-(U9-Pad15)*%
X106680000Y-113665000D02*
X107315000Y-113665000D01*
X101600000Y-118745000D02*
X106680000Y-113665000D01*
X99695000Y-118745000D02*
X101600000Y-118745000D01*
%TO.N,NBLK1*%
X116125501Y-117554499D02*
X133429499Y-117554499D01*
X107315000Y-123825000D02*
X109855000Y-123825000D01*
X133429499Y-117554499D02*
X134620000Y-118745000D01*
X109855000Y-123825000D02*
X116125501Y-117554499D01*
%TO.N,Net-(U10-Pad6)*%
X129698998Y-123825000D02*
X134620000Y-123825000D01*
X128349499Y-125174499D02*
X129698998Y-123825000D01*
X121999499Y-125174499D02*
X128349499Y-125174499D01*
X117475000Y-123825000D02*
X120650000Y-123825000D01*
X120650000Y-123825000D02*
X121999499Y-125174499D01*
%TO.N,Net-(U10-Pad5)*%
X133429499Y-120094499D02*
X134620000Y-121285000D01*
X118665501Y-120094499D02*
X133429499Y-120094499D01*
X117475000Y-121285000D02*
X118665501Y-120094499D01*
%TO.N,Net-(U10-Pad12)*%
X125095000Y-121285000D02*
X132080000Y-121285000D01*
X134620000Y-126365000D02*
X132080000Y-126365000D01*
%TO.N,Net-(U10-Pad11)*%
X140890501Y-122634499D02*
X142240000Y-121285000D01*
X126285501Y-122634499D02*
X140890501Y-122634499D01*
X125095000Y-123825000D02*
X126285501Y-122634499D01*
%TO.N,Net-(U10-Pad9)*%
X144145000Y-120650000D02*
X142240000Y-118745000D01*
X129540000Y-128905000D02*
X130889499Y-127555501D01*
X144145000Y-126221942D02*
X144145000Y-120650000D01*
X130889499Y-127555501D02*
X142811441Y-127555501D01*
X125095000Y-128905000D02*
X129540000Y-128905000D01*
X142811441Y-127555501D02*
X144145000Y-126221942D01*
%TO.N,WNR*%
X153670000Y-118745000D02*
X161290000Y-118745000D01*
X162480501Y-119935501D02*
X175942501Y-119935501D01*
X161290000Y-118745000D02*
X162480501Y-119935501D01*
X178641499Y-122634499D02*
X185721501Y-122634499D01*
X175942501Y-119935501D02*
X178641499Y-122634499D01*
X185721501Y-122634499D02*
X185721501Y-122634499D01*
X186182000Y-80518000D02*
X186182000Y-80518000D01*
X189103000Y-83439000D02*
X186182000Y-80518000D01*
X193421000Y-83439000D02*
X189103000Y-83439000D01*
X193675000Y-83185000D02*
X193421000Y-83439000D01*
%TD*%
M02*
