M48
; DRILL file {KiCad (5.1.10)-1} date 07/28/21 22:43:24
; FORMAT={-:-/ absolute / metric / decimal}
; #@! TF.CreationDate,2021-07-28T22:43:24+09:30
; #@! TF.GenerationSoftware,Kicad,Pcbnew,(5.1.10)-1
; #@! TF.FileFunction,Plated,1,2,PTH
FMAT,2
METRIC
T1C0.400
T2C0.800
T3C1.000
%
G90
G05
T1
X65.405Y-102.87
X77.47Y-100.965
X89.408Y-108.077
X90.17Y-100.965
X93.345Y-46.99
X93.345Y-52.07
X93.345Y-64.135
X93.345Y-100.965
X94.615Y-50.165
X94.615Y-105.039
X97.076Y-119.936
X97.155Y-113.665
X97.923Y-132.213
X99.06Y-104.775
X101.473Y-90.805
X102.87Y-66.675
X103.251Y-109.474
X107.315Y-45.72
X110.49Y-132.559
X111.76Y-115.697
X111.76Y-103.505
X113.157Y-95.758
X113.157Y-114.173
X113.665Y-115.697
X114.173Y-93.472
X114.935Y-88.265
X115.443Y-115.697
X115.57Y-102.235
X116.84Y-64.135
X116.84Y-92.075
X116.84Y-106.045
X118.745Y-60.452
X118.745Y-85.725
X119.38Y-93.345
X119.634Y-62.865
X120.015Y-83.185
X120.65Y-80.645
X120.65Y-95.885
X120.729Y-65.484
X125.095Y-73.504
X125.095Y-103.505
X126.365Y-79.375
X126.365Y-86.204
X127.635Y-65.405
X127.635Y-95.885
X128.905Y-66.675
X128.905Y-79.375
X129.667Y-116.205
X129.667Y-85.09
X130.175Y-69.215
X130.175Y-81.915
X131.278Y-71.789
X131.445Y-84.299
X131.924Y-93.345
X132.08Y-118.745
X132.08Y-121.285
X132.08Y-126.365
X132.461Y-71.12
X133.35Y-64.135
X133.35Y-90.805
X134.62Y-61.595
X134.62Y-85.725
X135.509Y-78.994
X135.89Y-66.675
X136.525Y-69.215
X136.525Y-76.835
X137.795Y-70.383
X137.882Y-74.295
X138.43Y-67.945
X138.43Y-76.835
X138.43Y-98.425
X142.161Y-75.486
X142.24Y-86.36
X143.51Y-78.74
X144.78Y-76.835
X144.78Y-84.455
X146.05Y-79.375
X146.05Y-81.915
X149.86Y-102.235
X149.86Y-81.915
X149.86Y-91.44
X149.987Y-127.635
X151.187Y-98.435
X151.286Y-106.045
X152.4Y-95.885
X153.035Y-57.785
X153.67Y-99.695
X155.575Y-67.945
X156.845Y-55.245
X158.115Y-53.975
X158.115Y-53.975
X158.115Y-97.155
X158.115Y-104.775
X161.29Y-50.165
X167.005Y-45.085
X173.99Y-74.295
X174.117Y-107.442
X181.864Y-133.477
X182.88Y-60.325
X182.88Y-69.215
X183.134Y-127.635
X183.515Y-79.375
X184.071Y-70.406
X184.15Y-64.135
X184.785Y-74.295
X185.039Y-79.375
X185.722Y-122.634
X185.976Y-68.024
X186.055Y-71.755
X186.182Y-80.518
X191.135Y-126.365
X191.77Y-84.455
X191.77Y-84.455
X195.707Y-76.835
X196.85Y-79.375
X198.12Y-65.405
X199.39Y-61.595
X205.486Y-125.857
X208.28Y-70.485
X208.384Y-82.019
X208.407Y-118.999
X208.661Y-59.182
X208.788Y-114.3
X209.55Y-67.945
X209.55Y-79.375
X211.455Y-66.675
X211.455Y-76.835
X211.455Y-88.265
X211.455Y-109.22
X211.455Y-124.968
X213.995Y-114.173
X213.995Y-116.205
T2
X76.073Y-55.245
X76.073Y-65.405
X76.327Y-72.898
X76.327Y-83.058
X76.327Y-86.995
X76.327Y-97.155
X81.28Y-43.815
X81.28Y-48.895
X81.28Y-51.435
X81.28Y-53.975
X81.28Y-56.515
X81.28Y-59.055
X81.28Y-61.595
X81.28Y-64.135
X81.28Y-66.675
X81.28Y-69.215
X81.28Y-71.755
X81.28Y-74.295
X81.28Y-76.835
X81.28Y-79.375
X81.28Y-81.915
X81.28Y-84.455
X81.28Y-86.995
X81.28Y-89.535
X81.28Y-92.075
X81.28Y-94.615
X81.28Y-97.155
X83.185Y-113.665
X83.185Y-116.205
X83.185Y-118.745
X83.185Y-121.285
X83.185Y-123.825
X83.185Y-126.365
X83.185Y-128.905
X86.28Y-43.815
X90.805Y-113.665
X90.805Y-116.205
X90.805Y-118.745
X90.805Y-121.285
X90.805Y-123.825
X90.805Y-126.365
X90.805Y-128.905
X95.25Y-125.73
X95.25Y-130.73
X96.52Y-48.895
X96.52Y-51.435
X96.52Y-53.975
X96.52Y-56.515
X96.52Y-59.055
X96.52Y-61.595
X96.52Y-64.135
X96.52Y-66.675
X96.52Y-69.215
X96.52Y-71.755
X96.52Y-74.295
X96.52Y-76.835
X96.52Y-79.375
X96.52Y-81.915
X96.52Y-84.455
X96.52Y-86.995
X96.52Y-89.535
X96.52Y-92.075
X96.52Y-94.615
X96.52Y-97.155
X99.695Y-111.125
X99.695Y-113.665
X99.695Y-116.205
X99.695Y-118.745
X99.695Y-121.285
X99.695Y-123.825
X99.695Y-126.365
X99.695Y-128.905
X101.727Y-42.545
X101.727Y-52.705
X107.315Y-48.895
X107.315Y-51.435
X107.315Y-53.975
X107.315Y-56.515
X107.315Y-59.055
X107.315Y-61.595
X107.315Y-64.135
X107.315Y-66.675
X107.315Y-69.215
X107.315Y-71.755
X107.315Y-74.295
X107.315Y-76.835
X107.315Y-79.375
X107.315Y-81.915
X107.315Y-84.455
X107.315Y-86.995
X107.315Y-89.535
X107.315Y-92.075
X107.315Y-94.615
X107.315Y-97.155
X107.315Y-111.125
X107.315Y-113.665
X107.315Y-116.205
X107.315Y-118.745
X107.315Y-121.285
X107.315Y-123.825
X107.315Y-126.365
X107.315Y-128.905
X113.03Y-125.81
X113.03Y-130.81
X117.475Y-111.125
X117.475Y-113.665
X117.475Y-116.205
X117.475Y-118.745
X117.475Y-121.285
X117.475Y-123.825
X117.475Y-126.365
X117.475Y-128.905
X122.555Y-48.895
X122.555Y-51.435
X122.555Y-53.975
X122.555Y-56.515
X122.555Y-59.055
X122.555Y-61.595
X122.555Y-64.135
X122.555Y-66.675
X122.555Y-69.215
X122.555Y-71.755
X122.555Y-74.295
X122.555Y-76.835
X122.555Y-79.375
X122.555Y-81.915
X122.555Y-84.455
X122.555Y-86.995
X122.555Y-89.535
X122.555Y-92.075
X122.555Y-94.615
X122.555Y-97.155
X125.095Y-111.125
X125.095Y-113.665
X125.095Y-116.205
X125.095Y-118.745
X125.095Y-121.285
X125.095Y-123.825
X125.095Y-126.365
X125.095Y-128.905
X127.635Y-42.545
X127.635Y-47.545
X127.635Y-51.435
X129.54Y-125.73
X129.54Y-130.73
X132.635Y-51.435
X132.715Y-56.595
X132.715Y-61.595
X134.62Y-113.665
X134.62Y-116.205
X134.62Y-118.745
X134.62Y-121.285
X134.62Y-123.825
X134.62Y-126.365
X134.62Y-128.905
X136.525Y-46.99
X136.525Y-57.15
X140.335Y-48.895
X140.335Y-51.435
X140.335Y-53.975
X140.335Y-56.515
X140.335Y-59.055
X140.335Y-61.595
X140.335Y-64.135
X140.335Y-66.675
X140.335Y-69.215
X140.335Y-71.755
X140.335Y-74.295
X140.335Y-76.835
X140.335Y-79.375
X140.335Y-81.915
X140.335Y-84.455
X140.335Y-86.995
X142.24Y-113.665
X142.24Y-116.205
X142.24Y-118.745
X142.24Y-121.285
X142.24Y-123.825
X142.24Y-126.365
X142.24Y-128.905
X147.955Y-48.895
X147.955Y-51.435
X147.955Y-53.975
X147.955Y-56.515
X147.955Y-59.055
X147.955Y-61.595
X147.955Y-64.135
X147.955Y-66.675
X147.955Y-69.215
X147.955Y-71.755
X147.955Y-74.295
X147.955Y-76.835
X147.955Y-79.375
X147.955Y-81.915
X147.955Y-84.455
X147.955Y-86.995
X147.955Y-125.81
X147.955Y-130.81
X153.035Y-45.165
X153.035Y-50.165
X153.67Y-113.665
X153.67Y-116.205
X153.67Y-118.745
X153.67Y-121.285
X153.67Y-123.825
X153.67Y-126.365
X153.67Y-128.905
X161.29Y-113.665
X161.29Y-116.205
X161.29Y-118.745
X161.29Y-121.285
X161.29Y-123.825
X161.29Y-126.365
X161.29Y-128.905
X163.195Y-53.975
X163.195Y-56.515
X163.195Y-59.055
X163.195Y-61.595
X163.195Y-64.135
X163.195Y-66.675
X163.195Y-69.215
X163.195Y-71.755
X163.195Y-74.295
X163.195Y-76.835
X163.195Y-79.375
X163.195Y-81.915
X163.195Y-84.455
X163.195Y-86.995
X167.64Y-125.81
X167.64Y-130.81
X173.355Y-113.665
X173.355Y-116.205
X173.355Y-118.745
X173.355Y-121.285
X173.355Y-123.825
X173.355Y-126.365
X173.355Y-128.905
X178.435Y-53.975
X178.435Y-56.515
X178.435Y-59.055
X178.435Y-61.595
X178.435Y-64.135
X178.435Y-66.675
X178.435Y-69.215
X178.435Y-71.755
X178.435Y-74.295
X178.435Y-76.835
X178.435Y-79.375
X178.435Y-81.915
X178.435Y-84.455
X178.435Y-86.995
X180.975Y-113.665
X180.975Y-116.205
X180.975Y-118.745
X180.975Y-121.285
X180.975Y-123.825
X180.975Y-126.365
X180.975Y-128.905
X182.245Y-97.79
X182.245Y-107.95
X182.88Y-45.165
X182.88Y-50.165
X186.055Y-125.81
X186.055Y-130.81
X189.865Y-45.165
X189.865Y-50.165
X189.865Y-76.915
X189.865Y-81.915
X189.865Y-106.125
X189.865Y-111.125
X193.675Y-53.975
X193.675Y-56.515
X193.675Y-59.055
X193.675Y-61.595
X193.675Y-64.135
X193.675Y-66.675
X193.675Y-69.215
X193.675Y-71.755
X193.675Y-74.295
X193.675Y-76.835
X193.675Y-83.185
X193.675Y-85.725
X193.675Y-88.265
X193.675Y-90.805
X193.675Y-93.345
X193.675Y-95.885
X193.675Y-98.425
X193.675Y-100.965
X193.675Y-103.505
X193.675Y-106.045
X193.675Y-112.395
X193.675Y-114.935
X193.675Y-117.475
X193.675Y-120.015
X193.675Y-122.555
X193.675Y-125.095
X193.675Y-127.635
X193.675Y-130.175
X193.675Y-132.715
X193.675Y-135.255
X201.295Y-53.975
X201.295Y-56.515
X201.295Y-59.055
X201.295Y-61.595
X201.295Y-64.135
X201.295Y-66.675
X201.295Y-69.215
X201.295Y-71.755
X201.295Y-74.295
X201.295Y-76.835
X201.295Y-83.185
X201.295Y-85.725
X201.295Y-88.265
X201.295Y-90.805
X201.295Y-93.345
X201.295Y-95.885
X201.295Y-98.425
X201.295Y-100.965
X201.295Y-103.505
X201.295Y-106.045
X201.295Y-112.395
X201.295Y-114.935
X201.295Y-117.475
X201.295Y-120.015
X201.295Y-122.555
X201.295Y-125.095
X201.295Y-127.635
X201.295Y-130.175
X201.295Y-132.715
X201.295Y-135.255
X207.05Y-46.99
X208.28Y-112.395
X208.28Y-122.555
X208.915Y-88.265
X208.915Y-90.805
X208.915Y-93.345
X208.915Y-95.885
X208.915Y-98.425
X208.915Y-100.965
X208.915Y-103.505
X208.915Y-106.045
X208.915Y-108.585
X209.55Y-46.99
X211.455Y-112.395
X211.455Y-122.555
T3
X68.58Y-60.325
X68.58Y-62.865
X68.58Y-65.405
X68.58Y-67.945
X68.58Y-70.485
X68.58Y-73.025
X68.58Y-75.565
X68.58Y-78.105
X68.58Y-80.645
X68.58Y-83.185
X68.58Y-105.41
X68.58Y-107.95
X68.58Y-110.49
X68.58Y-113.03
X68.58Y-115.57
X68.58Y-118.11
X68.58Y-120.65
X68.58Y-123.19
X68.58Y-125.73
X68.58Y-128.27
X71.12Y-60.325
X71.12Y-62.865
X71.12Y-65.405
X71.12Y-67.945
X71.12Y-70.485
X71.12Y-73.025
X71.12Y-75.565
X71.12Y-78.105
X71.12Y-80.645
X71.12Y-83.185
X71.12Y-105.41
X71.12Y-107.95
X71.12Y-110.49
X71.12Y-113.03
X71.12Y-115.57
X71.12Y-118.11
X71.12Y-120.65
X71.12Y-123.19
X71.12Y-125.73
X71.12Y-128.27
X73.66Y-43.18
X73.66Y-45.72
X127.635Y-56.515
X127.635Y-61.515
X215.9Y-50.165
X215.9Y-52.705
X215.9Y-55.245
X215.9Y-57.785
X215.9Y-60.325
X215.9Y-62.865
X215.9Y-65.405
X215.9Y-67.945
X215.9Y-70.485
X215.9Y-73.025
X215.9Y-75.565
X215.9Y-78.105
X215.9Y-80.645
X215.9Y-83.185
X215.9Y-85.725
X215.9Y-88.265
X215.9Y-90.805
X215.9Y-93.345
X215.9Y-95.885
X215.9Y-98.425
X215.9Y-100.965
X215.9Y-103.505
X215.9Y-106.045
X215.9Y-108.585
X215.9Y-111.125
X215.9Y-113.665
X215.9Y-116.205
X215.9Y-118.745
X215.9Y-121.285
X215.9Y-123.825
X215.9Y-126.365
X215.9Y-128.905
X218.44Y-50.165
X218.44Y-52.705
X218.44Y-55.245
X218.44Y-57.785
X218.44Y-60.325
X218.44Y-62.865
X218.44Y-65.405
X218.44Y-67.945
X218.44Y-70.485
X218.44Y-73.025
X218.44Y-75.565
X218.44Y-78.105
X218.44Y-80.645
X218.44Y-83.185
X218.44Y-85.725
X218.44Y-88.265
X218.44Y-90.805
X218.44Y-93.345
X218.44Y-95.885
X218.44Y-98.425
X218.44Y-100.965
X218.44Y-103.505
X218.44Y-106.045
X218.44Y-108.585
X218.44Y-111.125
X218.44Y-113.665
X218.44Y-116.205
X218.44Y-118.745
X218.44Y-121.285
X218.44Y-123.825
X218.44Y-126.365
X218.44Y-128.905
T0
M30
