%FSLAX45Y45*%
G04 Gerber Fmt 4.5, Leading zero omitted, Abs format (unit mm)*
G04 Created by KiCad (PCBNEW (5.1.10)-1) date 2021-07-28 22:43:25*
%MOMM*%
%LPD*%
G01*
G04 APERTURE LIST*
%ADD10C,0.200000*%
%ADD11C,0.300000*%
G04 APERTURE END LIST*
D10*
X6520500Y-10267001D02*
X6560500Y-10307001D01*
X6560500Y-10267001D02*
X6520500Y-10307001D01*
X7727000Y-10076500D02*
X7767000Y-10116500D01*
X7767000Y-10076500D02*
X7727000Y-10116500D01*
X8920800Y-10787699D02*
X8960800Y-10827699D01*
X8960800Y-10787699D02*
X8920800Y-10827699D01*
X8996999Y-10076500D02*
X9036999Y-10116500D01*
X9036999Y-10076500D02*
X8996999Y-10116500D01*
X9314500Y-4678999D02*
X9354500Y-4718999D01*
X9354500Y-4678999D02*
X9314500Y-4718999D01*
X9314500Y-5187000D02*
X9354500Y-5227000D01*
X9354500Y-5187000D02*
X9314500Y-5227000D01*
X9314500Y-6393500D02*
X9354500Y-6433500D01*
X9354500Y-6393500D02*
X9314500Y-6433500D01*
X9314500Y-10076500D02*
X9354500Y-10116500D01*
X9354500Y-10076500D02*
X9314500Y-10116500D01*
X9441500Y-4996500D02*
X9481500Y-5036500D01*
X9481500Y-4996500D02*
X9441500Y-5036500D01*
X9441500Y-10483851D02*
X9481500Y-10523851D01*
X9481500Y-10483851D02*
X9441500Y-10523851D01*
X9687550Y-11973550D02*
X9727550Y-12013550D01*
X9727550Y-11973550D02*
X9687550Y-12013550D01*
X9695500Y-11346500D02*
X9735500Y-11386500D01*
X9735500Y-11346500D02*
X9695500Y-11386500D01*
X9772349Y-13201349D02*
X9812349Y-13241349D01*
X9812349Y-13201349D02*
X9772349Y-13241349D01*
X9886000Y-10457500D02*
X9926000Y-10497500D01*
X9926000Y-10457500D02*
X9886000Y-10497500D01*
X10127300Y-9060500D02*
X10167300Y-9100500D01*
X10167300Y-9060500D02*
X10127300Y-9100500D01*
X10267000Y-6647500D02*
X10307000Y-6687500D01*
X10307000Y-6647500D02*
X10267000Y-6687500D01*
X10305100Y-10927400D02*
X10345100Y-10967400D01*
X10345100Y-10927400D02*
X10305100Y-10967400D01*
X10711500Y-4552000D02*
X10751500Y-4592000D01*
X10751500Y-4552000D02*
X10711500Y-4592000D01*
X11029000Y-13235949D02*
X11069000Y-13275949D01*
X11069000Y-13235949D02*
X11029000Y-13275949D01*
X11156000Y-11549700D02*
X11196000Y-11589700D01*
X11196000Y-11549700D02*
X11156000Y-11589700D01*
X11156000Y-10330501D02*
X11196000Y-10370501D01*
X11196000Y-10330501D02*
X11156000Y-10370501D01*
X11295700Y-9555800D02*
X11335700Y-9595800D01*
X11335700Y-9555800D02*
X11295700Y-9595800D01*
X11295700Y-11397300D02*
X11335700Y-11437300D01*
X11335700Y-11397300D02*
X11295700Y-11437300D01*
X11346500Y-11549700D02*
X11386500Y-11589700D01*
X11386500Y-11549700D02*
X11346500Y-11589700D01*
X11397300Y-9327200D02*
X11437300Y-9367200D01*
X11437300Y-9327200D02*
X11397300Y-9367200D01*
X11473500Y-8806500D02*
X11513500Y-8846500D01*
X11513500Y-8806500D02*
X11473500Y-8846500D01*
X11524300Y-11549700D02*
X11564300Y-11589700D01*
X11564300Y-11549700D02*
X11524300Y-11589700D01*
X11537000Y-10203500D02*
X11577000Y-10243500D01*
X11577000Y-10203500D02*
X11537000Y-10243500D01*
X11664000Y-6393500D02*
X11704000Y-6433500D01*
X11704000Y-6393500D02*
X11664000Y-6433500D01*
X11664000Y-9187500D02*
X11704000Y-9227500D01*
X11704000Y-9187500D02*
X11664000Y-9227500D01*
X11664000Y-10584500D02*
X11704000Y-10624500D01*
X11704000Y-10584500D02*
X11664000Y-10624500D01*
X11854500Y-6025200D02*
X11894500Y-6065200D01*
X11894500Y-6025200D02*
X11854500Y-6065200D01*
X11854500Y-8552500D02*
X11894500Y-8592500D01*
X11894500Y-8552500D02*
X11854500Y-8592500D01*
X11918000Y-9314500D02*
X11958000Y-9354500D01*
X11958000Y-9314500D02*
X11918000Y-9354500D01*
X11943400Y-6266500D02*
X11983400Y-6306500D01*
X11983400Y-6266500D02*
X11943400Y-6306500D01*
X11981500Y-8298500D02*
X12021500Y-8338500D01*
X12021500Y-8298500D02*
X11981500Y-8338500D01*
X12045000Y-8044500D02*
X12085000Y-8084500D01*
X12085000Y-8044500D02*
X12045000Y-8084500D01*
X12045000Y-9568500D02*
X12085000Y-9608500D01*
X12085000Y-9568500D02*
X12045000Y-9608500D01*
X12052950Y-6528450D02*
X12092950Y-6568450D01*
X12092950Y-6528450D02*
X12052950Y-6568450D01*
X12489500Y-7330449D02*
X12529500Y-7370449D01*
X12529500Y-7330449D02*
X12489500Y-7370449D01*
X12489500Y-10330500D02*
X12529500Y-10370500D01*
X12529500Y-10330500D02*
X12489500Y-10370500D01*
X12616500Y-7917500D02*
X12656500Y-7957500D01*
X12656500Y-7917500D02*
X12616500Y-7957500D01*
X12616500Y-8600449D02*
X12656500Y-8640449D01*
X12656500Y-8600449D02*
X12616500Y-8640449D01*
X12743500Y-6520500D02*
X12783500Y-6560500D01*
X12783500Y-6520500D02*
X12743500Y-6560500D01*
X12743500Y-9568500D02*
X12783500Y-9608500D01*
X12783500Y-9568500D02*
X12743500Y-9608500D01*
X12870500Y-6647500D02*
X12910500Y-6687500D01*
X12910500Y-6647500D02*
X12870500Y-6687500D01*
X12870500Y-7917500D02*
X12910500Y-7957500D01*
X12910500Y-7917500D02*
X12870500Y-7957500D01*
X12946699Y-11600500D02*
X12986699Y-11640500D01*
X12986699Y-11600500D02*
X12946699Y-11640500D01*
X12946700Y-8489000D02*
X12986700Y-8529000D01*
X12986700Y-8489000D02*
X12946700Y-8529000D01*
X12997500Y-6901500D02*
X13037500Y-6941500D01*
X13037500Y-6901500D02*
X12997500Y-6941500D01*
X12997500Y-8171500D02*
X13037500Y-8211500D01*
X13037500Y-8171500D02*
X12997500Y-8211500D01*
X13107795Y-7158932D02*
X13147795Y-7198932D01*
X13147795Y-7158932D02*
X13107795Y-7198932D01*
X13124500Y-8409949D02*
X13164500Y-8449949D01*
X13164500Y-8409949D02*
X13124500Y-8449949D01*
X13172449Y-9314500D02*
X13212449Y-9354500D01*
X13212449Y-9314500D02*
X13172449Y-9354500D01*
X13188000Y-11854500D02*
X13228000Y-11894500D01*
X13228000Y-11854500D02*
X13188000Y-11894500D01*
X13188000Y-12108500D02*
X13228000Y-12148500D01*
X13228000Y-12108500D02*
X13188000Y-12148500D01*
X13188000Y-12616500D02*
X13228000Y-12656500D01*
X13228000Y-12616500D02*
X13188000Y-12656500D01*
X13226100Y-7091999D02*
X13266100Y-7131999D01*
X13266100Y-7091999D02*
X13226100Y-7131999D01*
X13315000Y-6393500D02*
X13355000Y-6433500D01*
X13355000Y-6393500D02*
X13315000Y-6433500D01*
X13315000Y-9060500D02*
X13355000Y-9100500D01*
X13355000Y-9060500D02*
X13315000Y-9100500D01*
X13442000Y-6139500D02*
X13482000Y-6179500D01*
X13482000Y-6139500D02*
X13442000Y-6179500D01*
X13442000Y-8552500D02*
X13482000Y-8592500D01*
X13482000Y-8552500D02*
X13442000Y-8592500D01*
X13530900Y-7879400D02*
X13570900Y-7919400D01*
X13570900Y-7879400D02*
X13530900Y-7919400D01*
X13569000Y-6647500D02*
X13609000Y-6687500D01*
X13609000Y-6647500D02*
X13569000Y-6687500D01*
X13632500Y-6901500D02*
X13672500Y-6941500D01*
X13672500Y-6901500D02*
X13632500Y-6941500D01*
X13632500Y-7663500D02*
X13672500Y-7703500D01*
X13672500Y-7663500D02*
X13632500Y-7703500D01*
X13759500Y-7018348D02*
X13799500Y-7058348D01*
X13799500Y-7018348D02*
X13759500Y-7058348D01*
X13768162Y-7409500D02*
X13808162Y-7449500D01*
X13808162Y-7409500D02*
X13768162Y-7449500D01*
X13823000Y-6774500D02*
X13863000Y-6814500D01*
X13863000Y-6774500D02*
X13823000Y-6814500D01*
X13823000Y-7663500D02*
X13863000Y-7703500D01*
X13863000Y-7663500D02*
X13823000Y-7703500D01*
X13823000Y-9822500D02*
X13863000Y-9862500D01*
X13863000Y-9822500D02*
X13823000Y-9862500D01*
X14196050Y-7528550D02*
X14236050Y-7568550D01*
X14236050Y-7528550D02*
X14196050Y-7568550D01*
X14204000Y-8616000D02*
X14244000Y-8656000D01*
X14244000Y-8616000D02*
X14204000Y-8656000D01*
X14331000Y-7854000D02*
X14371000Y-7894000D01*
X14371000Y-7854000D02*
X14331000Y-7894000D01*
X14458000Y-7663500D02*
X14498000Y-7703500D01*
X14498000Y-7663500D02*
X14458000Y-7703500D01*
X14458000Y-8425500D02*
X14498000Y-8465500D01*
X14498000Y-8425500D02*
X14458000Y-8465500D01*
X14585000Y-7917500D02*
X14625000Y-7957500D01*
X14625000Y-7917500D02*
X14585000Y-7957500D01*
X14585000Y-8171500D02*
X14625000Y-8211500D01*
X14625000Y-8171500D02*
X14585000Y-8211500D01*
X14966000Y-10203500D02*
X15006000Y-10243500D01*
X15006000Y-10203500D02*
X14966000Y-10243500D01*
X14966000Y-8171500D02*
X15006000Y-8211500D01*
X15006000Y-8171500D02*
X14966000Y-8211500D01*
X14966000Y-9124000D02*
X15006000Y-9164000D01*
X15006000Y-9124000D02*
X14966000Y-9164000D01*
X14978700Y-12743500D02*
X15018700Y-12783500D01*
X15018700Y-12743500D02*
X14978700Y-12783500D01*
X15098701Y-9823537D02*
X15138701Y-9863537D01*
X15138701Y-9823537D02*
X15098701Y-9863537D01*
X15108551Y-10584500D02*
X15148551Y-10624500D01*
X15148551Y-10584500D02*
X15108551Y-10624500D01*
X15220000Y-9568500D02*
X15260000Y-9608500D01*
X15260000Y-9568500D02*
X15220000Y-9608500D01*
X15283501Y-5758500D02*
X15323501Y-5798500D01*
X15323501Y-5758500D02*
X15283501Y-5798500D01*
X15347000Y-9949500D02*
X15387000Y-9989500D01*
X15387000Y-9949500D02*
X15347000Y-9989500D01*
X15537500Y-6774500D02*
X15577500Y-6814500D01*
X15577500Y-6774500D02*
X15537500Y-6814500D01*
X15664500Y-5504500D02*
X15704500Y-5544500D01*
X15704500Y-5504500D02*
X15664500Y-5544500D01*
X15791500Y-5377500D02*
X15831500Y-5417500D01*
X15831500Y-5377500D02*
X15791500Y-5417500D01*
X15791500Y-5377500D02*
X15831500Y-5417500D01*
X15831500Y-5377500D02*
X15791500Y-5417500D01*
X15791500Y-9695500D02*
X15831500Y-9735500D01*
X15831500Y-9695500D02*
X15791500Y-9735500D01*
X15791500Y-10457500D02*
X15831500Y-10497500D01*
X15831500Y-10457500D02*
X15791500Y-10497500D01*
X16109000Y-4996500D02*
X16149000Y-5036500D01*
X16149000Y-4996500D02*
X16109000Y-5036500D01*
X16680500Y-4488500D02*
X16720500Y-4528500D01*
X16720500Y-4488500D02*
X16680500Y-4528500D01*
X17379000Y-7409500D02*
X17419000Y-7449500D01*
X17419000Y-7409500D02*
X17379000Y-7449500D01*
X17391700Y-10724200D02*
X17431700Y-10764200D01*
X17431700Y-10724200D02*
X17391700Y-10764200D01*
X18166400Y-13327700D02*
X18206400Y-13367700D01*
X18206400Y-13327700D02*
X18166400Y-13367700D01*
X18268000Y-6012500D02*
X18308000Y-6052500D01*
X18308000Y-6012500D02*
X18268000Y-6052500D01*
X18268000Y-6901500D02*
X18308000Y-6941500D01*
X18308000Y-6901500D02*
X18268000Y-6941500D01*
X18293400Y-12743500D02*
X18333400Y-12783500D01*
X18333400Y-12743500D02*
X18293400Y-12783500D01*
X18331500Y-7917500D02*
X18371500Y-7957500D01*
X18371500Y-7917500D02*
X18331500Y-7957500D01*
X18387050Y-7020550D02*
X18427050Y-7060550D01*
X18427050Y-7020550D02*
X18387050Y-7060550D01*
X18395000Y-6393500D02*
X18435000Y-6433500D01*
X18435000Y-6393500D02*
X18395000Y-6433500D01*
X18458500Y-7409499D02*
X18498500Y-7449499D01*
X18498500Y-7409499D02*
X18458500Y-7449499D01*
X18483902Y-7917499D02*
X18523902Y-7957499D01*
X18523902Y-7917499D02*
X18483902Y-7957499D01*
X18552150Y-12243450D02*
X18592150Y-12283450D01*
X18592150Y-12243450D02*
X18552150Y-12283450D01*
X18577550Y-6782450D02*
X18617550Y-6822450D01*
X18617550Y-6782450D02*
X18577550Y-6822450D01*
X18585500Y-7155500D02*
X18625500Y-7195500D01*
X18625500Y-7155500D02*
X18585500Y-7195500D01*
X18598200Y-8031800D02*
X18638200Y-8071800D01*
X18638200Y-8031800D02*
X18598200Y-8071800D01*
X19093499Y-12616500D02*
X19133499Y-12656500D01*
X19133499Y-12616500D02*
X19093499Y-12656500D01*
X19157000Y-8425500D02*
X19197000Y-8465500D01*
X19197000Y-8425500D02*
X19157000Y-8465500D01*
X19157000Y-8425500D02*
X19197000Y-8465500D01*
X19197000Y-8425500D02*
X19157000Y-8465500D01*
X19550700Y-7663500D02*
X19590700Y-7703500D01*
X19590700Y-7663500D02*
X19550700Y-7703500D01*
X19665000Y-7917500D02*
X19705000Y-7957500D01*
X19705000Y-7917500D02*
X19665000Y-7957500D01*
X19792000Y-6520500D02*
X19832000Y-6560500D01*
X19832000Y-6520500D02*
X19792000Y-6560500D01*
X19919000Y-6139500D02*
X19959000Y-6179500D01*
X19959000Y-6139500D02*
X19919000Y-6179500D01*
X20528600Y-12565700D02*
X20568600Y-12605700D01*
X20568600Y-12565700D02*
X20528600Y-12605700D01*
X20808000Y-7028500D02*
X20848000Y-7068500D01*
X20848000Y-7028500D02*
X20808000Y-7068500D01*
X20818450Y-8181950D02*
X20858450Y-8221950D01*
X20858450Y-8181950D02*
X20818450Y-8221950D01*
X20820701Y-11879900D02*
X20860701Y-11919900D01*
X20860701Y-11879900D02*
X20820701Y-11919900D01*
X20846100Y-5898200D02*
X20886100Y-5938200D01*
X20886100Y-5898200D02*
X20846100Y-5938200D01*
X20858800Y-11410000D02*
X20898800Y-11450000D01*
X20898800Y-11410000D02*
X20858800Y-11450000D01*
X20935000Y-6774500D02*
X20975000Y-6814500D01*
X20975000Y-6774500D02*
X20935000Y-6814500D01*
X20935000Y-7917500D02*
X20975000Y-7957500D01*
X20975000Y-7917500D02*
X20935000Y-7957500D01*
X21125500Y-6647500D02*
X21165500Y-6687500D01*
X21165500Y-6647500D02*
X21125500Y-6687500D01*
X21125500Y-7663500D02*
X21165500Y-7703500D01*
X21165500Y-7663500D02*
X21125500Y-7703500D01*
X21125500Y-8806500D02*
X21165500Y-8846500D01*
X21165500Y-8806500D02*
X21125500Y-8846500D01*
X21125500Y-10902000D02*
X21165500Y-10942000D01*
X21165500Y-10902000D02*
X21125500Y-10942000D01*
X21125500Y-12476800D02*
X21165500Y-12516800D01*
X21165500Y-12476800D02*
X21125500Y-12516800D01*
X21379500Y-11397300D02*
X21419500Y-11437300D01*
X21419500Y-11397300D02*
X21379500Y-11437300D01*
X21379500Y-11600500D02*
X21419500Y-11640500D01*
X21419500Y-11600500D02*
X21379500Y-11640500D01*
X7647300Y-5524500D02*
G75*
G03*
X7647300Y-5524500I-40000J0D01*
G01*
X7647300Y-6540500D02*
G75*
G03*
X7647300Y-6540500I-40000J0D01*
G01*
X7672700Y-7289800D02*
G75*
G03*
X7672700Y-7289800I-40000J0D01*
G01*
X7672700Y-8305800D02*
G75*
G03*
X7672700Y-8305800I-40000J0D01*
G01*
X7672700Y-8699500D02*
G75*
G03*
X7672700Y-8699500I-40000J0D01*
G01*
X7672700Y-9715500D02*
G75*
G03*
X7672700Y-9715500I-40000J0D01*
G01*
X8168000Y-4381500D02*
G75*
G03*
X8168000Y-4381500I-40000J0D01*
G01*
X8168000Y-4889500D02*
G75*
G03*
X8168000Y-4889500I-40000J0D01*
G01*
X8168000Y-5143500D02*
G75*
G03*
X8168000Y-5143500I-40000J0D01*
G01*
X8168000Y-5397500D02*
G75*
G03*
X8168000Y-5397500I-40000J0D01*
G01*
X8168000Y-5651500D02*
G75*
G03*
X8168000Y-5651500I-40000J0D01*
G01*
X8168000Y-5905500D02*
G75*
G03*
X8168000Y-5905500I-40000J0D01*
G01*
X8168000Y-6159500D02*
G75*
G03*
X8168000Y-6159500I-40000J0D01*
G01*
X8168000Y-6413500D02*
G75*
G03*
X8168000Y-6413500I-40000J0D01*
G01*
X8168000Y-6667500D02*
G75*
G03*
X8168000Y-6667500I-40000J0D01*
G01*
X8168000Y-6921500D02*
G75*
G03*
X8168000Y-6921500I-40000J0D01*
G01*
X8168000Y-7175500D02*
G75*
G03*
X8168000Y-7175500I-40000J0D01*
G01*
X8168000Y-7429500D02*
G75*
G03*
X8168000Y-7429500I-40000J0D01*
G01*
X8168000Y-7683500D02*
G75*
G03*
X8168000Y-7683500I-40000J0D01*
G01*
X8168000Y-7937500D02*
G75*
G03*
X8168000Y-7937500I-40000J0D01*
G01*
X8168000Y-8191500D02*
G75*
G03*
X8168000Y-8191500I-40000J0D01*
G01*
X8168000Y-8445500D02*
G75*
G03*
X8168000Y-8445500I-40000J0D01*
G01*
X8168000Y-8699500D02*
G75*
G03*
X8168000Y-8699500I-40000J0D01*
G01*
X8168000Y-8953500D02*
G75*
G03*
X8168000Y-8953500I-40000J0D01*
G01*
X8168000Y-9207500D02*
G75*
G03*
X8168000Y-9207500I-40000J0D01*
G01*
X8168000Y-9461500D02*
G75*
G03*
X8168000Y-9461500I-40000J0D01*
G01*
X8168000Y-9715500D02*
G75*
G03*
X8168000Y-9715500I-40000J0D01*
G01*
X8358500Y-11366500D02*
G75*
G03*
X8358500Y-11366500I-40000J0D01*
G01*
X8358500Y-11620500D02*
G75*
G03*
X8358500Y-11620500I-40000J0D01*
G01*
X8358500Y-11874500D02*
G75*
G03*
X8358500Y-11874500I-40000J0D01*
G01*
X8358500Y-12128500D02*
G75*
G03*
X8358500Y-12128500I-40000J0D01*
G01*
X8358500Y-12382500D02*
G75*
G03*
X8358500Y-12382500I-40000J0D01*
G01*
X8358500Y-12636500D02*
G75*
G03*
X8358500Y-12636500I-40000J0D01*
G01*
X8358500Y-12890500D02*
G75*
G03*
X8358500Y-12890500I-40000J0D01*
G01*
X8668000Y-4381500D02*
G75*
G03*
X8668000Y-4381500I-40000J0D01*
G01*
X9120500Y-11366500D02*
G75*
G03*
X9120500Y-11366500I-40000J0D01*
G01*
X9120500Y-11620500D02*
G75*
G03*
X9120500Y-11620500I-40000J0D01*
G01*
X9120500Y-11874500D02*
G75*
G03*
X9120500Y-11874500I-40000J0D01*
G01*
X9120500Y-12128500D02*
G75*
G03*
X9120500Y-12128500I-40000J0D01*
G01*
X9120500Y-12382500D02*
G75*
G03*
X9120500Y-12382500I-40000J0D01*
G01*
X9120500Y-12636500D02*
G75*
G03*
X9120500Y-12636500I-40000J0D01*
G01*
X9120500Y-12890500D02*
G75*
G03*
X9120500Y-12890500I-40000J0D01*
G01*
X9565000Y-12573000D02*
G75*
G03*
X9565000Y-12573000I-40000J0D01*
G01*
X9565000Y-13073000D02*
G75*
G03*
X9565000Y-13073000I-40000J0D01*
G01*
X9692000Y-4889500D02*
G75*
G03*
X9692000Y-4889500I-40000J0D01*
G01*
X9692000Y-5143500D02*
G75*
G03*
X9692000Y-5143500I-40000J0D01*
G01*
X9692000Y-5397500D02*
G75*
G03*
X9692000Y-5397500I-40000J0D01*
G01*
X9692000Y-5651500D02*
G75*
G03*
X9692000Y-5651500I-40000J0D01*
G01*
X9692000Y-5905500D02*
G75*
G03*
X9692000Y-5905500I-40000J0D01*
G01*
X9692000Y-6159500D02*
G75*
G03*
X9692000Y-6159500I-40000J0D01*
G01*
X9692000Y-6413500D02*
G75*
G03*
X9692000Y-6413500I-40000J0D01*
G01*
X9692000Y-6667500D02*
G75*
G03*
X9692000Y-6667500I-40000J0D01*
G01*
X9692000Y-6921500D02*
G75*
G03*
X9692000Y-6921500I-40000J0D01*
G01*
X9692000Y-7175500D02*
G75*
G03*
X9692000Y-7175500I-40000J0D01*
G01*
X9692000Y-7429500D02*
G75*
G03*
X9692000Y-7429500I-40000J0D01*
G01*
X9692000Y-7683500D02*
G75*
G03*
X9692000Y-7683500I-40000J0D01*
G01*
X9692000Y-7937500D02*
G75*
G03*
X9692000Y-7937500I-40000J0D01*
G01*
X9692000Y-8191500D02*
G75*
G03*
X9692000Y-8191500I-40000J0D01*
G01*
X9692000Y-8445500D02*
G75*
G03*
X9692000Y-8445500I-40000J0D01*
G01*
X9692000Y-8699500D02*
G75*
G03*
X9692000Y-8699500I-40000J0D01*
G01*
X9692000Y-8953500D02*
G75*
G03*
X9692000Y-8953500I-40000J0D01*
G01*
X9692000Y-9207500D02*
G75*
G03*
X9692000Y-9207500I-40000J0D01*
G01*
X9692000Y-9461500D02*
G75*
G03*
X9692000Y-9461500I-40000J0D01*
G01*
X9692000Y-9715500D02*
G75*
G03*
X9692000Y-9715500I-40000J0D01*
G01*
X10009500Y-11112500D02*
G75*
G03*
X10009500Y-11112500I-40000J0D01*
G01*
X10009500Y-11366500D02*
G75*
G03*
X10009500Y-11366500I-40000J0D01*
G01*
X10009500Y-11620500D02*
G75*
G03*
X10009500Y-11620500I-40000J0D01*
G01*
X10009500Y-11874500D02*
G75*
G03*
X10009500Y-11874500I-40000J0D01*
G01*
X10009500Y-12128500D02*
G75*
G03*
X10009500Y-12128500I-40000J0D01*
G01*
X10009500Y-12382500D02*
G75*
G03*
X10009500Y-12382500I-40000J0D01*
G01*
X10009500Y-12636500D02*
G75*
G03*
X10009500Y-12636500I-40000J0D01*
G01*
X10009500Y-12890500D02*
G75*
G03*
X10009500Y-12890500I-40000J0D01*
G01*
X10212700Y-4254500D02*
G75*
G03*
X10212700Y-4254500I-40000J0D01*
G01*
X10212700Y-5270500D02*
G75*
G03*
X10212700Y-5270500I-40000J0D01*
G01*
X10771500Y-4889500D02*
G75*
G03*
X10771500Y-4889500I-40000J0D01*
G01*
X10771500Y-5143500D02*
G75*
G03*
X10771500Y-5143500I-40000J0D01*
G01*
X10771500Y-5397500D02*
G75*
G03*
X10771500Y-5397500I-40000J0D01*
G01*
X10771500Y-5651500D02*
G75*
G03*
X10771500Y-5651500I-40000J0D01*
G01*
X10771500Y-5905500D02*
G75*
G03*
X10771500Y-5905500I-40000J0D01*
G01*
X10771500Y-6159500D02*
G75*
G03*
X10771500Y-6159500I-40000J0D01*
G01*
X10771500Y-6413500D02*
G75*
G03*
X10771500Y-6413500I-40000J0D01*
G01*
X10771500Y-6667500D02*
G75*
G03*
X10771500Y-6667500I-40000J0D01*
G01*
X10771500Y-6921500D02*
G75*
G03*
X10771500Y-6921500I-40000J0D01*
G01*
X10771500Y-7175500D02*
G75*
G03*
X10771500Y-7175500I-40000J0D01*
G01*
X10771500Y-7429500D02*
G75*
G03*
X10771500Y-7429500I-40000J0D01*
G01*
X10771500Y-7683500D02*
G75*
G03*
X10771500Y-7683500I-40000J0D01*
G01*
X10771500Y-7937500D02*
G75*
G03*
X10771500Y-7937500I-40000J0D01*
G01*
X10771500Y-8191500D02*
G75*
G03*
X10771500Y-8191500I-40000J0D01*
G01*
X10771500Y-8445500D02*
G75*
G03*
X10771500Y-8445500I-40000J0D01*
G01*
X10771500Y-8699500D02*
G75*
G03*
X10771500Y-8699500I-40000J0D01*
G01*
X10771500Y-8953500D02*
G75*
G03*
X10771500Y-8953500I-40000J0D01*
G01*
X10771500Y-9207500D02*
G75*
G03*
X10771500Y-9207500I-40000J0D01*
G01*
X10771500Y-9461500D02*
G75*
G03*
X10771500Y-9461500I-40000J0D01*
G01*
X10771500Y-9715500D02*
G75*
G03*
X10771500Y-9715500I-40000J0D01*
G01*
X10771500Y-11112500D02*
G75*
G03*
X10771500Y-11112500I-40000J0D01*
G01*
X10771500Y-11366500D02*
G75*
G03*
X10771500Y-11366500I-40000J0D01*
G01*
X10771500Y-11620500D02*
G75*
G03*
X10771500Y-11620500I-40000J0D01*
G01*
X10771500Y-11874500D02*
G75*
G03*
X10771500Y-11874500I-40000J0D01*
G01*
X10771500Y-12128500D02*
G75*
G03*
X10771500Y-12128500I-40000J0D01*
G01*
X10771500Y-12382500D02*
G75*
G03*
X10771500Y-12382500I-40000J0D01*
G01*
X10771500Y-12636500D02*
G75*
G03*
X10771500Y-12636500I-40000J0D01*
G01*
X10771500Y-12890500D02*
G75*
G03*
X10771500Y-12890500I-40000J0D01*
G01*
X11343000Y-12581000D02*
G75*
G03*
X11343000Y-12581000I-40000J0D01*
G01*
X11343000Y-13081000D02*
G75*
G03*
X11343000Y-13081000I-40000J0D01*
G01*
X11787500Y-11112500D02*
G75*
G03*
X11787500Y-11112500I-40000J0D01*
G01*
X11787500Y-11366500D02*
G75*
G03*
X11787500Y-11366500I-40000J0D01*
G01*
X11787500Y-11620500D02*
G75*
G03*
X11787500Y-11620500I-40000J0D01*
G01*
X11787500Y-11874500D02*
G75*
G03*
X11787500Y-11874500I-40000J0D01*
G01*
X11787500Y-12128500D02*
G75*
G03*
X11787500Y-12128500I-40000J0D01*
G01*
X11787500Y-12382500D02*
G75*
G03*
X11787500Y-12382500I-40000J0D01*
G01*
X11787500Y-12636500D02*
G75*
G03*
X11787500Y-12636500I-40000J0D01*
G01*
X11787500Y-12890500D02*
G75*
G03*
X11787500Y-12890500I-40000J0D01*
G01*
X12295500Y-4889500D02*
G75*
G03*
X12295500Y-4889500I-40000J0D01*
G01*
X12295500Y-5143500D02*
G75*
G03*
X12295500Y-5143500I-40000J0D01*
G01*
X12295500Y-5397500D02*
G75*
G03*
X12295500Y-5397500I-40000J0D01*
G01*
X12295500Y-5651500D02*
G75*
G03*
X12295500Y-5651500I-40000J0D01*
G01*
X12295500Y-5905500D02*
G75*
G03*
X12295500Y-5905500I-40000J0D01*
G01*
X12295500Y-6159500D02*
G75*
G03*
X12295500Y-6159500I-40000J0D01*
G01*
X12295500Y-6413500D02*
G75*
G03*
X12295500Y-6413500I-40000J0D01*
G01*
X12295500Y-6667500D02*
G75*
G03*
X12295500Y-6667500I-40000J0D01*
G01*
X12295500Y-6921500D02*
G75*
G03*
X12295500Y-6921500I-40000J0D01*
G01*
X12295500Y-7175500D02*
G75*
G03*
X12295500Y-7175500I-40000J0D01*
G01*
X12295500Y-7429500D02*
G75*
G03*
X12295500Y-7429500I-40000J0D01*
G01*
X12295500Y-7683500D02*
G75*
G03*
X12295500Y-7683500I-40000J0D01*
G01*
X12295500Y-7937500D02*
G75*
G03*
X12295500Y-7937500I-40000J0D01*
G01*
X12295500Y-8191500D02*
G75*
G03*
X12295500Y-8191500I-40000J0D01*
G01*
X12295500Y-8445500D02*
G75*
G03*
X12295500Y-8445500I-40000J0D01*
G01*
X12295500Y-8699500D02*
G75*
G03*
X12295500Y-8699500I-40000J0D01*
G01*
X12295500Y-8953500D02*
G75*
G03*
X12295500Y-8953500I-40000J0D01*
G01*
X12295500Y-9207500D02*
G75*
G03*
X12295500Y-9207500I-40000J0D01*
G01*
X12295500Y-9461500D02*
G75*
G03*
X12295500Y-9461500I-40000J0D01*
G01*
X12295500Y-9715500D02*
G75*
G03*
X12295500Y-9715500I-40000J0D01*
G01*
X12549500Y-11112500D02*
G75*
G03*
X12549500Y-11112500I-40000J0D01*
G01*
X12549500Y-11366500D02*
G75*
G03*
X12549500Y-11366500I-40000J0D01*
G01*
X12549500Y-11620500D02*
G75*
G03*
X12549500Y-11620500I-40000J0D01*
G01*
X12549500Y-11874500D02*
G75*
G03*
X12549500Y-11874500I-40000J0D01*
G01*
X12549500Y-12128500D02*
G75*
G03*
X12549500Y-12128500I-40000J0D01*
G01*
X12549500Y-12382500D02*
G75*
G03*
X12549500Y-12382500I-40000J0D01*
G01*
X12549500Y-12636500D02*
G75*
G03*
X12549500Y-12636500I-40000J0D01*
G01*
X12549500Y-12890500D02*
G75*
G03*
X12549500Y-12890500I-40000J0D01*
G01*
X12803500Y-4254500D02*
G75*
G03*
X12803500Y-4254500I-40000J0D01*
G01*
X12803500Y-4754500D02*
G75*
G03*
X12803500Y-4754500I-40000J0D01*
G01*
X12803500Y-5143500D02*
G75*
G03*
X12803500Y-5143500I-40000J0D01*
G01*
X12994000Y-12573000D02*
G75*
G03*
X12994000Y-12573000I-40000J0D01*
G01*
X12994000Y-13073000D02*
G75*
G03*
X12994000Y-13073000I-40000J0D01*
G01*
X13303500Y-5143500D02*
G75*
G03*
X13303500Y-5143500I-40000J0D01*
G01*
X13311500Y-5659500D02*
G75*
G03*
X13311500Y-5659500I-40000J0D01*
G01*
X13311500Y-6159500D02*
G75*
G03*
X13311500Y-6159500I-40000J0D01*
G01*
X13502000Y-11366500D02*
G75*
G03*
X13502000Y-11366500I-40000J0D01*
G01*
X13502000Y-11620500D02*
G75*
G03*
X13502000Y-11620500I-40000J0D01*
G01*
X13502000Y-11874500D02*
G75*
G03*
X13502000Y-11874500I-40000J0D01*
G01*
X13502000Y-12128500D02*
G75*
G03*
X13502000Y-12128500I-40000J0D01*
G01*
X13502000Y-12382500D02*
G75*
G03*
X13502000Y-12382500I-40000J0D01*
G01*
X13502000Y-12636500D02*
G75*
G03*
X13502000Y-12636500I-40000J0D01*
G01*
X13502000Y-12890500D02*
G75*
G03*
X13502000Y-12890500I-40000J0D01*
G01*
X13692500Y-4699000D02*
G75*
G03*
X13692500Y-4699000I-40000J0D01*
G01*
X13692500Y-5715000D02*
G75*
G03*
X13692500Y-5715000I-40000J0D01*
G01*
X14073500Y-4889500D02*
G75*
G03*
X14073500Y-4889500I-40000J0D01*
G01*
X14073500Y-5143500D02*
G75*
G03*
X14073500Y-5143500I-40000J0D01*
G01*
X14073500Y-5397500D02*
G75*
G03*
X14073500Y-5397500I-40000J0D01*
G01*
X14073500Y-5651500D02*
G75*
G03*
X14073500Y-5651500I-40000J0D01*
G01*
X14073500Y-5905500D02*
G75*
G03*
X14073500Y-5905500I-40000J0D01*
G01*
X14073500Y-6159500D02*
G75*
G03*
X14073500Y-6159500I-40000J0D01*
G01*
X14073500Y-6413500D02*
G75*
G03*
X14073500Y-6413500I-40000J0D01*
G01*
X14073500Y-6667500D02*
G75*
G03*
X14073500Y-6667500I-40000J0D01*
G01*
X14073500Y-6921500D02*
G75*
G03*
X14073500Y-6921500I-40000J0D01*
G01*
X14073500Y-7175500D02*
G75*
G03*
X14073500Y-7175500I-40000J0D01*
G01*
X14073500Y-7429500D02*
G75*
G03*
X14073500Y-7429500I-40000J0D01*
G01*
X14073500Y-7683500D02*
G75*
G03*
X14073500Y-7683500I-40000J0D01*
G01*
X14073500Y-7937500D02*
G75*
G03*
X14073500Y-7937500I-40000J0D01*
G01*
X14073500Y-8191500D02*
G75*
G03*
X14073500Y-8191500I-40000J0D01*
G01*
X14073500Y-8445500D02*
G75*
G03*
X14073500Y-8445500I-40000J0D01*
G01*
X14073500Y-8699500D02*
G75*
G03*
X14073500Y-8699500I-40000J0D01*
G01*
X14264000Y-11366500D02*
G75*
G03*
X14264000Y-11366500I-40000J0D01*
G01*
X14264000Y-11620500D02*
G75*
G03*
X14264000Y-11620500I-40000J0D01*
G01*
X14264000Y-11874500D02*
G75*
G03*
X14264000Y-11874500I-40000J0D01*
G01*
X14264000Y-12128500D02*
G75*
G03*
X14264000Y-12128500I-40000J0D01*
G01*
X14264000Y-12382500D02*
G75*
G03*
X14264000Y-12382500I-40000J0D01*
G01*
X14264000Y-12636500D02*
G75*
G03*
X14264000Y-12636500I-40000J0D01*
G01*
X14264000Y-12890500D02*
G75*
G03*
X14264000Y-12890500I-40000J0D01*
G01*
X14835500Y-4889500D02*
G75*
G03*
X14835500Y-4889500I-40000J0D01*
G01*
X14835500Y-5143500D02*
G75*
G03*
X14835500Y-5143500I-40000J0D01*
G01*
X14835500Y-5397500D02*
G75*
G03*
X14835500Y-5397500I-40000J0D01*
G01*
X14835500Y-5651500D02*
G75*
G03*
X14835500Y-5651500I-40000J0D01*
G01*
X14835500Y-5905500D02*
G75*
G03*
X14835500Y-5905500I-40000J0D01*
G01*
X14835500Y-6159500D02*
G75*
G03*
X14835500Y-6159500I-40000J0D01*
G01*
X14835500Y-6413500D02*
G75*
G03*
X14835500Y-6413500I-40000J0D01*
G01*
X14835500Y-6667500D02*
G75*
G03*
X14835500Y-6667500I-40000J0D01*
G01*
X14835500Y-6921500D02*
G75*
G03*
X14835500Y-6921500I-40000J0D01*
G01*
X14835500Y-7175500D02*
G75*
G03*
X14835500Y-7175500I-40000J0D01*
G01*
X14835500Y-7429500D02*
G75*
G03*
X14835500Y-7429500I-40000J0D01*
G01*
X14835500Y-7683500D02*
G75*
G03*
X14835500Y-7683500I-40000J0D01*
G01*
X14835500Y-7937500D02*
G75*
G03*
X14835500Y-7937500I-40000J0D01*
G01*
X14835500Y-8191500D02*
G75*
G03*
X14835500Y-8191500I-40000J0D01*
G01*
X14835500Y-8445500D02*
G75*
G03*
X14835500Y-8445500I-40000J0D01*
G01*
X14835500Y-8699500D02*
G75*
G03*
X14835500Y-8699500I-40000J0D01*
G01*
X14835500Y-12581000D02*
G75*
G03*
X14835500Y-12581000I-40000J0D01*
G01*
X14835500Y-13081000D02*
G75*
G03*
X14835500Y-13081000I-40000J0D01*
G01*
X15343500Y-4516500D02*
G75*
G03*
X15343500Y-4516500I-40000J0D01*
G01*
X15343500Y-5016500D02*
G75*
G03*
X15343500Y-5016500I-40000J0D01*
G01*
X15407000Y-11366500D02*
G75*
G03*
X15407000Y-11366500I-40000J0D01*
G01*
X15407000Y-11620500D02*
G75*
G03*
X15407000Y-11620500I-40000J0D01*
G01*
X15407000Y-11874500D02*
G75*
G03*
X15407000Y-11874500I-40000J0D01*
G01*
X15407000Y-12128500D02*
G75*
G03*
X15407000Y-12128500I-40000J0D01*
G01*
X15407000Y-12382500D02*
G75*
G03*
X15407000Y-12382500I-40000J0D01*
G01*
X15407000Y-12636500D02*
G75*
G03*
X15407000Y-12636500I-40000J0D01*
G01*
X15407000Y-12890500D02*
G75*
G03*
X15407000Y-12890500I-40000J0D01*
G01*
X16169000Y-11366500D02*
G75*
G03*
X16169000Y-11366500I-40000J0D01*
G01*
X16169000Y-11620500D02*
G75*
G03*
X16169000Y-11620500I-40000J0D01*
G01*
X16169000Y-11874500D02*
G75*
G03*
X16169000Y-11874500I-40000J0D01*
G01*
X16169000Y-12128500D02*
G75*
G03*
X16169000Y-12128500I-40000J0D01*
G01*
X16169000Y-12382500D02*
G75*
G03*
X16169000Y-12382500I-40000J0D01*
G01*
X16169000Y-12636500D02*
G75*
G03*
X16169000Y-12636500I-40000J0D01*
G01*
X16169000Y-12890500D02*
G75*
G03*
X16169000Y-12890500I-40000J0D01*
G01*
X16359500Y-5397500D02*
G75*
G03*
X16359500Y-5397500I-40000J0D01*
G01*
X16359500Y-5651500D02*
G75*
G03*
X16359500Y-5651500I-40000J0D01*
G01*
X16359500Y-5905500D02*
G75*
G03*
X16359500Y-5905500I-40000J0D01*
G01*
X16359500Y-6159500D02*
G75*
G03*
X16359500Y-6159500I-40000J0D01*
G01*
X16359500Y-6413500D02*
G75*
G03*
X16359500Y-6413500I-40000J0D01*
G01*
X16359500Y-6667500D02*
G75*
G03*
X16359500Y-6667500I-40000J0D01*
G01*
X16359500Y-6921500D02*
G75*
G03*
X16359500Y-6921500I-40000J0D01*
G01*
X16359500Y-7175500D02*
G75*
G03*
X16359500Y-7175500I-40000J0D01*
G01*
X16359500Y-7429500D02*
G75*
G03*
X16359500Y-7429500I-40000J0D01*
G01*
X16359500Y-7683500D02*
G75*
G03*
X16359500Y-7683500I-40000J0D01*
G01*
X16359500Y-7937500D02*
G75*
G03*
X16359500Y-7937500I-40000J0D01*
G01*
X16359500Y-8191500D02*
G75*
G03*
X16359500Y-8191500I-40000J0D01*
G01*
X16359500Y-8445500D02*
G75*
G03*
X16359500Y-8445500I-40000J0D01*
G01*
X16359500Y-8699500D02*
G75*
G03*
X16359500Y-8699500I-40000J0D01*
G01*
X16804000Y-12581000D02*
G75*
G03*
X16804000Y-12581000I-40000J0D01*
G01*
X16804000Y-13081000D02*
G75*
G03*
X16804000Y-13081000I-40000J0D01*
G01*
X17375500Y-11366500D02*
G75*
G03*
X17375500Y-11366500I-40000J0D01*
G01*
X17375500Y-11620500D02*
G75*
G03*
X17375500Y-11620500I-40000J0D01*
G01*
X17375500Y-11874500D02*
G75*
G03*
X17375500Y-11874500I-40000J0D01*
G01*
X17375500Y-12128500D02*
G75*
G03*
X17375500Y-12128500I-40000J0D01*
G01*
X17375500Y-12382500D02*
G75*
G03*
X17375500Y-12382500I-40000J0D01*
G01*
X17375500Y-12636500D02*
G75*
G03*
X17375500Y-12636500I-40000J0D01*
G01*
X17375500Y-12890500D02*
G75*
G03*
X17375500Y-12890500I-40000J0D01*
G01*
X17883500Y-5397500D02*
G75*
G03*
X17883500Y-5397500I-40000J0D01*
G01*
X17883500Y-5651500D02*
G75*
G03*
X17883500Y-5651500I-40000J0D01*
G01*
X17883500Y-5905500D02*
G75*
G03*
X17883500Y-5905500I-40000J0D01*
G01*
X17883500Y-6159500D02*
G75*
G03*
X17883500Y-6159500I-40000J0D01*
G01*
X17883500Y-6413500D02*
G75*
G03*
X17883500Y-6413500I-40000J0D01*
G01*
X17883500Y-6667500D02*
G75*
G03*
X17883500Y-6667500I-40000J0D01*
G01*
X17883500Y-6921500D02*
G75*
G03*
X17883500Y-6921500I-40000J0D01*
G01*
X17883500Y-7175500D02*
G75*
G03*
X17883500Y-7175500I-40000J0D01*
G01*
X17883500Y-7429500D02*
G75*
G03*
X17883500Y-7429500I-40000J0D01*
G01*
X17883500Y-7683500D02*
G75*
G03*
X17883500Y-7683500I-40000J0D01*
G01*
X17883500Y-7937500D02*
G75*
G03*
X17883500Y-7937500I-40000J0D01*
G01*
X17883500Y-8191500D02*
G75*
G03*
X17883500Y-8191500I-40000J0D01*
G01*
X17883500Y-8445500D02*
G75*
G03*
X17883500Y-8445500I-40000J0D01*
G01*
X17883500Y-8699500D02*
G75*
G03*
X17883500Y-8699500I-40000J0D01*
G01*
X18137500Y-11366500D02*
G75*
G03*
X18137500Y-11366500I-40000J0D01*
G01*
X18137500Y-11620500D02*
G75*
G03*
X18137500Y-11620500I-40000J0D01*
G01*
X18137500Y-11874500D02*
G75*
G03*
X18137500Y-11874500I-40000J0D01*
G01*
X18137500Y-12128500D02*
G75*
G03*
X18137500Y-12128500I-40000J0D01*
G01*
X18137500Y-12382500D02*
G75*
G03*
X18137500Y-12382500I-40000J0D01*
G01*
X18137500Y-12636500D02*
G75*
G03*
X18137500Y-12636500I-40000J0D01*
G01*
X18137500Y-12890500D02*
G75*
G03*
X18137500Y-12890500I-40000J0D01*
G01*
X18264500Y-9779000D02*
G75*
G03*
X18264500Y-9779000I-40000J0D01*
G01*
X18264500Y-10795000D02*
G75*
G03*
X18264500Y-10795000I-40000J0D01*
G01*
X18328000Y-4516500D02*
G75*
G03*
X18328000Y-4516500I-40000J0D01*
G01*
X18328000Y-5016500D02*
G75*
G03*
X18328000Y-5016500I-40000J0D01*
G01*
X18645500Y-12581000D02*
G75*
G03*
X18645500Y-12581000I-40000J0D01*
G01*
X18645500Y-13081000D02*
G75*
G03*
X18645500Y-13081000I-40000J0D01*
G01*
X19026500Y-4516500D02*
G75*
G03*
X19026500Y-4516500I-40000J0D01*
G01*
X19026500Y-5016500D02*
G75*
G03*
X19026500Y-5016500I-40000J0D01*
G01*
X19026500Y-7691500D02*
G75*
G03*
X19026500Y-7691500I-40000J0D01*
G01*
X19026500Y-8191500D02*
G75*
G03*
X19026500Y-8191500I-40000J0D01*
G01*
X19026500Y-10612500D02*
G75*
G03*
X19026500Y-10612500I-40000J0D01*
G01*
X19026500Y-11112500D02*
G75*
G03*
X19026500Y-11112500I-40000J0D01*
G01*
X19407500Y-5397500D02*
G75*
G03*
X19407500Y-5397500I-40000J0D01*
G01*
X19407500Y-5651500D02*
G75*
G03*
X19407500Y-5651500I-40000J0D01*
G01*
X19407500Y-5905500D02*
G75*
G03*
X19407500Y-5905500I-40000J0D01*
G01*
X19407500Y-6159500D02*
G75*
G03*
X19407500Y-6159500I-40000J0D01*
G01*
X19407500Y-6413500D02*
G75*
G03*
X19407500Y-6413500I-40000J0D01*
G01*
X19407500Y-6667500D02*
G75*
G03*
X19407500Y-6667500I-40000J0D01*
G01*
X19407500Y-6921500D02*
G75*
G03*
X19407500Y-6921500I-40000J0D01*
G01*
X19407500Y-7175500D02*
G75*
G03*
X19407500Y-7175500I-40000J0D01*
G01*
X19407500Y-7429500D02*
G75*
G03*
X19407500Y-7429500I-40000J0D01*
G01*
X19407500Y-7683500D02*
G75*
G03*
X19407500Y-7683500I-40000J0D01*
G01*
X19407500Y-8318500D02*
G75*
G03*
X19407500Y-8318500I-40000J0D01*
G01*
X19407500Y-8572500D02*
G75*
G03*
X19407500Y-8572500I-40000J0D01*
G01*
X19407500Y-8826500D02*
G75*
G03*
X19407500Y-8826500I-40000J0D01*
G01*
X19407500Y-9080500D02*
G75*
G03*
X19407500Y-9080500I-40000J0D01*
G01*
X19407500Y-9334500D02*
G75*
G03*
X19407500Y-9334500I-40000J0D01*
G01*
X19407500Y-9588500D02*
G75*
G03*
X19407500Y-9588500I-40000J0D01*
G01*
X19407500Y-9842500D02*
G75*
G03*
X19407500Y-9842500I-40000J0D01*
G01*
X19407500Y-10096500D02*
G75*
G03*
X19407500Y-10096500I-40000J0D01*
G01*
X19407500Y-10350500D02*
G75*
G03*
X19407500Y-10350500I-40000J0D01*
G01*
X19407500Y-10604500D02*
G75*
G03*
X19407500Y-10604500I-40000J0D01*
G01*
X19407500Y-11239500D02*
G75*
G03*
X19407500Y-11239500I-40000J0D01*
G01*
X19407500Y-11493500D02*
G75*
G03*
X19407500Y-11493500I-40000J0D01*
G01*
X19407500Y-11747500D02*
G75*
G03*
X19407500Y-11747500I-40000J0D01*
G01*
X19407500Y-12001500D02*
G75*
G03*
X19407500Y-12001500I-40000J0D01*
G01*
X19407500Y-12255500D02*
G75*
G03*
X19407500Y-12255500I-40000J0D01*
G01*
X19407500Y-12509500D02*
G75*
G03*
X19407500Y-12509500I-40000J0D01*
G01*
X19407500Y-12763500D02*
G75*
G03*
X19407500Y-12763500I-40000J0D01*
G01*
X19407500Y-13017500D02*
G75*
G03*
X19407500Y-13017500I-40000J0D01*
G01*
X19407500Y-13271500D02*
G75*
G03*
X19407500Y-13271500I-40000J0D01*
G01*
X19407500Y-13525500D02*
G75*
G03*
X19407500Y-13525500I-40000J0D01*
G01*
X20169500Y-5397500D02*
G75*
G03*
X20169500Y-5397500I-40000J0D01*
G01*
X20169500Y-5651500D02*
G75*
G03*
X20169500Y-5651500I-40000J0D01*
G01*
X20169500Y-5905500D02*
G75*
G03*
X20169500Y-5905500I-40000J0D01*
G01*
X20169500Y-6159500D02*
G75*
G03*
X20169500Y-6159500I-40000J0D01*
G01*
X20169500Y-6413500D02*
G75*
G03*
X20169500Y-6413500I-40000J0D01*
G01*
X20169500Y-6667500D02*
G75*
G03*
X20169500Y-6667500I-40000J0D01*
G01*
X20169500Y-6921500D02*
G75*
G03*
X20169500Y-6921500I-40000J0D01*
G01*
X20169500Y-7175500D02*
G75*
G03*
X20169500Y-7175500I-40000J0D01*
G01*
X20169500Y-7429500D02*
G75*
G03*
X20169500Y-7429500I-40000J0D01*
G01*
X20169500Y-7683500D02*
G75*
G03*
X20169500Y-7683500I-40000J0D01*
G01*
X20169500Y-8318500D02*
G75*
G03*
X20169500Y-8318500I-40000J0D01*
G01*
X20169500Y-8572500D02*
G75*
G03*
X20169500Y-8572500I-40000J0D01*
G01*
X20169500Y-8826500D02*
G75*
G03*
X20169500Y-8826500I-40000J0D01*
G01*
X20169500Y-9080500D02*
G75*
G03*
X20169500Y-9080500I-40000J0D01*
G01*
X20169500Y-9334500D02*
G75*
G03*
X20169500Y-9334500I-40000J0D01*
G01*
X20169500Y-9588500D02*
G75*
G03*
X20169500Y-9588500I-40000J0D01*
G01*
X20169500Y-9842500D02*
G75*
G03*
X20169500Y-9842500I-40000J0D01*
G01*
X20169500Y-10096500D02*
G75*
G03*
X20169500Y-10096500I-40000J0D01*
G01*
X20169500Y-10350500D02*
G75*
G03*
X20169500Y-10350500I-40000J0D01*
G01*
X20169500Y-10604500D02*
G75*
G03*
X20169500Y-10604500I-40000J0D01*
G01*
X20169500Y-11239500D02*
G75*
G03*
X20169500Y-11239500I-40000J0D01*
G01*
X20169500Y-11493500D02*
G75*
G03*
X20169500Y-11493500I-40000J0D01*
G01*
X20169500Y-11747500D02*
G75*
G03*
X20169500Y-11747500I-40000J0D01*
G01*
X20169500Y-12001500D02*
G75*
G03*
X20169500Y-12001500I-40000J0D01*
G01*
X20169500Y-12255500D02*
G75*
G03*
X20169500Y-12255500I-40000J0D01*
G01*
X20169500Y-12509500D02*
G75*
G03*
X20169500Y-12509500I-40000J0D01*
G01*
X20169500Y-12763500D02*
G75*
G03*
X20169500Y-12763500I-40000J0D01*
G01*
X20169500Y-13017500D02*
G75*
G03*
X20169500Y-13017500I-40000J0D01*
G01*
X20169500Y-13271500D02*
G75*
G03*
X20169500Y-13271500I-40000J0D01*
G01*
X20169500Y-13525500D02*
G75*
G03*
X20169500Y-13525500I-40000J0D01*
G01*
X20745000Y-4699000D02*
G75*
G03*
X20745000Y-4699000I-40000J0D01*
G01*
X20868000Y-11239500D02*
G75*
G03*
X20868000Y-11239500I-40000J0D01*
G01*
X20868000Y-12255500D02*
G75*
G03*
X20868000Y-12255500I-40000J0D01*
G01*
X20931500Y-8826500D02*
G75*
G03*
X20931500Y-8826500I-40000J0D01*
G01*
X20931500Y-9080500D02*
G75*
G03*
X20931500Y-9080500I-40000J0D01*
G01*
X20931500Y-9334500D02*
G75*
G03*
X20931500Y-9334500I-40000J0D01*
G01*
X20931500Y-9588500D02*
G75*
G03*
X20931500Y-9588500I-40000J0D01*
G01*
X20931500Y-9842500D02*
G75*
G03*
X20931500Y-9842500I-40000J0D01*
G01*
X20931500Y-10096500D02*
G75*
G03*
X20931500Y-10096500I-40000J0D01*
G01*
X20931500Y-10350500D02*
G75*
G03*
X20931500Y-10350500I-40000J0D01*
G01*
X20931500Y-10604500D02*
G75*
G03*
X20931500Y-10604500I-40000J0D01*
G01*
X20931500Y-10858500D02*
G75*
G03*
X20931500Y-10858500I-40000J0D01*
G01*
X20995000Y-4699000D02*
G75*
G03*
X20995000Y-4699000I-40000J0D01*
G01*
X21185500Y-11239500D02*
G75*
G03*
X21185500Y-11239500I-40000J0D01*
G01*
X21185500Y-12255500D02*
G75*
G03*
X21185500Y-12255500I-40000J0D01*
G01*
X6858000Y-5982500D02*
X6858000Y-6082500D01*
X6808000Y-6032500D02*
X6908000Y-6032500D01*
X6858000Y-6236500D02*
X6858000Y-6336500D01*
X6808000Y-6286500D02*
X6908000Y-6286500D01*
X6858000Y-6490500D02*
X6858000Y-6590500D01*
X6808000Y-6540500D02*
X6908000Y-6540500D01*
X6858000Y-6744500D02*
X6858000Y-6844500D01*
X6808000Y-6794500D02*
X6908000Y-6794500D01*
X6858000Y-6998500D02*
X6858000Y-7098500D01*
X6808000Y-7048500D02*
X6908000Y-7048500D01*
X6858000Y-7252500D02*
X6858000Y-7352500D01*
X6808000Y-7302500D02*
X6908000Y-7302500D01*
X6858000Y-7506500D02*
X6858000Y-7606500D01*
X6808000Y-7556500D02*
X6908000Y-7556500D01*
X6858000Y-7760500D02*
X6858000Y-7860500D01*
X6808000Y-7810500D02*
X6908000Y-7810500D01*
X6858000Y-8014500D02*
X6858000Y-8114500D01*
X6808000Y-8064500D02*
X6908000Y-8064500D01*
X6858000Y-8268500D02*
X6858000Y-8368500D01*
X6808000Y-8318500D02*
X6908000Y-8318500D01*
X6858000Y-10491000D02*
X6858000Y-10591000D01*
X6808000Y-10541000D02*
X6908000Y-10541000D01*
X6858000Y-10745000D02*
X6858000Y-10845000D01*
X6808000Y-10795000D02*
X6908000Y-10795000D01*
X6858000Y-10999000D02*
X6858000Y-11099000D01*
X6808000Y-11049000D02*
X6908000Y-11049000D01*
X6858000Y-11253000D02*
X6858000Y-11353000D01*
X6808000Y-11303000D02*
X6908000Y-11303000D01*
X6858000Y-11507000D02*
X6858000Y-11607000D01*
X6808000Y-11557000D02*
X6908000Y-11557000D01*
X6858000Y-11761000D02*
X6858000Y-11861000D01*
X6808000Y-11811000D02*
X6908000Y-11811000D01*
X6858000Y-12015000D02*
X6858000Y-12115000D01*
X6808000Y-12065000D02*
X6908000Y-12065000D01*
X6858000Y-12269000D02*
X6858000Y-12369000D01*
X6808000Y-12319000D02*
X6908000Y-12319000D01*
X6858000Y-12523000D02*
X6858000Y-12623000D01*
X6808000Y-12573000D02*
X6908000Y-12573000D01*
X6858000Y-12777000D02*
X6858000Y-12877000D01*
X6808000Y-12827000D02*
X6908000Y-12827000D01*
X7112000Y-5982500D02*
X7112000Y-6082500D01*
X7062000Y-6032500D02*
X7162000Y-6032500D01*
X7112000Y-6236500D02*
X7112000Y-6336500D01*
X7062000Y-6286500D02*
X7162000Y-6286500D01*
X7112000Y-6490500D02*
X7112000Y-6590500D01*
X7062000Y-6540500D02*
X7162000Y-6540500D01*
X7112000Y-6744500D02*
X7112000Y-6844500D01*
X7062000Y-6794500D02*
X7162000Y-6794500D01*
X7112000Y-6998500D02*
X7112000Y-7098500D01*
X7062000Y-7048500D02*
X7162000Y-7048500D01*
X7112000Y-7252500D02*
X7112000Y-7352500D01*
X7062000Y-7302500D02*
X7162000Y-7302500D01*
X7112000Y-7506500D02*
X7112000Y-7606500D01*
X7062000Y-7556500D02*
X7162000Y-7556500D01*
X7112000Y-7760500D02*
X7112000Y-7860500D01*
X7062000Y-7810500D02*
X7162000Y-7810500D01*
X7112000Y-8014500D02*
X7112000Y-8114500D01*
X7062000Y-8064500D02*
X7162000Y-8064500D01*
X7112000Y-8268500D02*
X7112000Y-8368500D01*
X7062000Y-8318500D02*
X7162000Y-8318500D01*
X7112000Y-10491000D02*
X7112000Y-10591000D01*
X7062000Y-10541000D02*
X7162000Y-10541000D01*
X7112000Y-10745000D02*
X7112000Y-10845000D01*
X7062000Y-10795000D02*
X7162000Y-10795000D01*
X7112000Y-10999000D02*
X7112000Y-11099000D01*
X7062000Y-11049000D02*
X7162000Y-11049000D01*
X7112000Y-11253000D02*
X7112000Y-11353000D01*
X7062000Y-11303000D02*
X7162000Y-11303000D01*
X7112000Y-11507000D02*
X7112000Y-11607000D01*
X7062000Y-11557000D02*
X7162000Y-11557000D01*
X7112000Y-11761000D02*
X7112000Y-11861000D01*
X7062000Y-11811000D02*
X7162000Y-11811000D01*
X7112000Y-12015000D02*
X7112000Y-12115000D01*
X7062000Y-12065000D02*
X7162000Y-12065000D01*
X7112000Y-12269000D02*
X7112000Y-12369000D01*
X7062000Y-12319000D02*
X7162000Y-12319000D01*
X7112000Y-12523000D02*
X7112000Y-12623000D01*
X7062000Y-12573000D02*
X7162000Y-12573000D01*
X7112000Y-12777000D02*
X7112000Y-12877000D01*
X7062000Y-12827000D02*
X7162000Y-12827000D01*
X7366000Y-4268000D02*
X7366000Y-4368000D01*
X7316000Y-4318000D02*
X7416000Y-4318000D01*
X7366000Y-4522000D02*
X7366000Y-4622000D01*
X7316000Y-4572000D02*
X7416000Y-4572000D01*
X12763500Y-5601500D02*
X12763500Y-5701500D01*
X12713500Y-5651500D02*
X12813500Y-5651500D01*
X12763500Y-6101500D02*
X12763500Y-6201500D01*
X12713500Y-6151500D02*
X12813500Y-6151500D01*
X21590000Y-4966500D02*
X21590000Y-5066500D01*
X21540000Y-5016500D02*
X21640000Y-5016500D01*
X21590000Y-5220500D02*
X21590000Y-5320500D01*
X21540000Y-5270500D02*
X21640000Y-5270500D01*
X21590000Y-5474500D02*
X21590000Y-5574500D01*
X21540000Y-5524500D02*
X21640000Y-5524500D01*
X21590000Y-5728500D02*
X21590000Y-5828500D01*
X21540000Y-5778500D02*
X21640000Y-5778500D01*
X21590000Y-5982500D02*
X21590000Y-6082500D01*
X21540000Y-6032500D02*
X21640000Y-6032500D01*
X21590000Y-6236500D02*
X21590000Y-6336500D01*
X21540000Y-6286500D02*
X21640000Y-6286500D01*
X21590000Y-6490500D02*
X21590000Y-6590500D01*
X21540000Y-6540500D02*
X21640000Y-6540500D01*
X21590000Y-6744500D02*
X21590000Y-6844500D01*
X21540000Y-6794500D02*
X21640000Y-6794500D01*
X21590000Y-6998500D02*
X21590000Y-7098500D01*
X21540000Y-7048500D02*
X21640000Y-7048500D01*
X21590000Y-7252500D02*
X21590000Y-7352500D01*
X21540000Y-7302500D02*
X21640000Y-7302500D01*
X21590000Y-7506500D02*
X21590000Y-7606500D01*
X21540000Y-7556500D02*
X21640000Y-7556500D01*
X21590000Y-7760500D02*
X21590000Y-7860500D01*
X21540000Y-7810500D02*
X21640000Y-7810500D01*
X21590000Y-8014500D02*
X21590000Y-8114500D01*
X21540000Y-8064500D02*
X21640000Y-8064500D01*
X21590000Y-8268500D02*
X21590000Y-8368500D01*
X21540000Y-8318500D02*
X21640000Y-8318500D01*
X21590000Y-8522500D02*
X21590000Y-8622500D01*
X21540000Y-8572500D02*
X21640000Y-8572500D01*
X21590000Y-8776500D02*
X21590000Y-8876500D01*
X21540000Y-8826500D02*
X21640000Y-8826500D01*
X21590000Y-9030500D02*
X21590000Y-9130500D01*
X21540000Y-9080500D02*
X21640000Y-9080500D01*
X21590000Y-9284500D02*
X21590000Y-9384500D01*
X21540000Y-9334500D02*
X21640000Y-9334500D01*
X21590000Y-9538500D02*
X21590000Y-9638500D01*
X21540000Y-9588500D02*
X21640000Y-9588500D01*
X21590000Y-9792500D02*
X21590000Y-9892500D01*
X21540000Y-9842500D02*
X21640000Y-9842500D01*
X21590000Y-10046500D02*
X21590000Y-10146500D01*
X21540000Y-10096500D02*
X21640000Y-10096500D01*
X21590000Y-10300500D02*
X21590000Y-10400500D01*
X21540000Y-10350500D02*
X21640000Y-10350500D01*
X21590000Y-10554500D02*
X21590000Y-10654500D01*
X21540000Y-10604500D02*
X21640000Y-10604500D01*
X21590000Y-10808500D02*
X21590000Y-10908500D01*
X21540000Y-10858500D02*
X21640000Y-10858500D01*
X21590000Y-11062500D02*
X21590000Y-11162500D01*
X21540000Y-11112500D02*
X21640000Y-11112500D01*
X21590000Y-11316500D02*
X21590000Y-11416500D01*
X21540000Y-11366500D02*
X21640000Y-11366500D01*
X21590000Y-11570500D02*
X21590000Y-11670500D01*
X21540000Y-11620500D02*
X21640000Y-11620500D01*
X21590000Y-11824500D02*
X21590000Y-11924500D01*
X21540000Y-11874500D02*
X21640000Y-11874500D01*
X21590000Y-12078500D02*
X21590000Y-12178500D01*
X21540000Y-12128500D02*
X21640000Y-12128500D01*
X21590000Y-12332500D02*
X21590000Y-12432500D01*
X21540000Y-12382500D02*
X21640000Y-12382500D01*
X21590000Y-12586500D02*
X21590000Y-12686500D01*
X21540000Y-12636500D02*
X21640000Y-12636500D01*
X21590000Y-12840500D02*
X21590000Y-12940500D01*
X21540000Y-12890500D02*
X21640000Y-12890500D01*
X21844000Y-4966500D02*
X21844000Y-5066500D01*
X21794000Y-5016500D02*
X21894000Y-5016500D01*
X21844000Y-5220500D02*
X21844000Y-5320500D01*
X21794000Y-5270500D02*
X21894000Y-5270500D01*
X21844000Y-5474500D02*
X21844000Y-5574500D01*
X21794000Y-5524500D02*
X21894000Y-5524500D01*
X21844000Y-5728500D02*
X21844000Y-5828500D01*
X21794000Y-5778500D02*
X21894000Y-5778500D01*
X21844000Y-5982500D02*
X21844000Y-6082500D01*
X21794000Y-6032500D02*
X21894000Y-6032500D01*
X21844000Y-6236500D02*
X21844000Y-6336500D01*
X21794000Y-6286500D02*
X21894000Y-6286500D01*
X21844000Y-6490500D02*
X21844000Y-6590500D01*
X21794000Y-6540500D02*
X21894000Y-6540500D01*
X21844000Y-6744500D02*
X21844000Y-6844500D01*
X21794000Y-6794500D02*
X21894000Y-6794500D01*
X21844000Y-6998500D02*
X21844000Y-7098500D01*
X21794000Y-7048500D02*
X21894000Y-7048500D01*
X21844000Y-7252500D02*
X21844000Y-7352500D01*
X21794000Y-7302500D02*
X21894000Y-7302500D01*
X21844000Y-7506500D02*
X21844000Y-7606500D01*
X21794000Y-7556500D02*
X21894000Y-7556500D01*
X21844000Y-7760500D02*
X21844000Y-7860500D01*
X21794000Y-7810500D02*
X21894000Y-7810500D01*
X21844000Y-8014500D02*
X21844000Y-8114500D01*
X21794000Y-8064500D02*
X21894000Y-8064500D01*
X21844000Y-8268500D02*
X21844000Y-8368500D01*
X21794000Y-8318500D02*
X21894000Y-8318500D01*
X21844000Y-8522500D02*
X21844000Y-8622500D01*
X21794000Y-8572500D02*
X21894000Y-8572500D01*
X21844000Y-8776500D02*
X21844000Y-8876500D01*
X21794000Y-8826500D02*
X21894000Y-8826500D01*
X21844000Y-9030500D02*
X21844000Y-9130500D01*
X21794000Y-9080500D02*
X21894000Y-9080500D01*
X21844000Y-9284500D02*
X21844000Y-9384500D01*
X21794000Y-9334500D02*
X21894000Y-9334500D01*
X21844000Y-9538500D02*
X21844000Y-9638500D01*
X21794000Y-9588500D02*
X21894000Y-9588500D01*
X21844000Y-9792500D02*
X21844000Y-9892500D01*
X21794000Y-9842500D02*
X21894000Y-9842500D01*
X21844000Y-10046500D02*
X21844000Y-10146500D01*
X21794000Y-10096500D02*
X21894000Y-10096500D01*
X21844000Y-10300500D02*
X21844000Y-10400500D01*
X21794000Y-10350500D02*
X21894000Y-10350500D01*
X21844000Y-10554500D02*
X21844000Y-10654500D01*
X21794000Y-10604500D02*
X21894000Y-10604500D01*
X21844000Y-10808500D02*
X21844000Y-10908500D01*
X21794000Y-10858500D02*
X21894000Y-10858500D01*
X21844000Y-11062500D02*
X21844000Y-11162500D01*
X21794000Y-11112500D02*
X21894000Y-11112500D01*
X21844000Y-11316500D02*
X21844000Y-11416500D01*
X21794000Y-11366500D02*
X21894000Y-11366500D01*
X21844000Y-11570500D02*
X21844000Y-11670500D01*
X21794000Y-11620500D02*
X21894000Y-11620500D01*
X21844000Y-11824500D02*
X21844000Y-11924500D01*
X21794000Y-11874500D02*
X21894000Y-11874500D01*
X21844000Y-12078500D02*
X21844000Y-12178500D01*
X21794000Y-12128500D02*
X21894000Y-12128500D01*
X21844000Y-12332500D02*
X21844000Y-12432500D01*
X21794000Y-12382500D02*
X21894000Y-12382500D01*
X21844000Y-12586500D02*
X21844000Y-12686500D01*
X21794000Y-12636500D02*
X21894000Y-12636500D01*
X21844000Y-12840500D02*
X21844000Y-12940500D01*
X21794000Y-12890500D02*
X21894000Y-12890500D01*
D11*
X6680928Y-14454714D02*
X6680928Y-14154714D01*
X6752357Y-14154714D01*
X6795214Y-14169000D01*
X6823786Y-14197571D01*
X6838071Y-14226143D01*
X6852357Y-14283286D01*
X6852357Y-14326143D01*
X6838071Y-14383286D01*
X6823786Y-14411857D01*
X6795214Y-14440429D01*
X6752357Y-14454714D01*
X6680928Y-14454714D01*
X6980928Y-14454714D02*
X6980928Y-14254714D01*
X6980928Y-14311857D02*
X6995214Y-14283286D01*
X7009500Y-14269000D01*
X7038071Y-14254714D01*
X7066643Y-14254714D01*
X7166643Y-14454714D02*
X7166643Y-14254714D01*
X7166643Y-14154714D02*
X7152357Y-14169000D01*
X7166643Y-14183286D01*
X7180928Y-14169000D01*
X7166643Y-14154714D01*
X7166643Y-14183286D01*
X7352357Y-14454714D02*
X7323786Y-14440429D01*
X7309500Y-14411857D01*
X7309500Y-14154714D01*
X7509500Y-14454714D02*
X7480928Y-14440429D01*
X7466643Y-14411857D01*
X7466643Y-14154714D01*
X7852357Y-14454714D02*
X7852357Y-14154714D01*
X7952357Y-14369000D01*
X8052357Y-14154714D01*
X8052357Y-14454714D01*
X8323786Y-14454714D02*
X8323786Y-14297571D01*
X8309500Y-14269000D01*
X8280928Y-14254714D01*
X8223786Y-14254714D01*
X8195214Y-14269000D01*
X8323786Y-14440429D02*
X8295214Y-14454714D01*
X8223786Y-14454714D01*
X8195214Y-14440429D01*
X8180928Y-14411857D01*
X8180928Y-14383286D01*
X8195214Y-14354714D01*
X8223786Y-14340429D01*
X8295214Y-14340429D01*
X8323786Y-14326143D01*
X8466643Y-14254714D02*
X8466643Y-14554714D01*
X8466643Y-14269000D02*
X8495214Y-14254714D01*
X8552357Y-14254714D01*
X8580928Y-14269000D01*
X8595214Y-14283286D01*
X8609500Y-14311857D01*
X8609500Y-14397571D01*
X8595214Y-14426143D01*
X8580928Y-14440429D01*
X8552357Y-14454714D01*
X8495214Y-14454714D01*
X8466643Y-14440429D01*
X8738071Y-14426143D02*
X8752357Y-14440429D01*
X8738071Y-14454714D01*
X8723786Y-14440429D01*
X8738071Y-14426143D01*
X8738071Y-14454714D01*
X8738071Y-14269000D02*
X8752357Y-14283286D01*
X8738071Y-14297571D01*
X8723786Y-14283286D01*
X8738071Y-14269000D01*
X8738071Y-14297571D01*
X6354500Y-14929000D02*
X6394500Y-14969000D01*
X6394500Y-14929000D02*
X6354500Y-14969000D01*
X6738071Y-14784714D02*
X6766643Y-14784714D01*
X6795214Y-14799000D01*
X6809500Y-14813286D01*
X6823786Y-14841857D01*
X6838071Y-14899000D01*
X6838071Y-14970429D01*
X6823786Y-15027571D01*
X6809500Y-15056143D01*
X6795214Y-15070429D01*
X6766643Y-15084714D01*
X6738071Y-15084714D01*
X6709500Y-15070429D01*
X6695214Y-15056143D01*
X6680928Y-15027571D01*
X6666643Y-14970429D01*
X6666643Y-14899000D01*
X6680928Y-14841857D01*
X6695214Y-14813286D01*
X6709500Y-14799000D01*
X6738071Y-14784714D01*
X6966643Y-15056143D02*
X6980928Y-15070429D01*
X6966643Y-15084714D01*
X6952357Y-15070429D01*
X6966643Y-15056143D01*
X6966643Y-15084714D01*
X7238071Y-14884714D02*
X7238071Y-15084714D01*
X7166643Y-14770429D02*
X7095214Y-14984714D01*
X7280928Y-14984714D01*
X7452357Y-14784714D02*
X7480928Y-14784714D01*
X7509500Y-14799000D01*
X7523786Y-14813286D01*
X7538071Y-14841857D01*
X7552357Y-14899000D01*
X7552357Y-14970429D01*
X7538071Y-15027571D01*
X7523786Y-15056143D01*
X7509500Y-15070429D01*
X7480928Y-15084714D01*
X7452357Y-15084714D01*
X7423786Y-15070429D01*
X7409500Y-15056143D01*
X7395214Y-15027571D01*
X7380928Y-14970429D01*
X7380928Y-14899000D01*
X7395214Y-14841857D01*
X7409500Y-14813286D01*
X7423786Y-14799000D01*
X7452357Y-14784714D01*
X7738071Y-14784714D02*
X7766643Y-14784714D01*
X7795214Y-14799000D01*
X7809500Y-14813286D01*
X7823786Y-14841857D01*
X7838071Y-14899000D01*
X7838071Y-14970429D01*
X7823786Y-15027571D01*
X7809500Y-15056143D01*
X7795214Y-15070429D01*
X7766643Y-15084714D01*
X7738071Y-15084714D01*
X7709500Y-15070429D01*
X7695214Y-15056143D01*
X7680928Y-15027571D01*
X7666643Y-14970429D01*
X7666643Y-14899000D01*
X7680928Y-14841857D01*
X7695214Y-14813286D01*
X7709500Y-14799000D01*
X7738071Y-14784714D01*
X7966643Y-15084714D02*
X7966643Y-14884714D01*
X7966643Y-14913286D02*
X7980928Y-14899000D01*
X8009500Y-14884714D01*
X8052357Y-14884714D01*
X8080928Y-14899000D01*
X8095214Y-14927571D01*
X8095214Y-15084714D01*
X8095214Y-14927571D02*
X8109500Y-14899000D01*
X8138071Y-14884714D01*
X8180928Y-14884714D01*
X8209500Y-14899000D01*
X8223786Y-14927571D01*
X8223786Y-15084714D01*
X8366643Y-15084714D02*
X8366643Y-14884714D01*
X8366643Y-14913286D02*
X8380928Y-14899000D01*
X8409500Y-14884714D01*
X8452357Y-14884714D01*
X8480928Y-14899000D01*
X8495214Y-14927571D01*
X8495214Y-15084714D01*
X8495214Y-14927571D02*
X8509500Y-14899000D01*
X8538071Y-14884714D01*
X8580928Y-14884714D01*
X8609500Y-14899000D01*
X8623786Y-14927571D01*
X8623786Y-15084714D01*
X9209500Y-14770429D02*
X8952357Y-15156143D01*
X9595214Y-14784714D02*
X9623786Y-14784714D01*
X9652357Y-14799000D01*
X9666643Y-14813286D01*
X9680928Y-14841857D01*
X9695214Y-14899000D01*
X9695214Y-14970429D01*
X9680928Y-15027571D01*
X9666643Y-15056143D01*
X9652357Y-15070429D01*
X9623786Y-15084714D01*
X9595214Y-15084714D01*
X9566643Y-15070429D01*
X9552357Y-15056143D01*
X9538071Y-15027571D01*
X9523786Y-14970429D01*
X9523786Y-14899000D01*
X9538071Y-14841857D01*
X9552357Y-14813286D01*
X9566643Y-14799000D01*
X9595214Y-14784714D01*
X9823786Y-15056143D02*
X9838071Y-15070429D01*
X9823786Y-15084714D01*
X9809500Y-15070429D01*
X9823786Y-15056143D01*
X9823786Y-15084714D01*
X10023786Y-14784714D02*
X10052357Y-14784714D01*
X10080928Y-14799000D01*
X10095214Y-14813286D01*
X10109500Y-14841857D01*
X10123786Y-14899000D01*
X10123786Y-14970429D01*
X10109500Y-15027571D01*
X10095214Y-15056143D01*
X10080928Y-15070429D01*
X10052357Y-15084714D01*
X10023786Y-15084714D01*
X9995214Y-15070429D01*
X9980928Y-15056143D01*
X9966643Y-15027571D01*
X9952357Y-14970429D01*
X9952357Y-14899000D01*
X9966643Y-14841857D01*
X9980928Y-14813286D01*
X9995214Y-14799000D01*
X10023786Y-14784714D01*
X10409500Y-15084714D02*
X10238071Y-15084714D01*
X10323786Y-15084714D02*
X10323786Y-14784714D01*
X10295214Y-14827571D01*
X10266643Y-14856143D01*
X10238071Y-14870429D01*
X10680928Y-14784714D02*
X10538071Y-14784714D01*
X10523786Y-14927571D01*
X10538071Y-14913286D01*
X10566643Y-14899000D01*
X10638071Y-14899000D01*
X10666643Y-14913286D01*
X10680928Y-14927571D01*
X10695214Y-14956143D01*
X10695214Y-15027571D01*
X10680928Y-15056143D01*
X10666643Y-15070429D01*
X10638071Y-15084714D01*
X10566643Y-15084714D01*
X10538071Y-15070429D01*
X10523786Y-15056143D01*
X10795214Y-14784714D02*
X10995214Y-14784714D01*
X10866643Y-15084714D01*
X11095214Y-14784714D02*
X11095214Y-14841857D01*
X11209500Y-14784714D02*
X11209500Y-14841857D01*
X11652357Y-15199000D02*
X11638071Y-15184714D01*
X11609500Y-15141857D01*
X11595214Y-15113286D01*
X11580928Y-15070429D01*
X11566643Y-14999000D01*
X11566643Y-14941857D01*
X11580928Y-14870429D01*
X11595214Y-14827571D01*
X11609500Y-14799000D01*
X11638071Y-14756143D01*
X11652357Y-14741857D01*
X11923786Y-15084714D02*
X11752357Y-15084714D01*
X11838071Y-15084714D02*
X11838071Y-14784714D01*
X11809500Y-14827571D01*
X11780928Y-14856143D01*
X11752357Y-14870429D01*
X12023786Y-14784714D02*
X12209500Y-14784714D01*
X12109500Y-14899000D01*
X12152357Y-14899000D01*
X12180928Y-14913286D01*
X12195214Y-14927571D01*
X12209500Y-14956143D01*
X12209500Y-15027571D01*
X12195214Y-15056143D01*
X12180928Y-15070429D01*
X12152357Y-15084714D01*
X12066643Y-15084714D01*
X12038071Y-15070429D01*
X12023786Y-15056143D01*
X12323786Y-14813286D02*
X12338071Y-14799000D01*
X12366643Y-14784714D01*
X12438071Y-14784714D01*
X12466643Y-14799000D01*
X12480928Y-14813286D01*
X12495214Y-14841857D01*
X12495214Y-14870429D01*
X12480928Y-14913286D01*
X12309500Y-15084714D01*
X12495214Y-15084714D01*
X12852357Y-15084714D02*
X12852357Y-14784714D01*
X12980928Y-15084714D02*
X12980928Y-14927571D01*
X12966643Y-14899000D01*
X12938071Y-14884714D01*
X12895214Y-14884714D01*
X12866643Y-14899000D01*
X12852357Y-14913286D01*
X13166643Y-15084714D02*
X13138071Y-15070429D01*
X13123786Y-15056143D01*
X13109500Y-15027571D01*
X13109500Y-14941857D01*
X13123786Y-14913286D01*
X13138071Y-14899000D01*
X13166643Y-14884714D01*
X13209500Y-14884714D01*
X13238071Y-14899000D01*
X13252357Y-14913286D01*
X13266643Y-14941857D01*
X13266643Y-15027571D01*
X13252357Y-15056143D01*
X13238071Y-15070429D01*
X13209500Y-15084714D01*
X13166643Y-15084714D01*
X13438071Y-15084714D02*
X13409500Y-15070429D01*
X13395214Y-15041857D01*
X13395214Y-14784714D01*
X13666643Y-15070429D02*
X13638071Y-15084714D01*
X13580928Y-15084714D01*
X13552357Y-15070429D01*
X13538071Y-15041857D01*
X13538071Y-14927571D01*
X13552357Y-14899000D01*
X13580928Y-14884714D01*
X13638071Y-14884714D01*
X13666643Y-14899000D01*
X13680928Y-14927571D01*
X13680928Y-14956143D01*
X13538071Y-14984714D01*
X13795214Y-15070429D02*
X13823786Y-15084714D01*
X13880928Y-15084714D01*
X13909500Y-15070429D01*
X13923786Y-15041857D01*
X13923786Y-15027571D01*
X13909500Y-14999000D01*
X13880928Y-14984714D01*
X13838071Y-14984714D01*
X13809500Y-14970429D01*
X13795214Y-14941857D01*
X13795214Y-14927571D01*
X13809500Y-14899000D01*
X13838071Y-14884714D01*
X13880928Y-14884714D01*
X13909500Y-14899000D01*
X14023786Y-15199000D02*
X14038071Y-15184714D01*
X14066643Y-15141857D01*
X14080928Y-15113286D01*
X14095214Y-15070429D01*
X14109500Y-14999000D01*
X14109500Y-14941857D01*
X14095214Y-14870429D01*
X14080928Y-14827571D01*
X14066643Y-14799000D01*
X14038071Y-14756143D01*
X14023786Y-14741857D01*
X6394500Y-15345000D02*
G75*
G03*
X6394500Y-15345000I-40000J0D01*
G01*
X6738071Y-15180714D02*
X6766643Y-15180714D01*
X6795214Y-15195000D01*
X6809500Y-15209286D01*
X6823786Y-15237857D01*
X6838071Y-15295000D01*
X6838071Y-15366429D01*
X6823786Y-15423571D01*
X6809500Y-15452143D01*
X6795214Y-15466429D01*
X6766643Y-15480714D01*
X6738071Y-15480714D01*
X6709500Y-15466429D01*
X6695214Y-15452143D01*
X6680928Y-15423571D01*
X6666643Y-15366429D01*
X6666643Y-15295000D01*
X6680928Y-15237857D01*
X6695214Y-15209286D01*
X6709500Y-15195000D01*
X6738071Y-15180714D01*
X6966643Y-15452143D02*
X6980928Y-15466429D01*
X6966643Y-15480714D01*
X6952357Y-15466429D01*
X6966643Y-15452143D01*
X6966643Y-15480714D01*
X7152357Y-15309286D02*
X7123786Y-15295000D01*
X7109500Y-15280714D01*
X7095214Y-15252143D01*
X7095214Y-15237857D01*
X7109500Y-15209286D01*
X7123786Y-15195000D01*
X7152357Y-15180714D01*
X7209500Y-15180714D01*
X7238071Y-15195000D01*
X7252357Y-15209286D01*
X7266643Y-15237857D01*
X7266643Y-15252143D01*
X7252357Y-15280714D01*
X7238071Y-15295000D01*
X7209500Y-15309286D01*
X7152357Y-15309286D01*
X7123786Y-15323571D01*
X7109500Y-15337857D01*
X7095214Y-15366429D01*
X7095214Y-15423571D01*
X7109500Y-15452143D01*
X7123786Y-15466429D01*
X7152357Y-15480714D01*
X7209500Y-15480714D01*
X7238071Y-15466429D01*
X7252357Y-15452143D01*
X7266643Y-15423571D01*
X7266643Y-15366429D01*
X7252357Y-15337857D01*
X7238071Y-15323571D01*
X7209500Y-15309286D01*
X7452357Y-15180714D02*
X7480928Y-15180714D01*
X7509500Y-15195000D01*
X7523786Y-15209286D01*
X7538071Y-15237857D01*
X7552357Y-15295000D01*
X7552357Y-15366429D01*
X7538071Y-15423571D01*
X7523786Y-15452143D01*
X7509500Y-15466429D01*
X7480928Y-15480714D01*
X7452357Y-15480714D01*
X7423786Y-15466429D01*
X7409500Y-15452143D01*
X7395214Y-15423571D01*
X7380928Y-15366429D01*
X7380928Y-15295000D01*
X7395214Y-15237857D01*
X7409500Y-15209286D01*
X7423786Y-15195000D01*
X7452357Y-15180714D01*
X7738071Y-15180714D02*
X7766643Y-15180714D01*
X7795214Y-15195000D01*
X7809500Y-15209286D01*
X7823786Y-15237857D01*
X7838071Y-15295000D01*
X7838071Y-15366429D01*
X7823786Y-15423571D01*
X7809500Y-15452143D01*
X7795214Y-15466429D01*
X7766643Y-15480714D01*
X7738071Y-15480714D01*
X7709500Y-15466429D01*
X7695214Y-15452143D01*
X7680928Y-15423571D01*
X7666643Y-15366429D01*
X7666643Y-15295000D01*
X7680928Y-15237857D01*
X7695214Y-15209286D01*
X7709500Y-15195000D01*
X7738071Y-15180714D01*
X7966643Y-15480714D02*
X7966643Y-15280714D01*
X7966643Y-15309286D02*
X7980928Y-15295000D01*
X8009500Y-15280714D01*
X8052357Y-15280714D01*
X8080928Y-15295000D01*
X8095214Y-15323571D01*
X8095214Y-15480714D01*
X8095214Y-15323571D02*
X8109500Y-15295000D01*
X8138071Y-15280714D01*
X8180928Y-15280714D01*
X8209500Y-15295000D01*
X8223786Y-15323571D01*
X8223786Y-15480714D01*
X8366643Y-15480714D02*
X8366643Y-15280714D01*
X8366643Y-15309286D02*
X8380928Y-15295000D01*
X8409500Y-15280714D01*
X8452357Y-15280714D01*
X8480928Y-15295000D01*
X8495214Y-15323571D01*
X8495214Y-15480714D01*
X8495214Y-15323571D02*
X8509500Y-15295000D01*
X8538071Y-15280714D01*
X8580928Y-15280714D01*
X8609500Y-15295000D01*
X8623786Y-15323571D01*
X8623786Y-15480714D01*
X9209500Y-15166429D02*
X8952357Y-15552143D01*
X9595214Y-15180714D02*
X9623786Y-15180714D01*
X9652357Y-15195000D01*
X9666643Y-15209286D01*
X9680928Y-15237857D01*
X9695214Y-15295000D01*
X9695214Y-15366429D01*
X9680928Y-15423571D01*
X9666643Y-15452143D01*
X9652357Y-15466429D01*
X9623786Y-15480714D01*
X9595214Y-15480714D01*
X9566643Y-15466429D01*
X9552357Y-15452143D01*
X9538071Y-15423571D01*
X9523786Y-15366429D01*
X9523786Y-15295000D01*
X9538071Y-15237857D01*
X9552357Y-15209286D01*
X9566643Y-15195000D01*
X9595214Y-15180714D01*
X9823786Y-15452143D02*
X9838071Y-15466429D01*
X9823786Y-15480714D01*
X9809500Y-15466429D01*
X9823786Y-15452143D01*
X9823786Y-15480714D01*
X10023786Y-15180714D02*
X10052357Y-15180714D01*
X10080928Y-15195000D01*
X10095214Y-15209286D01*
X10109500Y-15237857D01*
X10123786Y-15295000D01*
X10123786Y-15366429D01*
X10109500Y-15423571D01*
X10095214Y-15452143D01*
X10080928Y-15466429D01*
X10052357Y-15480714D01*
X10023786Y-15480714D01*
X9995214Y-15466429D01*
X9980928Y-15452143D01*
X9966643Y-15423571D01*
X9952357Y-15366429D01*
X9952357Y-15295000D01*
X9966643Y-15237857D01*
X9980928Y-15209286D01*
X9995214Y-15195000D01*
X10023786Y-15180714D01*
X10223786Y-15180714D02*
X10409500Y-15180714D01*
X10309500Y-15295000D01*
X10352357Y-15295000D01*
X10380928Y-15309286D01*
X10395214Y-15323571D01*
X10409500Y-15352143D01*
X10409500Y-15423571D01*
X10395214Y-15452143D01*
X10380928Y-15466429D01*
X10352357Y-15480714D01*
X10266643Y-15480714D01*
X10238071Y-15466429D01*
X10223786Y-15452143D01*
X10695214Y-15480714D02*
X10523786Y-15480714D01*
X10609500Y-15480714D02*
X10609500Y-15180714D01*
X10580928Y-15223571D01*
X10552357Y-15252143D01*
X10523786Y-15266429D01*
X10966643Y-15180714D02*
X10823786Y-15180714D01*
X10809500Y-15323571D01*
X10823786Y-15309286D01*
X10852357Y-15295000D01*
X10923786Y-15295000D01*
X10952357Y-15309286D01*
X10966643Y-15323571D01*
X10980928Y-15352143D01*
X10980928Y-15423571D01*
X10966643Y-15452143D01*
X10952357Y-15466429D01*
X10923786Y-15480714D01*
X10852357Y-15480714D01*
X10823786Y-15466429D01*
X10809500Y-15452143D01*
X11095214Y-15180714D02*
X11095214Y-15237857D01*
X11209500Y-15180714D02*
X11209500Y-15237857D01*
X11652357Y-15595000D02*
X11638071Y-15580714D01*
X11609500Y-15537857D01*
X11595214Y-15509286D01*
X11580928Y-15466429D01*
X11566643Y-15395000D01*
X11566643Y-15337857D01*
X11580928Y-15266429D01*
X11595214Y-15223571D01*
X11609500Y-15195000D01*
X11638071Y-15152143D01*
X11652357Y-15137857D01*
X11738071Y-15180714D02*
X11923786Y-15180714D01*
X11823786Y-15295000D01*
X11866643Y-15295000D01*
X11895214Y-15309286D01*
X11909500Y-15323571D01*
X11923786Y-15352143D01*
X11923786Y-15423571D01*
X11909500Y-15452143D01*
X11895214Y-15466429D01*
X11866643Y-15480714D01*
X11780928Y-15480714D01*
X11752357Y-15466429D01*
X11738071Y-15452143D01*
X12180928Y-15280714D02*
X12180928Y-15480714D01*
X12109500Y-15166429D02*
X12038071Y-15380714D01*
X12223786Y-15380714D01*
X12480928Y-15180714D02*
X12338071Y-15180714D01*
X12323786Y-15323571D01*
X12338071Y-15309286D01*
X12366643Y-15295000D01*
X12438071Y-15295000D01*
X12466643Y-15309286D01*
X12480928Y-15323571D01*
X12495214Y-15352143D01*
X12495214Y-15423571D01*
X12480928Y-15452143D01*
X12466643Y-15466429D01*
X12438071Y-15480714D01*
X12366643Y-15480714D01*
X12338071Y-15466429D01*
X12323786Y-15452143D01*
X12852357Y-15480714D02*
X12852357Y-15180714D01*
X12980928Y-15480714D02*
X12980928Y-15323571D01*
X12966643Y-15295000D01*
X12938071Y-15280714D01*
X12895214Y-15280714D01*
X12866643Y-15295000D01*
X12852357Y-15309286D01*
X13166643Y-15480714D02*
X13138071Y-15466429D01*
X13123786Y-15452143D01*
X13109500Y-15423571D01*
X13109500Y-15337857D01*
X13123786Y-15309286D01*
X13138071Y-15295000D01*
X13166643Y-15280714D01*
X13209500Y-15280714D01*
X13238071Y-15295000D01*
X13252357Y-15309286D01*
X13266643Y-15337857D01*
X13266643Y-15423571D01*
X13252357Y-15452143D01*
X13238071Y-15466429D01*
X13209500Y-15480714D01*
X13166643Y-15480714D01*
X13438071Y-15480714D02*
X13409500Y-15466429D01*
X13395214Y-15437857D01*
X13395214Y-15180714D01*
X13666643Y-15466429D02*
X13638071Y-15480714D01*
X13580928Y-15480714D01*
X13552357Y-15466429D01*
X13538071Y-15437857D01*
X13538071Y-15323571D01*
X13552357Y-15295000D01*
X13580928Y-15280714D01*
X13638071Y-15280714D01*
X13666643Y-15295000D01*
X13680928Y-15323571D01*
X13680928Y-15352143D01*
X13538071Y-15380714D01*
X13795214Y-15466429D02*
X13823786Y-15480714D01*
X13880928Y-15480714D01*
X13909500Y-15466429D01*
X13923786Y-15437857D01*
X13923786Y-15423571D01*
X13909500Y-15395000D01*
X13880928Y-15380714D01*
X13838071Y-15380714D01*
X13809500Y-15366429D01*
X13795214Y-15337857D01*
X13795214Y-15323571D01*
X13809500Y-15295000D01*
X13838071Y-15280714D01*
X13880928Y-15280714D01*
X13909500Y-15295000D01*
X14023786Y-15595000D02*
X14038071Y-15580714D01*
X14066643Y-15537857D01*
X14080928Y-15509286D01*
X14095214Y-15466429D01*
X14109500Y-15395000D01*
X14109500Y-15337857D01*
X14095214Y-15266429D01*
X14080928Y-15223571D01*
X14066643Y-15195000D01*
X14038071Y-15152143D01*
X14023786Y-15137857D01*
X6344500Y-15691000D02*
X6344500Y-15791000D01*
X6294500Y-15741000D02*
X6394500Y-15741000D01*
X6838071Y-15876714D02*
X6666643Y-15876714D01*
X6752357Y-15876714D02*
X6752357Y-15576714D01*
X6723786Y-15619571D01*
X6695214Y-15648143D01*
X6666643Y-15662429D01*
X6966643Y-15848143D02*
X6980928Y-15862429D01*
X6966643Y-15876714D01*
X6952357Y-15862429D01*
X6966643Y-15848143D01*
X6966643Y-15876714D01*
X7166643Y-15576714D02*
X7195214Y-15576714D01*
X7223786Y-15591000D01*
X7238071Y-15605286D01*
X7252357Y-15633857D01*
X7266643Y-15691000D01*
X7266643Y-15762429D01*
X7252357Y-15819571D01*
X7238071Y-15848143D01*
X7223786Y-15862429D01*
X7195214Y-15876714D01*
X7166643Y-15876714D01*
X7138071Y-15862429D01*
X7123786Y-15848143D01*
X7109500Y-15819571D01*
X7095214Y-15762429D01*
X7095214Y-15691000D01*
X7109500Y-15633857D01*
X7123786Y-15605286D01*
X7138071Y-15591000D01*
X7166643Y-15576714D01*
X7452357Y-15576714D02*
X7480928Y-15576714D01*
X7509500Y-15591000D01*
X7523786Y-15605286D01*
X7538071Y-15633857D01*
X7552357Y-15691000D01*
X7552357Y-15762429D01*
X7538071Y-15819571D01*
X7523786Y-15848143D01*
X7509500Y-15862429D01*
X7480928Y-15876714D01*
X7452357Y-15876714D01*
X7423786Y-15862429D01*
X7409500Y-15848143D01*
X7395214Y-15819571D01*
X7380928Y-15762429D01*
X7380928Y-15691000D01*
X7395214Y-15633857D01*
X7409500Y-15605286D01*
X7423786Y-15591000D01*
X7452357Y-15576714D01*
X7738071Y-15576714D02*
X7766643Y-15576714D01*
X7795214Y-15591000D01*
X7809500Y-15605286D01*
X7823786Y-15633857D01*
X7838071Y-15691000D01*
X7838071Y-15762429D01*
X7823786Y-15819571D01*
X7809500Y-15848143D01*
X7795214Y-15862429D01*
X7766643Y-15876714D01*
X7738071Y-15876714D01*
X7709500Y-15862429D01*
X7695214Y-15848143D01*
X7680928Y-15819571D01*
X7666643Y-15762429D01*
X7666643Y-15691000D01*
X7680928Y-15633857D01*
X7695214Y-15605286D01*
X7709500Y-15591000D01*
X7738071Y-15576714D01*
X7966643Y-15876714D02*
X7966643Y-15676714D01*
X7966643Y-15705286D02*
X7980928Y-15691000D01*
X8009500Y-15676714D01*
X8052357Y-15676714D01*
X8080928Y-15691000D01*
X8095214Y-15719571D01*
X8095214Y-15876714D01*
X8095214Y-15719571D02*
X8109500Y-15691000D01*
X8138071Y-15676714D01*
X8180928Y-15676714D01*
X8209500Y-15691000D01*
X8223786Y-15719571D01*
X8223786Y-15876714D01*
X8366643Y-15876714D02*
X8366643Y-15676714D01*
X8366643Y-15705286D02*
X8380928Y-15691000D01*
X8409500Y-15676714D01*
X8452357Y-15676714D01*
X8480928Y-15691000D01*
X8495214Y-15719571D01*
X8495214Y-15876714D01*
X8495214Y-15719571D02*
X8509500Y-15691000D01*
X8538071Y-15676714D01*
X8580928Y-15676714D01*
X8609500Y-15691000D01*
X8623786Y-15719571D01*
X8623786Y-15876714D01*
X9209500Y-15562429D02*
X8952357Y-15948143D01*
X9595214Y-15576714D02*
X9623786Y-15576714D01*
X9652357Y-15591000D01*
X9666643Y-15605286D01*
X9680928Y-15633857D01*
X9695214Y-15691000D01*
X9695214Y-15762429D01*
X9680928Y-15819571D01*
X9666643Y-15848143D01*
X9652357Y-15862429D01*
X9623786Y-15876714D01*
X9595214Y-15876714D01*
X9566643Y-15862429D01*
X9552357Y-15848143D01*
X9538071Y-15819571D01*
X9523786Y-15762429D01*
X9523786Y-15691000D01*
X9538071Y-15633857D01*
X9552357Y-15605286D01*
X9566643Y-15591000D01*
X9595214Y-15576714D01*
X9823786Y-15848143D02*
X9838071Y-15862429D01*
X9823786Y-15876714D01*
X9809500Y-15862429D01*
X9823786Y-15848143D01*
X9823786Y-15876714D01*
X10023786Y-15576714D02*
X10052357Y-15576714D01*
X10080928Y-15591000D01*
X10095214Y-15605286D01*
X10109500Y-15633857D01*
X10123786Y-15691000D01*
X10123786Y-15762429D01*
X10109500Y-15819571D01*
X10095214Y-15848143D01*
X10080928Y-15862429D01*
X10052357Y-15876714D01*
X10023786Y-15876714D01*
X9995214Y-15862429D01*
X9980928Y-15848143D01*
X9966643Y-15819571D01*
X9952357Y-15762429D01*
X9952357Y-15691000D01*
X9966643Y-15633857D01*
X9980928Y-15605286D01*
X9995214Y-15591000D01*
X10023786Y-15576714D01*
X10223786Y-15576714D02*
X10409500Y-15576714D01*
X10309500Y-15691000D01*
X10352357Y-15691000D01*
X10380928Y-15705286D01*
X10395214Y-15719571D01*
X10409500Y-15748143D01*
X10409500Y-15819571D01*
X10395214Y-15848143D01*
X10380928Y-15862429D01*
X10352357Y-15876714D01*
X10266643Y-15876714D01*
X10238071Y-15862429D01*
X10223786Y-15848143D01*
X10552357Y-15876714D02*
X10609500Y-15876714D01*
X10638071Y-15862429D01*
X10652357Y-15848143D01*
X10680928Y-15805286D01*
X10695214Y-15748143D01*
X10695214Y-15633857D01*
X10680928Y-15605286D01*
X10666643Y-15591000D01*
X10638071Y-15576714D01*
X10580928Y-15576714D01*
X10552357Y-15591000D01*
X10538071Y-15605286D01*
X10523786Y-15633857D01*
X10523786Y-15705286D01*
X10538071Y-15733857D01*
X10552357Y-15748143D01*
X10580928Y-15762429D01*
X10638071Y-15762429D01*
X10666643Y-15748143D01*
X10680928Y-15733857D01*
X10695214Y-15705286D01*
X10952357Y-15676714D02*
X10952357Y-15876714D01*
X10880928Y-15562429D02*
X10809500Y-15776714D01*
X10995214Y-15776714D01*
X11095214Y-15576714D02*
X11095214Y-15633857D01*
X11209500Y-15576714D02*
X11209500Y-15633857D01*
X11652357Y-15991000D02*
X11638071Y-15976714D01*
X11609500Y-15933857D01*
X11595214Y-15905286D01*
X11580928Y-15862429D01*
X11566643Y-15791000D01*
X11566643Y-15733857D01*
X11580928Y-15662429D01*
X11595214Y-15619571D01*
X11609500Y-15591000D01*
X11638071Y-15548143D01*
X11652357Y-15533857D01*
X11923786Y-15876714D02*
X11752357Y-15876714D01*
X11838071Y-15876714D02*
X11838071Y-15576714D01*
X11809500Y-15619571D01*
X11780928Y-15648143D01*
X11752357Y-15662429D01*
X12109500Y-15576714D02*
X12138071Y-15576714D01*
X12166643Y-15591000D01*
X12180928Y-15605286D01*
X12195214Y-15633857D01*
X12209500Y-15691000D01*
X12209500Y-15762429D01*
X12195214Y-15819571D01*
X12180928Y-15848143D01*
X12166643Y-15862429D01*
X12138071Y-15876714D01*
X12109500Y-15876714D01*
X12080928Y-15862429D01*
X12066643Y-15848143D01*
X12052357Y-15819571D01*
X12038071Y-15762429D01*
X12038071Y-15691000D01*
X12052357Y-15633857D01*
X12066643Y-15605286D01*
X12080928Y-15591000D01*
X12109500Y-15576714D01*
X12380928Y-15705286D02*
X12352357Y-15691000D01*
X12338071Y-15676714D01*
X12323786Y-15648143D01*
X12323786Y-15633857D01*
X12338071Y-15605286D01*
X12352357Y-15591000D01*
X12380928Y-15576714D01*
X12438071Y-15576714D01*
X12466643Y-15591000D01*
X12480928Y-15605286D01*
X12495214Y-15633857D01*
X12495214Y-15648143D01*
X12480928Y-15676714D01*
X12466643Y-15691000D01*
X12438071Y-15705286D01*
X12380928Y-15705286D01*
X12352357Y-15719571D01*
X12338071Y-15733857D01*
X12323786Y-15762429D01*
X12323786Y-15819571D01*
X12338071Y-15848143D01*
X12352357Y-15862429D01*
X12380928Y-15876714D01*
X12438071Y-15876714D01*
X12466643Y-15862429D01*
X12480928Y-15848143D01*
X12495214Y-15819571D01*
X12495214Y-15762429D01*
X12480928Y-15733857D01*
X12466643Y-15719571D01*
X12438071Y-15705286D01*
X12852357Y-15876714D02*
X12852357Y-15576714D01*
X12980928Y-15876714D02*
X12980928Y-15719571D01*
X12966643Y-15691000D01*
X12938071Y-15676714D01*
X12895214Y-15676714D01*
X12866643Y-15691000D01*
X12852357Y-15705286D01*
X13166643Y-15876714D02*
X13138071Y-15862429D01*
X13123786Y-15848143D01*
X13109500Y-15819571D01*
X13109500Y-15733857D01*
X13123786Y-15705286D01*
X13138071Y-15691000D01*
X13166643Y-15676714D01*
X13209500Y-15676714D01*
X13238071Y-15691000D01*
X13252357Y-15705286D01*
X13266643Y-15733857D01*
X13266643Y-15819571D01*
X13252357Y-15848143D01*
X13238071Y-15862429D01*
X13209500Y-15876714D01*
X13166643Y-15876714D01*
X13438071Y-15876714D02*
X13409500Y-15862429D01*
X13395214Y-15833857D01*
X13395214Y-15576714D01*
X13666643Y-15862429D02*
X13638071Y-15876714D01*
X13580928Y-15876714D01*
X13552357Y-15862429D01*
X13538071Y-15833857D01*
X13538071Y-15719571D01*
X13552357Y-15691000D01*
X13580928Y-15676714D01*
X13638071Y-15676714D01*
X13666643Y-15691000D01*
X13680928Y-15719571D01*
X13680928Y-15748143D01*
X13538071Y-15776714D01*
X13795214Y-15862429D02*
X13823786Y-15876714D01*
X13880928Y-15876714D01*
X13909500Y-15862429D01*
X13923786Y-15833857D01*
X13923786Y-15819571D01*
X13909500Y-15791000D01*
X13880928Y-15776714D01*
X13838071Y-15776714D01*
X13809500Y-15762429D01*
X13795214Y-15733857D01*
X13795214Y-15719571D01*
X13809500Y-15691000D01*
X13838071Y-15676714D01*
X13880928Y-15676714D01*
X13909500Y-15691000D01*
X14023786Y-15991000D02*
X14038071Y-15976714D01*
X14066643Y-15933857D01*
X14080928Y-15905286D01*
X14095214Y-15862429D01*
X14109500Y-15791000D01*
X14109500Y-15733857D01*
X14095214Y-15662429D01*
X14080928Y-15619571D01*
X14066643Y-15591000D01*
X14038071Y-15548143D01*
X14023786Y-15533857D01*
M02*
